%TF.GenerationSoftware,KiCad,Pcbnew,9.0.6*%
%TF.CreationDate,2025-12-31T01:01:46-06:00*%
%TF.ProjectId,fudgeboard,66756467-6562-46f6-9172-642e6b696361,rev?*%
%TF.SameCoordinates,Original*%
%TF.FileFunction,Legend,Top*%
%TF.FilePolarity,Positive*%
%FSLAX46Y46*%
G04 Gerber Fmt 4.6, Leading zero omitted, Abs format (unit mm)*
G04 Created by KiCad (PCBNEW 9.0.6) date 2025-12-31 01:01:46*
%MOMM*%
%LPD*%
G01*
G04 APERTURE LIST*
%ADD10C,0.150000*%
%ADD11C,0.000000*%
%ADD12C,0.120000*%
G04 APERTURE END LIST*
D10*
X143642857Y-108531009D02*
X143785714Y-108578628D01*
X143785714Y-108578628D02*
X143833333Y-108626247D01*
X143833333Y-108626247D02*
X143880952Y-108721485D01*
X143880952Y-108721485D02*
X143880952Y-108864342D01*
X143880952Y-108864342D02*
X143833333Y-108959580D01*
X143833333Y-108959580D02*
X143785714Y-109007200D01*
X143785714Y-109007200D02*
X143690476Y-109054819D01*
X143690476Y-109054819D02*
X143309524Y-109054819D01*
X143309524Y-109054819D02*
X143309524Y-108054819D01*
X143309524Y-108054819D02*
X143642857Y-108054819D01*
X143642857Y-108054819D02*
X143738095Y-108102438D01*
X143738095Y-108102438D02*
X143785714Y-108150057D01*
X143785714Y-108150057D02*
X143833333Y-108245295D01*
X143833333Y-108245295D02*
X143833333Y-108340533D01*
X143833333Y-108340533D02*
X143785714Y-108435771D01*
X143785714Y-108435771D02*
X143738095Y-108483390D01*
X143738095Y-108483390D02*
X143642857Y-108531009D01*
X143642857Y-108531009D02*
X143309524Y-108531009D01*
X144500000Y-108054819D02*
X144690476Y-108054819D01*
X144690476Y-108054819D02*
X144785714Y-108102438D01*
X144785714Y-108102438D02*
X144880952Y-108197676D01*
X144880952Y-108197676D02*
X144928571Y-108388152D01*
X144928571Y-108388152D02*
X144928571Y-108721485D01*
X144928571Y-108721485D02*
X144880952Y-108911961D01*
X144880952Y-108911961D02*
X144785714Y-109007200D01*
X144785714Y-109007200D02*
X144690476Y-109054819D01*
X144690476Y-109054819D02*
X144500000Y-109054819D01*
X144500000Y-109054819D02*
X144404762Y-109007200D01*
X144404762Y-109007200D02*
X144309524Y-108911961D01*
X144309524Y-108911961D02*
X144261905Y-108721485D01*
X144261905Y-108721485D02*
X144261905Y-108388152D01*
X144261905Y-108388152D02*
X144309524Y-108197676D01*
X144309524Y-108197676D02*
X144404762Y-108102438D01*
X144404762Y-108102438D02*
X144500000Y-108054819D01*
X145547619Y-108054819D02*
X145738095Y-108054819D01*
X145738095Y-108054819D02*
X145833333Y-108102438D01*
X145833333Y-108102438D02*
X145928571Y-108197676D01*
X145928571Y-108197676D02*
X145976190Y-108388152D01*
X145976190Y-108388152D02*
X145976190Y-108721485D01*
X145976190Y-108721485D02*
X145928571Y-108911961D01*
X145928571Y-108911961D02*
X145833333Y-109007200D01*
X145833333Y-109007200D02*
X145738095Y-109054819D01*
X145738095Y-109054819D02*
X145547619Y-109054819D01*
X145547619Y-109054819D02*
X145452381Y-109007200D01*
X145452381Y-109007200D02*
X145357143Y-108911961D01*
X145357143Y-108911961D02*
X145309524Y-108721485D01*
X145309524Y-108721485D02*
X145309524Y-108388152D01*
X145309524Y-108388152D02*
X145357143Y-108197676D01*
X145357143Y-108197676D02*
X145452381Y-108102438D01*
X145452381Y-108102438D02*
X145547619Y-108054819D01*
X146261905Y-108054819D02*
X146833333Y-108054819D01*
X146547619Y-109054819D02*
X146547619Y-108054819D01*
X148309523Y-82754819D02*
X147976190Y-82278628D01*
X147738095Y-82754819D02*
X147738095Y-81754819D01*
X147738095Y-81754819D02*
X148119047Y-81754819D01*
X148119047Y-81754819D02*
X148214285Y-81802438D01*
X148214285Y-81802438D02*
X148261904Y-81850057D01*
X148261904Y-81850057D02*
X148309523Y-81945295D01*
X148309523Y-81945295D02*
X148309523Y-82088152D01*
X148309523Y-82088152D02*
X148261904Y-82183390D01*
X148261904Y-82183390D02*
X148214285Y-82231009D01*
X148214285Y-82231009D02*
X148119047Y-82278628D01*
X148119047Y-82278628D02*
X147738095Y-82278628D01*
X150309523Y-82659580D02*
X150261904Y-82707200D01*
X150261904Y-82707200D02*
X150119047Y-82754819D01*
X150119047Y-82754819D02*
X150023809Y-82754819D01*
X150023809Y-82754819D02*
X149880952Y-82707200D01*
X149880952Y-82707200D02*
X149785714Y-82611961D01*
X149785714Y-82611961D02*
X149738095Y-82516723D01*
X149738095Y-82516723D02*
X149690476Y-82326247D01*
X149690476Y-82326247D02*
X149690476Y-82183390D01*
X149690476Y-82183390D02*
X149738095Y-81992914D01*
X149738095Y-81992914D02*
X149785714Y-81897676D01*
X149785714Y-81897676D02*
X149880952Y-81802438D01*
X149880952Y-81802438D02*
X150023809Y-81754819D01*
X150023809Y-81754819D02*
X150119047Y-81754819D01*
X150119047Y-81754819D02*
X150261904Y-81802438D01*
X150261904Y-81802438D02*
X150309523Y-81850057D01*
X150174819Y-105822857D02*
X150174819Y-106299047D01*
X150174819Y-106299047D02*
X149174819Y-106299047D01*
X149651009Y-105489523D02*
X149651009Y-105156190D01*
X150174819Y-105013333D02*
X150174819Y-105489523D01*
X150174819Y-105489523D02*
X149174819Y-105489523D01*
X149174819Y-105489523D02*
X149174819Y-105013333D01*
X150174819Y-104584761D02*
X149174819Y-104584761D01*
X149174819Y-104584761D02*
X149174819Y-104346666D01*
X149174819Y-104346666D02*
X149222438Y-104203809D01*
X149222438Y-104203809D02*
X149317676Y-104108571D01*
X149317676Y-104108571D02*
X149412914Y-104060952D01*
X149412914Y-104060952D02*
X149603390Y-104013333D01*
X149603390Y-104013333D02*
X149746247Y-104013333D01*
X149746247Y-104013333D02*
X149936723Y-104060952D01*
X149936723Y-104060952D02*
X150031961Y-104108571D01*
X150031961Y-104108571D02*
X150127200Y-104203809D01*
X150127200Y-104203809D02*
X150174819Y-104346666D01*
X150174819Y-104346666D02*
X150174819Y-104584761D01*
X140452380Y-109054819D02*
X140119047Y-108578628D01*
X139880952Y-109054819D02*
X139880952Y-108054819D01*
X139880952Y-108054819D02*
X140261904Y-108054819D01*
X140261904Y-108054819D02*
X140357142Y-108102438D01*
X140357142Y-108102438D02*
X140404761Y-108150057D01*
X140404761Y-108150057D02*
X140452380Y-108245295D01*
X140452380Y-108245295D02*
X140452380Y-108388152D01*
X140452380Y-108388152D02*
X140404761Y-108483390D01*
X140404761Y-108483390D02*
X140357142Y-108531009D01*
X140357142Y-108531009D02*
X140261904Y-108578628D01*
X140261904Y-108578628D02*
X139880952Y-108578628D01*
X140833333Y-109007200D02*
X140976190Y-109054819D01*
X140976190Y-109054819D02*
X141214285Y-109054819D01*
X141214285Y-109054819D02*
X141309523Y-109007200D01*
X141309523Y-109007200D02*
X141357142Y-108959580D01*
X141357142Y-108959580D02*
X141404761Y-108864342D01*
X141404761Y-108864342D02*
X141404761Y-108769104D01*
X141404761Y-108769104D02*
X141357142Y-108673866D01*
X141357142Y-108673866D02*
X141309523Y-108626247D01*
X141309523Y-108626247D02*
X141214285Y-108578628D01*
X141214285Y-108578628D02*
X141023809Y-108531009D01*
X141023809Y-108531009D02*
X140928571Y-108483390D01*
X140928571Y-108483390D02*
X140880952Y-108435771D01*
X140880952Y-108435771D02*
X140833333Y-108340533D01*
X140833333Y-108340533D02*
X140833333Y-108245295D01*
X140833333Y-108245295D02*
X140880952Y-108150057D01*
X140880952Y-108150057D02*
X140928571Y-108102438D01*
X140928571Y-108102438D02*
X141023809Y-108054819D01*
X141023809Y-108054819D02*
X141261904Y-108054819D01*
X141261904Y-108054819D02*
X141404761Y-108102438D01*
X141690476Y-108054819D02*
X142261904Y-108054819D01*
X141976190Y-109054819D02*
X141976190Y-108054819D01*
D11*
%TO.C,G\u002A\u002A\u002A*%
G36*
X149714036Y-98906293D02*
G01*
X149915925Y-98925201D01*
X149945283Y-98928813D01*
X150140665Y-98955075D01*
X150316140Y-98982128D01*
X150474694Y-99010654D01*
X150619311Y-99041337D01*
X150752978Y-99074857D01*
X150878680Y-99111898D01*
X150999403Y-99153142D01*
X151104596Y-99193740D01*
X151258534Y-99260695D01*
X151394175Y-99329853D01*
X151516101Y-99404169D01*
X151628896Y-99486596D01*
X151737143Y-99580089D01*
X151802838Y-99643755D01*
X151911872Y-99757167D01*
X152003907Y-99861271D01*
X152081212Y-99959126D01*
X152146053Y-100053791D01*
X152200697Y-100148324D01*
X152244909Y-100240063D01*
X152298015Y-100370587D01*
X152336338Y-100488971D01*
X152360738Y-100599785D01*
X152372078Y-100707601D01*
X152371221Y-100816989D01*
X152365733Y-100880652D01*
X152339817Y-101036956D01*
X152297433Y-101181396D01*
X152237196Y-101316761D01*
X152157721Y-101445839D01*
X152057625Y-101571419D01*
X151984158Y-101649189D01*
X151892593Y-101730054D01*
X151781321Y-101810310D01*
X151653507Y-101888413D01*
X151512320Y-101962817D01*
X151360925Y-102031980D01*
X151202489Y-102094356D01*
X151040179Y-102148402D01*
X150877161Y-102192574D01*
X150862976Y-102195916D01*
X150753818Y-102217104D01*
X150627132Y-102234539D01*
X150488021Y-102247919D01*
X150341588Y-102256939D01*
X150192937Y-102261297D01*
X150047172Y-102260692D01*
X149909394Y-102254819D01*
X149891256Y-102253575D01*
X149782260Y-102244750D01*
X149668065Y-102233762D01*
X149553442Y-102221194D01*
X149443160Y-102207630D01*
X149341988Y-102193652D01*
X149254697Y-102179842D01*
X149193014Y-102168264D01*
X149050234Y-102135358D01*
X148923064Y-102098871D01*
X148804239Y-102056158D01*
X148686494Y-102004572D01*
X148562564Y-101941470D01*
X148547043Y-101933059D01*
X148430979Y-101867776D01*
X148331193Y-101806906D01*
X148242464Y-101746996D01*
X148159569Y-101684592D01*
X148109468Y-101643683D01*
X147988341Y-101533566D01*
X147887525Y-101422450D01*
X147804600Y-101306622D01*
X147737145Y-101182366D01*
X147682740Y-101045965D01*
X147650571Y-100939200D01*
X147628934Y-100826159D01*
X147619714Y-100699804D01*
X147619979Y-100687517D01*
X148084388Y-100687517D01*
X148089260Y-100763934D01*
X148099386Y-100823208D01*
X148140712Y-100942225D01*
X148202471Y-101056875D01*
X148285038Y-101167530D01*
X148388791Y-101274564D01*
X148514103Y-101378352D01*
X148661352Y-101479265D01*
X148830912Y-101577679D01*
X148888595Y-101608010D01*
X149003505Y-101662974D01*
X149120340Y-101710114D01*
X149242278Y-101750201D01*
X149372496Y-101784002D01*
X149514169Y-101812289D01*
X149670474Y-101835828D01*
X149844589Y-101855391D01*
X149948489Y-101864684D01*
X150017178Y-101868707D01*
X150100853Y-101871002D01*
X150194715Y-101871673D01*
X150293966Y-101870825D01*
X150393808Y-101868563D01*
X150489443Y-101864993D01*
X150576072Y-101860219D01*
X150648897Y-101854347D01*
X150698242Y-101848277D01*
X150855358Y-101816860D01*
X151015203Y-101772520D01*
X151172288Y-101717317D01*
X151321124Y-101653307D01*
X151456220Y-101582550D01*
X151530811Y-101536103D01*
X151645949Y-101449370D01*
X151739820Y-101356852D01*
X151813757Y-101256420D01*
X151869092Y-101145947D01*
X151907158Y-101023304D01*
X151927564Y-100902443D01*
X151932231Y-100788553D01*
X151919737Y-100675519D01*
X151889454Y-100562057D01*
X151840756Y-100446884D01*
X151773016Y-100328716D01*
X151685605Y-100206270D01*
X151577897Y-100078264D01*
X151467906Y-99962097D01*
X151368126Y-99872341D01*
X151254177Y-99788438D01*
X151134780Y-99716665D01*
X151106684Y-99702141D01*
X150940312Y-99627533D01*
X150755229Y-99560198D01*
X150554708Y-99501024D01*
X150342025Y-99450901D01*
X150120452Y-99410720D01*
X149948489Y-99387421D01*
X149799161Y-99374308D01*
X149654326Y-99370812D01*
X149504456Y-99376910D01*
X149399053Y-99386087D01*
X149276918Y-99399301D01*
X149174229Y-99412150D01*
X149087567Y-99425376D01*
X149013511Y-99439722D01*
X148948640Y-99455929D01*
X148889536Y-99474741D01*
X148832777Y-99496900D01*
X148780936Y-99520289D01*
X148744100Y-99538580D01*
X148712440Y-99556831D01*
X148682120Y-99578112D01*
X148649300Y-99605489D01*
X148610142Y-99642032D01*
X148560806Y-99690809D01*
X148534835Y-99716988D01*
X148411667Y-99850116D01*
X148309505Y-99979571D01*
X148227139Y-100107227D01*
X148163364Y-100234955D01*
X148116973Y-100364628D01*
X148116689Y-100365607D01*
X148101368Y-100434713D01*
X148090703Y-100516003D01*
X148084956Y-100602572D01*
X148084388Y-100687517D01*
X147619979Y-100687517D01*
X147622608Y-100565855D01*
X147637312Y-100430029D01*
X147663521Y-100298047D01*
X147689390Y-100208478D01*
X147756031Y-100042484D01*
X147844947Y-99877458D01*
X147955521Y-99714354D01*
X148087133Y-99554129D01*
X148169753Y-99466060D01*
X148279298Y-99362603D01*
X148387684Y-99278064D01*
X148500009Y-99209337D01*
X148621371Y-99153318D01*
X148756866Y-99106904D01*
X148762015Y-99105389D01*
X148819064Y-99087958D01*
X148859595Y-99073118D01*
X148889333Y-99058043D01*
X148914004Y-99039904D01*
X148935560Y-99019672D01*
X148958290Y-98998236D01*
X148980554Y-98981565D01*
X149006311Y-98968263D01*
X149039523Y-98956933D01*
X149084152Y-98946177D01*
X149144159Y-98934599D01*
X149208812Y-98923307D01*
X149359382Y-98905338D01*
X149528156Y-98899669D01*
X149714036Y-98906293D01*
G37*
G36*
X148455577Y-100608185D02*
G01*
X148534483Y-100614761D01*
X148629936Y-100625210D01*
X148738997Y-100639172D01*
X148858724Y-100656285D01*
X148986179Y-100676188D01*
X149038485Y-100684818D01*
X149129957Y-100699726D01*
X149227683Y-100714935D01*
X149324912Y-100729443D01*
X149414889Y-100742248D01*
X149490863Y-100752349D01*
X149507795Y-100754446D01*
X149679296Y-100778648D01*
X149854218Y-100809712D01*
X150028899Y-100846663D01*
X150199675Y-100888529D01*
X150362881Y-100934335D01*
X150514855Y-100983107D01*
X150651933Y-101033873D01*
X150770450Y-101085658D01*
X150789814Y-101095155D01*
X150838270Y-101121300D01*
X150890277Y-101152458D01*
X150940318Y-101184996D01*
X150982876Y-101215279D01*
X151012434Y-101239674D01*
X151018174Y-101245562D01*
X151038272Y-101283091D01*
X151039710Y-101323590D01*
X151025091Y-101361545D01*
X150997017Y-101391443D01*
X150958093Y-101407773D01*
X150940871Y-101409274D01*
X150910284Y-101404377D01*
X150874477Y-101388064D01*
X150828148Y-101357895D01*
X150826356Y-101356619D01*
X150790868Y-101331895D01*
X150762720Y-101313400D01*
X150746879Y-101304367D01*
X150745436Y-101303965D01*
X150740305Y-101313879D01*
X150738305Y-101336227D01*
X150732143Y-101384521D01*
X150715642Y-101442649D01*
X150691776Y-101501820D01*
X150666302Y-101548949D01*
X150618259Y-101605777D01*
X150553704Y-101655163D01*
X150478603Y-101693986D01*
X150398927Y-101719124D01*
X150324883Y-101727489D01*
X150291774Y-101725133D01*
X150261807Y-101716043D01*
X150227192Y-101697184D01*
X150198571Y-101678292D01*
X150129442Y-101617549D01*
X150074279Y-101541204D01*
X150034722Y-101452947D01*
X150012411Y-101356468D01*
X150009889Y-101282088D01*
X150202065Y-101282088D01*
X150204373Y-101321611D01*
X150212605Y-101357716D01*
X150222601Y-101386402D01*
X150242287Y-101429205D01*
X150266231Y-101468914D01*
X150281080Y-101487795D01*
X150306201Y-101509447D01*
X150331950Y-101517580D01*
X150363217Y-101511863D01*
X150404893Y-101491965D01*
X150429246Y-101477753D01*
X150473535Y-101442472D01*
X150502066Y-101403230D01*
X150513146Y-101376958D01*
X150517813Y-101351774D01*
X150516675Y-101319518D01*
X150511352Y-101278781D01*
X150504131Y-101237430D01*
X150496485Y-101205118D01*
X150490000Y-101188478D01*
X150489673Y-101188114D01*
X150475599Y-101180654D01*
X150444550Y-101167589D01*
X150401187Y-101150793D01*
X150352790Y-101133074D01*
X150295760Y-101112573D01*
X150256933Y-101100817D01*
X150232489Y-101100291D01*
X150218610Y-101113482D01*
X150211477Y-101142877D01*
X150207270Y-101190960D01*
X150204581Y-101229562D01*
X150202065Y-101282088D01*
X150009889Y-101282088D01*
X150008986Y-101255458D01*
X150009200Y-101252293D01*
X150014195Y-101199648D01*
X150021215Y-101147940D01*
X150028813Y-101107679D01*
X150029452Y-101105071D01*
X150035974Y-101069197D01*
X150035369Y-101045254D01*
X150032967Y-101040466D01*
X150014576Y-101031194D01*
X149977553Y-101019423D01*
X149925914Y-101006007D01*
X149863672Y-100991801D01*
X149794843Y-100977658D01*
X149723442Y-100964434D01*
X149653482Y-100952982D01*
X149588979Y-100944158D01*
X149570752Y-100942093D01*
X149515047Y-100935466D01*
X149441592Y-100925690D01*
X149355204Y-100913463D01*
X149260698Y-100899484D01*
X149162892Y-100884451D01*
X149066602Y-100869064D01*
X149061378Y-100868210D01*
X148899519Y-100842233D01*
X148757602Y-100820533D01*
X148636088Y-100803171D01*
X148535440Y-100790209D01*
X148456121Y-100781709D01*
X148398594Y-100777734D01*
X148382989Y-100777421D01*
X148335416Y-100768654D01*
X148299751Y-100744616D01*
X148279974Y-100708704D01*
X148277286Y-100687200D01*
X148287432Y-100649826D01*
X148316407Y-100623018D01*
X148362020Y-100608276D01*
X148396157Y-100605845D01*
X148455577Y-100608185D01*
G37*
G36*
X150037879Y-99559878D02*
G01*
X150080168Y-99579699D01*
X150130513Y-99609241D01*
X150184488Y-99645647D01*
X150237669Y-99686058D01*
X150285630Y-99727617D01*
X150298971Y-99740510D01*
X150380457Y-99821766D01*
X150463520Y-99795752D01*
X150537410Y-99775439D01*
X150618039Y-99757958D01*
X150697530Y-99744706D01*
X150768003Y-99737078D01*
X150801929Y-99735781D01*
X150840072Y-99737537D01*
X150863932Y-99744823D01*
X150881983Y-99760671D01*
X150886280Y-99765941D01*
X150906435Y-99800986D01*
X150905885Y-99832812D01*
X150886986Y-99864976D01*
X150870281Y-99881646D01*
X150848127Y-99891970D01*
X150813695Y-99898421D01*
X150786828Y-99901233D01*
X150716000Y-99909183D01*
X150647373Y-99919642D01*
X150584602Y-99931762D01*
X150531342Y-99944694D01*
X150491246Y-99957588D01*
X150467970Y-99969596D01*
X150463586Y-99976334D01*
X150467368Y-99993203D01*
X150475960Y-100018339D01*
X150485957Y-100052176D01*
X150496837Y-100101159D01*
X150507257Y-100157650D01*
X150515872Y-100214011D01*
X150521338Y-100262603D01*
X150522508Y-100282923D01*
X150514944Y-100329068D01*
X150492781Y-100363823D01*
X150460667Y-100384828D01*
X150423246Y-100389725D01*
X150385167Y-100376152D01*
X150367351Y-100361722D01*
X150348189Y-100333212D01*
X150336358Y-100290775D01*
X150333041Y-100267288D01*
X150326087Y-100214705D01*
X150317127Y-100157906D01*
X150307545Y-100104902D01*
X150298730Y-100063706D01*
X150295980Y-100053202D01*
X150290975Y-100043612D01*
X150280467Y-100042154D01*
X150259832Y-100049866D01*
X150224445Y-100067788D01*
X150219557Y-100070372D01*
X150147443Y-100117692D01*
X150075308Y-100181911D01*
X150020897Y-100242842D01*
X149989999Y-100266864D01*
X149953550Y-100275033D01*
X149919052Y-100267014D01*
X149897629Y-100248331D01*
X149882680Y-100218378D01*
X149881808Y-100187569D01*
X149896131Y-100151894D01*
X149926764Y-100107345D01*
X149942299Y-100088000D01*
X150006804Y-100018736D01*
X150076266Y-99963905D01*
X150153018Y-99919571D01*
X150203018Y-99894189D01*
X150164465Y-99854016D01*
X150136978Y-99829702D01*
X150096684Y-99799267D01*
X150050659Y-99767941D01*
X150032355Y-99756408D01*
X149976643Y-99719278D01*
X149940480Y-99687283D01*
X149921908Y-99657710D01*
X149918969Y-99627844D01*
X149924531Y-99606946D01*
X149948847Y-99572585D01*
X149987334Y-99554636D01*
X150008071Y-99552636D01*
X150037879Y-99559878D01*
G37*
G36*
X148894140Y-99534833D02*
G01*
X148926219Y-99544588D01*
X148969947Y-99564163D01*
X149028785Y-99594349D01*
X149051869Y-99606647D01*
X149175844Y-99673047D01*
X149272501Y-99636921D01*
X149329508Y-99617055D01*
X149391311Y-99597761D01*
X149445831Y-99582780D01*
X149452761Y-99581106D01*
X149496309Y-99571364D01*
X149524181Y-99567336D01*
X149542860Y-99568987D01*
X149558829Y-99576285D01*
X149565516Y-99580519D01*
X149597909Y-99613198D01*
X149610792Y-99653419D01*
X149603996Y-99692639D01*
X149590623Y-99715474D01*
X149569249Y-99733632D01*
X149535873Y-99749141D01*
X149486495Y-99764027D01*
X149441756Y-99774824D01*
X149352823Y-99795071D01*
X149437816Y-99885419D01*
X149490027Y-99943799D01*
X149536190Y-100000933D01*
X149573975Y-100053484D01*
X149601052Y-100098115D01*
X149615090Y-100131487D01*
X149616538Y-100141444D01*
X149606244Y-100173700D01*
X149579933Y-100199581D01*
X149544458Y-100213684D01*
X149523839Y-100214495D01*
X149496315Y-100207264D01*
X149471597Y-100188357D01*
X149447643Y-100159305D01*
X149394952Y-100089501D01*
X149351609Y-100035086D01*
X149314390Y-99992315D01*
X149280074Y-99957442D01*
X149253244Y-99933309D01*
X149218614Y-99905425D01*
X149194225Y-99891176D01*
X149174347Y-99887799D01*
X149162827Y-99889682D01*
X149133212Y-99904902D01*
X149095792Y-99935451D01*
X149054533Y-99977020D01*
X149013402Y-100025304D01*
X148976366Y-100075996D01*
X148948824Y-100122008D01*
X148913963Y-100179953D01*
X148880734Y-100215648D01*
X148848112Y-100229584D01*
X148815077Y-100222249D01*
X148786139Y-100199889D01*
X148766326Y-100173452D01*
X148759651Y-100143561D01*
X148766152Y-100105230D01*
X148785865Y-100053473D01*
X148787245Y-100050337D01*
X148846791Y-99941398D01*
X148923733Y-99846083D01*
X148944225Y-99825627D01*
X148999628Y-99772390D01*
X148913138Y-99724647D01*
X148854818Y-99688312D01*
X148818239Y-99654963D01*
X148802693Y-99623109D01*
X148807470Y-99591257D01*
X148831861Y-99557916D01*
X148833205Y-99556559D01*
X148851092Y-99541611D01*
X148870251Y-99534105D01*
X148894140Y-99534833D01*
G37*
G36*
X141167240Y-76314427D02*
G01*
X141194350Y-76326584D01*
X141210221Y-76347534D01*
X141213743Y-76372831D01*
X141203807Y-76398028D01*
X141191322Y-76410938D01*
X141174425Y-76423375D01*
X141162317Y-76426752D01*
X141146535Y-76422350D01*
X141138060Y-76419002D01*
X141115708Y-76405563D01*
X141105793Y-76385390D01*
X141104331Y-76367749D01*
X141111479Y-76341072D01*
X141130156Y-76321701D01*
X141155720Y-76313572D01*
X141167240Y-76314427D01*
G37*
G36*
X142040646Y-76452073D02*
G01*
X142060988Y-76468902D01*
X142075551Y-76489828D01*
X142079186Y-76504004D01*
X142073346Y-76521622D01*
X142059245Y-76541030D01*
X142042008Y-76556496D01*
X142027036Y-76562306D01*
X142010973Y-76558894D01*
X141997115Y-76554127D01*
X141979916Y-76540026D01*
X141966479Y-76517063D01*
X141961515Y-76494669D01*
X141968125Y-76480688D01*
X141984017Y-76464466D01*
X142003289Y-76450972D01*
X142020037Y-76445172D01*
X142020351Y-76445168D01*
X142040646Y-76452073D01*
G37*
G36*
X141128686Y-76843289D02*
G01*
X141176500Y-76844801D01*
X141231345Y-76847351D01*
X141290796Y-76850777D01*
X141352431Y-76854915D01*
X141413825Y-76859602D01*
X141472555Y-76864676D01*
X141526198Y-76869971D01*
X141572329Y-76875327D01*
X141608525Y-76880579D01*
X141632362Y-76885564D01*
X141633067Y-76885768D01*
X141658328Y-76892605D01*
X141694133Y-76901530D01*
X141734593Y-76911097D01*
X141755592Y-76915862D01*
X141876474Y-76947203D01*
X141998217Y-76986978D01*
X142116895Y-77033580D01*
X142228580Y-77085401D01*
X142329345Y-77140833D01*
X142373427Y-77168749D01*
X142427269Y-77207826D01*
X142479260Y-77251441D01*
X142526485Y-77296719D01*
X142566031Y-77340787D01*
X142594983Y-77380770D01*
X142603137Y-77395360D01*
X142619810Y-77441336D01*
X142625528Y-77487522D01*
X142619951Y-77528968D01*
X142613449Y-77545175D01*
X142594797Y-77571153D01*
X142566104Y-77599883D01*
X142532465Y-77626794D01*
X142500431Y-77646581D01*
X142439556Y-77671018D01*
X142364410Y-77689930D01*
X142276671Y-77703111D01*
X142178015Y-77710354D01*
X142070119Y-77711454D01*
X141995136Y-77708739D01*
X141838702Y-77696430D01*
X141678209Y-77676423D01*
X141517167Y-77649442D01*
X141359088Y-77616215D01*
X141207484Y-77577466D01*
X141065867Y-77533923D01*
X140957114Y-77494140D01*
X140855082Y-77449620D01*
X140765041Y-77402241D01*
X140687558Y-77352609D01*
X140623201Y-77301332D01*
X140572536Y-77249018D01*
X140536128Y-77196276D01*
X140514545Y-77143712D01*
X140510403Y-77109079D01*
X140585134Y-77109079D01*
X140590260Y-77130617D01*
X140603104Y-77156381D01*
X140609822Y-77167697D01*
X140649370Y-77218954D01*
X140704600Y-77269287D01*
X140774392Y-77318260D01*
X140857624Y-77365438D01*
X140953175Y-77410385D01*
X141059924Y-77452665D01*
X141176751Y-77491842D01*
X141302534Y-77527482D01*
X141436152Y-77559147D01*
X141576485Y-77586402D01*
X141722412Y-77608812D01*
X141755592Y-77613103D01*
X141816854Y-77620675D01*
X141866228Y-77626408D01*
X141907755Y-77630526D01*
X141945475Y-77633249D01*
X141983428Y-77634800D01*
X142025652Y-77635400D01*
X142076188Y-77635271D01*
X142139076Y-77634635D01*
X142146426Y-77634549D01*
X142208945Y-77633564D01*
X142257817Y-77632083D01*
X142296206Y-77629844D01*
X142327273Y-77626584D01*
X142354182Y-77622040D01*
X142380095Y-77615950D01*
X142384495Y-77614778D01*
X142451117Y-77593312D01*
X142501381Y-77569024D01*
X142535377Y-77541476D01*
X142553198Y-77510230D01*
X142554933Y-77474847D01*
X142540676Y-77434889D01*
X142510516Y-77389918D01*
X142464545Y-77339496D01*
X142445632Y-77321316D01*
X142360605Y-77251217D01*
X142260781Y-77185733D01*
X142147747Y-77125718D01*
X142023090Y-77072024D01*
X141904589Y-77030539D01*
X141860078Y-77017168D01*
X141811927Y-77003825D01*
X141763031Y-76991184D01*
X141716285Y-76979921D01*
X141674586Y-76970709D01*
X141640829Y-76964225D01*
X141617909Y-76961143D01*
X141609165Y-76961669D01*
X141598394Y-76962324D01*
X141574728Y-76960691D01*
X141541877Y-76957101D01*
X141510705Y-76952929D01*
X141464496Y-76947824D01*
X141401890Y-76943469D01*
X141322783Y-76939860D01*
X141227070Y-76936992D01*
X141136966Y-76935202D01*
X141045566Y-76934008D01*
X140968980Y-76933774D01*
X140905228Y-76934696D01*
X140852331Y-76936972D01*
X140808310Y-76940797D01*
X140771185Y-76946368D01*
X140738978Y-76953882D01*
X140709710Y-76963534D01*
X140681400Y-76975521D01*
X140668528Y-76981690D01*
X140628415Y-77005894D01*
X140602674Y-77033083D01*
X140588867Y-77066305D01*
X140585784Y-77085092D01*
X140585134Y-77109079D01*
X140510403Y-77109079D01*
X140508353Y-77091934D01*
X140518118Y-77041550D01*
X140523318Y-77028804D01*
X140554722Y-76979509D01*
X140600360Y-76938663D01*
X140660312Y-76906230D01*
X140734658Y-76882178D01*
X140823479Y-76866472D01*
X140919292Y-76859319D01*
X140963463Y-76857245D01*
X141001999Y-76854433D01*
X141031596Y-76851198D01*
X141048953Y-76847857D01*
X141051661Y-76846619D01*
X141063842Y-76844035D01*
X141090325Y-76842980D01*
X141128686Y-76843289D01*
G37*
G36*
X139584005Y-77068475D02*
G01*
X139612795Y-77084658D01*
X139615204Y-77086804D01*
X139626105Y-77098631D01*
X139631179Y-77111634D01*
X139631559Y-77131334D01*
X139629270Y-77155393D01*
X139625391Y-77187061D01*
X139621361Y-77215314D01*
X139619021Y-77228937D01*
X139617531Y-77245159D01*
X139625104Y-77251232D01*
X139639696Y-77252051D01*
X139657529Y-77248783D01*
X139668435Y-77237092D01*
X139673854Y-77214148D01*
X139675233Y-77182328D01*
X139681166Y-77150688D01*
X139695978Y-77129796D01*
X139720945Y-77112562D01*
X139745462Y-77112004D01*
X139770657Y-77128135D01*
X139773166Y-77130575D01*
X139785047Y-77144061D01*
X139790646Y-77157518D01*
X139791239Y-77176785D01*
X139788769Y-77202018D01*
X139785979Y-77229765D01*
X139786440Y-77244757D01*
X139791065Y-77250888D01*
X139800498Y-77252051D01*
X139812727Y-77248489D01*
X139819959Y-77235048D01*
X139823439Y-77218250D01*
X139834776Y-77184473D01*
X139854019Y-77161577D01*
X139877839Y-77149531D01*
X139902905Y-77148308D01*
X139925885Y-77157879D01*
X139943448Y-77178215D01*
X139952265Y-77209288D01*
X139952713Y-77219362D01*
X139953799Y-77240538D01*
X139959512Y-77249801D01*
X139973541Y-77252023D01*
X139977452Y-77252051D01*
X139999277Y-77258300D01*
X140018208Y-77273477D01*
X140028033Y-77292224D01*
X140028359Y-77295947D01*
X140021047Y-77310898D01*
X140002998Y-77324940D01*
X139980038Y-77334300D01*
X139966301Y-77336102D01*
X139952478Y-77336893D01*
X139942415Y-77340879D01*
X139935312Y-77350475D01*
X139930371Y-77368096D01*
X139926790Y-77396159D01*
X139923771Y-77437079D01*
X139921798Y-77470522D01*
X139919163Y-77512576D01*
X139916352Y-77541444D01*
X139912501Y-77560737D01*
X139906747Y-77574063D01*
X139898226Y-77585035D01*
X139893129Y-77590294D01*
X139868818Y-77608673D01*
X139844737Y-77612033D01*
X139818398Y-77602672D01*
X139799231Y-77588191D01*
X139788683Y-77574335D01*
X139784942Y-77556191D01*
X139783956Y-77524376D01*
X139785607Y-77481784D01*
X139789779Y-77431306D01*
X139796353Y-77375836D01*
X139796902Y-77371823D01*
X139799908Y-77346215D01*
X139799031Y-77333071D01*
X139793201Y-77328280D01*
X139785401Y-77327696D01*
X139771045Y-77331937D01*
X139767176Y-77338203D01*
X139766140Y-77350315D01*
X139763788Y-77375446D01*
X139760472Y-77409888D01*
X139756670Y-77448675D01*
X139752225Y-77491372D01*
X139748254Y-77520636D01*
X139743824Y-77539785D01*
X139737999Y-77552139D01*
X139729848Y-77561016D01*
X139723693Y-77565872D01*
X139703642Y-77577309D01*
X139685115Y-77577306D01*
X139677485Y-77574977D01*
X139657714Y-77564740D01*
X139645393Y-77548931D01*
X139639878Y-77524878D01*
X139640527Y-77489916D01*
X139646142Y-77444980D01*
X139652960Y-77398623D01*
X139656848Y-77366329D01*
X139657719Y-77345595D01*
X139655483Y-77333915D01*
X139650051Y-77328785D01*
X139641990Y-77327696D01*
X139633796Y-77328885D01*
X139629311Y-77334731D01*
X139627940Y-77348653D01*
X139629085Y-77374071D01*
X139630513Y-77393438D01*
X139632785Y-77426570D01*
X139632673Y-77447402D01*
X139629212Y-77460379D01*
X139621439Y-77469952D01*
X139612306Y-77477488D01*
X139581879Y-77493007D01*
X139551681Y-77493213D01*
X139525743Y-77478754D01*
X139514531Y-77466538D01*
X139506625Y-77451988D01*
X139500753Y-77431114D01*
X139495642Y-77399924D01*
X139492330Y-77373924D01*
X139486234Y-77323494D01*
X139450513Y-77320909D01*
X139414791Y-77318325D01*
X139414791Y-77415848D01*
X139414582Y-77458008D01*
X139413548Y-77486859D01*
X139411077Y-77505901D01*
X139406559Y-77518633D01*
X139399381Y-77528555D01*
X139394161Y-77534002D01*
X139367243Y-77551149D01*
X139338537Y-77553179D01*
X139312052Y-77540037D01*
X139306991Y-77535179D01*
X139299238Y-77525563D01*
X139294041Y-77514061D01*
X139290897Y-77497317D01*
X139289303Y-77471975D01*
X139288755Y-77434679D01*
X139288716Y-77413306D01*
X139288716Y-77310886D01*
X139259827Y-77310886D01*
X139241118Y-77311811D01*
X139233830Y-77317872D01*
X139234114Y-77334001D01*
X139235217Y-77342405D01*
X139239598Y-77370915D01*
X139245377Y-77404082D01*
X139247296Y-77414262D01*
X139253464Y-77453075D01*
X139253794Y-77480242D01*
X139247749Y-77500069D01*
X139234793Y-77516863D01*
X139234465Y-77517192D01*
X139207134Y-77533749D01*
X139175128Y-77537402D01*
X139144757Y-77527798D01*
X139137345Y-77522637D01*
X139124753Y-77504475D01*
X139113346Y-77473483D01*
X139104071Y-77433638D01*
X139097874Y-77388919D01*
X139095709Y-77347658D01*
X139094877Y-77322193D01*
X139091083Y-77308702D01*
X139081669Y-77302351D01*
X139069135Y-77299330D01*
X139048527Y-77295636D01*
X139035583Y-77294077D01*
X139035514Y-77294076D01*
X139032660Y-77301936D01*
X139030323Y-77323337D01*
X139028742Y-77355014D01*
X139028160Y-77393700D01*
X139028160Y-77393803D01*
X139027847Y-77437429D01*
X139026574Y-77467760D01*
X139023840Y-77488305D01*
X139019143Y-77502572D01*
X139011981Y-77514071D01*
X139010740Y-77515676D01*
X138987191Y-77533679D01*
X138959220Y-77537144D01*
X138931534Y-77525646D01*
X138928302Y-77523113D01*
X138918983Y-77514196D01*
X138912818Y-77503756D01*
X138909494Y-77488786D01*
X138908694Y-77466278D01*
X138910104Y-77433225D01*
X138913409Y-77386620D01*
X138913657Y-77383370D01*
X138916623Y-77339732D01*
X138916826Y-77310112D01*
X138913068Y-77291788D01*
X138904151Y-77282040D01*
X138888875Y-77278148D01*
X138866964Y-77277395D01*
X138837629Y-77271488D01*
X138817746Y-77256427D01*
X138809174Y-77235783D01*
X138813770Y-77213126D01*
X138825693Y-77198094D01*
X138840473Y-77189089D01*
X138860573Y-77187159D01*
X138880325Y-77189341D01*
X138918895Y-77195125D01*
X138918895Y-77155966D01*
X138924521Y-77120876D01*
X138939448Y-77095308D01*
X138960743Y-77080796D01*
X138985477Y-77078874D01*
X139010718Y-77091078D01*
X139021856Y-77102050D01*
X139032738Y-77125260D01*
X139036551Y-77161788D01*
X139036565Y-77164730D01*
X139038358Y-77194766D01*
X139043813Y-77208858D01*
X139047071Y-77210141D01*
X139063286Y-77212310D01*
X139076489Y-77215324D01*
X139087954Y-77217016D01*
X139093513Y-77211445D01*
X139095279Y-77194793D01*
X139095400Y-77181171D01*
X139100602Y-77140094D01*
X139114814Y-77108897D01*
X139135950Y-77089112D01*
X139161924Y-77082275D01*
X139190647Y-77089918D01*
X139205836Y-77100010D01*
X139217135Y-77112076D01*
X139224098Y-77128844D01*
X139228305Y-77155147D01*
X139229881Y-77173554D01*
X139234083Y-77231039D01*
X139265602Y-77233647D01*
X139297121Y-77236256D01*
X139297121Y-77173844D01*
X139300242Y-77126975D01*
X139310125Y-77094491D01*
X139327554Y-77075070D01*
X139353310Y-77067387D01*
X139360159Y-77067141D01*
X139387322Y-77072061D01*
X139406244Y-77087827D01*
X139417788Y-77115951D01*
X139422815Y-77157941D01*
X139423196Y-77177539D01*
X139423196Y-77243646D01*
X139455837Y-77243646D01*
X139488478Y-77243646D01*
X139494494Y-77186912D01*
X139499304Y-77153147D01*
X139505776Y-77122260D01*
X139511516Y-77103672D01*
X139529543Y-77078604D01*
X139554981Y-77066665D01*
X139584005Y-77068475D01*
G37*
G36*
X139442722Y-77608142D02*
G01*
X139486728Y-77631801D01*
X139524423Y-77668524D01*
X139551778Y-77714328D01*
X139595217Y-77802861D01*
X139645962Y-77891102D01*
X139701303Y-77974931D01*
X139758533Y-78050224D01*
X139810891Y-78108783D01*
X139843426Y-78138451D01*
X139887709Y-78174036D01*
X139940701Y-78213464D01*
X139999360Y-78254661D01*
X140060646Y-78295555D01*
X140121518Y-78334071D01*
X140178935Y-78368136D01*
X140229856Y-78395677D01*
X140236445Y-78398969D01*
X140279571Y-78419033D01*
X140332578Y-78441807D01*
X140391957Y-78465962D01*
X140454200Y-78490168D01*
X140515798Y-78513096D01*
X140573242Y-78533415D01*
X140623025Y-78549795D01*
X140661637Y-78560908D01*
X140667458Y-78562323D01*
X140718135Y-78576166D01*
X140755278Y-78591755D01*
X140782162Y-78611066D01*
X140802061Y-78636077D01*
X140808468Y-78647478D01*
X140823451Y-78692427D01*
X140821808Y-78736292D01*
X140803629Y-78777955D01*
X140797349Y-78786807D01*
X140771325Y-78813136D01*
X140739200Y-78830285D01*
X140698854Y-78838638D01*
X140648168Y-78838578D01*
X140585021Y-78830490D01*
X140570483Y-78827901D01*
X140504365Y-78813823D01*
X140428707Y-78794646D01*
X140347816Y-78771708D01*
X140266000Y-78746346D01*
X140187566Y-78719900D01*
X140116823Y-78693708D01*
X140058077Y-78669108D01*
X140055307Y-78667841D01*
X140021904Y-78651172D01*
X139977694Y-78627228D01*
X139925927Y-78597947D01*
X139869855Y-78565268D01*
X139812728Y-78531132D01*
X139757799Y-78497478D01*
X139708317Y-78466245D01*
X139667535Y-78439374D01*
X139641727Y-78421103D01*
X139565015Y-78356326D01*
X139488282Y-78278071D01*
X139414031Y-78189477D01*
X139344768Y-78093685D01*
X139282997Y-77993835D01*
X139247101Y-77926335D01*
X139219069Y-77863761D01*
X139202699Y-77811059D01*
X139198051Y-77765940D01*
X139205180Y-77726115D01*
X139224143Y-77689295D01*
X139253895Y-77654292D01*
X139297992Y-77620623D01*
X139345839Y-77602046D01*
X139394921Y-77598055D01*
X139442722Y-77608142D01*
G37*
G36*
X141486973Y-75724097D02*
G01*
X141610051Y-75731512D01*
X141745503Y-75745364D01*
X141894446Y-75765713D01*
X142017035Y-75785507D01*
X142204373Y-75822681D01*
X142377348Y-75867824D01*
X142536513Y-75921153D01*
X142682421Y-75982884D01*
X142815626Y-76053235D01*
X142936680Y-76132421D01*
X142974394Y-76160793D01*
X143017896Y-76197676D01*
X143068029Y-76245114D01*
X143121825Y-76299866D01*
X143176313Y-76358689D01*
X143228523Y-76418342D01*
X143275483Y-76475583D01*
X143314225Y-76527169D01*
X143326467Y-76545058D01*
X143367814Y-76614098D01*
X143407117Y-76691787D01*
X143442283Y-76773166D01*
X143471223Y-76853278D01*
X143491847Y-76927164D01*
X143496118Y-76947467D01*
X143508246Y-77053654D01*
X143505486Y-77163344D01*
X143488523Y-77273718D01*
X143458044Y-77381956D01*
X143414735Y-77485237D01*
X143359283Y-77580742D01*
X143333132Y-77617080D01*
X143271466Y-77691112D01*
X143204978Y-77757601D01*
X143131146Y-77818492D01*
X143047442Y-77875731D01*
X142951342Y-77931261D01*
X142873461Y-77971079D01*
X142747740Y-78029001D01*
X142627208Y-78076675D01*
X142508450Y-78114916D01*
X142388051Y-78144539D01*
X142262595Y-78166358D01*
X142128667Y-78181187D01*
X141982851Y-78189843D01*
X141951945Y-78190905D01*
X141786882Y-78195966D01*
X141775439Y-78272437D01*
X141772483Y-78297529D01*
X141770023Y-78330691D01*
X141768029Y-78373191D01*
X141766471Y-78426299D01*
X141765319Y-78491286D01*
X141764543Y-78569421D01*
X141764113Y-78661974D01*
X141763997Y-78756552D01*
X141764017Y-78851705D01*
X141763969Y-78931526D01*
X141763694Y-78997495D01*
X141763032Y-79051089D01*
X141761825Y-79093786D01*
X141759911Y-79127066D01*
X141757132Y-79152406D01*
X141753328Y-79171285D01*
X141748339Y-79185181D01*
X141742005Y-79195573D01*
X141734168Y-79203939D01*
X141724667Y-79211758D01*
X141713957Y-79220023D01*
X141683225Y-79235237D01*
X141644677Y-79242001D01*
X141605327Y-79239779D01*
X141576637Y-79230502D01*
X141539353Y-79202543D01*
X141514464Y-79163413D01*
X141507964Y-79144146D01*
X141504978Y-79126709D01*
X141501047Y-79093977D01*
X141496298Y-79047432D01*
X141490858Y-78988556D01*
X141484853Y-78918831D01*
X141478411Y-78839737D01*
X141471658Y-78752756D01*
X141464721Y-78659370D01*
X141457726Y-78561060D01*
X141456217Y-78539283D01*
X141452978Y-78480151D01*
X141450762Y-78414733D01*
X141449732Y-78350160D01*
X141450053Y-78293561D01*
X141450334Y-78282455D01*
X141453927Y-78163048D01*
X141365216Y-78152655D01*
X141250947Y-78135949D01*
X141136425Y-78112961D01*
X141025679Y-78084740D01*
X140922737Y-78052339D01*
X140831629Y-78016806D01*
X140814408Y-78009059D01*
X140759230Y-77981820D01*
X140696415Y-77947935D01*
X140630122Y-77909889D01*
X140564506Y-77870166D01*
X140503723Y-77831249D01*
X140451931Y-77795622D01*
X140430337Y-77779534D01*
X140333737Y-77699014D01*
X140252365Y-77617908D01*
X140184708Y-77534107D01*
X140129255Y-77445500D01*
X140084493Y-77349976D01*
X140049808Y-77248545D01*
X140026209Y-77137980D01*
X140017326Y-77022113D01*
X140017548Y-77017361D01*
X140356974Y-77017361D01*
X140357187Y-77052843D01*
X140359807Y-77082271D01*
X140365263Y-77110985D01*
X140372097Y-77137546D01*
X140391072Y-77199164D01*
X140412483Y-77251637D01*
X140438790Y-77299012D01*
X140472454Y-77345336D01*
X140515936Y-77394657D01*
X140549203Y-77428814D01*
X140653948Y-77522775D01*
X140771300Y-77608706D01*
X140898362Y-77685070D01*
X141032237Y-77750332D01*
X141170026Y-77802954D01*
X141308833Y-77841400D01*
X141339543Y-77847868D01*
X141468666Y-77869954D01*
X141606130Y-77887114D01*
X141747371Y-77899072D01*
X141887829Y-77905547D01*
X142022939Y-77906265D01*
X142148140Y-77900945D01*
X142175844Y-77898771D01*
X142296114Y-77883042D01*
X142419089Y-77856973D01*
X142541182Y-77821780D01*
X142658803Y-77778678D01*
X142768366Y-77728885D01*
X142866282Y-77673615D01*
X142893929Y-77655409D01*
X142978980Y-77589431D01*
X143048473Y-77518212D01*
X143103161Y-77440562D01*
X143143799Y-77355294D01*
X143171143Y-77261219D01*
X143181051Y-77203340D01*
X143186187Y-77118872D01*
X143178226Y-77036227D01*
X143156592Y-76952491D01*
X143120708Y-76864746D01*
X143109538Y-76842030D01*
X143075382Y-76782888D01*
X143030384Y-76717366D01*
X142977388Y-76648847D01*
X142919237Y-76580715D01*
X142858774Y-76516352D01*
X142798841Y-76459142D01*
X142760236Y-76426367D01*
X142678855Y-76368935D01*
X142582615Y-76314474D01*
X142473310Y-76263673D01*
X142352735Y-76217219D01*
X142222684Y-76175798D01*
X142084951Y-76140099D01*
X141941331Y-76110808D01*
X141932098Y-76109188D01*
X141817048Y-76090879D01*
X141710871Y-76077897D01*
X141610130Y-76070279D01*
X141511391Y-76068061D01*
X141411218Y-76071277D01*
X141306175Y-76079964D01*
X141192826Y-76094157D01*
X141067737Y-76113893D01*
X141041341Y-76118450D01*
X140991741Y-76130700D01*
X140935155Y-76150334D01*
X140878093Y-76174710D01*
X140827064Y-76201188D01*
X140807305Y-76213415D01*
X140783380Y-76231599D01*
X140752123Y-76258624D01*
X140717517Y-76290898D01*
X140683546Y-76324831D01*
X140682264Y-76326164D01*
X140592092Y-76426679D01*
X140517591Y-76524409D01*
X140458120Y-76620631D01*
X140413039Y-76716622D01*
X140381705Y-76813658D01*
X140363479Y-76913016D01*
X140358742Y-76970483D01*
X140356974Y-77017361D01*
X140017548Y-77017361D01*
X140022882Y-76903243D01*
X140042601Y-76783667D01*
X140076205Y-76665684D01*
X140123416Y-76551594D01*
X140137118Y-76524323D01*
X140199602Y-76415288D01*
X140270521Y-76312887D01*
X140352474Y-76213710D01*
X140448057Y-76114349D01*
X140453963Y-76108616D01*
X140524797Y-76044704D01*
X140594621Y-75992065D01*
X140667407Y-75948458D01*
X140747130Y-75911641D01*
X140837760Y-75879372D01*
X140885672Y-75865021D01*
X140924857Y-75852047D01*
X140952601Y-75837885D01*
X140974196Y-75819773D01*
X140976033Y-75817839D01*
X140998943Y-75796976D01*
X141026108Y-75780174D01*
X141060461Y-75766318D01*
X141104940Y-75754288D01*
X141162479Y-75742968D01*
X141180800Y-75739861D01*
X141273466Y-75728333D01*
X141375151Y-75723058D01*
X141486973Y-75724097D01*
G37*
D12*
%TO.C,U4*%
X139460000Y-71656000D02*
X142460000Y-71656000D01*
X139460000Y-74876000D02*
X142460000Y-74876000D01*
X139120000Y-71906000D02*
X138640000Y-71906000D01*
X139120000Y-71426000D01*
X139120000Y-71906000D01*
G36*
X139120000Y-71906000D02*
G01*
X138640000Y-71906000D01*
X139120000Y-71426000D01*
X139120000Y-71906000D01*
G37*
%TO.C,R6*%
X139446359Y-78920000D02*
X139753641Y-78920000D01*
X139446359Y-79680000D02*
X139753641Y-79680000D01*
%TO.C,C8*%
X148590000Y-87107836D02*
X148590000Y-86892164D01*
X149310000Y-87107836D02*
X149310000Y-86892164D01*
%TO.C,R14*%
X148096359Y-102620000D02*
X148403641Y-102620000D01*
X148096359Y-103380000D02*
X148403641Y-103380000D01*
%TO.C,R5*%
X144153641Y-97020000D02*
X143846359Y-97020000D01*
X144153641Y-97780000D02*
X143846359Y-97780000D01*
%TO.C,C7*%
X149812164Y-88140000D02*
X150027836Y-88140000D01*
X149812164Y-88860000D02*
X150027836Y-88860000D01*
%TO.C,C4*%
X139071693Y-93080810D02*
X138919190Y-92928307D01*
X139580810Y-92571693D02*
X139428307Y-92419190D01*
%TO.C,C15*%
X139840000Y-99592164D02*
X139840000Y-99807836D01*
X140560000Y-99592164D02*
X140560000Y-99807836D01*
%TO.C,U1*%
X147540000Y-73027500D02*
X148015000Y-73027500D01*
X147540000Y-73502500D02*
X147540000Y-73027500D01*
X147540000Y-76247500D02*
X147540000Y-75772500D01*
X148015000Y-76247500D02*
X147540000Y-76247500D01*
X150285000Y-73027500D02*
X150760000Y-73027500D01*
X150760000Y-73027500D02*
X150760000Y-73502500D01*
X150760000Y-75772500D02*
X150760000Y-76247500D01*
X150760000Y-76247500D02*
X150285000Y-76247500D01*
X147010000Y-73887500D02*
X146680000Y-74127500D01*
X146680000Y-73647500D01*
X147010000Y-73887500D01*
G36*
X147010000Y-73887500D02*
G01*
X146680000Y-74127500D01*
X146680000Y-73647500D01*
X147010000Y-73887500D01*
G37*
%TO.C,R13*%
X150420000Y-71746359D02*
X150420000Y-72053641D01*
X151180000Y-71746359D02*
X151180000Y-72053641D01*
%TO.C,R2*%
X143746359Y-69920000D02*
X144053641Y-69920000D01*
X143746359Y-70680000D02*
X144053641Y-70680000D01*
%TO.C,C14*%
X149692164Y-85140000D02*
X149907836Y-85140000D01*
X149692164Y-85860000D02*
X149907836Y-85860000D01*
%TO.C,J2*%
X152510000Y-61990000D02*
X153890000Y-61990000D01*
X152510000Y-63370000D02*
X152510000Y-61990000D01*
X153890000Y-113010000D02*
X155270000Y-113010000D01*
X155270000Y-111630000D02*
X155270000Y-113010000D01*
%TO.C,R1*%
X146746359Y-69920000D02*
X147053641Y-69920000D01*
X146746359Y-70680000D02*
X147053641Y-70680000D01*
%TO.C,R8*%
X140246359Y-101620000D02*
X140553641Y-101620000D01*
X140246359Y-102380000D02*
X140553641Y-102380000D01*
%TO.C,C16*%
X145140000Y-99957836D02*
X145140000Y-99742164D01*
X145860000Y-99957836D02*
X145860000Y-99742164D01*
%TO.C,Y1*%
X144860000Y-98040000D02*
X140740000Y-98040000D01*
X144860000Y-101460000D02*
X144860000Y-98040000D01*
%TO.C,C13*%
X146140000Y-97792164D02*
X146140000Y-98007836D01*
X146860000Y-97792164D02*
X146860000Y-98007836D01*
%TO.C,C5*%
X145140000Y-97792164D02*
X145140000Y-98007836D01*
X145860000Y-97792164D02*
X145860000Y-98007836D01*
%TO.C,R4*%
X146320000Y-86346359D02*
X146320000Y-86653641D01*
X147080000Y-86346359D02*
X147080000Y-86653641D01*
%TO.C,SW1*%
X143430000Y-103180000D02*
X143730000Y-103180000D01*
X143430000Y-107320000D02*
X143430000Y-103180000D01*
X143730000Y-107320000D02*
X143430000Y-107320000D01*
X146270000Y-103180000D02*
X146570000Y-103180000D01*
X146570000Y-103180000D02*
X146570000Y-107320000D01*
X146570000Y-107320000D02*
X146270000Y-107320000D01*
%TO.C,C11*%
X149600000Y-87107836D02*
X149600000Y-86892164D01*
X150320000Y-87107836D02*
X150320000Y-86892164D01*
%TO.C,U2*%
X141390000Y-88390000D02*
X142040000Y-88390000D01*
X141390000Y-89040000D02*
X141390000Y-88390000D01*
X141390000Y-95610000D02*
X141390000Y-94960000D01*
X142040000Y-95610000D02*
X141390000Y-95610000D01*
X147960000Y-88390000D02*
X148610000Y-88390000D01*
X148610000Y-88390000D02*
X148610000Y-89040000D01*
X148610000Y-94960000D02*
X148610000Y-95610000D01*
X148610000Y-95610000D02*
X147960000Y-95610000D01*
X140860000Y-89400000D02*
X140530000Y-89640000D01*
X140530000Y-89160000D01*
X140860000Y-89400000D01*
G36*
X140860000Y-89400000D02*
G01*
X140530000Y-89640000D01*
X140530000Y-89160000D01*
X140860000Y-89400000D01*
G37*
%TO.C,R7*%
X141453641Y-86920000D02*
X141146359Y-86920000D01*
X141453641Y-87680000D02*
X141146359Y-87680000D01*
%TO.C,J4*%
X141080000Y-112770000D02*
X141080000Y-111390000D01*
X142460000Y-112770000D02*
X141080000Y-112770000D01*
X147540000Y-110010000D02*
X148920000Y-110010000D01*
X148920000Y-111390000D02*
X148920000Y-110010000D01*
%TO.C,C17*%
X144007836Y-79040000D02*
X143792164Y-79040000D01*
X144007836Y-79760000D02*
X143792164Y-79760000D01*
%TO.C,R12*%
X147120000Y-71646359D02*
X147120000Y-71953641D01*
X147880000Y-71646359D02*
X147880000Y-71953641D01*
%TO.C,C6*%
X150642164Y-92540000D02*
X150857836Y-92540000D01*
X150642164Y-93260000D02*
X150857836Y-93260000D01*
%TO.C,SW2*%
X139430000Y-103180000D02*
X139730000Y-103180000D01*
X139430000Y-107320000D02*
X139430000Y-103180000D01*
X139730000Y-107320000D02*
X139430000Y-107320000D01*
X142270000Y-103180000D02*
X142570000Y-103180000D01*
X142570000Y-103180000D02*
X142570000Y-107320000D01*
X142570000Y-107320000D02*
X142270000Y-107320000D01*
%TO.C,C19*%
X150740000Y-69540580D02*
X150740000Y-69259420D01*
X151760000Y-69540580D02*
X151760000Y-69259420D01*
%TO.C,D3*%
X149265000Y-78915000D02*
X149265000Y-81200000D01*
X150735000Y-78915000D02*
X149265000Y-78915000D01*
X150735000Y-81200000D02*
X150735000Y-78915000D01*
%TO.C,R15*%
X138120000Y-71646359D02*
X138120000Y-71953641D01*
X138880000Y-71646359D02*
X138880000Y-71953641D01*
%TO.C,C3*%
X140357836Y-88140000D02*
X140142164Y-88140000D01*
X140357836Y-88860000D02*
X140142164Y-88860000D01*
%TO.C,D4*%
X147265000Y-104450000D02*
X147265000Y-106735000D01*
X147265000Y-106735000D02*
X148735000Y-106735000D01*
X148735000Y-106735000D02*
X148735000Y-104450000D01*
%TO.C,C21*%
X146090000Y-77515580D02*
X146090000Y-77234420D01*
X147110000Y-77515580D02*
X147110000Y-77234420D01*
%TO.C,C2*%
X143090000Y-74859420D02*
X143090000Y-75140580D01*
X144110000Y-74859420D02*
X144110000Y-75140580D01*
%TO.C,C18*%
X147140000Y-97792164D02*
X147140000Y-98007836D01*
X147860000Y-97792164D02*
X147860000Y-98007836D01*
%TO.C,R11*%
X146020000Y-73028641D02*
X146020000Y-72721359D01*
X146780000Y-73028641D02*
X146780000Y-72721359D01*
%TO.C,C9*%
X147627312Y-84047836D02*
X147627312Y-83832164D01*
X148347312Y-84047836D02*
X148347312Y-83832164D01*
%TO.C,C10*%
X146607312Y-84057836D02*
X146607312Y-83842164D01*
X147327312Y-84057836D02*
X147327312Y-83842164D01*
%TO.C,R3*%
X145320000Y-86346359D02*
X145320000Y-86653641D01*
X146080000Y-86346359D02*
X146080000Y-86653641D01*
%TO.C,U3*%
X138640000Y-80030000D02*
X144860000Y-80030000D01*
X138640000Y-80225000D02*
X138640000Y-80030000D01*
X138640000Y-85250000D02*
X138640000Y-85055000D01*
X144860000Y-80030000D02*
X144860000Y-80225000D01*
X144860000Y-85055000D02*
X144860000Y-85250000D01*
X144860000Y-85250000D02*
X138640000Y-85250000D01*
X138430000Y-80730001D02*
X138100000Y-80970000D01*
X138100000Y-80490000D01*
X138430000Y-80730001D01*
G36*
X138430000Y-80730001D02*
G01*
X138100000Y-80970000D01*
X138100000Y-80490000D01*
X138430000Y-80730001D01*
G37*
%TO.C,C12*%
X147340000Y-86907836D02*
X147340000Y-86692164D01*
X148060000Y-86907836D02*
X148060000Y-86692164D01*
%TO.C,R9*%
X151120000Y-79846359D02*
X151120000Y-80153641D01*
X151880000Y-79846359D02*
X151880000Y-80153641D01*
%TO.C,C20*%
X149292164Y-71640000D02*
X149507836Y-71640000D01*
X149292164Y-72360000D02*
X149507836Y-72360000D01*
%TO.C,J3*%
X134730000Y-61990000D02*
X136110000Y-61990000D01*
X134730000Y-63370000D02*
X134730000Y-61990000D01*
X136110000Y-113010000D02*
X137490000Y-113010000D01*
X137490000Y-111630000D02*
X137490000Y-113010000D01*
%TO.C,R10*%
X146120000Y-80153641D02*
X146120000Y-79846359D01*
X146880000Y-80153641D02*
X146880000Y-79846359D01*
%TO.C,D2*%
X147265000Y-78915000D02*
X147265000Y-81200000D01*
X148735000Y-78915000D02*
X147265000Y-78915000D01*
X148735000Y-81200000D02*
X148735000Y-78915000D01*
%TO.C,C1*%
X141565580Y-70090000D02*
X141284420Y-70090000D01*
X141565580Y-71110000D02*
X141284420Y-71110000D01*
%TD*%
M02*
