%TF.GenerationSoftware,KiCad,Pcbnew,9.0.6*%
%TF.CreationDate,2025-12-31T01:58:10-06:00*%
%TF.ProjectId,fudgeboard,66756467-6562-46f6-9172-642e6b696361,rev?*%
%TF.SameCoordinates,Original*%
%TF.FileFunction,Copper,L1,Top*%
%TF.FilePolarity,Positive*%
%FSLAX46Y46*%
G04 Gerber Fmt 4.6, Leading zero omitted, Abs format (unit mm)*
G04 Created by KiCad (PCBNEW 9.0.6) date 2025-12-31 01:58:10*
%MOMM*%
%LPD*%
G01*
G04 APERTURE LIST*
G04 Aperture macros list*
%AMRoundRect*
0 Rectangle with rounded corners*
0 $1 Rounding radius*
0 $2 $3 $4 $5 $6 $7 $8 $9 X,Y pos of 4 corners*
0 Add a 4 corners polygon primitive as box body*
4,1,4,$2,$3,$4,$5,$6,$7,$8,$9,$2,$3,0*
0 Add four circle primitives for the rounded corners*
1,1,$1+$1,$2,$3*
1,1,$1+$1,$4,$5*
1,1,$1+$1,$6,$7*
1,1,$1+$1,$8,$9*
0 Add four rect primitives between the rounded corners*
20,1,$1+$1,$2,$3,$4,$5,0*
20,1,$1+$1,$4,$5,$6,$7,0*
20,1,$1+$1,$6,$7,$8,$9,0*
20,1,$1+$1,$8,$9,$2,$3,0*%
G04 Aperture macros list end*
%TA.AperFunction,SMDPad,CuDef*%
%ADD10R,0.630000X0.450000*%
%TD*%
%TA.AperFunction,SMDPad,CuDef*%
%ADD11R,1.700000X2.600000*%
%TD*%
%TA.AperFunction,SMDPad,CuDef*%
%ADD12RoundRect,0.135000X-0.135000X-0.185000X0.135000X-0.185000X0.135000X0.185000X-0.135000X0.185000X0*%
%TD*%
%TA.AperFunction,SMDPad,CuDef*%
%ADD13RoundRect,0.140000X0.170000X-0.140000X0.170000X0.140000X-0.170000X0.140000X-0.170000X-0.140000X0*%
%TD*%
%TA.AperFunction,SMDPad,CuDef*%
%ADD14RoundRect,0.135000X0.135000X0.185000X-0.135000X0.185000X-0.135000X-0.185000X0.135000X-0.185000X0*%
%TD*%
%TA.AperFunction,SMDPad,CuDef*%
%ADD15RoundRect,0.140000X-0.140000X-0.170000X0.140000X-0.170000X0.140000X0.170000X-0.140000X0.170000X0*%
%TD*%
%TA.AperFunction,SMDPad,CuDef*%
%ADD16RoundRect,0.140000X0.219203X0.021213X0.021213X0.219203X-0.219203X-0.021213X-0.021213X-0.219203X0*%
%TD*%
%TA.AperFunction,SMDPad,CuDef*%
%ADD17RoundRect,0.140000X-0.170000X0.140000X-0.170000X-0.140000X0.170000X-0.140000X0.170000X0.140000X0*%
%TD*%
%TA.AperFunction,SMDPad,CuDef*%
%ADD18RoundRect,0.062500X-0.375000X-0.062500X0.375000X-0.062500X0.375000X0.062500X-0.375000X0.062500X0*%
%TD*%
%TA.AperFunction,SMDPad,CuDef*%
%ADD19RoundRect,0.062500X-0.062500X-0.375000X0.062500X-0.375000X0.062500X0.375000X-0.062500X0.375000X0*%
%TD*%
%TA.AperFunction,HeatsinkPad*%
%ADD20R,1.600000X1.600000*%
%TD*%
%TA.AperFunction,SMDPad,CuDef*%
%ADD21RoundRect,0.135000X-0.185000X0.135000X-0.185000X-0.135000X0.185000X-0.135000X0.185000X0.135000X0*%
%TD*%
%TA.AperFunction,ComponentPad*%
%ADD22R,1.700000X1.700000*%
%TD*%
%TA.AperFunction,ComponentPad*%
%ADD23C,1.700000*%
%TD*%
%TA.AperFunction,SMDPad,CuDef*%
%ADD24R,0.600000X1.450000*%
%TD*%
%TA.AperFunction,SMDPad,CuDef*%
%ADD25R,0.300000X1.450000*%
%TD*%
%TA.AperFunction,HeatsinkPad*%
%ADD26O,1.000000X2.100000*%
%TD*%
%TA.AperFunction,HeatsinkPad*%
%ADD27O,1.000000X1.600000*%
%TD*%
%TA.AperFunction,SMDPad,CuDef*%
%ADD28RoundRect,0.250000X0.450000X0.350000X-0.450000X0.350000X-0.450000X-0.350000X0.450000X-0.350000X0*%
%TD*%
%TA.AperFunction,SMDPad,CuDef*%
%ADD29RoundRect,0.200000X0.800000X-0.200000X0.800000X0.200000X-0.800000X0.200000X-0.800000X-0.200000X0*%
%TD*%
%TA.AperFunction,SMDPad,CuDef*%
%ADD30RoundRect,0.050000X-0.387500X-0.050000X0.387500X-0.050000X0.387500X0.050000X-0.387500X0.050000X0*%
%TD*%
%TA.AperFunction,SMDPad,CuDef*%
%ADD31RoundRect,0.050000X-0.050000X-0.387500X0.050000X-0.387500X0.050000X0.387500X-0.050000X0.387500X0*%
%TD*%
%TA.AperFunction,HeatsinkPad*%
%ADD32R,3.200000X3.200000*%
%TD*%
%TA.AperFunction,SMDPad,CuDef*%
%ADD33RoundRect,0.140000X0.140000X0.170000X-0.140000X0.170000X-0.140000X-0.170000X0.140000X-0.170000X0*%
%TD*%
%TA.AperFunction,SMDPad,CuDef*%
%ADD34RoundRect,0.200000X-0.800000X0.200000X-0.800000X-0.200000X0.800000X-0.200000X0.800000X0.200000X0*%
%TD*%
%TA.AperFunction,SMDPad,CuDef*%
%ADD35RoundRect,0.225000X0.250000X-0.225000X0.250000X0.225000X-0.250000X0.225000X-0.250000X-0.225000X0*%
%TD*%
%TA.AperFunction,SMDPad,CuDef*%
%ADD36RoundRect,0.218750X-0.256250X0.218750X-0.256250X-0.218750X0.256250X-0.218750X0.256250X0.218750X0*%
%TD*%
%TA.AperFunction,SMDPad,CuDef*%
%ADD37RoundRect,0.218750X0.256250X-0.218750X0.256250X0.218750X-0.256250X0.218750X-0.256250X-0.218750X0*%
%TD*%
%TA.AperFunction,SMDPad,CuDef*%
%ADD38RoundRect,0.225000X-0.250000X0.225000X-0.250000X-0.225000X0.250000X-0.225000X0.250000X0.225000X0*%
%TD*%
%TA.AperFunction,SMDPad,CuDef*%
%ADD39RoundRect,0.135000X0.185000X-0.135000X0.185000X0.135000X-0.185000X0.135000X-0.185000X-0.135000X0*%
%TD*%
%TA.AperFunction,SMDPad,CuDef*%
%ADD40RoundRect,0.125000X-0.262500X-0.125000X0.262500X-0.125000X0.262500X0.125000X-0.262500X0.125000X0*%
%TD*%
%TA.AperFunction,HeatsinkPad*%
%ADD41R,3.400000X4.000000*%
%TD*%
%TA.AperFunction,SMDPad,CuDef*%
%ADD42RoundRect,0.225000X0.225000X0.250000X-0.225000X0.250000X-0.225000X-0.250000X0.225000X-0.250000X0*%
%TD*%
%TA.AperFunction,ViaPad*%
%ADD43C,0.600000*%
%TD*%
%TA.AperFunction,Conductor*%
%ADD44C,0.300000*%
%TD*%
%TA.AperFunction,Conductor*%
%ADD45C,0.200000*%
%TD*%
G04 APERTURE END LIST*
D10*
%TO.P,U4,1,EN*%
%TO.N,Net-(U4-EN)*%
X139620000Y-72316000D03*
%TO.P,U4,2,GND*%
%TO.N,GND*%
X139620000Y-73266000D03*
%TO.P,U4,3,PG*%
%TO.N,unconnected-(U4-PG-Pad3)*%
X139620000Y-74216000D03*
%TO.P,U4,4,VOUT*%
%TO.N,+3V3*%
X142300000Y-74216000D03*
%TO.P,U4,5*%
%TO.N,N/C*%
X142300000Y-73266000D03*
%TO.P,U4,6,VIN*%
%TO.N,VBUS*%
X142300000Y-72316000D03*
D11*
%TO.P,U4,7,GND*%
%TO.N,GND*%
X140960000Y-73266000D03*
%TD*%
D12*
%TO.P,R6,1*%
%TO.N,QSPI_SS*%
X139090000Y-79300000D03*
%TO.P,R6,2*%
%TO.N,+3V3*%
X140110000Y-79300000D03*
%TD*%
D13*
%TO.P,C8,1*%
%TO.N,+3V3*%
X148950000Y-87480000D03*
%TO.P,C8,2*%
%TO.N,GND*%
X148950000Y-86520000D03*
%TD*%
D12*
%TO.P,R14,1*%
%TO.N,Net-(D4-A)*%
X147740000Y-103000000D03*
%TO.P,R14,2*%
%TO.N,GPIO25*%
X148760000Y-103000000D03*
%TD*%
D14*
%TO.P,R5,1*%
%TO.N,XOUT*%
X144510000Y-97400000D03*
%TO.P,R5,2*%
%TO.N,Net-(C16-Pad2)*%
X143490000Y-97400000D03*
%TD*%
D15*
%TO.P,C7,1*%
%TO.N,+3V3*%
X149440000Y-88500000D03*
%TO.P,C7,2*%
%TO.N,GND*%
X150400000Y-88500000D03*
%TD*%
D16*
%TO.P,C4,1*%
%TO.N,+3V3*%
X139589411Y-93089411D03*
%TO.P,C4,2*%
%TO.N,GND*%
X138910589Y-92410589D03*
%TD*%
D17*
%TO.P,C15,1*%
%TO.N,GND*%
X140200000Y-99220000D03*
%TO.P,C15,2*%
%TO.N,XIN*%
X140200000Y-100180000D03*
%TD*%
D18*
%TO.P,U1,1,TS*%
%TO.N,Net-(U1-TS)*%
X147712500Y-73887500D03*
%TO.P,U1,2,BAT*%
%TO.N,Net-(C21-Pad2)*%
X147712500Y-74387500D03*
%TO.P,U1,3,BAT*%
X147712500Y-74887500D03*
%TO.P,U1,4,~{CE}*%
%TO.N,GND*%
X147712500Y-75387500D03*
D19*
%TO.P,U1,5,EN2*%
%TO.N,/EN2*%
X148400000Y-76075000D03*
%TO.P,U1,6,EN1*%
%TO.N,GND*%
X148900000Y-76075000D03*
%TO.P,U1,7,~{PGOOD}*%
%TO.N,Net-(D2-K)*%
X149400000Y-76075000D03*
%TO.P,U1,8,VSS*%
%TO.N,GND*%
X149900000Y-76075000D03*
D18*
%TO.P,U1,9,~{CHG}*%
%TO.N,Net-(D3-K)*%
X150587500Y-75387500D03*
%TO.P,U1,10,OUT*%
%TO.N,/EN2*%
X150587500Y-74887500D03*
%TO.P,U1,11,OUT*%
X150587500Y-74387500D03*
%TO.P,U1,12,ILIM*%
%TO.N,Net-(U1-ILIM)*%
X150587500Y-73887500D03*
D19*
%TO.P,U1,13,IN*%
%TO.N,VBUS*%
X149900000Y-73200000D03*
%TO.P,U1,14,TMR*%
%TO.N,unconnected-(U1-TMR-Pad14)*%
X149400000Y-73200000D03*
%TO.P,U1,15,TD*%
%TO.N,GND*%
X148900000Y-73200000D03*
%TO.P,U1,16,ISET*%
%TO.N,Net-(U1-ISET)*%
X148400000Y-73200000D03*
D20*
%TO.P,U1,17,VSS*%
%TO.N,GND*%
X149150000Y-74637500D03*
%TD*%
D21*
%TO.P,R13,1*%
%TO.N,GND*%
X150800000Y-71390000D03*
%TO.P,R13,2*%
%TO.N,Net-(U1-ILIM)*%
X150800000Y-72410000D03*
%TD*%
D12*
%TO.P,R2,1*%
%TO.N,Net-(J1-CC2)*%
X143390000Y-70300000D03*
%TO.P,R2,2*%
%TO.N,GND*%
X144410000Y-70300000D03*
%TD*%
D15*
%TO.P,C14,1*%
%TO.N,+1V1*%
X149320000Y-85500000D03*
%TO.P,C14,2*%
%TO.N,GND*%
X150280000Y-85500000D03*
%TD*%
D22*
%TO.P,J2,1,Pin_1*%
%TO.N,VBUS*%
X153890000Y-63370000D03*
D23*
%TO.P,J2,2,Pin_2*%
%TO.N,GPIO29_ADC3*%
X153890000Y-65910000D03*
%TO.P,J2,3,Pin_3*%
%TO.N,GND*%
X153890000Y-68450000D03*
%TO.P,J2,4,Pin_4*%
%TO.N,GPIO28_ADC2*%
X153890000Y-70990000D03*
%TO.P,J2,5,Pin_5*%
%TO.N,+3V3*%
X153890000Y-73530000D03*
%TO.P,J2,6,Pin_6*%
%TO.N,GPIO27_ADC1*%
X153890000Y-76070000D03*
%TO.P,J2,7,Pin_7*%
%TO.N,GPIO26_ADC0*%
X153890000Y-78610000D03*
%TO.P,J2,8,Pin_8*%
%TO.N,GND*%
X153890000Y-81150000D03*
%TO.P,J2,9,Pin_9*%
%TO.N,GPIO24*%
X153890000Y-83690000D03*
%TO.P,J2,10,Pin_10*%
%TO.N,GPIO23*%
X153890000Y-86230000D03*
%TO.P,J2,11,Pin_11*%
%TO.N,RUN*%
X153890000Y-88770000D03*
%TO.P,J2,12,Pin_12*%
%TO.N,GPIO22*%
X153890000Y-91310000D03*
%TO.P,J2,13,Pin_13*%
%TO.N,GND*%
X153890000Y-93850000D03*
%TO.P,J2,14,Pin_14*%
%TO.N,GPIO21*%
X153890000Y-96390000D03*
%TO.P,J2,15,Pin_15*%
%TO.N,GPIO20*%
X153890000Y-98930000D03*
%TO.P,J2,16,Pin_16*%
%TO.N,GPIO19*%
X153890000Y-101470000D03*
%TO.P,J2,17,Pin_17*%
%TO.N,GPIO18*%
X153890000Y-104010000D03*
%TO.P,J2,18,Pin_18*%
%TO.N,GND*%
X153890000Y-106550000D03*
%TO.P,J2,19,Pin_19*%
%TO.N,GPIO17*%
X153890000Y-109090000D03*
%TO.P,J2,20,Pin_20*%
%TO.N,GPIO16*%
X153890000Y-111630000D03*
%TD*%
D12*
%TO.P,R1,1*%
%TO.N,Net-(J1-CC1)*%
X146390000Y-70300000D03*
%TO.P,R1,2*%
%TO.N,GND*%
X147410000Y-70300000D03*
%TD*%
%TO.P,R8,1*%
%TO.N,+3V3*%
X139890000Y-102000000D03*
%TO.P,R8,2*%
%TO.N,RUN*%
X140910000Y-102000000D03*
%TD*%
D13*
%TO.P,C16,1*%
%TO.N,GND*%
X145500000Y-100330000D03*
%TO.P,C16,2*%
%TO.N,Net-(C16-Pad2)*%
X145500000Y-99370000D03*
%TD*%
D24*
%TO.P,J1,A1,GND*%
%TO.N,GND*%
X148250000Y-68545000D03*
%TO.P,J1,A4,VBUS*%
%TO.N,VBUS*%
X147450000Y-68545000D03*
D25*
%TO.P,J1,A5,CC1*%
%TO.N,Net-(J1-CC1)*%
X146250000Y-68545000D03*
%TO.P,J1,A6,D+*%
%TO.N,USB_D+*%
X145250000Y-68545000D03*
%TO.P,J1,A7,D-*%
%TO.N,USB_D-*%
X144750000Y-68545000D03*
%TO.P,J1,A8*%
%TO.N,N/C*%
X143750000Y-68545000D03*
D24*
%TO.P,J1,A9,VBUS*%
%TO.N,VBUS*%
X142550000Y-68545000D03*
%TO.P,J1,A12,GND*%
%TO.N,GND*%
X141750000Y-68545000D03*
%TO.P,J1,B1,GND*%
X141750000Y-68545000D03*
%TO.P,J1,B4,VBUS*%
%TO.N,VBUS*%
X142550000Y-68545000D03*
D25*
%TO.P,J1,B5,CC2*%
%TO.N,Net-(J1-CC2)*%
X143250000Y-68545000D03*
%TO.P,J1,B6,D+*%
%TO.N,USB_D+*%
X144250000Y-68545000D03*
%TO.P,J1,B7,D-*%
%TO.N,USB_D-*%
X145750000Y-68545000D03*
%TO.P,J1,B8*%
%TO.N,N/C*%
X146750000Y-68545000D03*
D24*
%TO.P,J1,B9,VBUS*%
%TO.N,VBUS*%
X147450000Y-68545000D03*
%TO.P,J1,B12,GND*%
%TO.N,GND*%
X148250000Y-68545000D03*
D26*
%TO.P,J1,S1,SHIELD*%
X149320000Y-67630000D03*
D27*
X149320000Y-63450000D03*
D26*
X140680000Y-67630000D03*
D27*
X140680000Y-63450000D03*
%TD*%
D28*
%TO.P,Y1,1,1*%
%TO.N,Net-(C16-Pad2)*%
X143900000Y-98900000D03*
%TO.P,Y1,2,2*%
%TO.N,GND*%
X141700000Y-98900000D03*
%TO.P,Y1,3,3*%
%TO.N,XIN*%
X141700000Y-100600000D03*
%TO.P,Y1,4,4*%
%TO.N,GND*%
X143900000Y-100600000D03*
%TD*%
D17*
%TO.P,C13,1*%
%TO.N,+1V1*%
X146500000Y-97420000D03*
%TO.P,C13,2*%
%TO.N,GND*%
X146500000Y-98380000D03*
%TD*%
%TO.P,C5,1*%
%TO.N,+3V3*%
X145500000Y-97420000D03*
%TO.P,C5,2*%
%TO.N,GND*%
X145500000Y-98380000D03*
%TD*%
D21*
%TO.P,R4,1*%
%TO.N,USB_D-*%
X146700000Y-85990000D03*
%TO.P,R4,2*%
%TO.N,Net-(U2-USB_DM)*%
X146700000Y-87010000D03*
%TD*%
D29*
%TO.P,SW1,1,1*%
%TO.N,GND*%
X145000000Y-107350000D03*
%TO.P,SW1,2,2*%
%TO.N,Net-(R7-Pad2)*%
X145000000Y-103150000D03*
%TD*%
D13*
%TO.P,C11,1*%
%TO.N,+3V3*%
X149960000Y-87480000D03*
%TO.P,C11,2*%
%TO.N,GND*%
X149960000Y-86520000D03*
%TD*%
D30*
%TO.P,U2,1,IOVDD*%
%TO.N,+3V3*%
X141562500Y-89400000D03*
%TO.P,U2,2,GPIO0*%
%TO.N,GPIO0*%
X141562500Y-89800000D03*
%TO.P,U2,3,GPIO1*%
%TO.N,GPIO1*%
X141562500Y-90200000D03*
%TO.P,U2,4,GPIO2*%
%TO.N,GPIO2*%
X141562500Y-90600000D03*
%TO.P,U2,5,GPIO3*%
%TO.N,GPIO3*%
X141562500Y-91000000D03*
%TO.P,U2,6,GPIO4*%
%TO.N,GPIO4*%
X141562500Y-91400000D03*
%TO.P,U2,7,GPIO5*%
%TO.N,GPIO5*%
X141562500Y-91800000D03*
%TO.P,U2,8,GPIO6*%
%TO.N,GPIO6*%
X141562500Y-92200000D03*
%TO.P,U2,9,GPIO7*%
%TO.N,GPIO7*%
X141562500Y-92600000D03*
%TO.P,U2,10,IOVDD*%
%TO.N,+3V3*%
X141562500Y-93000000D03*
%TO.P,U2,11,GPIO8*%
%TO.N,GPIO8*%
X141562500Y-93400000D03*
%TO.P,U2,12,GPIO9*%
%TO.N,GPIO9*%
X141562500Y-93800000D03*
%TO.P,U2,13,GPIO10*%
%TO.N,GPIO10*%
X141562500Y-94200000D03*
%TO.P,U2,14,GPIO11*%
%TO.N,GPIO11*%
X141562500Y-94600000D03*
D31*
%TO.P,U2,15,GPIO12*%
%TO.N,GPIO12*%
X142400000Y-95437500D03*
%TO.P,U2,16,GPIO13*%
%TO.N,GPIO13*%
X142800000Y-95437500D03*
%TO.P,U2,17,GPIO14*%
%TO.N,GPIO14*%
X143200000Y-95437500D03*
%TO.P,U2,18,GPIO15*%
%TO.N,GPIO15*%
X143600000Y-95437500D03*
%TO.P,U2,19,TESTEN*%
%TO.N,GND*%
X144000000Y-95437500D03*
%TO.P,U2,20,XIN*%
%TO.N,XIN*%
X144400000Y-95437500D03*
%TO.P,U2,21,XOUT*%
%TO.N,XOUT*%
X144800000Y-95437500D03*
%TO.P,U2,22,IOVDD*%
%TO.N,+3V3*%
X145200000Y-95437500D03*
%TO.P,U2,23,DVDD*%
%TO.N,+1V1*%
X145600000Y-95437500D03*
%TO.P,U2,24,SWCLK*%
%TO.N,SWCLK*%
X146000000Y-95437500D03*
%TO.P,U2,25,SWD*%
%TO.N,SWD*%
X146400000Y-95437500D03*
%TO.P,U2,26,RUN*%
%TO.N,RUN*%
X146800000Y-95437500D03*
%TO.P,U2,27,GPIO16*%
%TO.N,GPIO16*%
X147200000Y-95437500D03*
%TO.P,U2,28,GPIO17*%
%TO.N,GPIO17*%
X147600000Y-95437500D03*
D30*
%TO.P,U2,29,GPIO18*%
%TO.N,GPIO18*%
X148437500Y-94600000D03*
%TO.P,U2,30,GPIO19*%
%TO.N,GPIO19*%
X148437500Y-94200000D03*
%TO.P,U2,31,GPIO20*%
%TO.N,GPIO20*%
X148437500Y-93800000D03*
%TO.P,U2,32,GPIO21*%
%TO.N,GPIO21*%
X148437500Y-93400000D03*
%TO.P,U2,33,IOVDD*%
%TO.N,+3V3*%
X148437500Y-93000000D03*
%TO.P,U2,34,GPIO22*%
%TO.N,GPIO22*%
X148437500Y-92600000D03*
%TO.P,U2,35,GPIO23*%
%TO.N,GPIO23*%
X148437500Y-92200000D03*
%TO.P,U2,36,GPIO24*%
%TO.N,GPIO24*%
X148437500Y-91800000D03*
%TO.P,U2,37,GPIO25*%
%TO.N,GPIO25*%
X148437500Y-91400000D03*
%TO.P,U2,38,GPIO26_ADC0*%
%TO.N,GPIO26_ADC0*%
X148437500Y-91000000D03*
%TO.P,U2,39,GPIO27_ADC1*%
%TO.N,GPIO27_ADC1*%
X148437500Y-90600000D03*
%TO.P,U2,40,GPIO28_ADC2*%
%TO.N,GPIO28_ADC2*%
X148437500Y-90200000D03*
%TO.P,U2,41,GPIO29_ADC3*%
%TO.N,GPIO29_ADC3*%
X148437500Y-89800000D03*
%TO.P,U2,42,IOVDD*%
%TO.N,+3V3*%
X148437500Y-89400000D03*
D31*
%TO.P,U2,43,ADC_AVDD*%
X147600000Y-88562500D03*
%TO.P,U2,44,VREG_IN*%
X147200000Y-88562500D03*
%TO.P,U2,45,VREG_VOUT*%
%TO.N,+1V1*%
X146800000Y-88562500D03*
%TO.P,U2,46,USB_DM*%
%TO.N,Net-(U2-USB_DM)*%
X146400000Y-88562500D03*
%TO.P,U2,47,USB_DP*%
%TO.N,Net-(U2-USB_DP)*%
X146000000Y-88562500D03*
%TO.P,U2,48,USB_VDD*%
%TO.N,+3V3*%
X145600000Y-88562500D03*
%TO.P,U2,49,IOVDD*%
X145200000Y-88562500D03*
%TO.P,U2,50,DVDD*%
%TO.N,+1V1*%
X144800000Y-88562500D03*
%TO.P,U2,51,QSPI_SD3*%
%TO.N,QSPI_SD3*%
X144400000Y-88562500D03*
%TO.P,U2,52,QSPI_SCLK*%
%TO.N,QSPI_SCLK*%
X144000000Y-88562500D03*
%TO.P,U2,53,QSPI_SD0*%
%TO.N,QSPI_SD0*%
X143600000Y-88562500D03*
%TO.P,U2,54,QSPI_SD2*%
%TO.N,QSPI_SD2*%
X143200000Y-88562500D03*
%TO.P,U2,55,QSPI_SD1*%
%TO.N,QSPI_SD1*%
X142800000Y-88562500D03*
%TO.P,U2,56,QSPI_SS*%
%TO.N,QSPI_SS*%
X142400000Y-88562500D03*
D32*
%TO.P,U2,57,GND*%
%TO.N,GND*%
X145000000Y-92000000D03*
%TD*%
D14*
%TO.P,R7,1*%
%TO.N,QSPI_SS*%
X141810000Y-87300000D03*
%TO.P,R7,2*%
%TO.N,Net-(R7-Pad2)*%
X140790000Y-87300000D03*
%TD*%
D22*
%TO.P,J4,1,Pin_1*%
%TO.N,SWCLK*%
X142460000Y-111390000D03*
D23*
%TO.P,J4,2,Pin_2*%
%TO.N,GND*%
X145000000Y-111390000D03*
%TO.P,J4,3,Pin_3*%
%TO.N,SWD*%
X147540000Y-111390000D03*
%TD*%
D33*
%TO.P,C17,1*%
%TO.N,+3V3*%
X144380000Y-79400000D03*
%TO.P,C17,2*%
%TO.N,GND*%
X143420000Y-79400000D03*
%TD*%
D21*
%TO.P,R12,1*%
%TO.N,GND*%
X147500000Y-71290000D03*
%TO.P,R12,2*%
%TO.N,Net-(U1-ISET)*%
X147500000Y-72310000D03*
%TD*%
D15*
%TO.P,C6,1*%
%TO.N,+3V3*%
X150270000Y-92900000D03*
%TO.P,C6,2*%
%TO.N,GND*%
X151230000Y-92900000D03*
%TD*%
D34*
%TO.P,SW2,1,1*%
%TO.N,RUN*%
X141000000Y-103150000D03*
%TO.P,SW2,2,2*%
%TO.N,GND*%
X141000000Y-107350000D03*
%TD*%
D35*
%TO.P,C19,1*%
%TO.N,/EN2*%
X151250000Y-70175000D03*
%TO.P,C19,2*%
%TO.N,GND*%
X151250000Y-68625000D03*
%TD*%
D36*
%TO.P,D3,1,K*%
%TO.N,Net-(D3-K)*%
X150000000Y-79612500D03*
%TO.P,D3,2,A*%
%TO.N,Net-(D3-A)*%
X150000000Y-81187500D03*
%TD*%
D21*
%TO.P,R15,1*%
%TO.N,VBUS*%
X138500000Y-71290000D03*
%TO.P,R15,2*%
%TO.N,Net-(U4-EN)*%
X138500000Y-72310000D03*
%TD*%
D33*
%TO.P,C3,1*%
%TO.N,+3V3*%
X140730000Y-88500000D03*
%TO.P,C3,2*%
%TO.N,GND*%
X139770000Y-88500000D03*
%TD*%
D37*
%TO.P,D4,1,K*%
%TO.N,GND*%
X148000000Y-106037500D03*
%TO.P,D4,2,A*%
%TO.N,Net-(D4-A)*%
X148000000Y-104462500D03*
%TD*%
D35*
%TO.P,C21,1*%
%TO.N,GND*%
X146600000Y-78150000D03*
%TO.P,C21,2*%
%TO.N,Net-(C21-Pad2)*%
X146600000Y-76600000D03*
%TD*%
D38*
%TO.P,C2,1*%
%TO.N,+3V3*%
X143600000Y-74225000D03*
%TO.P,C2,2*%
%TO.N,GND*%
X143600000Y-75775000D03*
%TD*%
D17*
%TO.P,C18,1*%
%TO.N,RUN*%
X147500000Y-97420000D03*
%TO.P,C18,2*%
%TO.N,GND*%
X147500000Y-98380000D03*
%TD*%
D39*
%TO.P,R11,1*%
%TO.N,Net-(U1-TS)*%
X146400000Y-73385000D03*
%TO.P,R11,2*%
%TO.N,GND*%
X146400000Y-72365000D03*
%TD*%
D13*
%TO.P,C9,1*%
%TO.N,+3V3*%
X147987312Y-84420000D03*
%TO.P,C9,2*%
%TO.N,GND*%
X147987312Y-83460000D03*
%TD*%
%TO.P,C10,1*%
%TO.N,+3V3*%
X146967312Y-84430000D03*
%TO.P,C10,2*%
%TO.N,GND*%
X146967312Y-83470000D03*
%TD*%
D21*
%TO.P,R3,1*%
%TO.N,USB_D+*%
X145700000Y-85990000D03*
%TO.P,R3,2*%
%TO.N,Net-(U2-USB_DP)*%
X145700000Y-87010000D03*
%TD*%
D40*
%TO.P,U3,1,~{CS}*%
%TO.N,QSPI_SS*%
X139087500Y-80735000D03*
%TO.P,U3,2,DO/IO_{1}*%
%TO.N,QSPI_SD1*%
X139087500Y-82005000D03*
%TO.P,U3,3,~{WP}/IO_{2}*%
%TO.N,QSPI_SD2*%
X139087500Y-83275000D03*
%TO.P,U3,4,GND*%
%TO.N,GND*%
X139087500Y-84545000D03*
%TO.P,U3,5,DI/IO_{0}*%
%TO.N,QSPI_SD0*%
X144412500Y-84545000D03*
%TO.P,U3,6,CLK*%
%TO.N,QSPI_SCLK*%
X144412500Y-83275000D03*
%TO.P,U3,7,~{HOLD}/~{RESET}/IO_{3}*%
%TO.N,QSPI_SD3*%
X144412500Y-82005000D03*
%TO.P,U3,8,VCC*%
%TO.N,+3V3*%
X144412500Y-80735000D03*
D41*
%TO.P,U3,9,GND*%
%TO.N,GND*%
X141750000Y-82640000D03*
%TD*%
D13*
%TO.P,C12,1*%
%TO.N,+1V1*%
X147700000Y-87280000D03*
%TO.P,C12,2*%
%TO.N,GND*%
X147700000Y-86320000D03*
%TD*%
D21*
%TO.P,R9,1*%
%TO.N,/EN2*%
X151500000Y-79490000D03*
%TO.P,R9,2*%
%TO.N,Net-(D3-A)*%
X151500000Y-80510000D03*
%TD*%
D15*
%TO.P,C20,1*%
%TO.N,GND*%
X148920000Y-72000000D03*
%TO.P,C20,2*%
%TO.N,VBUS*%
X149880000Y-72000000D03*
%TD*%
D22*
%TO.P,J3,1,Pin_1*%
%TO.N,GPIO0*%
X136110000Y-63370000D03*
D23*
%TO.P,J3,2,Pin_2*%
%TO.N,GPIO1*%
X136110000Y-65910000D03*
%TO.P,J3,3,Pin_3*%
%TO.N,GND*%
X136110000Y-68450000D03*
%TO.P,J3,4,Pin_4*%
%TO.N,GPIO2*%
X136110000Y-70990000D03*
%TO.P,J3,5,Pin_5*%
%TO.N,GPIO3*%
X136110000Y-73530000D03*
%TO.P,J3,6,Pin_6*%
%TO.N,GPIO4*%
X136110000Y-76070000D03*
%TO.P,J3,7,Pin_7*%
%TO.N,GPIO5*%
X136110000Y-78610000D03*
%TO.P,J3,8,Pin_8*%
%TO.N,GND*%
X136110000Y-81150000D03*
%TO.P,J3,9,Pin_9*%
%TO.N,GPIO6*%
X136110000Y-83690000D03*
%TO.P,J3,10,Pin_10*%
%TO.N,GPIO7*%
X136110000Y-86230000D03*
%TO.P,J3,11,Pin_11*%
%TO.N,GPIO8*%
X136110000Y-88770000D03*
%TO.P,J3,12,Pin_12*%
%TO.N,GPIO9*%
X136110000Y-91310000D03*
%TO.P,J3,13,Pin_13*%
%TO.N,GND*%
X136110000Y-93850000D03*
%TO.P,J3,14,Pin_14*%
%TO.N,GPIO10*%
X136110000Y-96390000D03*
%TO.P,J3,15,Pin_15*%
%TO.N,GPIO11*%
X136110000Y-98930000D03*
%TO.P,J3,16,Pin_16*%
%TO.N,GPIO12*%
X136110000Y-101470000D03*
%TO.P,J3,17,Pin_17*%
%TO.N,GPIO13*%
X136110000Y-104010000D03*
%TO.P,J3,18,Pin_18*%
%TO.N,GND*%
X136110000Y-106550000D03*
%TO.P,J3,19,Pin_19*%
%TO.N,GPIO14*%
X136110000Y-109090000D03*
%TO.P,J3,20,Pin_20*%
%TO.N,GPIO15*%
X136110000Y-111630000D03*
%TD*%
D39*
%TO.P,R10,1*%
%TO.N,Net-(D2-A)*%
X146500000Y-80510000D03*
%TO.P,R10,2*%
%TO.N,/EN2*%
X146500000Y-79490000D03*
%TD*%
D36*
%TO.P,D2,1,K*%
%TO.N,Net-(D2-K)*%
X148000000Y-79612500D03*
%TO.P,D2,2,A*%
%TO.N,Net-(D2-A)*%
X148000000Y-81187500D03*
%TD*%
D42*
%TO.P,C1,1*%
%TO.N,VBUS*%
X142200000Y-70600000D03*
%TO.P,C1,2*%
%TO.N,GND*%
X140650000Y-70600000D03*
%TD*%
D43*
%TO.N,GND*%
X152565687Y-95565687D03*
X138540000Y-63450000D03*
X151434313Y-94434313D03*
X147250000Y-99500000D03*
X146960000Y-82220000D03*
X145500000Y-90000000D03*
X138020735Y-91529265D03*
X151220000Y-63450000D03*
X141000000Y-105900000D03*
X141800000Y-102000000D03*
X150599000Y-76410604D03*
X152032900Y-83010000D03*
X148470000Y-107610000D03*
X139706199Y-83913677D03*
X143000000Y-91000000D03*
X139711702Y-81370001D03*
X145000000Y-108800000D03*
X141700000Y-97671000D03*
X145000000Y-105850000D03*
X144410000Y-71270000D03*
X140960000Y-75530000D03*
X143110000Y-93770000D03*
X138100000Y-108200000D03*
X147100000Y-90500000D03*
X139770000Y-87855076D03*
X149240000Y-84260000D03*
X146500000Y-100250000D03*
X145030000Y-63450000D03*
X143788298Y-83910000D03*
X143780000Y-81370001D03*
X143500000Y-89750000D03*
X146410000Y-71270000D03*
X146500000Y-99500000D03*
X147785735Y-77465735D03*
X137520000Y-69870000D03*
%TO.N,+3V3*%
X144675000Y-74220000D03*
X145383946Y-87766373D03*
X138049587Y-92401060D03*
X144380000Y-78160000D03*
X139850000Y-101000000D03*
X146955038Y-85223229D03*
X147300000Y-89520000D03*
%TO.N,RUN*%
X152000000Y-95000000D03*
X148111000Y-99500000D03*
%TO.N,Net-(C21-Pad2)*%
X146710000Y-74650000D03*
%TO.N,Net-(D2-K)*%
X149000543Y-77011481D03*
X148224265Y-78724265D03*
%TO.N,Net-(D3-K)*%
X149089737Y-78800000D03*
X150341241Y-77548496D03*
%TO.N,GPIO28_ADC2*%
X150325735Y-90000000D03*
X152800000Y-74770000D03*
%TO.N,GPIO29_ADC3*%
X149736874Y-89458478D03*
X152200000Y-67600000D03*
X151648529Y-78199999D03*
%TO.N,GPIO22*%
X147624632Y-92600216D03*
%TO.N,GPIO2*%
X139880002Y-86500000D03*
%TO.N,GPIO1*%
X142385472Y-90213184D03*
%TO.N,GPIO3*%
X139079999Y-86500000D03*
%TO.N,GPIO8*%
X142375895Y-93400870D03*
%TO.N,GPIO5*%
X142483268Y-92386301D03*
%TO.N,GPIO4*%
X138279999Y-86500000D03*
%TO.N,GPIO0*%
X138200000Y-68900000D03*
X140749236Y-89800707D03*
%TO.N,GPIO14*%
X143201400Y-94623681D03*
%TO.N,SWCLK*%
X145670200Y-94297291D03*
%TO.N,SWD*%
X146830000Y-94190000D03*
%TO.N,Net-(R7-Pad2)*%
X143205735Y-102705735D03*
X141125000Y-86625000D03*
%TO.N,GPIO25*%
X147624452Y-91400440D03*
X148740000Y-101910000D03*
%TD*%
D44*
%TO.N,GND*%
X149900000Y-76075000D02*
X150263396Y-76075000D01*
X148250000Y-68545000D02*
X148405000Y-68545000D01*
D45*
X149150000Y-74637500D02*
X149840000Y-75327500D01*
X141380000Y-99220000D02*
X141700000Y-98900000D01*
X145000000Y-92000000D02*
X145600000Y-92000000D01*
X149840000Y-76015000D02*
X149900000Y-76075000D01*
X147763500Y-75336500D02*
X148451000Y-75336500D01*
X149840000Y-75327500D02*
X149840000Y-76015000D01*
X150474000Y-71064000D02*
X150474000Y-69401000D01*
X141109000Y-97671000D02*
X141700000Y-97671000D01*
X146420000Y-100330000D02*
X146500000Y-100250000D01*
X148900000Y-71920000D02*
X148920000Y-71900000D01*
X147700000Y-86320000D02*
X147700000Y-85800000D01*
X145500000Y-100330000D02*
X146420000Y-100330000D01*
X149150000Y-74637500D02*
X148900000Y-74887500D01*
X142432900Y-102000000D02*
X141800000Y-102000000D01*
X137760000Y-108200000D02*
X138100000Y-108200000D01*
D44*
X136110000Y-68450000D02*
X136110000Y-68460000D01*
X150263396Y-76075000D02*
X150599000Y-76410604D01*
D45*
X145500000Y-100330000D02*
X144170000Y-100330000D01*
D44*
X148920000Y-72000000D02*
X148210000Y-72000000D01*
D45*
X141750000Y-82640000D02*
X143019999Y-81370001D01*
D44*
X141595000Y-68545000D02*
X140680000Y-67630000D01*
D45*
X141750000Y-82640000D02*
X140979876Y-82640000D01*
X148900000Y-74887500D02*
X148900000Y-76075000D01*
X139087500Y-84545000D02*
X139087500Y-84532376D01*
D44*
X148250000Y-69210000D02*
X149310000Y-70270000D01*
D45*
X148451000Y-75336500D02*
X149150000Y-74637500D01*
X144000000Y-95437500D02*
X144000000Y-93000000D01*
X141750000Y-82640000D02*
X142518298Y-82640000D01*
X146967312Y-82227312D02*
X146960000Y-82220000D01*
X150400000Y-89060000D02*
X150420000Y-89080000D01*
X144880000Y-92000000D02*
X143110000Y-93770000D01*
D44*
X136110000Y-68460000D02*
X137520000Y-69870000D01*
D45*
X149960000Y-86520000D02*
X149960000Y-85820000D01*
X148000000Y-107140000D02*
X148470000Y-107610000D01*
X145000000Y-107350000D02*
X145000000Y-108800000D01*
D44*
X148250000Y-68545000D02*
X148250000Y-69210000D01*
D45*
X140200000Y-99220000D02*
X141380000Y-99220000D01*
D44*
X146430000Y-71290000D02*
X146410000Y-71270000D01*
D45*
X143900000Y-100600000D02*
X143832900Y-100600000D01*
X148950000Y-86520000D02*
X149960000Y-86520000D01*
X140200000Y-99220000D02*
X140200000Y-98580000D01*
D44*
X148210000Y-72000000D02*
X147500000Y-71290000D01*
D45*
X143019999Y-81370001D02*
X143780000Y-81370001D01*
X152032900Y-83007100D02*
X152032900Y-83010000D01*
X153890000Y-81150000D02*
X152032900Y-83007100D01*
X147700000Y-85800000D02*
X149240000Y-84260000D01*
D44*
X147101470Y-78150000D02*
X147785735Y-77465735D01*
D45*
X150571000Y-88329000D02*
X150571000Y-87131000D01*
X143832900Y-100600000D02*
X142432900Y-102000000D01*
X145600000Y-92000000D02*
X147100000Y-90500000D01*
X151230000Y-94230000D02*
X151230000Y-92900000D01*
X150400000Y-88500000D02*
X150571000Y-88329000D01*
D44*
X139620000Y-73266000D02*
X140960000Y-73266000D01*
D45*
X144170000Y-100330000D02*
X143900000Y-100600000D01*
X140979876Y-82640000D02*
X139706199Y-83913677D01*
X138029265Y-91529265D02*
X138020735Y-91529265D01*
X141700000Y-98900000D02*
X141700000Y-97671000D01*
X150800000Y-71390000D02*
X150474000Y-71064000D01*
X147712500Y-77392500D02*
X147785735Y-77465735D01*
X145000000Y-92000000D02*
X144000000Y-92000000D01*
X138910589Y-92410589D02*
X138029265Y-91529265D01*
X145000000Y-90500000D02*
X145500000Y-90000000D01*
X151434313Y-94434313D02*
X151230000Y-94230000D01*
X149320000Y-63450000D02*
X151220000Y-63450000D01*
X145000000Y-91250000D02*
X143500000Y-89750000D01*
X150474000Y-69401000D02*
X151250000Y-68625000D01*
D44*
X141750000Y-68545000D02*
X141595000Y-68545000D01*
D45*
X139087500Y-84532376D02*
X139706199Y-83913677D01*
D44*
X147500000Y-71290000D02*
X146430000Y-71290000D01*
D45*
X146500000Y-98380000D02*
X146500000Y-99500000D01*
X146400000Y-72365000D02*
X146400000Y-71280000D01*
X140680000Y-63450000D02*
X138540000Y-63450000D01*
X140960000Y-73266000D02*
X140960000Y-75530000D01*
X146967312Y-83470000D02*
X146967312Y-82227312D01*
X148000000Y-106037500D02*
X148000000Y-107140000D01*
X141000000Y-107350000D02*
X141000000Y-105900000D01*
X147410000Y-71200000D02*
X147500000Y-71290000D01*
X147410000Y-70300000D02*
X147410000Y-71200000D01*
X145000000Y-92000000D02*
X145000000Y-90500000D01*
X145500000Y-98380000D02*
X146500000Y-98380000D01*
X139770000Y-87855076D02*
X139770000Y-88500000D01*
X147712500Y-75387500D02*
X147712500Y-77392500D01*
X146400000Y-71280000D02*
X146410000Y-71270000D01*
X144000000Y-92000000D02*
X143000000Y-91000000D01*
X150571000Y-87131000D02*
X149960000Y-86520000D01*
X149960000Y-85820000D02*
X150280000Y-85500000D01*
X142518298Y-82640000D02*
X143788298Y-83910000D01*
D44*
X148405000Y-68545000D02*
X149320000Y-67630000D01*
D45*
X145000000Y-107350000D02*
X145000000Y-105850000D01*
X145000000Y-92000000D02*
X144880000Y-92000000D01*
X146500000Y-98380000D02*
X147500000Y-98380000D01*
X140200000Y-98580000D02*
X141109000Y-97671000D01*
D44*
X148920000Y-72000000D02*
X148920000Y-73180000D01*
D45*
X147712500Y-75387500D02*
X147763500Y-75336500D01*
X144410000Y-70300000D02*
X144410000Y-71270000D01*
D44*
X146600000Y-78150000D02*
X147101470Y-78150000D01*
D45*
X136110000Y-106550000D02*
X137760000Y-108200000D01*
X145000000Y-92000000D02*
X145000000Y-91250000D01*
X141750000Y-82640000D02*
X140480001Y-81370001D01*
X140480001Y-81370001D02*
X139711702Y-81370001D01*
X150400000Y-88500000D02*
X150400000Y-89060000D01*
%TO.N,+3V3*%
X144380000Y-78160000D02*
X144380000Y-75005000D01*
X144670000Y-74225000D02*
X144675000Y-74220000D01*
X150270000Y-92900000D02*
X150170000Y-93000000D01*
X138049587Y-92401060D02*
X138049587Y-92413673D01*
X139850000Y-101960000D02*
X139890000Y-102000000D01*
X144412500Y-80735000D02*
X144412500Y-79432500D01*
X147600000Y-88562500D02*
X147600000Y-89220000D01*
X138725325Y-93089411D02*
X139589411Y-93089411D01*
X148437500Y-89400000D02*
X147420000Y-89400000D01*
X146955038Y-85223229D02*
X146955038Y-84442274D01*
X144380000Y-79400000D02*
X144380000Y-78160000D01*
X147867500Y-88562500D02*
X148950000Y-87480000D01*
X139589411Y-93089411D02*
X139678822Y-93000000D01*
X145200000Y-95437500D02*
X145200000Y-97120000D01*
X147420000Y-89400000D02*
X147300000Y-89520000D01*
X148540000Y-89400000D02*
X149440000Y-88500000D01*
X147600000Y-88562500D02*
X147867500Y-88562500D01*
X144412500Y-79432500D02*
X144380000Y-79400000D01*
X145600000Y-87982427D02*
X145383946Y-87766373D01*
X149440000Y-88000000D02*
X149960000Y-87480000D01*
X147600000Y-89220000D02*
X147300000Y-89520000D01*
X145200000Y-97120000D02*
X145500000Y-97420000D01*
X147200000Y-88562500D02*
X147600000Y-88562500D01*
X147987312Y-84420000D02*
X147758267Y-84420000D01*
X143700000Y-74225000D02*
X143750000Y-74225000D01*
X143688500Y-80011000D02*
X144412500Y-80735000D01*
X139678822Y-93000000D02*
X141562500Y-93000000D01*
X140110000Y-79300000D02*
X140821000Y-80011000D01*
X146955038Y-84442274D02*
X146967312Y-84430000D01*
X148950000Y-87480000D02*
X149960000Y-87480000D01*
X144380000Y-75005000D02*
X143600000Y-74225000D01*
X145600000Y-88562500D02*
X145600000Y-87982427D01*
X140730000Y-88500000D02*
X140730000Y-88567500D01*
X143600000Y-74225000D02*
X144670000Y-74225000D01*
X147758267Y-84420000D02*
X146955038Y-85223229D01*
X138049587Y-92413673D02*
X138725325Y-93089411D01*
X141562500Y-89400000D02*
X141440000Y-89400000D01*
X148437500Y-89400000D02*
X148620000Y-89400000D01*
X143700000Y-74225000D02*
X142309000Y-74225000D01*
X148437500Y-89400000D02*
X148540000Y-89400000D01*
X143391000Y-74216000D02*
X143600000Y-74425000D01*
X150170000Y-93000000D02*
X148437500Y-93000000D01*
X145200000Y-87950319D02*
X145383946Y-87766373D01*
X145200000Y-88562500D02*
X145200000Y-87950319D01*
X140821000Y-80011000D02*
X143688500Y-80011000D01*
X149440000Y-88500000D02*
X149440000Y-88000000D01*
X149760000Y-87480000D02*
X149810000Y-87430000D01*
X140730000Y-88567500D02*
X141562500Y-89400000D01*
X142309000Y-74225000D02*
X142300000Y-74216000D01*
X139850000Y-101000000D02*
X139850000Y-101960000D01*
%TO.N,+1V1*%
X145800000Y-96800000D02*
X145900000Y-96800000D01*
X145600000Y-96600000D02*
X145800000Y-96800000D01*
X146800000Y-89100000D02*
X146599000Y-89301000D01*
X146599000Y-89301000D02*
X145003226Y-89301000D01*
X149320000Y-85500000D02*
X149120000Y-85500000D01*
X146800000Y-88562500D02*
X146800000Y-89100000D01*
X147135001Y-87535001D02*
X146800000Y-87870001D01*
X145003226Y-89301000D02*
X144800000Y-89097774D01*
X148311000Y-86669000D02*
X148311000Y-85889000D01*
X145900000Y-96800000D02*
X146500000Y-97400000D01*
X147390001Y-87280000D02*
X147135001Y-87535001D01*
X148311000Y-85889000D02*
X148700000Y-85500000D01*
X148700000Y-85500000D02*
X149320000Y-85500000D01*
X144800000Y-88562500D02*
X144800000Y-89097774D01*
X147700000Y-87280000D02*
X148311000Y-86669000D01*
X147700000Y-87280000D02*
X147390001Y-87280000D01*
X146800000Y-87870001D02*
X146800000Y-88562500D01*
X145600000Y-95437500D02*
X145600000Y-96600000D01*
X146500000Y-97400000D02*
X146500000Y-97420000D01*
%TO.N,XIN*%
X143169660Y-96780000D02*
X142899000Y-97050660D01*
X144120000Y-96780000D02*
X143169660Y-96780000D01*
X141280000Y-100180000D02*
X141700000Y-100600000D01*
X144400000Y-96500000D02*
X144120000Y-96780000D01*
X142899000Y-100301000D02*
X142600000Y-100600000D01*
X144400000Y-95437500D02*
X144400000Y-96500000D01*
X142899000Y-97050660D02*
X142899000Y-100301000D01*
X142600000Y-100600000D02*
X141700000Y-100600000D01*
X140200000Y-100180000D02*
X141280000Y-100180000D01*
%TO.N,Net-(C16-Pad2)*%
X143490000Y-98490000D02*
X143900000Y-98900000D01*
X143490000Y-97400000D02*
X143490000Y-98490000D01*
X144040000Y-98410000D02*
X143900000Y-98550000D01*
X145500000Y-99370000D02*
X144370000Y-99370000D01*
X144370000Y-99370000D02*
X143900000Y-98900000D01*
%TO.N,RUN*%
X152000000Y-94930000D02*
X152651000Y-94279000D01*
X147500000Y-97420000D02*
X147497226Y-97420000D01*
X147497226Y-97420000D02*
X146800000Y-96722774D01*
X152000000Y-95000000D02*
X152000000Y-94930000D01*
X140810000Y-102960000D02*
X141000000Y-103150000D01*
X148111000Y-99489000D02*
X145500000Y-102100000D01*
X141260000Y-102890000D02*
X141000000Y-103150000D01*
X141850000Y-103150000D02*
X141000000Y-103150000D01*
X146800000Y-96722774D02*
X146800000Y-95437500D01*
X152651000Y-90009000D02*
X153890000Y-88770000D01*
X142900000Y-102100000D02*
X141850000Y-103150000D01*
X148111000Y-98031000D02*
X148111000Y-99489000D01*
X140810000Y-102100000D02*
X140810000Y-102960000D01*
X145500000Y-102100000D02*
X142900000Y-102100000D01*
X152651000Y-94279000D02*
X152651000Y-90009000D01*
X147500000Y-97420000D02*
X148111000Y-98031000D01*
X141010000Y-103140000D02*
X141000000Y-103150000D01*
X140910000Y-102000000D02*
X140810000Y-102100000D01*
%TO.N,/EN2*%
X151500000Y-79490000D02*
X151500000Y-78900000D01*
X148400000Y-77700000D02*
X148900000Y-78200000D01*
X150800000Y-78200000D02*
X151600000Y-77400000D01*
X151600000Y-75446702D02*
X151040798Y-74887500D01*
X151600000Y-77400000D02*
X151600000Y-75446702D01*
X150587500Y-74887500D02*
X150587500Y-74387500D01*
X151421000Y-70346000D02*
X151421000Y-74007298D01*
X151421000Y-74007298D02*
X151040798Y-74387500D01*
X151500000Y-78900000D02*
X150800000Y-78200000D01*
X151040798Y-74887500D02*
X150587500Y-74887500D01*
X151250000Y-70175000D02*
X151421000Y-70346000D01*
X146500000Y-79490000D02*
X146610000Y-79490000D01*
X151040798Y-74387500D02*
X150587500Y-74387500D01*
X148400000Y-76075000D02*
X148400000Y-77700000D01*
X148900000Y-78200000D02*
X150800000Y-78200000D01*
X146610000Y-79490000D02*
X148400000Y-77700000D01*
D44*
%TO.N,VBUS*%
X147931000Y-69752000D02*
X147450000Y-69271000D01*
X142300000Y-70700000D02*
X142200000Y-70600000D01*
X146667000Y-67068000D02*
X147450000Y-67851000D01*
X142550000Y-68545000D02*
X142550000Y-67850000D01*
X143332000Y-67068000D02*
X146667000Y-67068000D01*
X141374000Y-71426000D02*
X142200000Y-70600000D01*
X148535000Y-65200000D02*
X151700000Y-65200000D01*
D45*
X142300000Y-70725000D02*
X142175000Y-70600000D01*
D44*
X147450000Y-67851000D02*
X147450000Y-68545000D01*
X138500000Y-71290000D02*
X138636000Y-71426000D01*
X142300000Y-72316000D02*
X142300000Y-70700000D01*
X147941999Y-69752000D02*
X147931000Y-69752000D01*
X149880000Y-71690001D02*
X147941999Y-69752000D01*
X138636000Y-71426000D02*
X141374000Y-71426000D01*
X149900000Y-73200000D02*
X149900000Y-72020000D01*
X147450000Y-69271000D02*
X147450000Y-68545000D01*
X146667000Y-67068000D02*
X148535000Y-65200000D01*
X149900000Y-72020000D02*
X149880000Y-72000000D01*
X142550000Y-68545000D02*
X142550000Y-70250000D01*
X142550000Y-70250000D02*
X142200000Y-70600000D01*
X142550000Y-67850000D02*
X143332000Y-67068000D01*
D45*
X147214000Y-68309000D02*
X147450000Y-68545000D01*
D44*
X149900000Y-71920000D02*
X149880000Y-71900000D01*
X149880000Y-72000000D02*
X149880000Y-71690001D01*
X153530000Y-63370000D02*
X153890000Y-63370000D01*
X151700000Y-65200000D02*
X153530000Y-63370000D01*
%TO.N,Net-(C21-Pad2)*%
X146600000Y-76600000D02*
X146600000Y-74760000D01*
X146710000Y-74650000D02*
X146972500Y-74387500D01*
X146947500Y-74887500D02*
X147712500Y-74887500D01*
X146600000Y-74760000D02*
X146710000Y-74650000D01*
X146710000Y-74650000D02*
X146947500Y-74887500D01*
X146972500Y-74387500D02*
X147712500Y-74387500D01*
D45*
%TO.N,Net-(D2-A)*%
X146500000Y-80510000D02*
X147322500Y-80510000D01*
X147322500Y-80510000D02*
X148000000Y-81187500D01*
%TO.N,Net-(D2-K)*%
X149000543Y-77011481D02*
X149395606Y-76616418D01*
X149395606Y-76079394D02*
X149400000Y-76075000D01*
X148224265Y-78724265D02*
X148224265Y-79388235D01*
X148224265Y-79388235D02*
X148000000Y-79612500D01*
X149395606Y-76616418D02*
X149395606Y-76079394D01*
%TO.N,Net-(D3-A)*%
X150677500Y-80510000D02*
X150000000Y-81187500D01*
X151500000Y-80510000D02*
X150677500Y-80510000D01*
%TO.N,Net-(D3-K)*%
X151199000Y-75999000D02*
X150587500Y-75387500D01*
X151199000Y-76690737D02*
X151199000Y-75999000D01*
X150341241Y-77548496D02*
X151199000Y-76690737D01*
X150250000Y-79612500D02*
X149902237Y-79612500D01*
X149902237Y-79612500D02*
X149089737Y-78800000D01*
X150000000Y-79612500D02*
X149902237Y-79612500D01*
%TO.N,Net-(D4-A)*%
X147740000Y-104202500D02*
X148000000Y-104462500D01*
X147740000Y-103000000D02*
X147740000Y-104202500D01*
%TO.N,USB_D+*%
X145275000Y-69657501D02*
X145275000Y-82300400D01*
X145250000Y-69522000D02*
X145201000Y-69571000D01*
X145250000Y-68545000D02*
X145250000Y-69632501D01*
X145250000Y-68545000D02*
X145250000Y-69522000D01*
X145603902Y-85530299D02*
X145700000Y-85626397D01*
X144250000Y-69522000D02*
X144250000Y-68545000D01*
X145700000Y-85626397D02*
X145700000Y-85990000D01*
X145201000Y-69571000D02*
X144299000Y-69571000D01*
X145250000Y-69632501D02*
X145275000Y-69657501D01*
X144299000Y-69571000D02*
X144250000Y-69522000D01*
X145275000Y-82300400D02*
X145902000Y-82927400D01*
X145902000Y-82927400D02*
X145902000Y-85232200D01*
X145902000Y-85232200D02*
X145603902Y-85530299D01*
%TO.N,Net-(J1-CC2)*%
X143250000Y-68545000D02*
X143250000Y-70170000D01*
X143250000Y-70170000D02*
X143370000Y-70290000D01*
%TO.N,USB_D-*%
X145701000Y-67519000D02*
X145750000Y-67568000D01*
X145750000Y-67568000D02*
X145750000Y-68545000D01*
X146240284Y-85530284D02*
X146700000Y-85990000D01*
X145750000Y-68545000D02*
X145750000Y-69632501D01*
X144799000Y-67519000D02*
X145701000Y-67519000D01*
X146351980Y-85418588D02*
X146240284Y-85530284D01*
X145725000Y-82114032D02*
X146351980Y-82741012D01*
X146351980Y-82741012D02*
X146351980Y-85418588D01*
X144750000Y-67568000D02*
X144799000Y-67519000D01*
X145750000Y-69632501D02*
X145725000Y-69657501D01*
X144750000Y-68545000D02*
X144750000Y-67568000D01*
X145725000Y-69657501D02*
X145725000Y-82114032D01*
%TO.N,Net-(J1-CC1)*%
X146250000Y-70160000D02*
X146390000Y-70300000D01*
X146250000Y-68545000D02*
X146250000Y-70160000D01*
%TO.N,GPIO27_ADC1*%
X153890000Y-76850000D02*
X153890000Y-76070000D01*
X150580000Y-90600000D02*
X151030000Y-90150000D01*
X152150000Y-78590000D02*
X153890000Y-76850000D01*
X151030000Y-82200000D02*
X152150000Y-81080000D01*
X151030000Y-90150000D02*
X151030000Y-82200000D01*
X152150000Y-81080000D02*
X152150000Y-78590000D01*
X148437500Y-90600000D02*
X150580000Y-90600000D01*
%TO.N,GPIO28_ADC2*%
X152739000Y-74709000D02*
X152739000Y-72141000D01*
X148437500Y-90200000D02*
X150125735Y-90200000D01*
X152739000Y-72141000D02*
X153890000Y-70990000D01*
X152800000Y-74770000D02*
X152739000Y-74709000D01*
X150125735Y-90200000D02*
X150325735Y-90000000D01*
%TO.N,GPIO23*%
X152250000Y-91500000D02*
X152250000Y-87870000D01*
X151550000Y-92200000D02*
X152250000Y-91500000D01*
X152250000Y-87870000D02*
X153890000Y-86230000D01*
X148437500Y-92200000D02*
X151550000Y-92200000D01*
%TO.N,GPIO20*%
X153890000Y-98930000D02*
X153890000Y-98322900D01*
X149168100Y-93800000D02*
X149800000Y-94431900D01*
X153030000Y-98930000D02*
X153890000Y-98930000D01*
X153890000Y-98930000D02*
X153890000Y-98521900D01*
X148437500Y-93800000D02*
X149168100Y-93800000D01*
X149800000Y-95700000D02*
X153030000Y-98930000D01*
X149800000Y-94431900D02*
X149800000Y-95700000D01*
%TO.N,GPIO29_ADC3*%
X149395352Y-89800000D02*
X149736874Y-89458478D01*
X152200000Y-77648528D02*
X151648529Y-78199999D01*
X152200000Y-67600000D02*
X152200000Y-77648528D01*
X148437500Y-89800000D02*
X149395352Y-89800000D01*
%TO.N,GPIO22*%
X148437500Y-92600000D02*
X147624848Y-92600000D01*
X147624848Y-92600000D02*
X147624632Y-92600216D01*
%TO.N,GPIO18*%
X153890000Y-104010000D02*
X153890000Y-103990000D01*
X148437500Y-95537500D02*
X148437500Y-94600000D01*
X153890000Y-103990000D02*
X150000000Y-100100000D01*
X150000000Y-100100000D02*
X150000000Y-97100000D01*
X150000000Y-97100000D02*
X148437500Y-95537500D01*
%TO.N,GPIO21*%
X150300000Y-94000000D02*
X150300000Y-95600000D01*
X149700000Y-93400000D02*
X150300000Y-94000000D01*
X148437500Y-93400000D02*
X149700000Y-93400000D01*
X150300000Y-95600000D02*
X151090000Y-96390000D01*
X151090000Y-96390000D02*
X153890000Y-96390000D01*
%TO.N,GPIO19*%
X153870000Y-101470000D02*
X150500000Y-98100000D01*
X149300000Y-94499000D02*
X149001000Y-94200000D01*
X153890000Y-101470000D02*
X153870000Y-101470000D01*
X150500000Y-98100000D02*
X150500000Y-97000000D01*
X149300000Y-95800000D02*
X149300000Y-94499000D01*
X149001000Y-94200000D02*
X148437500Y-94200000D01*
X150500000Y-97000000D02*
X149300000Y-95800000D01*
%TO.N,GPIO26_ADC0*%
X152620000Y-79880000D02*
X153890000Y-78610000D01*
X150980000Y-91000000D02*
X151432900Y-90547100D01*
X152620000Y-81330000D02*
X152620000Y-79880000D01*
X148437500Y-91000000D02*
X150980000Y-91000000D01*
X151432900Y-90547100D02*
X151432900Y-82517100D01*
X151432900Y-82517100D02*
X152620000Y-81330000D01*
%TO.N,GPIO17*%
X147600000Y-96100000D02*
X147750000Y-96250000D01*
X147600000Y-95437500D02*
X147600000Y-96100000D01*
X147600000Y-95437500D02*
X147600000Y-95643750D01*
X147750000Y-96250000D02*
X148582900Y-96250000D01*
X148582900Y-96250000D02*
X149500000Y-97167100D01*
X149500000Y-97167100D02*
X149500000Y-106300000D01*
X149500000Y-106300000D02*
X152290000Y-109090000D01*
X152290000Y-109090000D02*
X153890000Y-109090000D01*
%TO.N,GPIO13*%
X140460000Y-96670000D02*
X138700000Y-98430000D01*
X138700000Y-101800000D02*
X136490000Y-104010000D01*
X138700000Y-98430000D02*
X138700000Y-101800000D01*
X142800000Y-95437500D02*
X142800000Y-96015460D01*
X136490000Y-104010000D02*
X136110000Y-104010000D01*
X142145460Y-96670000D02*
X140460000Y-96670000D01*
X142800000Y-96015460D02*
X142145460Y-96670000D01*
%TO.N,GPIO6*%
X136110000Y-84602240D02*
X136110000Y-83690000D01*
X137680000Y-86172240D02*
X136110000Y-84602240D01*
X137680000Y-89290000D02*
X137680000Y-86172240D01*
X141562500Y-92200000D02*
X140590000Y-92200000D01*
X140590000Y-92200000D02*
X137680000Y-89290000D01*
%TO.N,GPIO2*%
X139900215Y-86876334D02*
X139900215Y-86498000D01*
X141562500Y-90600000D02*
X140700000Y-90600000D01*
X140700000Y-90600000D02*
X139610000Y-89510000D01*
X139610000Y-89510000D02*
X139102000Y-89002000D01*
X139102000Y-89002000D02*
X139102000Y-87674549D01*
X139102000Y-87674549D02*
X139900215Y-86876334D01*
%TO.N,GPIO7*%
X140420000Y-92600000D02*
X137260000Y-89440000D01*
X137260000Y-87380000D02*
X136110000Y-86230000D01*
X141562500Y-92600000D02*
X140420000Y-92600000D01*
X137260000Y-89440000D02*
X137260000Y-87380000D01*
%TO.N,GPIO10*%
X137710000Y-96390000D02*
X136110000Y-96390000D01*
X141562500Y-94200000D02*
X139900000Y-94200000D01*
X139900000Y-94200000D02*
X137710000Y-96390000D01*
%TO.N,GPIO1*%
X142372288Y-90200000D02*
X142385472Y-90213184D01*
X141562500Y-90200000D02*
X142372288Y-90200000D01*
%TO.N,GPIO3*%
X139270000Y-89740000D02*
X138701000Y-89171000D01*
X138701000Y-87240000D02*
X139100212Y-86840788D01*
X140530000Y-91000000D02*
X139270000Y-89740000D01*
X139100212Y-86840788D02*
X139100212Y-86498000D01*
X138701000Y-89171000D02*
X138701000Y-87240000D01*
X141562500Y-91000000D02*
X140530000Y-91000000D01*
%TO.N,GPIO8*%
X141562500Y-93400000D02*
X142375025Y-93400000D01*
X142375025Y-93400000D02*
X142375895Y-93400870D01*
%TO.N,GPIO5*%
X142483268Y-92386301D02*
X142483268Y-92183268D01*
X142483268Y-92183268D02*
X142100000Y-91800000D01*
X142100000Y-91800000D02*
X141562500Y-91800000D01*
%TO.N,GPIO11*%
X136110000Y-98930000D02*
X140440000Y-94600000D01*
X140440000Y-94600000D02*
X141562500Y-94600000D01*
%TO.N,GPIO4*%
X138300101Y-86534449D02*
X138300000Y-86534550D01*
X140357100Y-91400000D02*
X141562500Y-91400000D01*
X138300000Y-86534550D02*
X138300000Y-89342900D01*
X138300000Y-89342900D02*
X140357100Y-91400000D01*
X138279999Y-86497099D02*
X138300101Y-86517201D01*
X138300101Y-86517201D02*
X138300101Y-86534449D01*
%TO.N,GPIO9*%
X141562500Y-93800000D02*
X138600000Y-93800000D01*
X138600000Y-93800000D02*
X136110000Y-91310000D01*
%TO.N,GPIO0*%
X138200000Y-65460000D02*
X136110000Y-63370000D01*
X141562500Y-89800000D02*
X140749943Y-89800000D01*
X138200000Y-68900000D02*
X138200000Y-65460000D01*
X140749943Y-89800000D02*
X140749236Y-89800707D01*
%TO.N,GPIO12*%
X138200000Y-98140000D02*
X138200000Y-100600000D01*
X140902500Y-95437500D02*
X138200000Y-98140000D01*
X138200000Y-100600000D02*
X137330000Y-101470000D01*
X142400000Y-95437500D02*
X140902500Y-95437500D01*
X137330000Y-101470000D02*
X136110000Y-101470000D01*
%TO.N,GPIO14*%
X143200000Y-94625081D02*
X143201400Y-94623681D01*
X143200000Y-95437500D02*
X143200000Y-94625081D01*
%TO.N,SWCLK*%
X146000000Y-94627091D02*
X145670200Y-94297291D01*
X146000000Y-95437500D02*
X146000000Y-94627091D01*
%TO.N,SWD*%
X146830000Y-94190000D02*
X146445494Y-94574506D01*
X146445494Y-94579338D02*
X146400000Y-94624832D01*
X146400000Y-94624832D02*
X146400000Y-95437500D01*
X146445494Y-94574506D02*
X146445494Y-94579338D01*
%TO.N,Net-(U2-USB_DP)*%
X146000000Y-88562500D02*
X146000000Y-87310000D01*
X146000000Y-87310000D02*
X145700000Y-87010000D01*
%TO.N,Net-(U2-USB_DM)*%
X146400000Y-88562500D02*
X146400000Y-87310000D01*
X146400000Y-87310000D02*
X146700000Y-87010000D01*
%TO.N,XOUT*%
X144800000Y-97110000D02*
X144510000Y-97400000D01*
X144800000Y-95437500D02*
X144800000Y-97110000D01*
%TO.N,QSPI_SS*%
X137550000Y-85135118D02*
X138312882Y-85898000D01*
X142400000Y-86834100D02*
X142400000Y-88562500D01*
X139090000Y-80732500D02*
X139087500Y-80735000D01*
X141463900Y-85898000D02*
X142400000Y-86834100D01*
X139090000Y-79300000D02*
X139090000Y-80732500D01*
X138312882Y-85898000D02*
X141463900Y-85898000D01*
X141810000Y-87300000D02*
X141810000Y-87972500D01*
X141810000Y-87972500D02*
X142400000Y-88562500D01*
X137550000Y-82272500D02*
X137550000Y-85135118D01*
X139087500Y-80735000D02*
X137550000Y-82272500D01*
%TO.N,Net-(R7-Pad2)*%
X143650000Y-103150000D02*
X143205735Y-102705735D01*
X140790000Y-86960000D02*
X140790000Y-87300000D01*
X145000000Y-103150000D02*
X143650000Y-103150000D01*
X141125000Y-86625000D02*
X140790000Y-86960000D01*
%TO.N,Net-(U1-TS)*%
X147712500Y-73887500D02*
X146902500Y-73887500D01*
X146902500Y-73887500D02*
X146400000Y-73385000D01*
%TO.N,Net-(U1-ISET)*%
X148390000Y-73200000D02*
X147500000Y-72310000D01*
X148400000Y-73200000D02*
X148390000Y-73200000D01*
%TO.N,Net-(U1-ILIM)*%
X150587500Y-73887500D02*
X150587500Y-72622500D01*
X150587500Y-72622500D02*
X150800000Y-72410000D01*
%TO.N,GPIO25*%
X147624892Y-91400000D02*
X147624452Y-91400440D01*
X148437500Y-91400000D02*
X147624892Y-91400000D01*
X148740000Y-102980000D02*
X148760000Y-103000000D01*
X148740000Y-101910000D02*
X148740000Y-102980000D01*
%TO.N,QSPI_SD1*%
X139087500Y-82005000D02*
X137960000Y-83132500D01*
X138478982Y-85497000D02*
X141630000Y-85497000D01*
X137960000Y-84978018D02*
X138478982Y-85497000D01*
X142800000Y-86667000D02*
X142800000Y-88562500D01*
X137960000Y-83132500D02*
X137960000Y-84978018D01*
X141630000Y-85497000D02*
X142800000Y-86667000D01*
%TO.N,QSPI_SD3*%
X145501000Y-85066100D02*
X144400000Y-86167100D01*
X145501000Y-83093500D02*
X145501000Y-85066100D01*
X144412500Y-82005000D02*
X145501000Y-83093500D01*
X144400000Y-86167100D02*
X144400000Y-88562500D01*
%TO.N,QSPI_SD0*%
X144412500Y-84545000D02*
X143600000Y-85357500D01*
X143600000Y-85357500D02*
X143600000Y-88562500D01*
%TO.N,GPIO15*%
X143003560Y-96379000D02*
X142311560Y-97071000D01*
X143600000Y-96150000D02*
X143371000Y-96379000D01*
X140876100Y-97071000D02*
X139250000Y-98697100D01*
X142311560Y-97071000D02*
X140876100Y-97071000D01*
X143371000Y-96379000D02*
X143003560Y-96379000D01*
X143600000Y-95437500D02*
X143600000Y-96150000D01*
X139250000Y-108490000D02*
X136110000Y-111630000D01*
X139250000Y-98697100D02*
X139250000Y-108490000D01*
%TO.N,QSPI_SCLK*%
X145100000Y-84900000D02*
X145100000Y-83962500D01*
X145100000Y-83962500D02*
X144412500Y-83275000D01*
X144000000Y-86000000D02*
X145100000Y-84900000D01*
X144000000Y-88562500D02*
X144000000Y-86000000D01*
%TO.N,QSPI_SD2*%
X138360000Y-84810918D02*
X138360000Y-84002500D01*
X138360000Y-84002500D02*
X139087500Y-83275000D01*
X141806000Y-85096000D02*
X138645082Y-85096000D01*
X143200000Y-86490000D02*
X141806000Y-85096000D01*
X138645082Y-85096000D02*
X138360000Y-84810918D01*
X143200000Y-88562500D02*
X143200000Y-86490000D01*
%TO.N,GPIO16*%
X148350000Y-96750000D02*
X149100000Y-97500000D01*
X147000000Y-102500000D02*
X147000000Y-107700000D01*
X147000000Y-107700000D02*
X150930000Y-111630000D01*
X147200000Y-96450000D02*
X147500000Y-96750000D01*
X147200000Y-95437500D02*
X147200000Y-96450000D01*
X149100000Y-97500000D02*
X149100000Y-100400000D01*
X150930000Y-111630000D02*
X153890000Y-111630000D01*
X147500000Y-96750000D02*
X148350000Y-96750000D01*
X149100000Y-100400000D02*
X147000000Y-102500000D01*
%TO.N,Net-(U4-EN)*%
X138500000Y-72310000D02*
X139614000Y-72310000D01*
X139614000Y-72310000D02*
X139620000Y-72316000D01*
%TO.N,GPIO24*%
X151849000Y-91091000D02*
X151849000Y-85731000D01*
X151849000Y-85731000D02*
X153890000Y-83690000D01*
X151140000Y-91800000D02*
X151849000Y-91091000D01*
X148437500Y-91800000D02*
X151140000Y-91800000D01*
%TD*%
%TA.AperFunction,Conductor*%
%TO.N,GND*%
G36*
X148618834Y-99943916D02*
G01*
X148674767Y-99985788D01*
X148699184Y-100051252D01*
X148699500Y-100060098D01*
X148699500Y-100182745D01*
X148679815Y-100249784D01*
X148663181Y-100270426D01*
X146679522Y-102254084D01*
X146679520Y-102254087D01*
X146640564Y-102321561D01*
X146626793Y-102345412D01*
X146617659Y-102379501D01*
X146617659Y-102379502D01*
X146617658Y-102379501D01*
X146599500Y-102447271D01*
X146599500Y-107752726D01*
X146626793Y-107854589D01*
X146627825Y-107856376D01*
X146679520Y-107945913D01*
X150684087Y-111950480D01*
X150775412Y-112003207D01*
X150877273Y-112030500D01*
X152726840Y-112030500D01*
X152793879Y-112050185D01*
X152837325Y-112098205D01*
X152906003Y-112232993D01*
X152956586Y-112302615D01*
X152980065Y-112368422D01*
X152964239Y-112436476D01*
X152914133Y-112485170D01*
X152856267Y-112499500D01*
X148351887Y-112499500D01*
X148284848Y-112479815D01*
X148239093Y-112427011D01*
X148229149Y-112357853D01*
X148258174Y-112294297D01*
X148279002Y-112275182D01*
X148289494Y-112267558D01*
X148289492Y-112267558D01*
X148289501Y-112267553D01*
X148417553Y-112139501D01*
X148523996Y-111992994D01*
X148606211Y-111831639D01*
X148662171Y-111659409D01*
X148676765Y-111567259D01*
X148690500Y-111480551D01*
X148690500Y-111299448D01*
X148662189Y-111120706D01*
X148662171Y-111120591D01*
X148606273Y-110948552D01*
X148606212Y-110948363D01*
X148606211Y-110948360D01*
X148571633Y-110880499D01*
X148523996Y-110787006D01*
X148498883Y-110752441D01*
X148417558Y-110640505D01*
X148417554Y-110640500D01*
X148289499Y-110512445D01*
X148289494Y-110512441D01*
X148142997Y-110406006D01*
X148142996Y-110406005D01*
X148142994Y-110406004D01*
X148066906Y-110367235D01*
X147981639Y-110323788D01*
X147981636Y-110323787D01*
X147809410Y-110267829D01*
X147630551Y-110239500D01*
X147630546Y-110239500D01*
X147449454Y-110239500D01*
X147449449Y-110239500D01*
X147270589Y-110267829D01*
X147098363Y-110323787D01*
X147098360Y-110323788D01*
X146937002Y-110406006D01*
X146790505Y-110512441D01*
X146790500Y-110512445D01*
X146662445Y-110640500D01*
X146662441Y-110640505D01*
X146556006Y-110787002D01*
X146473788Y-110948360D01*
X146473787Y-110948363D01*
X146417829Y-111120589D01*
X146392219Y-111282280D01*
X146362289Y-111345414D01*
X146302978Y-111382345D01*
X146233115Y-111381347D01*
X146174883Y-111342737D01*
X146147273Y-111282279D01*
X146121682Y-111120706D01*
X146065748Y-110948555D01*
X146065747Y-110948552D01*
X145983571Y-110787275D01*
X145983566Y-110787267D01*
X145972085Y-110771466D01*
X145482962Y-111260589D01*
X145465925Y-111197007D01*
X145400099Y-111082993D01*
X145307007Y-110989901D01*
X145192993Y-110924075D01*
X145129409Y-110907037D01*
X145618533Y-110417913D01*
X145602730Y-110406431D01*
X145441447Y-110324252D01*
X145441444Y-110324251D01*
X145269293Y-110268317D01*
X145090506Y-110240000D01*
X144909494Y-110240000D01*
X144730706Y-110268317D01*
X144558555Y-110324251D01*
X144558547Y-110324254D01*
X144397269Y-110406432D01*
X144381466Y-110417912D01*
X144381466Y-110417913D01*
X144870591Y-110907037D01*
X144807007Y-110924075D01*
X144692993Y-110989901D01*
X144599901Y-111082993D01*
X144534075Y-111197007D01*
X144517037Y-111260590D01*
X144027912Y-110771466D01*
X144016432Y-110787269D01*
X143934254Y-110948547D01*
X143934251Y-110948555D01*
X143878317Y-111120706D01*
X143856972Y-111255471D01*
X143827043Y-111318606D01*
X143767731Y-111355537D01*
X143697868Y-111354539D01*
X143639636Y-111315929D01*
X143611522Y-111251965D01*
X143610499Y-111236073D01*
X143610499Y-110495143D01*
X143610499Y-110495136D01*
X143609292Y-110484735D01*
X143608681Y-110479458D01*
X143608680Y-110479455D01*
X143607585Y-110470009D01*
X143562206Y-110367235D01*
X143482765Y-110287794D01*
X143438654Y-110268317D01*
X143379992Y-110242415D01*
X143354865Y-110239500D01*
X141565143Y-110239500D01*
X141565117Y-110239502D01*
X141540012Y-110242413D01*
X141540008Y-110242415D01*
X141437235Y-110287793D01*
X141357794Y-110367234D01*
X141312415Y-110470006D01*
X141312415Y-110470008D01*
X141309500Y-110495131D01*
X141309500Y-112284856D01*
X141309502Y-112284882D01*
X141312413Y-112309986D01*
X141312414Y-112309990D01*
X141312415Y-112309991D01*
X141319225Y-112325414D01*
X141328297Y-112394690D01*
X141298475Y-112457876D01*
X141239226Y-112494907D01*
X141205791Y-112499500D01*
X137143733Y-112499500D01*
X137076694Y-112479815D01*
X137030939Y-112427011D01*
X137020995Y-112357853D01*
X137043414Y-112302615D01*
X137068887Y-112267554D01*
X137093996Y-112232994D01*
X137176211Y-112071639D01*
X137232171Y-111899409D01*
X137249484Y-111790099D01*
X137260500Y-111720551D01*
X137260500Y-111539448D01*
X137236829Y-111390001D01*
X137232171Y-111360591D01*
X137185424Y-111216716D01*
X137183429Y-111146875D01*
X137215672Y-111090719D01*
X139485703Y-108820687D01*
X139485708Y-108820684D01*
X139495911Y-108810480D01*
X139495913Y-108810480D01*
X139570480Y-108735913D01*
X139623207Y-108644587D01*
X139650501Y-108542727D01*
X139650501Y-108437273D01*
X139650501Y-108429678D01*
X139650500Y-108429660D01*
X139650500Y-108010946D01*
X139670185Y-107943907D01*
X139722989Y-107898152D01*
X139792147Y-107888208D01*
X139848812Y-107911680D01*
X139957910Y-107993352D01*
X139957913Y-107993354D01*
X140092620Y-108043596D01*
X140092627Y-108043598D01*
X140152155Y-108049999D01*
X140152172Y-108050000D01*
X140750000Y-108050000D01*
X141250000Y-108050000D01*
X141847828Y-108050000D01*
X141847844Y-108049999D01*
X141907372Y-108043598D01*
X141907379Y-108043596D01*
X142042086Y-107993354D01*
X142042093Y-107993350D01*
X142157187Y-107907190D01*
X142157190Y-107907187D01*
X142243350Y-107792093D01*
X142243354Y-107792086D01*
X142293598Y-107657375D01*
X142299766Y-107600000D01*
X143700234Y-107600000D01*
X143706401Y-107657375D01*
X143756645Y-107792086D01*
X143756649Y-107792093D01*
X143842809Y-107907187D01*
X143842812Y-107907190D01*
X143957906Y-107993350D01*
X143957913Y-107993354D01*
X144092620Y-108043596D01*
X144092627Y-108043598D01*
X144152155Y-108049999D01*
X144152172Y-108050000D01*
X144750000Y-108050000D01*
X145250000Y-108050000D01*
X145847828Y-108050000D01*
X145847844Y-108049999D01*
X145907372Y-108043598D01*
X145907379Y-108043596D01*
X146042086Y-107993354D01*
X146042093Y-107993350D01*
X146157187Y-107907190D01*
X146157190Y-107907187D01*
X146243350Y-107792093D01*
X146243354Y-107792086D01*
X146293598Y-107657375D01*
X146299766Y-107600000D01*
X145250000Y-107600000D01*
X145250000Y-108050000D01*
X144750000Y-108050000D01*
X144750000Y-107600000D01*
X143700234Y-107600000D01*
X142299766Y-107600000D01*
X141250000Y-107600000D01*
X141250000Y-108050000D01*
X140750000Y-108050000D01*
X140750000Y-107100000D01*
X141250000Y-107100000D01*
X142299765Y-107100000D01*
X143700234Y-107100000D01*
X144750000Y-107100000D01*
X145250000Y-107100000D01*
X146299765Y-107100000D01*
X146293598Y-107042624D01*
X146243354Y-106907913D01*
X146243350Y-106907906D01*
X146157190Y-106792812D01*
X146157187Y-106792809D01*
X146042093Y-106706649D01*
X146042086Y-106706645D01*
X145907379Y-106656403D01*
X145907372Y-106656401D01*
X145847844Y-106650000D01*
X145250000Y-106650000D01*
X145250000Y-107100000D01*
X144750000Y-107100000D01*
X144750000Y-106650000D01*
X144152155Y-106650000D01*
X144092627Y-106656401D01*
X144092620Y-106656403D01*
X143957913Y-106706645D01*
X143957906Y-106706649D01*
X143842812Y-106792809D01*
X143842809Y-106792812D01*
X143756649Y-106907906D01*
X143756645Y-106907913D01*
X143706401Y-107042624D01*
X143700234Y-107100000D01*
X142299765Y-107100000D01*
X142293598Y-107042624D01*
X142243354Y-106907913D01*
X142243350Y-106907906D01*
X142157190Y-106792812D01*
X142157187Y-106792809D01*
X142042093Y-106706649D01*
X142042086Y-106706645D01*
X141907379Y-106656403D01*
X141907372Y-106656401D01*
X141847844Y-106650000D01*
X141250000Y-106650000D01*
X141250000Y-107100000D01*
X140750000Y-107100000D01*
X140750000Y-106650000D01*
X140152155Y-106650000D01*
X140092627Y-106656401D01*
X140092620Y-106656403D01*
X139957913Y-106706645D01*
X139957906Y-106706649D01*
X139848811Y-106788319D01*
X139783347Y-106812737D01*
X139715074Y-106797886D01*
X139665668Y-106748481D01*
X139650500Y-106689053D01*
X139650500Y-103811571D01*
X139670185Y-103744532D01*
X139722989Y-103698777D01*
X139792147Y-103688833D01*
X139848811Y-103712305D01*
X139957664Y-103793793D01*
X139957671Y-103793797D01*
X140092517Y-103844091D01*
X140092516Y-103844091D01*
X140099444Y-103844835D01*
X140152127Y-103850500D01*
X141847872Y-103850499D01*
X141907483Y-103844091D01*
X142042331Y-103793796D01*
X142157546Y-103707546D01*
X142243796Y-103592331D01*
X142294091Y-103457483D01*
X142300500Y-103397873D01*
X142300499Y-103317253D01*
X142320183Y-103250216D01*
X142336813Y-103229578D01*
X142525564Y-103040827D01*
X142586885Y-103007344D01*
X142656577Y-103012328D01*
X142712510Y-103054200D01*
X142720630Y-103066509D01*
X142725215Y-103074451D01*
X142837019Y-103186255D01*
X142837021Y-103186256D01*
X142837025Y-103186259D01*
X142965616Y-103260500D01*
X142973951Y-103265312D01*
X143126678Y-103306235D01*
X143188481Y-103306235D01*
X143217921Y-103314879D01*
X143247908Y-103321403D01*
X143252923Y-103325157D01*
X143255520Y-103325920D01*
X143276162Y-103342554D01*
X143325179Y-103391571D01*
X143325189Y-103391582D01*
X143329519Y-103395912D01*
X143329520Y-103395913D01*
X143404087Y-103470480D01*
X143449022Y-103496423D01*
X143449023Y-103496424D01*
X143495407Y-103523204D01*
X143495410Y-103523206D01*
X143495412Y-103523206D01*
X143495413Y-103523207D01*
X143597273Y-103550501D01*
X143597275Y-103550501D01*
X143662820Y-103550501D01*
X143729859Y-103570186D01*
X143762086Y-103600189D01*
X143815646Y-103671736D01*
X143837995Y-103701590D01*
X143842455Y-103707547D01*
X143957664Y-103793793D01*
X143957671Y-103793797D01*
X144092517Y-103844091D01*
X144092516Y-103844091D01*
X144099444Y-103844835D01*
X144152127Y-103850500D01*
X145847872Y-103850499D01*
X145907483Y-103844091D01*
X146042331Y-103793796D01*
X146157546Y-103707546D01*
X146243796Y-103592331D01*
X146294091Y-103457483D01*
X146300500Y-103397873D01*
X146300499Y-102902128D01*
X146294091Y-102842517D01*
X146291236Y-102834863D01*
X146243797Y-102707671D01*
X146243793Y-102707664D01*
X146157547Y-102592455D01*
X146157544Y-102592452D01*
X146042335Y-102506206D01*
X146042330Y-102506203D01*
X145944782Y-102469820D01*
X145888849Y-102427948D01*
X145864432Y-102362484D01*
X145879284Y-102294211D01*
X145900432Y-102265960D01*
X148029573Y-100136818D01*
X148090896Y-100103334D01*
X148117254Y-100100500D01*
X148190055Y-100100500D01*
X148190057Y-100100500D01*
X148342784Y-100059577D01*
X148479716Y-99980520D01*
X148487819Y-99972417D01*
X148549142Y-99938932D01*
X148618834Y-99943916D01*
G37*
%TD.AperFunction*%
%TA.AperFunction,Conductor*%
G36*
X143815702Y-111450214D02*
G01*
X143853476Y-111508992D01*
X143856972Y-111524529D01*
X143878317Y-111659293D01*
X143934251Y-111831444D01*
X143934252Y-111831447D01*
X144016431Y-111992730D01*
X144027913Y-112008532D01*
X144027913Y-112008533D01*
X144517037Y-111519409D01*
X144534075Y-111582993D01*
X144599901Y-111697007D01*
X144692993Y-111790099D01*
X144807007Y-111855925D01*
X144870590Y-111872962D01*
X144381466Y-112362085D01*
X144381757Y-112365771D01*
X144367393Y-112434149D01*
X144318341Y-112483905D01*
X144258139Y-112499500D01*
X143714210Y-112499500D01*
X143647171Y-112479815D01*
X143601416Y-112427011D01*
X143591472Y-112357853D01*
X143600775Y-112325414D01*
X143600776Y-112325412D01*
X143607585Y-112309991D01*
X143610500Y-112284865D01*
X143610499Y-111543925D01*
X143630183Y-111476888D01*
X143682987Y-111431133D01*
X143752146Y-111421189D01*
X143815702Y-111450214D01*
G37*
%TD.AperFunction*%
%TA.AperFunction,Conductor*%
G36*
X146306376Y-111398652D02*
G01*
X146364609Y-111437261D01*
X146392219Y-111497720D01*
X146417828Y-111659410D01*
X146473787Y-111831636D01*
X146473788Y-111831639D01*
X146508320Y-111899410D01*
X146555869Y-111992730D01*
X146556006Y-111992997D01*
X146662441Y-112139494D01*
X146662445Y-112139499D01*
X146790500Y-112267554D01*
X146790505Y-112267558D01*
X146800998Y-112275182D01*
X146843664Y-112330512D01*
X146849643Y-112400125D01*
X146817037Y-112461920D01*
X146756199Y-112496277D01*
X146728113Y-112499500D01*
X145741861Y-112499500D01*
X145674822Y-112479815D01*
X145629067Y-112427011D01*
X145618243Y-112365774D01*
X145618533Y-112362085D01*
X145129410Y-111872962D01*
X145192993Y-111855925D01*
X145307007Y-111790099D01*
X145400099Y-111697007D01*
X145465925Y-111582993D01*
X145482962Y-111519410D01*
X145972085Y-112008533D01*
X145972085Y-112008532D01*
X145983568Y-111992730D01*
X146065745Y-111831452D01*
X146065748Y-111831444D01*
X146121683Y-111659292D01*
X146147273Y-111497721D01*
X146177202Y-111434586D01*
X146236513Y-111397654D01*
X146306376Y-111398652D01*
G37*
%TD.AperFunction*%
%TA.AperFunction,Conductor*%
G36*
X149032508Y-103632295D02*
G01*
X149082993Y-103680597D01*
X149099500Y-103742413D01*
X149099500Y-106352726D01*
X149126793Y-106454589D01*
X149153156Y-106500250D01*
X149179520Y-106545913D01*
X152044087Y-109410480D01*
X152135412Y-109463207D01*
X152237273Y-109490500D01*
X152726840Y-109490500D01*
X152793879Y-109510185D01*
X152837325Y-109558205D01*
X152906006Y-109692997D01*
X153012441Y-109839494D01*
X153012445Y-109839499D01*
X153140500Y-109967554D01*
X153140505Y-109967558D01*
X153268287Y-110060396D01*
X153287006Y-110073996D01*
X153392484Y-110127740D01*
X153448360Y-110156211D01*
X153448363Y-110156212D01*
X153534476Y-110184191D01*
X153620591Y-110212171D01*
X153693639Y-110223740D01*
X153780678Y-110237527D01*
X153843813Y-110267456D01*
X153880744Y-110326768D01*
X153879746Y-110396631D01*
X153841136Y-110454863D01*
X153780678Y-110482473D01*
X153620589Y-110507829D01*
X153448363Y-110563787D01*
X153448360Y-110563788D01*
X153287002Y-110646006D01*
X153140505Y-110752441D01*
X153140500Y-110752445D01*
X153012445Y-110880500D01*
X153012441Y-110880505D01*
X152906006Y-111027002D01*
X152837325Y-111161795D01*
X152789350Y-111212591D01*
X152726840Y-111229500D01*
X151147255Y-111229500D01*
X151080216Y-111209815D01*
X151059574Y-111193181D01*
X147436819Y-107570426D01*
X147403334Y-107509103D01*
X147400500Y-107482745D01*
X147400500Y-106860711D01*
X147420185Y-106793672D01*
X147472989Y-106747917D01*
X147542147Y-106737973D01*
X147569990Y-106745357D01*
X147619772Y-106764988D01*
X147703144Y-106775000D01*
X147750000Y-106775000D01*
X148250000Y-106775000D01*
X148296856Y-106775000D01*
X148380224Y-106764989D01*
X148512886Y-106712674D01*
X148626510Y-106626510D01*
X148712674Y-106512886D01*
X148764989Y-106380224D01*
X148775000Y-106296855D01*
X148775000Y-106287500D01*
X148250000Y-106287500D01*
X148250000Y-106775000D01*
X147750000Y-106775000D01*
X147750000Y-106161500D01*
X147769685Y-106094461D01*
X147822489Y-106048706D01*
X147874000Y-106037500D01*
X148000000Y-106037500D01*
X148000000Y-105911500D01*
X148019685Y-105844461D01*
X148072489Y-105798706D01*
X148124000Y-105787500D01*
X148775000Y-105787500D01*
X148775000Y-105778144D01*
X148764989Y-105694775D01*
X148712674Y-105562113D01*
X148626510Y-105448489D01*
X148512884Y-105362324D01*
X148505859Y-105358374D01*
X148457072Y-105308359D01*
X148443069Y-105239907D01*
X148468298Y-105174751D01*
X148505864Y-105142201D01*
X148513126Y-105138117D01*
X148513132Y-105138115D01*
X148626867Y-105051867D01*
X148713115Y-104938132D01*
X148765479Y-104805346D01*
X148775500Y-104721902D01*
X148775500Y-104203098D01*
X148765479Y-104119654D01*
X148713115Y-103986868D01*
X148713113Y-103986865D01*
X148626867Y-103873132D01*
X148587531Y-103843303D01*
X148546007Y-103787110D01*
X148541456Y-103717389D01*
X148575321Y-103656275D01*
X148636851Y-103623171D01*
X148662448Y-103620499D01*
X148947456Y-103620499D01*
X148947457Y-103620499D01*
X148950917Y-103620174D01*
X148963925Y-103618955D01*
X149032508Y-103632295D01*
G37*
%TD.AperFunction*%
%TA.AperFunction,Conductor*%
G36*
X138768834Y-102400072D02*
G01*
X138824767Y-102441944D01*
X138849184Y-102507408D01*
X138849500Y-102516254D01*
X138849500Y-108272744D01*
X138829815Y-108339783D01*
X138813181Y-108360425D01*
X137710400Y-109463206D01*
X137046687Y-110126918D01*
X137012702Y-110160904D01*
X137012699Y-110160905D01*
X136649280Y-110524325D01*
X136587957Y-110557810D01*
X136523281Y-110554575D01*
X136379410Y-110507829D01*
X136219321Y-110482473D01*
X136156186Y-110452544D01*
X136119255Y-110393232D01*
X136120253Y-110323370D01*
X136158863Y-110265137D01*
X136219321Y-110237527D01*
X136289425Y-110226422D01*
X136379409Y-110212171D01*
X136551639Y-110156211D01*
X136712994Y-110073996D01*
X136859501Y-109967553D01*
X136987553Y-109839501D01*
X137093996Y-109692994D01*
X137176211Y-109531639D01*
X137232171Y-109359409D01*
X137246765Y-109267259D01*
X137260500Y-109180551D01*
X137260500Y-108999448D01*
X137244019Y-108895397D01*
X137232171Y-108820591D01*
X137176211Y-108648361D01*
X137176211Y-108648360D01*
X137122386Y-108542725D01*
X137093996Y-108487006D01*
X137031401Y-108400851D01*
X136987558Y-108340505D01*
X136987554Y-108340500D01*
X136859499Y-108212445D01*
X136859494Y-108212441D01*
X136712997Y-108106006D01*
X136712996Y-108106005D01*
X136712994Y-108106004D01*
X136661300Y-108079664D01*
X136551639Y-108023788D01*
X136551636Y-108023787D01*
X136379410Y-107967828D01*
X136217720Y-107942219D01*
X136154585Y-107912289D01*
X136117654Y-107852978D01*
X136118652Y-107783115D01*
X136157262Y-107724883D01*
X136217721Y-107697273D01*
X136379292Y-107671683D01*
X136551444Y-107615748D01*
X136551452Y-107615745D01*
X136712730Y-107533568D01*
X136728532Y-107522085D01*
X136728533Y-107522085D01*
X136239410Y-107032962D01*
X136302993Y-107015925D01*
X136417007Y-106950099D01*
X136510099Y-106857007D01*
X136575925Y-106742993D01*
X136592962Y-106679410D01*
X137082085Y-107168533D01*
X137082085Y-107168532D01*
X137093568Y-107152730D01*
X137175745Y-106991452D01*
X137175748Y-106991444D01*
X137231682Y-106819293D01*
X137260000Y-106640506D01*
X137260000Y-106459493D01*
X137231682Y-106280706D01*
X137175748Y-106108555D01*
X137175747Y-106108552D01*
X137093571Y-105947275D01*
X137093566Y-105947267D01*
X137082085Y-105931466D01*
X136592962Y-106420589D01*
X136575925Y-106357007D01*
X136510099Y-106242993D01*
X136417007Y-106149901D01*
X136302993Y-106084075D01*
X136239409Y-106067037D01*
X136728533Y-105577913D01*
X136712730Y-105566431D01*
X136551447Y-105484252D01*
X136551444Y-105484251D01*
X136379293Y-105428317D01*
X136217720Y-105402726D01*
X136154585Y-105372797D01*
X136117654Y-105313485D01*
X136118652Y-105243623D01*
X136157262Y-105185390D01*
X136217720Y-105157780D01*
X136232270Y-105155475D01*
X136379409Y-105132171D01*
X136551639Y-105076211D01*
X136712994Y-104993996D01*
X136859501Y-104887553D01*
X136987553Y-104759501D01*
X137093996Y-104612994D01*
X137176211Y-104451639D01*
X137232171Y-104279409D01*
X137246765Y-104187259D01*
X137260500Y-104100551D01*
X137260500Y-103919448D01*
X137254857Y-103883821D01*
X137263811Y-103814528D01*
X137289646Y-103776745D01*
X138637820Y-102428571D01*
X138699142Y-102395088D01*
X138768834Y-102400072D01*
G37*
%TD.AperFunction*%
%TA.AperFunction,Conductor*%
G36*
X150105703Y-100772541D02*
G01*
X150112179Y-100778572D01*
X151472613Y-102139006D01*
X152789229Y-103455622D01*
X152822714Y-103516945D01*
X152819479Y-103581620D01*
X152767829Y-103740587D01*
X152739500Y-103919448D01*
X152739500Y-104100551D01*
X152767829Y-104279410D01*
X152823787Y-104451636D01*
X152823788Y-104451639D01*
X152906006Y-104612997D01*
X153012441Y-104759494D01*
X153012445Y-104759499D01*
X153140500Y-104887554D01*
X153140505Y-104887558D01*
X153210115Y-104938132D01*
X153287006Y-104993996D01*
X153392484Y-105047740D01*
X153448360Y-105076211D01*
X153448363Y-105076212D01*
X153534476Y-105104191D01*
X153620591Y-105132171D01*
X153740038Y-105151089D01*
X153782279Y-105157780D01*
X153845414Y-105187709D01*
X153882345Y-105247021D01*
X153881347Y-105316883D01*
X153842737Y-105375116D01*
X153782279Y-105402726D01*
X153620706Y-105428317D01*
X153448555Y-105484251D01*
X153448547Y-105484254D01*
X153287269Y-105566432D01*
X153271466Y-105577912D01*
X153271466Y-105577913D01*
X153760591Y-106067037D01*
X153697007Y-106084075D01*
X153582993Y-106149901D01*
X153489901Y-106242993D01*
X153424075Y-106357007D01*
X153407037Y-106420590D01*
X152917913Y-105931466D01*
X152917912Y-105931466D01*
X152906432Y-105947269D01*
X152824254Y-106108547D01*
X152824251Y-106108555D01*
X152768317Y-106280706D01*
X152740000Y-106459493D01*
X152740000Y-106640506D01*
X152768317Y-106819293D01*
X152824251Y-106991444D01*
X152824252Y-106991447D01*
X152906431Y-107152730D01*
X152917913Y-107168532D01*
X152917913Y-107168533D01*
X153407037Y-106679409D01*
X153424075Y-106742993D01*
X153489901Y-106857007D01*
X153582993Y-106950099D01*
X153697007Y-107015925D01*
X153760590Y-107032962D01*
X153271466Y-107522085D01*
X153271466Y-107522086D01*
X153287267Y-107533566D01*
X153287275Y-107533571D01*
X153448552Y-107615747D01*
X153448555Y-107615748D01*
X153620706Y-107671682D01*
X153782279Y-107697273D01*
X153845413Y-107727202D01*
X153882345Y-107786513D01*
X153881347Y-107856376D01*
X153842738Y-107914609D01*
X153782280Y-107942219D01*
X153620589Y-107967829D01*
X153448363Y-108023787D01*
X153448360Y-108023788D01*
X153287002Y-108106006D01*
X153140505Y-108212441D01*
X153140500Y-108212445D01*
X153012445Y-108340500D01*
X153012441Y-108340505D01*
X152906006Y-108487002D01*
X152837325Y-108621795D01*
X152826875Y-108632859D01*
X152820553Y-108646703D01*
X152803372Y-108657744D01*
X152789350Y-108672591D01*
X152773670Y-108676832D01*
X152761775Y-108684477D01*
X152726840Y-108689500D01*
X152507255Y-108689500D01*
X152440216Y-108669815D01*
X152419574Y-108653181D01*
X149936819Y-106170426D01*
X149903334Y-106109103D01*
X149900500Y-106082745D01*
X149900500Y-100866254D01*
X149920185Y-100799215D01*
X149972989Y-100753460D01*
X150042147Y-100743516D01*
X150105703Y-100772541D01*
G37*
%TD.AperFunction*%
%TA.AperFunction,Conductor*%
G36*
X154862084Y-107168532D02*
G01*
X154865772Y-107168242D01*
X154934149Y-107182606D01*
X154983905Y-107231658D01*
X154999500Y-107291860D01*
X154999500Y-108278113D01*
X154979815Y-108345152D01*
X154927011Y-108390907D01*
X154857853Y-108400851D01*
X154794297Y-108371826D01*
X154775182Y-108350998D01*
X154767558Y-108340505D01*
X154767554Y-108340500D01*
X154639499Y-108212445D01*
X154639494Y-108212441D01*
X154492997Y-108106006D01*
X154492996Y-108106005D01*
X154492994Y-108106004D01*
X154441300Y-108079664D01*
X154331639Y-108023788D01*
X154331636Y-108023787D01*
X154159410Y-107967828D01*
X153997720Y-107942219D01*
X153934585Y-107912289D01*
X153897654Y-107852978D01*
X153898652Y-107783115D01*
X153937262Y-107724883D01*
X153997721Y-107697273D01*
X154159292Y-107671683D01*
X154331444Y-107615748D01*
X154331452Y-107615745D01*
X154492730Y-107533568D01*
X154508532Y-107522085D01*
X154508533Y-107522085D01*
X154019410Y-107032962D01*
X154082993Y-107015925D01*
X154197007Y-106950099D01*
X154290099Y-106857007D01*
X154355925Y-106742993D01*
X154372962Y-106679410D01*
X154862084Y-107168532D01*
G37*
%TD.AperFunction*%
%TA.AperFunction,Conductor*%
G36*
X135644075Y-106742993D02*
G01*
X135709901Y-106857007D01*
X135802993Y-106950099D01*
X135917007Y-107015925D01*
X135980590Y-107032962D01*
X135491466Y-107522085D01*
X135491466Y-107522086D01*
X135507267Y-107533566D01*
X135507275Y-107533571D01*
X135668552Y-107615747D01*
X135668555Y-107615748D01*
X135840706Y-107671682D01*
X136002279Y-107697273D01*
X136065413Y-107727202D01*
X136102345Y-107786513D01*
X136101347Y-107856376D01*
X136062738Y-107914609D01*
X136002280Y-107942219D01*
X135840589Y-107967829D01*
X135668363Y-108023787D01*
X135668360Y-108023788D01*
X135507002Y-108106006D01*
X135360505Y-108212441D01*
X135360500Y-108212445D01*
X135232445Y-108340500D01*
X135232441Y-108340505D01*
X135224818Y-108350998D01*
X135169488Y-108393664D01*
X135099875Y-108399643D01*
X135038080Y-108367037D01*
X135003723Y-108306199D01*
X135000500Y-108278113D01*
X135000500Y-107291861D01*
X135020185Y-107224822D01*
X135072989Y-107179067D01*
X135134229Y-107168243D01*
X135137913Y-107168533D01*
X135627037Y-106679409D01*
X135644075Y-106742993D01*
G37*
%TD.AperFunction*%
%TA.AperFunction,Conductor*%
G36*
X135205703Y-104728173D02*
G01*
X135224821Y-104749004D01*
X135232446Y-104759500D01*
X135360500Y-104887554D01*
X135360505Y-104887558D01*
X135430115Y-104938132D01*
X135507006Y-104993996D01*
X135612484Y-105047740D01*
X135668360Y-105076211D01*
X135668363Y-105076212D01*
X135754476Y-105104191D01*
X135840591Y-105132171D01*
X135960038Y-105151089D01*
X136002279Y-105157780D01*
X136065414Y-105187709D01*
X136102345Y-105247021D01*
X136101347Y-105316883D01*
X136062737Y-105375116D01*
X136002279Y-105402726D01*
X135840706Y-105428317D01*
X135668555Y-105484251D01*
X135668547Y-105484254D01*
X135507269Y-105566432D01*
X135491466Y-105577912D01*
X135491466Y-105577913D01*
X135980591Y-106067037D01*
X135917007Y-106084075D01*
X135802993Y-106149901D01*
X135709901Y-106242993D01*
X135644075Y-106357007D01*
X135627037Y-106420590D01*
X135137913Y-105931466D01*
X135134229Y-105931756D01*
X135065852Y-105917392D01*
X135016095Y-105868340D01*
X135000500Y-105808138D01*
X135000500Y-104821886D01*
X135020185Y-104754847D01*
X135072989Y-104709092D01*
X135142147Y-104699148D01*
X135205703Y-104728173D01*
G37*
%TD.AperFunction*%
%TA.AperFunction,Conductor*%
G36*
X154961917Y-104732959D02*
G01*
X154996277Y-104793796D01*
X154999500Y-104821886D01*
X154999500Y-105808138D01*
X154979815Y-105875177D01*
X154927011Y-105920932D01*
X154865773Y-105931756D01*
X154862086Y-105931465D01*
X154372962Y-106420589D01*
X154355925Y-106357007D01*
X154290099Y-106242993D01*
X154197007Y-106149901D01*
X154082993Y-106084075D01*
X154019409Y-106067037D01*
X154508533Y-105577913D01*
X154492730Y-105566431D01*
X154331447Y-105484252D01*
X154331444Y-105484251D01*
X154159293Y-105428317D01*
X153997720Y-105402726D01*
X153934585Y-105372797D01*
X153897654Y-105313485D01*
X153898652Y-105243623D01*
X153937262Y-105185390D01*
X153997720Y-105157780D01*
X154012270Y-105155475D01*
X154159409Y-105132171D01*
X154331639Y-105076211D01*
X154492994Y-104993996D01*
X154639501Y-104887553D01*
X154767553Y-104759501D01*
X154775180Y-104749003D01*
X154830508Y-104706336D01*
X154900121Y-104700355D01*
X154961917Y-104732959D01*
G37*
%TD.AperFunction*%
%TA.AperFunction,Conductor*%
G36*
X142861711Y-101031930D02*
G01*
X142910188Y-101082246D01*
X142915622Y-101094147D01*
X142966077Y-101222091D01*
X142966078Y-101222093D01*
X143057435Y-101342564D01*
X143177904Y-101433920D01*
X143244406Y-101460145D01*
X143299550Y-101503051D01*
X143322743Y-101568959D01*
X143306622Y-101636944D01*
X143256306Y-101685420D01*
X143198916Y-101699500D01*
X142847273Y-101699500D01*
X142745410Y-101726793D01*
X142654087Y-101779520D01*
X142654084Y-101779522D01*
X142012830Y-102420775D01*
X141951507Y-102454260D01*
X141911894Y-102456383D01*
X141847883Y-102449501D01*
X141847881Y-102449500D01*
X141847873Y-102449500D01*
X141847865Y-102449500D01*
X141588601Y-102449500D01*
X141521562Y-102429815D01*
X141475807Y-102377011D01*
X141465863Y-102307853D01*
X141471560Y-102284544D01*
X141477741Y-102266878D01*
X141477827Y-102265957D01*
X141480500Y-102237457D01*
X141480499Y-101762544D01*
X141477741Y-101733121D01*
X141475527Y-101726793D01*
X141454064Y-101665455D01*
X141450502Y-101595676D01*
X141485230Y-101535049D01*
X141547224Y-101502821D01*
X141571105Y-101500500D01*
X142193097Y-101500500D01*
X142193102Y-101500500D01*
X142281564Y-101489877D01*
X142422342Y-101434361D01*
X142542922Y-101342922D01*
X142634361Y-101222342D01*
X142684916Y-101094144D01*
X142727818Y-101039004D01*
X142793726Y-101015810D01*
X142861711Y-101031930D01*
G37*
%TD.AperFunction*%
%TA.AperFunction,Conductor*%
G36*
X147443039Y-98149685D02*
G01*
X147488794Y-98202489D01*
X147500000Y-98254000D01*
X147500000Y-98380000D01*
X147586500Y-98380000D01*
X147653539Y-98399685D01*
X147699294Y-98452489D01*
X147710500Y-98504000D01*
X147710500Y-98999902D01*
X147690815Y-99066941D01*
X147674181Y-99087583D01*
X147630481Y-99131282D01*
X147630475Y-99131290D01*
X147551426Y-99268209D01*
X147551423Y-99268216D01*
X147510500Y-99420943D01*
X147510500Y-99471745D01*
X147490815Y-99538784D01*
X147474181Y-99559426D01*
X146290237Y-100743369D01*
X146228914Y-100776854D01*
X146159222Y-100771870D01*
X146103289Y-100729998D01*
X146078872Y-100664534D01*
X146085515Y-100614733D01*
X146097669Y-100580000D01*
X145750000Y-100580000D01*
X145750000Y-100907467D01*
X145752726Y-100907212D01*
X145814731Y-100885515D01*
X145884510Y-100881952D01*
X145945138Y-100916680D01*
X145977366Y-100978673D01*
X145970962Y-101048249D01*
X145943369Y-101090237D01*
X145370426Y-101663181D01*
X145309103Y-101696666D01*
X145282745Y-101699500D01*
X144601084Y-101699500D01*
X144534045Y-101679815D01*
X144488290Y-101627011D01*
X144478346Y-101557853D01*
X144507371Y-101494297D01*
X144555594Y-101460145D01*
X144622095Y-101433920D01*
X144742564Y-101342564D01*
X144833920Y-101222095D01*
X144889386Y-101081443D01*
X144900000Y-100993053D01*
X144900000Y-100945133D01*
X144919685Y-100878094D01*
X144972489Y-100832339D01*
X145041647Y-100822395D01*
X145097635Y-100845364D01*
X145122079Y-100863405D01*
X145247271Y-100907212D01*
X145247269Y-100907212D01*
X145250000Y-100907467D01*
X145250000Y-100454000D01*
X145269685Y-100386961D01*
X145322489Y-100341206D01*
X145374000Y-100330000D01*
X145500000Y-100330000D01*
X145500000Y-100204000D01*
X145519685Y-100136961D01*
X145572489Y-100091206D01*
X145624000Y-100080000D01*
X146097668Y-100080000D01*
X146063403Y-99982077D01*
X146020581Y-99924056D01*
X145996609Y-99858427D01*
X146011924Y-99790257D01*
X146020572Y-99776798D01*
X146063852Y-99718157D01*
X146090557Y-99641836D01*
X146107708Y-99592826D01*
X146107708Y-99592823D01*
X146107710Y-99592819D01*
X146110500Y-99563066D01*
X146110500Y-99176934D01*
X146107710Y-99147181D01*
X146097476Y-99117936D01*
X146093914Y-99048161D01*
X146128641Y-98987533D01*
X146190634Y-98955304D01*
X146240969Y-98955836D01*
X146247273Y-98957212D01*
X146250000Y-98957467D01*
X146750000Y-98957467D01*
X146752729Y-98957212D01*
X146877919Y-98913405D01*
X146926366Y-98877650D01*
X146991994Y-98853679D01*
X147060165Y-98868994D01*
X147073634Y-98877650D01*
X147122080Y-98913405D01*
X147247271Y-98957212D01*
X147247269Y-98957212D01*
X147250000Y-98957467D01*
X147250000Y-98630000D01*
X146750000Y-98630000D01*
X146750000Y-98957467D01*
X146250000Y-98957467D01*
X146250000Y-98630000D01*
X145624000Y-98630000D01*
X145556961Y-98610315D01*
X145511206Y-98557511D01*
X145500000Y-98506000D01*
X145500000Y-98254000D01*
X145519685Y-98186961D01*
X145572489Y-98141206D01*
X145624000Y-98130000D01*
X147376000Y-98130000D01*
X147443039Y-98149685D01*
G37*
%TD.AperFunction*%
%TA.AperFunction,Conductor*%
G36*
X142372414Y-97474488D02*
G01*
X142427330Y-97483042D01*
X142479594Y-97529413D01*
X142498500Y-97595225D01*
X142498500Y-97914016D01*
X142478815Y-97981055D01*
X142426011Y-98026810D01*
X142356853Y-98036754D01*
X142329012Y-98029371D01*
X142281446Y-98010614D01*
X142193054Y-98000000D01*
X141950000Y-98000000D01*
X141950000Y-98776000D01*
X141930315Y-98843039D01*
X141877511Y-98888794D01*
X141826000Y-98900000D01*
X141574000Y-98900000D01*
X141506961Y-98880315D01*
X141461206Y-98827511D01*
X141450000Y-98776000D01*
X141450000Y-98000000D01*
X141206946Y-98000000D01*
X141118556Y-98010613D01*
X140977904Y-98066079D01*
X140857435Y-98157435D01*
X140766079Y-98277904D01*
X140710613Y-98418556D01*
X140700000Y-98506946D01*
X140700000Y-98554550D01*
X140680315Y-98621589D01*
X140627511Y-98667344D01*
X140558353Y-98677288D01*
X140535046Y-98671592D01*
X140452723Y-98642786D01*
X140452725Y-98642786D01*
X140450000Y-98642530D01*
X140450000Y-99096000D01*
X140430315Y-99163039D01*
X140377511Y-99208794D01*
X140326000Y-99220000D01*
X140074000Y-99220000D01*
X140006961Y-99200315D01*
X139961206Y-99147511D01*
X139950000Y-99096000D01*
X139950000Y-98614853D01*
X139969685Y-98547814D01*
X139986314Y-98527177D01*
X141005673Y-97507819D01*
X141066996Y-97474334D01*
X141093354Y-97471500D01*
X142372414Y-97471500D01*
X142372414Y-97474488D01*
G37*
%TD.AperFunction*%
%TA.AperFunction,Conductor*%
G36*
X136649281Y-92415674D02*
G01*
X137465073Y-93231465D01*
X138279518Y-94045910D01*
X138279520Y-94045913D01*
X138354087Y-94120480D01*
X138393372Y-94143161D01*
X138445412Y-94173207D01*
X138547273Y-94200500D01*
X138652727Y-94200500D01*
X139033746Y-94200500D01*
X139100785Y-94220185D01*
X139146540Y-94272989D01*
X139156484Y-94342147D01*
X139127459Y-94405703D01*
X139121428Y-94412179D01*
X138321318Y-95212289D01*
X137580426Y-95953181D01*
X137553498Y-95967884D01*
X137527680Y-95984477D01*
X137521479Y-95985368D01*
X137519103Y-95986666D01*
X137492745Y-95989500D01*
X137273160Y-95989500D01*
X137206121Y-95969815D01*
X137162675Y-95921795D01*
X137130009Y-95857685D01*
X137093996Y-95787006D01*
X137031401Y-95700851D01*
X136987558Y-95640505D01*
X136987554Y-95640500D01*
X136859499Y-95512445D01*
X136859494Y-95512441D01*
X136712997Y-95406006D01*
X136712996Y-95406005D01*
X136712994Y-95406004D01*
X136639799Y-95368709D01*
X136551639Y-95323788D01*
X136551636Y-95323787D01*
X136379410Y-95267828D01*
X136217720Y-95242219D01*
X136154585Y-95212289D01*
X136117654Y-95152978D01*
X136118652Y-95083115D01*
X136157262Y-95024883D01*
X136217721Y-94997273D01*
X136379292Y-94971683D01*
X136551444Y-94915748D01*
X136551452Y-94915745D01*
X136712730Y-94833568D01*
X136728532Y-94822085D01*
X136728533Y-94822085D01*
X136239410Y-94332962D01*
X136302993Y-94315925D01*
X136417007Y-94250099D01*
X136510099Y-94157007D01*
X136575925Y-94042993D01*
X136592962Y-93979410D01*
X137082085Y-94468533D01*
X137082085Y-94468532D01*
X137093568Y-94452730D01*
X137175745Y-94291452D01*
X137175748Y-94291444D01*
X137231682Y-94119293D01*
X137260000Y-93940506D01*
X137260000Y-93759493D01*
X137231682Y-93580706D01*
X137175748Y-93408555D01*
X137175747Y-93408552D01*
X137093571Y-93247275D01*
X137093566Y-93247267D01*
X137082085Y-93231466D01*
X136592962Y-93720589D01*
X136575925Y-93657007D01*
X136510099Y-93542993D01*
X136417007Y-93449901D01*
X136302993Y-93384075D01*
X136239409Y-93367037D01*
X136728533Y-92877913D01*
X136712730Y-92866431D01*
X136551447Y-92784252D01*
X136551444Y-92784251D01*
X136379293Y-92728317D01*
X136217720Y-92702726D01*
X136154585Y-92672797D01*
X136117654Y-92613485D01*
X136118652Y-92543623D01*
X136157262Y-92485390D01*
X136217720Y-92457780D01*
X136232270Y-92455475D01*
X136379409Y-92432171D01*
X136523284Y-92385423D01*
X136593123Y-92383429D01*
X136649281Y-92415674D01*
G37*
%TD.AperFunction*%
%TA.AperFunction,Conductor*%
G36*
X152169834Y-92249073D02*
G01*
X152225767Y-92290945D01*
X152250184Y-92356409D01*
X152250500Y-92365255D01*
X152250500Y-94061745D01*
X152230815Y-94128784D01*
X152214181Y-94149426D01*
X152000415Y-94363191D01*
X151939092Y-94396676D01*
X151928927Y-94398448D01*
X151920948Y-94399498D01*
X151768216Y-94440423D01*
X151768209Y-94440426D01*
X151631290Y-94519475D01*
X151631282Y-94519481D01*
X151519481Y-94631282D01*
X151519475Y-94631290D01*
X151440426Y-94768209D01*
X151440423Y-94768216D01*
X151399500Y-94920943D01*
X151399500Y-95079057D01*
X151435200Y-95212289D01*
X151440423Y-95231783D01*
X151440426Y-95231790D01*
X151519475Y-95368709D01*
X151519479Y-95368714D01*
X151519480Y-95368716D01*
X151631284Y-95480520D01*
X151631286Y-95480521D01*
X151631290Y-95480524D01*
X151768209Y-95559573D01*
X151768216Y-95559577D01*
X151920943Y-95600500D01*
X151920945Y-95600500D01*
X152079055Y-95600500D01*
X152079057Y-95600500D01*
X152231784Y-95559577D01*
X152368716Y-95480520D01*
X152480520Y-95368716D01*
X152559577Y-95231784D01*
X152600500Y-95079057D01*
X152600500Y-94947254D01*
X152620185Y-94880215D01*
X152636819Y-94859573D01*
X152781597Y-94714795D01*
X152971480Y-94524913D01*
X153024207Y-94433588D01*
X153041723Y-94368215D01*
X153073815Y-94312630D01*
X153407037Y-93979408D01*
X153424075Y-94042993D01*
X153489901Y-94157007D01*
X153582993Y-94250099D01*
X153697007Y-94315925D01*
X153760590Y-94332962D01*
X153271466Y-94822085D01*
X153271466Y-94822086D01*
X153287267Y-94833566D01*
X153287275Y-94833571D01*
X153448552Y-94915747D01*
X153448555Y-94915748D01*
X153620706Y-94971682D01*
X153782279Y-94997273D01*
X153845413Y-95027202D01*
X153882345Y-95086513D01*
X153881347Y-95156376D01*
X153842738Y-95214609D01*
X153782280Y-95242219D01*
X153620589Y-95267829D01*
X153448363Y-95323787D01*
X153448360Y-95323788D01*
X153287002Y-95406006D01*
X153140505Y-95512441D01*
X153140500Y-95512445D01*
X153012445Y-95640500D01*
X153012441Y-95640505D01*
X152906006Y-95787002D01*
X152837325Y-95921795D01*
X152789350Y-95972591D01*
X152726840Y-95989500D01*
X151307254Y-95989500D01*
X151240215Y-95969815D01*
X151219573Y-95953181D01*
X150736819Y-95470426D01*
X150703334Y-95409103D01*
X150700500Y-95382745D01*
X150700500Y-93947276D01*
X150700500Y-93947273D01*
X150688113Y-93901044D01*
X150682073Y-93878499D01*
X150682073Y-93878498D01*
X150673207Y-93845412D01*
X150659278Y-93821287D01*
X150620480Y-93754087D01*
X150544419Y-93678026D01*
X150510934Y-93616703D01*
X150515918Y-93547011D01*
X150557790Y-93491078D01*
X150568965Y-93483621D01*
X150579541Y-93477364D01*
X150618157Y-93463852D01*
X150681868Y-93416831D01*
X150687286Y-93413626D01*
X150715283Y-93406518D01*
X150742415Y-93396609D01*
X150748731Y-93398028D01*
X150755008Y-93396435D01*
X150782403Y-93405592D01*
X150810586Y-93411924D01*
X150820602Y-93418361D01*
X150821274Y-93418586D01*
X150821618Y-93419014D01*
X150824056Y-93420581D01*
X150882077Y-93463403D01*
X150980000Y-93497668D01*
X150980000Y-93497667D01*
X151480000Y-93497667D01*
X151577922Y-93463403D01*
X151684641Y-93384641D01*
X151763405Y-93277919D01*
X151807212Y-93152727D01*
X151807213Y-93152725D01*
X151807469Y-93150000D01*
X151480000Y-93150000D01*
X151480000Y-93497667D01*
X150980000Y-93497667D01*
X150980000Y-93024000D01*
X150999685Y-92956961D01*
X151052489Y-92911206D01*
X151104000Y-92900000D01*
X151230000Y-92900000D01*
X151230000Y-92774000D01*
X151249685Y-92706961D01*
X151302489Y-92661206D01*
X151354000Y-92650000D01*
X151807467Y-92650000D01*
X151807212Y-92647270D01*
X151797151Y-92618518D01*
X151793588Y-92548740D01*
X151826511Y-92489882D01*
X152038819Y-92277574D01*
X152100142Y-92244089D01*
X152169834Y-92249073D01*
G37*
%TD.AperFunction*%
%TA.AperFunction,Conductor*%
G36*
X154862084Y-94468532D02*
G01*
X154865772Y-94468242D01*
X154934149Y-94482606D01*
X154983905Y-94531658D01*
X154999500Y-94591860D01*
X154999500Y-95578113D01*
X154979815Y-95645152D01*
X154927011Y-95690907D01*
X154857853Y-95700851D01*
X154794297Y-95671826D01*
X154775182Y-95650998D01*
X154767558Y-95640505D01*
X154767554Y-95640500D01*
X154639499Y-95512445D01*
X154639494Y-95512441D01*
X154492997Y-95406006D01*
X154492996Y-95406005D01*
X154492994Y-95406004D01*
X154419799Y-95368709D01*
X154331639Y-95323788D01*
X154331636Y-95323787D01*
X154159410Y-95267828D01*
X153997720Y-95242219D01*
X153934585Y-95212289D01*
X153897654Y-95152978D01*
X153898652Y-95083115D01*
X153937262Y-95024883D01*
X153997721Y-94997273D01*
X154159292Y-94971683D01*
X154331444Y-94915748D01*
X154331452Y-94915745D01*
X154492730Y-94833568D01*
X154508532Y-94822085D01*
X154508533Y-94822085D01*
X154019410Y-94332962D01*
X154082993Y-94315925D01*
X154197007Y-94250099D01*
X154290099Y-94157007D01*
X154355925Y-94042993D01*
X154372962Y-93979410D01*
X154862084Y-94468532D01*
G37*
%TD.AperFunction*%
%TA.AperFunction,Conductor*%
G36*
X135644075Y-94042993D02*
G01*
X135709901Y-94157007D01*
X135802993Y-94250099D01*
X135917007Y-94315925D01*
X135980590Y-94332962D01*
X135491466Y-94822085D01*
X135491466Y-94822086D01*
X135507267Y-94833566D01*
X135507275Y-94833571D01*
X135668552Y-94915747D01*
X135668555Y-94915748D01*
X135840706Y-94971682D01*
X136002279Y-94997273D01*
X136065413Y-95027202D01*
X136102345Y-95086513D01*
X136101347Y-95156376D01*
X136062738Y-95214609D01*
X136002280Y-95242219D01*
X135840589Y-95267829D01*
X135668363Y-95323787D01*
X135668360Y-95323788D01*
X135507002Y-95406006D01*
X135360505Y-95512441D01*
X135360500Y-95512445D01*
X135232445Y-95640500D01*
X135232441Y-95640505D01*
X135224818Y-95650998D01*
X135169488Y-95693664D01*
X135099875Y-95699643D01*
X135038080Y-95667037D01*
X135003723Y-95606199D01*
X135000500Y-95578113D01*
X135000500Y-94591861D01*
X135020185Y-94524822D01*
X135072989Y-94479067D01*
X135134229Y-94468243D01*
X135137913Y-94468533D01*
X135627037Y-93979409D01*
X135644075Y-94042993D01*
G37*
%TD.AperFunction*%
%TA.AperFunction,Conductor*%
G36*
X144234825Y-89283835D02*
G01*
X144248607Y-89290573D01*
X144316740Y-89300500D01*
X144391795Y-89300500D01*
X144398323Y-89301193D01*
X144424797Y-89312117D01*
X144452271Y-89320185D01*
X144456681Y-89325274D01*
X144462910Y-89327845D01*
X144473270Y-89338442D01*
X144473773Y-89337940D01*
X144479520Y-89343687D01*
X144757313Y-89621480D01*
X144848638Y-89674207D01*
X144950499Y-89701500D01*
X144950501Y-89701500D01*
X146639800Y-89701500D01*
X146706839Y-89721185D01*
X146747187Y-89763501D01*
X146819475Y-89888709D01*
X146819479Y-89888714D01*
X146819480Y-89888716D01*
X146931284Y-90000520D01*
X146931286Y-90000521D01*
X146931290Y-90000524D01*
X147059500Y-90074545D01*
X147068216Y-90079577D01*
X147220943Y-90120500D01*
X147220945Y-90120500D01*
X147379055Y-90120500D01*
X147379057Y-90120500D01*
X147531784Y-90079577D01*
X147531785Y-90079576D01*
X147539635Y-90077473D01*
X147540262Y-90079813D01*
X147554979Y-90078229D01*
X147581307Y-90071821D01*
X147589198Y-90074545D01*
X147597500Y-90073652D01*
X147621733Y-90085778D01*
X147647351Y-90094623D01*
X147652517Y-90101182D01*
X147659984Y-90104919D01*
X147673814Y-90128221D01*
X147690583Y-90149512D01*
X147692576Y-90159834D01*
X147695644Y-90165003D01*
X147698930Y-90183805D01*
X147699500Y-90189727D01*
X147699500Y-90283260D01*
X147709427Y-90351393D01*
X147716441Y-90365740D01*
X147718595Y-90388120D01*
X147716074Y-90401248D01*
X147718323Y-90414425D01*
X147711094Y-90439044D01*
X147712270Y-90439408D01*
X147709425Y-90448611D01*
X147699500Y-90516739D01*
X147699500Y-90675940D01*
X147679815Y-90742979D01*
X147627011Y-90788734D01*
X147575500Y-90799940D01*
X147545395Y-90799940D01*
X147392668Y-90840863D01*
X147392661Y-90840866D01*
X147255742Y-90919915D01*
X147255734Y-90919921D01*
X147143933Y-91031722D01*
X147143927Y-91031730D01*
X147064878Y-91168649D01*
X147064875Y-91168656D01*
X147023952Y-91321383D01*
X147023952Y-91479497D01*
X147061173Y-91618406D01*
X147064875Y-91632223D01*
X147064878Y-91632230D01*
X147143927Y-91769149D01*
X147143931Y-91769154D01*
X147143932Y-91769156D01*
X147255736Y-91880960D01*
X147276575Y-91892991D01*
X147324791Y-91943556D01*
X147338016Y-92012163D01*
X147312050Y-92077028D01*
X147276580Y-92107765D01*
X147255917Y-92119695D01*
X147255914Y-92119697D01*
X147144113Y-92231498D01*
X147144107Y-92231506D01*
X147065058Y-92368425D01*
X147065055Y-92368432D01*
X147024132Y-92521159D01*
X147024132Y-92679273D01*
X147037274Y-92728317D01*
X147065055Y-92831999D01*
X147065058Y-92832006D01*
X147144107Y-92968925D01*
X147144111Y-92968930D01*
X147144112Y-92968932D01*
X147255916Y-93080736D01*
X147255918Y-93080737D01*
X147255922Y-93080740D01*
X147392841Y-93159789D01*
X147392848Y-93159793D01*
X147545575Y-93200716D01*
X147545577Y-93200716D01*
X147575500Y-93200716D01*
X147642539Y-93220401D01*
X147688294Y-93273205D01*
X147699500Y-93324716D01*
X147699500Y-93483260D01*
X147709425Y-93551388D01*
X147712270Y-93560592D01*
X147709294Y-93561511D01*
X147718323Y-93614425D01*
X147711094Y-93639044D01*
X147712270Y-93639408D01*
X147709425Y-93648611D01*
X147699500Y-93716739D01*
X147699500Y-93883260D01*
X147709425Y-93951388D01*
X147712270Y-93960592D01*
X147709294Y-93961511D01*
X147718323Y-94014425D01*
X147711094Y-94039044D01*
X147712270Y-94039408D01*
X147709425Y-94048611D01*
X147699500Y-94116739D01*
X147699500Y-94283260D01*
X147709425Y-94351388D01*
X147712270Y-94360592D01*
X147709333Y-94361499D01*
X147718394Y-94413808D01*
X147716001Y-94435157D01*
X147709427Y-94448607D01*
X147699500Y-94516740D01*
X147699500Y-94582427D01*
X147698729Y-94589308D01*
X147687783Y-94615401D01*
X147679815Y-94642539D01*
X147674450Y-94647187D01*
X147671702Y-94653739D01*
X147648384Y-94669774D01*
X147627011Y-94688294D01*
X147618880Y-94690062D01*
X147614131Y-94693329D01*
X147602146Y-94693703D01*
X147575500Y-94699500D01*
X147516740Y-94699500D01*
X147456034Y-94708344D01*
X147386858Y-94698531D01*
X147333968Y-94652875D01*
X147314158Y-94585873D01*
X147330771Y-94523640D01*
X147334755Y-94516740D01*
X147389577Y-94421784D01*
X147430500Y-94269057D01*
X147430500Y-94110943D01*
X147389577Y-93958216D01*
X147377214Y-93936802D01*
X147310524Y-93821290D01*
X147310518Y-93821282D01*
X147198717Y-93709481D01*
X147198709Y-93709475D01*
X147061790Y-93630426D01*
X147061786Y-93630424D01*
X147061784Y-93630423D01*
X146909057Y-93589500D01*
X146750943Y-93589500D01*
X146598216Y-93630423D01*
X146598209Y-93630426D01*
X146461290Y-93709475D01*
X146461282Y-93709481D01*
X146349481Y-93821282D01*
X146349477Y-93821287D01*
X146318257Y-93875363D01*
X146267690Y-93923579D01*
X146199083Y-93936802D01*
X146134218Y-93910834D01*
X146123189Y-93901044D01*
X146038917Y-93816772D01*
X146038909Y-93816766D01*
X145901990Y-93737717D01*
X145901986Y-93737715D01*
X145901984Y-93737714D01*
X145749257Y-93696791D01*
X145591143Y-93696791D01*
X145438416Y-93737714D01*
X145438409Y-93737717D01*
X145301490Y-93816766D01*
X145301482Y-93816772D01*
X145189681Y-93928573D01*
X145189675Y-93928581D01*
X145110626Y-94065500D01*
X145110623Y-94065507D01*
X145069700Y-94218234D01*
X145069700Y-94376348D01*
X145109509Y-94524915D01*
X145110623Y-94529074D01*
X145110625Y-94529079D01*
X145111891Y-94531272D01*
X145112396Y-94533355D01*
X145113734Y-94536585D01*
X145113230Y-94536793D01*
X145115841Y-94547558D01*
X145124477Y-94561927D01*
X145123908Y-94580814D01*
X145128362Y-94599173D01*
X145122880Y-94615011D01*
X145122376Y-94631766D01*
X145111688Y-94647345D01*
X145105509Y-94665199D01*
X145092047Y-94675977D01*
X145082852Y-94689382D01*
X145060037Y-94701608D01*
X145056769Y-94704224D01*
X145057248Y-94705203D01*
X145054449Y-94706571D01*
X145053673Y-94706703D01*
X145052601Y-94707562D01*
X145048098Y-94709457D01*
X145044664Y-94709845D01*
X145041141Y-94711734D01*
X145039437Y-94712261D01*
X145038892Y-94710499D01*
X145016708Y-94713010D01*
X144985575Y-94718323D01*
X144981181Y-94717032D01*
X144978671Y-94717317D01*
X144973562Y-94714795D01*
X144960955Y-94711094D01*
X144960592Y-94712270D01*
X144951388Y-94709425D01*
X144883261Y-94699500D01*
X144883260Y-94699500D01*
X144716740Y-94699500D01*
X144716739Y-94699500D01*
X144648611Y-94709425D01*
X144639408Y-94712270D01*
X144638488Y-94709294D01*
X144585575Y-94718323D01*
X144560955Y-94711094D01*
X144560592Y-94712270D01*
X144551388Y-94709425D01*
X144483261Y-94699500D01*
X144483260Y-94699500D01*
X144316740Y-94699500D01*
X144316739Y-94699500D01*
X144248611Y-94709425D01*
X144239408Y-94712270D01*
X144238542Y-94709468D01*
X144184989Y-94718598D01*
X144160835Y-94711504D01*
X144160449Y-94712755D01*
X144151250Y-94709912D01*
X144083214Y-94700000D01*
X143925900Y-94700000D01*
X143858861Y-94680315D01*
X143813106Y-94627511D01*
X143801900Y-94576000D01*
X143801900Y-94544626D01*
X143801900Y-94544624D01*
X143760977Y-94391897D01*
X143737592Y-94351393D01*
X143681924Y-94254971D01*
X143681918Y-94254963D01*
X143570116Y-94143161D01*
X143570109Y-94143156D01*
X143433190Y-94064107D01*
X143433186Y-94064105D01*
X143433184Y-94064104D01*
X143280457Y-94023181D01*
X143122343Y-94023181D01*
X142969616Y-94064104D01*
X142969609Y-94064107D01*
X142832690Y-94143156D01*
X142832684Y-94143161D01*
X142720881Y-94254963D01*
X142720875Y-94254971D01*
X142641826Y-94391890D01*
X142641823Y-94391897D01*
X142600900Y-94544624D01*
X142600900Y-94575500D01*
X142598349Y-94584185D01*
X142599638Y-94593147D01*
X142588659Y-94617187D01*
X142581215Y-94642539D01*
X142574374Y-94648466D01*
X142570613Y-94656703D01*
X142548378Y-94670992D01*
X142528411Y-94688294D01*
X142517896Y-94690581D01*
X142511835Y-94694477D01*
X142476900Y-94699500D01*
X142424500Y-94699500D01*
X142357461Y-94679815D01*
X142311706Y-94627011D01*
X142300500Y-94575500D01*
X142300500Y-94516745D01*
X142300500Y-94516740D01*
X142290573Y-94448607D01*
X142290571Y-94448604D01*
X142290571Y-94448600D01*
X142287730Y-94439404D01*
X142290709Y-94438483D01*
X142281673Y-94385610D01*
X142288910Y-94360960D01*
X142287730Y-94360596D01*
X142290571Y-94351399D01*
X142290571Y-94351396D01*
X142290573Y-94351393D01*
X142300500Y-94283260D01*
X142300500Y-94125370D01*
X142320185Y-94058331D01*
X142372989Y-94012576D01*
X142424500Y-94001370D01*
X142454950Y-94001370D01*
X142454952Y-94001370D01*
X142607679Y-93960447D01*
X142744611Y-93881390D01*
X142856415Y-93769586D01*
X142935472Y-93632654D01*
X142976395Y-93479927D01*
X142976395Y-93321813D01*
X142935472Y-93169086D01*
X142884464Y-93080736D01*
X142856419Y-93032160D01*
X142856416Y-93032157D01*
X142856415Y-93032154D01*
X142856412Y-93032151D01*
X142851469Y-93025709D01*
X142853369Y-93024250D01*
X142825729Y-92973630D01*
X142830713Y-92903938D01*
X142859214Y-92859591D01*
X142886806Y-92831999D01*
X142963788Y-92755017D01*
X143042845Y-92618085D01*
X143083768Y-92465358D01*
X143083768Y-92307244D01*
X143042845Y-92154517D01*
X142998107Y-92077028D01*
X142963792Y-92017591D01*
X142963786Y-92017583D01*
X142851985Y-91905782D01*
X142851977Y-91905776D01*
X142715058Y-91826727D01*
X142715055Y-91826725D01*
X142715052Y-91826724D01*
X142715048Y-91826723D01*
X142707545Y-91823615D01*
X142708173Y-91822097D01*
X142661594Y-91795200D01*
X142340167Y-91473773D01*
X142341847Y-91472092D01*
X142330060Y-91455942D01*
X142309922Y-91430934D01*
X142309216Y-91427384D01*
X142307803Y-91425448D01*
X142301206Y-91396733D01*
X142300500Y-91390144D01*
X142300500Y-91316740D01*
X142290573Y-91248607D01*
X142283863Y-91234882D01*
X142281541Y-91213211D01*
X142284033Y-91199422D01*
X142281673Y-91185610D01*
X142288910Y-91160960D01*
X142287730Y-91160596D01*
X142290571Y-91151399D01*
X142290571Y-91151396D01*
X142290573Y-91151393D01*
X142300500Y-91083260D01*
X142300500Y-90937684D01*
X142320185Y-90870645D01*
X142372989Y-90824890D01*
X142424500Y-90813684D01*
X142464527Y-90813684D01*
X142464529Y-90813684D01*
X142617256Y-90772761D01*
X142754188Y-90693704D01*
X142865992Y-90581900D01*
X142945049Y-90444968D01*
X142985972Y-90292241D01*
X142985972Y-90134127D01*
X142945049Y-89981400D01*
X142909889Y-89920500D01*
X142865996Y-89844474D01*
X142865990Y-89844466D01*
X142754189Y-89732665D01*
X142754181Y-89732659D01*
X142617262Y-89653610D01*
X142617258Y-89653608D01*
X142617256Y-89653607D01*
X142464529Y-89612684D01*
X142424432Y-89612684D01*
X142415682Y-89610114D01*
X142406655Y-89611403D01*
X142382684Y-89600425D01*
X142357393Y-89592999D01*
X142351422Y-89586108D01*
X142343130Y-89582311D01*
X142328898Y-89560114D01*
X142311638Y-89540195D01*
X142309341Y-89529612D01*
X142305418Y-89523493D01*
X142302918Y-89500010D01*
X142300432Y-89488553D01*
X142300437Y-89483691D01*
X142300500Y-89483260D01*
X142300500Y-89424369D01*
X142310385Y-89390833D01*
X142320185Y-89357461D01*
X142320236Y-89357416D01*
X142320256Y-89357350D01*
X142347051Y-89334181D01*
X142372989Y-89311706D01*
X142373063Y-89311689D01*
X142373108Y-89311651D01*
X142373496Y-89311595D01*
X142424500Y-89300500D01*
X142483255Y-89300500D01*
X142483260Y-89300500D01*
X142551393Y-89290573D01*
X142551396Y-89290571D01*
X142551399Y-89290571D01*
X142560596Y-89287730D01*
X142561516Y-89290709D01*
X142614390Y-89281673D01*
X142639039Y-89288910D01*
X142639404Y-89287730D01*
X142648600Y-89290571D01*
X142648604Y-89290571D01*
X142648607Y-89290573D01*
X142716740Y-89300500D01*
X142716745Y-89300500D01*
X142883255Y-89300500D01*
X142883260Y-89300500D01*
X142951393Y-89290573D01*
X142951396Y-89290571D01*
X142951399Y-89290571D01*
X142960596Y-89287730D01*
X142961516Y-89290709D01*
X143014390Y-89281673D01*
X143039039Y-89288910D01*
X143039404Y-89287730D01*
X143048600Y-89290571D01*
X143048604Y-89290571D01*
X143048607Y-89290573D01*
X143116740Y-89300500D01*
X143116745Y-89300500D01*
X143283255Y-89300500D01*
X143283260Y-89300500D01*
X143351393Y-89290573D01*
X143351396Y-89290571D01*
X143351399Y-89290571D01*
X143360596Y-89287730D01*
X143361516Y-89290709D01*
X143414390Y-89281673D01*
X143439039Y-89288910D01*
X143439404Y-89287730D01*
X143448600Y-89290571D01*
X143448604Y-89290571D01*
X143448607Y-89290573D01*
X143516740Y-89300500D01*
X143516745Y-89300500D01*
X143683255Y-89300500D01*
X143683260Y-89300500D01*
X143751393Y-89290573D01*
X143751396Y-89290571D01*
X143751399Y-89290571D01*
X143760596Y-89287730D01*
X143761516Y-89290709D01*
X143814390Y-89281673D01*
X143839039Y-89288910D01*
X143839404Y-89287730D01*
X143848600Y-89290571D01*
X143848604Y-89290571D01*
X143848607Y-89290573D01*
X143916740Y-89300500D01*
X143916745Y-89300500D01*
X144083255Y-89300500D01*
X144083260Y-89300500D01*
X144151393Y-89290573D01*
X144151396Y-89290571D01*
X144151399Y-89290571D01*
X144160596Y-89287730D01*
X144161516Y-89290709D01*
X144162463Y-89290547D01*
X144177821Y-89282835D01*
X144213091Y-89281528D01*
X144234825Y-89283835D01*
G37*
%TD.AperFunction*%
%TA.AperFunction,Conductor*%
G36*
X135205703Y-92028173D02*
G01*
X135224821Y-92049004D01*
X135232446Y-92059500D01*
X135360500Y-92187554D01*
X135360505Y-92187558D01*
X135445174Y-92249073D01*
X135507006Y-92293996D01*
X135612484Y-92347740D01*
X135668360Y-92376211D01*
X135668363Y-92376212D01*
X135754476Y-92404191D01*
X135840591Y-92432171D01*
X135960038Y-92451089D01*
X136002279Y-92457780D01*
X136065414Y-92487709D01*
X136102345Y-92547021D01*
X136101347Y-92616883D01*
X136062737Y-92675116D01*
X136002279Y-92702726D01*
X135840706Y-92728317D01*
X135668555Y-92784251D01*
X135668547Y-92784254D01*
X135507269Y-92866432D01*
X135491466Y-92877912D01*
X135491466Y-92877913D01*
X135980591Y-93367037D01*
X135917007Y-93384075D01*
X135802993Y-93449901D01*
X135709901Y-93542993D01*
X135644075Y-93657007D01*
X135627037Y-93720590D01*
X135137913Y-93231466D01*
X135134229Y-93231756D01*
X135065852Y-93217392D01*
X135016095Y-93168340D01*
X135000500Y-93108138D01*
X135000500Y-92121886D01*
X135020185Y-92054847D01*
X135072989Y-92009092D01*
X135142147Y-91999148D01*
X135205703Y-92028173D01*
G37*
%TD.AperFunction*%
%TA.AperFunction,Conductor*%
G36*
X154961917Y-92032959D02*
G01*
X154996277Y-92093796D01*
X154999500Y-92121886D01*
X154999500Y-93108138D01*
X154979815Y-93175177D01*
X154927011Y-93220932D01*
X154865773Y-93231756D01*
X154862086Y-93231465D01*
X154372962Y-93720589D01*
X154355925Y-93657007D01*
X154290099Y-93542993D01*
X154197007Y-93449901D01*
X154082993Y-93384075D01*
X154019408Y-93367037D01*
X154508533Y-92877913D01*
X154492730Y-92866431D01*
X154331447Y-92784252D01*
X154331444Y-92784251D01*
X154159293Y-92728317D01*
X153997720Y-92702726D01*
X153934585Y-92672797D01*
X153897654Y-92613485D01*
X153898652Y-92543623D01*
X153937262Y-92485390D01*
X153997720Y-92457780D01*
X154012270Y-92455475D01*
X154159409Y-92432171D01*
X154331639Y-92376211D01*
X154492994Y-92293996D01*
X154639501Y-92187553D01*
X154767553Y-92059501D01*
X154775180Y-92049003D01*
X154830508Y-92006336D01*
X154900121Y-92000355D01*
X154961917Y-92032959D01*
G37*
%TD.AperFunction*%
%TA.AperFunction,Conductor*%
G36*
X136931809Y-89684617D02*
G01*
X136958516Y-89704909D01*
X138824984Y-91571377D01*
X138858469Y-91632700D01*
X138853485Y-91702392D01*
X138811613Y-91758325D01*
X138791105Y-91770778D01*
X138681139Y-91823735D01*
X138679032Y-91825479D01*
X138999684Y-92146130D01*
X139033169Y-92207453D01*
X139028185Y-92277144D01*
X138999685Y-92321492D01*
X138861769Y-92459409D01*
X138800446Y-92492894D01*
X138730754Y-92487910D01*
X138674820Y-92446039D01*
X138650403Y-92380575D01*
X138650087Y-92371728D01*
X138650087Y-92322005D01*
X138650087Y-92322003D01*
X138609164Y-92169276D01*
X138555905Y-92077028D01*
X138530111Y-92032350D01*
X138530105Y-92032342D01*
X138418304Y-91920541D01*
X138418296Y-91920535D01*
X138281377Y-91841486D01*
X138281373Y-91841484D01*
X138281371Y-91841483D01*
X138128644Y-91800560D01*
X137970530Y-91800560D01*
X137817803Y-91841483D01*
X137817796Y-91841486D01*
X137680877Y-91920535D01*
X137680869Y-91920541D01*
X137571583Y-92029828D01*
X137510260Y-92063313D01*
X137440568Y-92058329D01*
X137396221Y-92029828D01*
X137215674Y-91849281D01*
X137182189Y-91787958D01*
X137185423Y-91723284D01*
X137232171Y-91579409D01*
X137247992Y-91479520D01*
X137260500Y-91400551D01*
X137260500Y-91219448D01*
X137238928Y-91083254D01*
X137232171Y-91040591D01*
X137176211Y-90868361D01*
X137176211Y-90868360D01*
X137141379Y-90800000D01*
X137093996Y-90707006D01*
X137031401Y-90620851D01*
X136987558Y-90560505D01*
X136987554Y-90560500D01*
X136859499Y-90432445D01*
X136859494Y-90432441D01*
X136712997Y-90326006D01*
X136712996Y-90326005D01*
X136712994Y-90326004D01*
X136629105Y-90283260D01*
X136551639Y-90243788D01*
X136551636Y-90243787D01*
X136379410Y-90187829D01*
X136219321Y-90162473D01*
X136156186Y-90132544D01*
X136119255Y-90073232D01*
X136120253Y-90003370D01*
X136158863Y-89945137D01*
X136219321Y-89917527D01*
X136289425Y-89906422D01*
X136379409Y-89892171D01*
X136551639Y-89836211D01*
X136712994Y-89753996D01*
X136797951Y-89692271D01*
X136863755Y-89668792D01*
X136931809Y-89684617D01*
G37*
%TD.AperFunction*%
%TA.AperFunction,Conductor*%
G36*
X150572539Y-88519685D02*
G01*
X150618294Y-88572489D01*
X150629500Y-88624000D01*
X150629500Y-89298110D01*
X150609815Y-89365149D01*
X150557011Y-89410904D01*
X150487853Y-89420848D01*
X150473406Y-89417885D01*
X150407106Y-89400120D01*
X150347446Y-89363755D01*
X150319426Y-89312441D01*
X150296451Y-89226694D01*
X150274989Y-89189520D01*
X150217398Y-89089768D01*
X150217392Y-89089760D01*
X150186319Y-89058687D01*
X150152834Y-88997364D01*
X150150000Y-88971006D01*
X150150000Y-88624000D01*
X150152550Y-88615314D01*
X150151262Y-88606353D01*
X150162240Y-88582312D01*
X150169685Y-88556961D01*
X150176525Y-88551033D01*
X150180287Y-88542797D01*
X150202521Y-88528507D01*
X150222489Y-88511206D01*
X150233003Y-88508918D01*
X150239065Y-88505023D01*
X150274000Y-88500000D01*
X150505500Y-88500000D01*
X150572539Y-88519685D01*
G37*
%TD.AperFunction*%
%TA.AperFunction,Conductor*%
G36*
X140138833Y-87306620D02*
G01*
X140194767Y-87348491D01*
X140219184Y-87413956D01*
X140219500Y-87422801D01*
X140219500Y-87537453D01*
X140222258Y-87566874D01*
X140222260Y-87566884D01*
X140265618Y-87690792D01*
X140265619Y-87690794D01*
X140275209Y-87703788D01*
X140349095Y-87803900D01*
X140346373Y-87805908D01*
X140347048Y-87807143D01*
X140359836Y-87820086D01*
X140363445Y-87837173D01*
X140371815Y-87852500D01*
X140370517Y-87870645D01*
X140374278Y-87888447D01*
X140368076Y-87904773D01*
X140366831Y-87922192D01*
X140355928Y-87936755D01*
X140349468Y-87953764D01*
X140325378Y-87977564D01*
X140324959Y-87978125D01*
X140324361Y-87978570D01*
X140323291Y-87979361D01*
X140257681Y-88003384D01*
X140189499Y-87988122D01*
X140175945Y-87979419D01*
X140117920Y-87936594D01*
X140020000Y-87902330D01*
X140020000Y-88376000D01*
X140000315Y-88443039D01*
X139947511Y-88488794D01*
X139896000Y-88500000D01*
X139644000Y-88500000D01*
X139576961Y-88480315D01*
X139531206Y-88427511D01*
X139520000Y-88376000D01*
X139520000Y-87874303D01*
X139539685Y-87807264D01*
X139556315Y-87786626D01*
X140007821Y-87335119D01*
X140069142Y-87301636D01*
X140138833Y-87306620D01*
G37*
%TD.AperFunction*%
%TA.AperFunction,Conductor*%
G36*
X149903039Y-86289685D02*
G01*
X149948794Y-86342489D01*
X149960000Y-86394000D01*
X149960000Y-86646000D01*
X149940315Y-86713039D01*
X149887511Y-86758794D01*
X149836000Y-86770000D01*
X148835500Y-86770000D01*
X148768461Y-86750315D01*
X148722706Y-86697511D01*
X148711500Y-86646000D01*
X148711500Y-86394000D01*
X148731185Y-86326961D01*
X148783989Y-86281206D01*
X148835500Y-86270000D01*
X149836000Y-86270000D01*
X149903039Y-86289685D01*
G37*
%TD.AperFunction*%
%TA.AperFunction,Conductor*%
G36*
X148931577Y-79379304D02*
G01*
X149010680Y-79400500D01*
X149073997Y-79400500D01*
X149075538Y-79400538D01*
X149107414Y-79410757D01*
X149139520Y-79420185D01*
X149141304Y-79421622D01*
X149142072Y-79421869D01*
X149142985Y-79422977D01*
X149160161Y-79436817D01*
X149188180Y-79464835D01*
X149221666Y-79526158D01*
X149224500Y-79552518D01*
X149224500Y-79871902D01*
X149234520Y-79955343D01*
X149234520Y-79955344D01*
X149286886Y-80088134D01*
X149373132Y-80201867D01*
X149486868Y-80288115D01*
X149493624Y-80291914D01*
X149542412Y-80341928D01*
X149556416Y-80410380D01*
X149531188Y-80475537D01*
X149493624Y-80508086D01*
X149486868Y-80511884D01*
X149373132Y-80598132D01*
X149286886Y-80711865D01*
X149234520Y-80844655D01*
X149234520Y-80844656D01*
X149224500Y-80928097D01*
X149224500Y-81446902D01*
X149234520Y-81530343D01*
X149234520Y-81530344D01*
X149252490Y-81575913D01*
X149281706Y-81650000D01*
X149286886Y-81663134D01*
X149373132Y-81776867D01*
X149482868Y-81860082D01*
X149486868Y-81863115D01*
X149619654Y-81915479D01*
X149703098Y-81925500D01*
X150296902Y-81925500D01*
X150380346Y-81915479D01*
X150504896Y-81866362D01*
X150574481Y-81860082D01*
X150636417Y-81892419D01*
X150671038Y-81953108D01*
X150667353Y-82022880D01*
X150666638Y-82024857D01*
X150662999Y-82034662D01*
X150656793Y-82045412D01*
X150652535Y-82061305D01*
X150651035Y-82066901D01*
X150651033Y-82066908D01*
X150629500Y-82147273D01*
X150629500Y-84767671D01*
X150609815Y-84834710D01*
X150577255Y-84868801D01*
X150530000Y-84902330D01*
X150530000Y-85376000D01*
X150510315Y-85443039D01*
X150457511Y-85488794D01*
X150406000Y-85500000D01*
X150154000Y-85500000D01*
X150086961Y-85480315D01*
X150041206Y-85427511D01*
X150030000Y-85376000D01*
X150030000Y-84902330D01*
X150029999Y-84902330D01*
X149932079Y-84936594D01*
X149874055Y-84979419D01*
X149808427Y-85003390D01*
X149740256Y-84988075D01*
X149726787Y-84979419D01*
X149712026Y-84968525D01*
X149668157Y-84936148D01*
X149668155Y-84936147D01*
X149542826Y-84892291D01*
X149542814Y-84892289D01*
X149513070Y-84889500D01*
X149513066Y-84889500D01*
X149126934Y-84889500D01*
X149126930Y-84889500D01*
X149097185Y-84892289D01*
X149097173Y-84892291D01*
X148971844Y-84936147D01*
X148865001Y-85015001D01*
X148839810Y-85049134D01*
X148784162Y-85091385D01*
X148740040Y-85099500D01*
X148647273Y-85099500D01*
X148545405Y-85126795D01*
X148539082Y-85129414D01*
X148488327Y-85134868D01*
X148459330Y-85173269D01*
X148459834Y-85173773D01*
X148456221Y-85177385D01*
X148455330Y-85178566D01*
X148454087Y-85179519D01*
X147990522Y-85643084D01*
X147990520Y-85643087D01*
X147937791Y-85734414D01*
X147915106Y-85819084D01*
X147915105Y-85819088D01*
X147910500Y-85836273D01*
X147910500Y-85836274D01*
X147910500Y-86231138D01*
X147890815Y-86298177D01*
X147838011Y-86343932D01*
X147768853Y-86353876D01*
X147766271Y-86353477D01*
X147553771Y-86318339D01*
X147531103Y-86307404D01*
X147506961Y-86300315D01*
X147500175Y-86292483D01*
X147490841Y-86287981D01*
X147477683Y-86266527D01*
X147461206Y-86247511D01*
X147458558Y-86235343D01*
X147454313Y-86228420D01*
X147454554Y-86216937D01*
X147450000Y-86196000D01*
X147450000Y-85737123D01*
X147421059Y-85689562D01*
X147422775Y-85619713D01*
X147433471Y-85595559D01*
X147435558Y-85591945D01*
X147514615Y-85455013D01*
X147555538Y-85302286D01*
X147555538Y-85240483D01*
X147564182Y-85211042D01*
X147570706Y-85181056D01*
X147574460Y-85176040D01*
X147575223Y-85173444D01*
X147591853Y-85152806D01*
X147707840Y-85036818D01*
X147769163Y-85003334D01*
X147795521Y-85000500D01*
X148210382Y-85000500D01*
X148223601Y-84999260D01*
X148240131Y-84997710D01*
X148338880Y-84963155D01*
X148384293Y-84960837D01*
X148413834Y-84918296D01*
X148417982Y-84915095D01*
X148472311Y-84874999D01*
X148551164Y-84768157D01*
X148580871Y-84683259D01*
X148595020Y-84642826D01*
X148595020Y-84642823D01*
X148595022Y-84642819D01*
X148596572Y-84626289D01*
X148597812Y-84613070D01*
X148597812Y-84226929D01*
X148595022Y-84197185D01*
X148595022Y-84197181D01*
X148595020Y-84197177D01*
X148595020Y-84197173D01*
X148551164Y-84071844D01*
X148551164Y-84071843D01*
X148507891Y-84013211D01*
X148483921Y-83947583D01*
X148499236Y-83879413D01*
X148507893Y-83865943D01*
X148550715Y-83807922D01*
X148584980Y-83710000D01*
X147685432Y-83710000D01*
X147672308Y-83717166D01*
X147645950Y-83720000D01*
X147091312Y-83720000D01*
X147024273Y-83700315D01*
X146978518Y-83647511D01*
X146967312Y-83596000D01*
X146967312Y-83470000D01*
X146876480Y-83470000D01*
X146809441Y-83450315D01*
X146763686Y-83397511D01*
X146752480Y-83346000D01*
X146752480Y-82892530D01*
X147217312Y-82892530D01*
X147217312Y-83220000D01*
X147269192Y-83220000D01*
X147282316Y-83212834D01*
X147308674Y-83210000D01*
X147737312Y-83210000D01*
X148237312Y-83210000D01*
X148584980Y-83210000D01*
X148550715Y-83112077D01*
X148471953Y-83005358D01*
X148365231Y-82926594D01*
X148240039Y-82882787D01*
X148240037Y-82882786D01*
X148237312Y-82882530D01*
X148237312Y-83210000D01*
X147737312Y-83210000D01*
X147737312Y-82882531D01*
X147737311Y-82882530D01*
X147734586Y-82882786D01*
X147734584Y-82882787D01*
X147609392Y-82926594D01*
X147544171Y-82974730D01*
X147478542Y-82998701D01*
X147410372Y-82983386D01*
X147396903Y-82974730D01*
X147345231Y-82936594D01*
X147220039Y-82892787D01*
X147220037Y-82892786D01*
X147217312Y-82892530D01*
X146752480Y-82892530D01*
X146752480Y-82803741D01*
X146752481Y-82803728D01*
X146752481Y-82688286D01*
X146746862Y-82667315D01*
X146725187Y-82586425D01*
X146715604Y-82569827D01*
X146672460Y-82495099D01*
X146597893Y-82420532D01*
X146597890Y-82420530D01*
X146161819Y-81984458D01*
X146128334Y-81923135D01*
X146125500Y-81896777D01*
X146125500Y-81203820D01*
X146145185Y-81136781D01*
X146197989Y-81091026D01*
X146259635Y-81080611D01*
X146259647Y-81080365D01*
X146260781Y-81080418D01*
X146261098Y-81080364D01*
X146262543Y-81080500D01*
X146737456Y-81080499D01*
X146766879Y-81077741D01*
X146890794Y-81034381D01*
X146996423Y-80956423D01*
X146996428Y-80956415D01*
X146998908Y-80953936D01*
X146999201Y-80953297D01*
X147000174Y-80952671D01*
X147002997Y-80949849D01*
X147003610Y-80950462D01*
X147024672Y-80936927D01*
X147048787Y-80918617D01*
X147054920Y-80917488D01*
X147057979Y-80915523D01*
X147092914Y-80910500D01*
X147100500Y-80910500D01*
X147167539Y-80930185D01*
X147213294Y-80982989D01*
X147224500Y-81034500D01*
X147224500Y-81446902D01*
X147234520Y-81530343D01*
X147234520Y-81530344D01*
X147252490Y-81575913D01*
X147281706Y-81650000D01*
X147286886Y-81663134D01*
X147373132Y-81776867D01*
X147482868Y-81860082D01*
X147486868Y-81863115D01*
X147619654Y-81915479D01*
X147703098Y-81925500D01*
X148296902Y-81925500D01*
X148380346Y-81915479D01*
X148513132Y-81863115D01*
X148626867Y-81776867D01*
X148713115Y-81663132D01*
X148765479Y-81530346D01*
X148775500Y-81446902D01*
X148775500Y-80928098D01*
X148765479Y-80844654D01*
X148713115Y-80711868D01*
X148710603Y-80708555D01*
X148626867Y-80598132D01*
X148513134Y-80511886D01*
X148506378Y-80508088D01*
X148457589Y-80458075D01*
X148443583Y-80389624D01*
X148468808Y-80324466D01*
X148506378Y-80291912D01*
X148513126Y-80288117D01*
X148513132Y-80288115D01*
X148626867Y-80201867D01*
X148713115Y-80088132D01*
X148765479Y-79955346D01*
X148775500Y-79871902D01*
X148775500Y-79499083D01*
X148795185Y-79432044D01*
X148847989Y-79386289D01*
X148917147Y-79376345D01*
X148931577Y-79379304D01*
G37*
%TD.AperFunction*%
%TA.AperFunction,Conductor*%
G36*
X139645614Y-79797103D02*
G01*
X139657042Y-79797843D01*
X139688134Y-79814547D01*
X139769206Y-79874381D01*
X139810367Y-79888784D01*
X139893119Y-79917741D01*
X139900796Y-79918460D01*
X139922543Y-79920500D01*
X140112743Y-79920499D01*
X140179783Y-79940183D01*
X140200425Y-79956818D01*
X140575087Y-80331480D01*
X140666412Y-80384207D01*
X140768273Y-80411500D01*
X143471245Y-80411500D01*
X143500688Y-80420145D01*
X143530671Y-80426668D01*
X143535686Y-80430422D01*
X143538284Y-80431185D01*
X143558921Y-80447814D01*
X143688182Y-80577074D01*
X143721666Y-80638395D01*
X143724500Y-80664754D01*
X143724500Y-80893493D01*
X143740279Y-80993121D01*
X143740280Y-80993124D01*
X143740281Y-80993126D01*
X143801472Y-81113220D01*
X143801473Y-81113221D01*
X143801476Y-81113225D01*
X143896774Y-81208523D01*
X143896778Y-81208526D01*
X143896780Y-81208528D01*
X143996850Y-81259516D01*
X144047645Y-81307490D01*
X144064440Y-81375310D01*
X144041903Y-81441445D01*
X143996851Y-81480483D01*
X143950501Y-81504100D01*
X143896778Y-81531473D01*
X143896774Y-81531476D01*
X143801476Y-81626774D01*
X143801473Y-81626778D01*
X143740279Y-81746878D01*
X143724500Y-81846506D01*
X143724500Y-82163493D01*
X143740279Y-82263121D01*
X143740280Y-82263124D01*
X143740281Y-82263126D01*
X143801472Y-82383220D01*
X143801473Y-82383221D01*
X143801476Y-82383225D01*
X143896774Y-82478523D01*
X143896778Y-82478526D01*
X143896780Y-82478528D01*
X143996850Y-82529516D01*
X144047645Y-82577490D01*
X144064440Y-82645310D01*
X144041903Y-82711445D01*
X143996851Y-82750483D01*
X143911957Y-82793739D01*
X143896778Y-82801473D01*
X143896774Y-82801476D01*
X143801476Y-82896774D01*
X143801473Y-82896778D01*
X143740279Y-83016878D01*
X143724500Y-83116506D01*
X143724500Y-83433493D01*
X143740279Y-83533121D01*
X143740280Y-83533124D01*
X143740281Y-83533126D01*
X143801472Y-83653220D01*
X143801473Y-83653221D01*
X143801476Y-83653225D01*
X143896774Y-83748523D01*
X143896778Y-83748526D01*
X143896780Y-83748528D01*
X143996850Y-83799516D01*
X144047645Y-83847490D01*
X144064440Y-83915310D01*
X144041903Y-83981445D01*
X143996851Y-84020483D01*
X143899275Y-84070200D01*
X143896778Y-84071473D01*
X143896774Y-84071476D01*
X143801476Y-84166774D01*
X143801473Y-84166778D01*
X143740279Y-84286878D01*
X143724500Y-84386506D01*
X143724500Y-84615245D01*
X143704815Y-84682284D01*
X143688181Y-84702926D01*
X143279522Y-85111584D01*
X143279520Y-85111587D01*
X143226791Y-85202913D01*
X143214019Y-85250586D01*
X143214019Y-85250587D01*
X143199500Y-85304773D01*
X143199500Y-85623745D01*
X143179815Y-85690784D01*
X143127011Y-85736539D01*
X143057853Y-85746483D01*
X142994297Y-85717458D01*
X142987819Y-85711426D01*
X142051915Y-84775522D01*
X142051913Y-84775520D01*
X142006250Y-84749156D01*
X141960589Y-84722793D01*
X141909657Y-84709146D01*
X141858727Y-84695500D01*
X141858726Y-84695500D01*
X139211500Y-84695500D01*
X139202814Y-84692949D01*
X139193853Y-84694238D01*
X139169812Y-84683259D01*
X139144461Y-84675815D01*
X139138533Y-84668974D01*
X139130297Y-84665213D01*
X139116007Y-84642978D01*
X139098706Y-84623011D01*
X139096418Y-84612496D01*
X139092523Y-84606435D01*
X139087500Y-84571500D01*
X139087500Y-84419000D01*
X139107185Y-84351961D01*
X139159989Y-84306206D01*
X139211500Y-84295000D01*
X139760499Y-84295000D01*
X139759237Y-84287029D01*
X139759236Y-84287026D01*
X139698118Y-84167078D01*
X139698113Y-84167071D01*
X139602928Y-84071886D01*
X139602923Y-84071883D01*
X139502600Y-84020765D01*
X139451804Y-83972790D01*
X139435009Y-83904969D01*
X139457547Y-83838834D01*
X139502598Y-83799797D01*
X139603220Y-83748528D01*
X139698528Y-83653220D01*
X139759719Y-83533126D01*
X139759720Y-83533121D01*
X139775500Y-83433493D01*
X139775500Y-83116506D01*
X139759720Y-83016878D01*
X139759719Y-83016876D01*
X139759719Y-83016874D01*
X139698528Y-82896780D01*
X139698526Y-82896778D01*
X139698523Y-82896774D01*
X139603225Y-82801476D01*
X139603221Y-82801473D01*
X139603220Y-82801472D01*
X139503149Y-82750483D01*
X139452354Y-82702511D01*
X139435559Y-82634690D01*
X139458096Y-82568555D01*
X139503148Y-82529516D01*
X139603220Y-82478528D01*
X139698528Y-82383220D01*
X139759719Y-82263126D01*
X139759720Y-82263121D01*
X139775500Y-82163493D01*
X139775500Y-81846506D01*
X139759720Y-81746878D01*
X139759719Y-81746876D01*
X139759719Y-81746874D01*
X139698528Y-81626780D01*
X139698526Y-81626778D01*
X139698523Y-81626774D01*
X139603225Y-81531476D01*
X139603221Y-81531473D01*
X139603220Y-81531472D01*
X139503149Y-81480483D01*
X139452354Y-81432511D01*
X139435559Y-81364690D01*
X139458096Y-81298555D01*
X139503148Y-81259516D01*
X139603220Y-81208528D01*
X139698528Y-81113220D01*
X139759719Y-80993126D01*
X139765440Y-80957007D01*
X139775500Y-80893493D01*
X139775500Y-80576506D01*
X139759720Y-80476878D01*
X139759719Y-80476876D01*
X139759719Y-80476874D01*
X139698528Y-80356780D01*
X139698526Y-80356778D01*
X139698523Y-80356774D01*
X139603225Y-80261476D01*
X139603220Y-80261472D01*
X139558203Y-80238534D01*
X139507408Y-80190558D01*
X139490500Y-80128050D01*
X139490500Y-79914317D01*
X139494176Y-79901795D01*
X139493157Y-79888784D01*
X139503831Y-79868914D01*
X139510185Y-79847278D01*
X139520046Y-79838733D01*
X139526224Y-79827234D01*
X139545947Y-79816289D01*
X139562989Y-79801523D01*
X139575905Y-79799665D01*
X139587318Y-79793333D01*
X139609823Y-79794788D01*
X139632147Y-79791579D01*
X139645614Y-79797103D01*
G37*
%TD.AperFunction*%
%TA.AperFunction,Conductor*%
G36*
X153424075Y-81342993D02*
G01*
X153489901Y-81457007D01*
X153582993Y-81550099D01*
X153697007Y-81615925D01*
X153760590Y-81632962D01*
X153271466Y-82122085D01*
X153271466Y-82122086D01*
X153287267Y-82133566D01*
X153287275Y-82133571D01*
X153448552Y-82215747D01*
X153448555Y-82215748D01*
X153620706Y-82271682D01*
X153782279Y-82297273D01*
X153845413Y-82327202D01*
X153882345Y-82386513D01*
X153881347Y-82456376D01*
X153842738Y-82514609D01*
X153782280Y-82542219D01*
X153620589Y-82567829D01*
X153448363Y-82623787D01*
X153448360Y-82623788D01*
X153287002Y-82706006D01*
X153140505Y-82812441D01*
X153140500Y-82812445D01*
X153012445Y-82940500D01*
X153012441Y-82940505D01*
X152906006Y-83087002D01*
X152823788Y-83248360D01*
X152823787Y-83248363D01*
X152767829Y-83420589D01*
X152739500Y-83599448D01*
X152739500Y-83780551D01*
X152767829Y-83959410D01*
X152814575Y-84103281D01*
X152816570Y-84173122D01*
X152784325Y-84229280D01*
X152045081Y-84968525D01*
X151983758Y-85002010D01*
X151914067Y-84997026D01*
X151858133Y-84955154D01*
X151833716Y-84889690D01*
X151833400Y-84880844D01*
X151833400Y-82734354D01*
X151853085Y-82667315D01*
X151869714Y-82646678D01*
X152743695Y-81772697D01*
X152805014Y-81739215D01*
X152874705Y-81744199D01*
X152905953Y-81767591D01*
X152917913Y-81768533D01*
X153407037Y-81279408D01*
X153424075Y-81342993D01*
G37*
%TD.AperFunction*%
%TA.AperFunction,Conductor*%
G36*
X154862084Y-81768532D02*
G01*
X154865772Y-81768242D01*
X154934149Y-81782606D01*
X154983905Y-81831658D01*
X154999500Y-81891860D01*
X154999500Y-82878113D01*
X154979815Y-82945152D01*
X154927011Y-82990907D01*
X154857853Y-83000851D01*
X154794297Y-82971826D01*
X154775182Y-82950998D01*
X154767558Y-82940505D01*
X154767554Y-82940500D01*
X154639499Y-82812445D01*
X154639494Y-82812441D01*
X154492997Y-82706006D01*
X154492996Y-82706005D01*
X154492994Y-82706004D01*
X154417063Y-82667315D01*
X154331639Y-82623788D01*
X154331636Y-82623787D01*
X154159410Y-82567828D01*
X153997720Y-82542219D01*
X153934585Y-82512289D01*
X153897654Y-82452978D01*
X153898652Y-82383115D01*
X153937262Y-82324883D01*
X153997721Y-82297273D01*
X154159292Y-82271683D01*
X154331444Y-82215748D01*
X154331452Y-82215745D01*
X154492730Y-82133568D01*
X154508532Y-82122085D01*
X154508533Y-82122085D01*
X154019410Y-81632962D01*
X154082993Y-81615925D01*
X154197007Y-81550099D01*
X154290099Y-81457007D01*
X154355925Y-81342993D01*
X154372962Y-81279410D01*
X154862084Y-81768532D01*
G37*
%TD.AperFunction*%
%TA.AperFunction,Conductor*%
G36*
X135644075Y-81342993D02*
G01*
X135709901Y-81457007D01*
X135802993Y-81550099D01*
X135917007Y-81615925D01*
X135980590Y-81632962D01*
X135491466Y-82122085D01*
X135491466Y-82122086D01*
X135507267Y-82133566D01*
X135507275Y-82133571D01*
X135668552Y-82215747D01*
X135668555Y-82215748D01*
X135840706Y-82271682D01*
X136002279Y-82297273D01*
X136065413Y-82327202D01*
X136102345Y-82386513D01*
X136101347Y-82456376D01*
X136062738Y-82514609D01*
X136002280Y-82542219D01*
X135840589Y-82567829D01*
X135668363Y-82623787D01*
X135668360Y-82623788D01*
X135507002Y-82706006D01*
X135360505Y-82812441D01*
X135360500Y-82812445D01*
X135232445Y-82940500D01*
X135232441Y-82940505D01*
X135224818Y-82950998D01*
X135169488Y-82993664D01*
X135099875Y-82999643D01*
X135038080Y-82967037D01*
X135003723Y-82906199D01*
X135000500Y-82878113D01*
X135000500Y-81891861D01*
X135020185Y-81824822D01*
X135072989Y-81779067D01*
X135134229Y-81768243D01*
X135137913Y-81768533D01*
X135627037Y-81279409D01*
X135644075Y-81342993D01*
G37*
%TD.AperFunction*%
%TA.AperFunction,Conductor*%
G36*
X139986881Y-62520185D02*
G01*
X140032636Y-62572989D01*
X140042580Y-62642147D01*
X140022944Y-62693391D01*
X139971052Y-62771051D01*
X139971047Y-62771060D01*
X139910743Y-62916648D01*
X139910741Y-62916656D01*
X139880000Y-63071202D01*
X139880000Y-63200000D01*
X140380000Y-63200000D01*
X140380000Y-63700000D01*
X139880000Y-63700000D01*
X139880000Y-63828797D01*
X139910741Y-63983343D01*
X139910743Y-63983351D01*
X139971047Y-64128939D01*
X139971052Y-64128948D01*
X140058598Y-64259969D01*
X140058601Y-64259973D01*
X140170026Y-64371398D01*
X140170034Y-64371404D01*
X140301047Y-64458944D01*
X140301065Y-64458954D01*
X140429999Y-64512360D01*
X140430000Y-64512360D01*
X140430000Y-63916988D01*
X140439940Y-63934205D01*
X140495795Y-63990060D01*
X140564204Y-64029556D01*
X140640504Y-64050000D01*
X140719496Y-64050000D01*
X140795796Y-64029556D01*
X140864205Y-63990060D01*
X140920060Y-63934205D01*
X140930000Y-63916988D01*
X140930000Y-64512360D01*
X141058934Y-64458954D01*
X141058952Y-64458944D01*
X141189965Y-64371404D01*
X141189973Y-64371398D01*
X141301398Y-64259973D01*
X141301401Y-64259969D01*
X141388947Y-64128948D01*
X141388952Y-64128939D01*
X141449256Y-63983351D01*
X141449258Y-63983343D01*
X141479999Y-63828797D01*
X141480000Y-63828794D01*
X141480000Y-63700000D01*
X140980000Y-63700000D01*
X140980000Y-63200000D01*
X141480000Y-63200000D01*
X141480000Y-63071206D01*
X141479999Y-63071202D01*
X141449258Y-62916656D01*
X141449256Y-62916648D01*
X141388952Y-62771060D01*
X141388947Y-62771051D01*
X141337056Y-62693391D01*
X141316178Y-62626714D01*
X141334662Y-62559333D01*
X141386641Y-62512643D01*
X141440158Y-62500500D01*
X148559842Y-62500500D01*
X148626881Y-62520185D01*
X148672636Y-62572989D01*
X148682580Y-62642147D01*
X148662944Y-62693391D01*
X148611052Y-62771051D01*
X148611047Y-62771060D01*
X148550743Y-62916648D01*
X148550741Y-62916656D01*
X148520000Y-63071202D01*
X148520000Y-63200000D01*
X149020000Y-63200000D01*
X149020000Y-63700000D01*
X148520000Y-63700000D01*
X148520000Y-63828797D01*
X148550741Y-63983343D01*
X148550743Y-63983351D01*
X148611047Y-64128939D01*
X148611052Y-64128948D01*
X148698598Y-64259969D01*
X148698601Y-64259973D01*
X148810026Y-64371398D01*
X148810030Y-64371401D01*
X148941051Y-64458947D01*
X148941060Y-64458952D01*
X149066568Y-64510939D01*
X149120971Y-64554780D01*
X149143036Y-64621074D01*
X149125757Y-64688773D01*
X149074620Y-64736384D01*
X149019115Y-64749500D01*
X148475691Y-64749500D01*
X148385325Y-64773713D01*
X148385324Y-64773712D01*
X148361116Y-64780199D01*
X148361113Y-64780200D01*
X148258386Y-64839511D01*
X148258383Y-64839513D01*
X146516716Y-66581181D01*
X146455393Y-66614666D01*
X146429035Y-66617500D01*
X143272691Y-66617500D01*
X143182325Y-66641713D01*
X143182324Y-66641712D01*
X143158116Y-66648199D01*
X143158113Y-66648200D01*
X143055386Y-66707511D01*
X143055383Y-66707513D01*
X142807777Y-66955119D01*
X142746454Y-66988604D01*
X142676762Y-66983620D01*
X142620829Y-66941748D01*
X142602816Y-66904663D01*
X142602797Y-66904671D01*
X142602663Y-66904349D01*
X142600320Y-66899525D01*
X142599688Y-66897164D01*
X142536405Y-66787554D01*
X142530507Y-66777338D01*
X142530506Y-66777336D01*
X142530505Y-66777335D01*
X142432665Y-66679495D01*
X142432664Y-66679494D01*
X142432661Y-66679492D01*
X142312838Y-66610313D01*
X142312837Y-66610312D01*
X142312836Y-66610312D01*
X142179183Y-66574500D01*
X142040817Y-66574500D01*
X141907164Y-66610312D01*
X141907161Y-66610313D01*
X141787338Y-66679492D01*
X141787333Y-66679496D01*
X141689496Y-66777333D01*
X141689494Y-66777336D01*
X141658619Y-66830813D01*
X141608051Y-66879028D01*
X141539444Y-66892250D01*
X141474580Y-66866282D01*
X141436671Y-66816264D01*
X141388954Y-66701064D01*
X141388947Y-66701051D01*
X141301401Y-66570030D01*
X141301398Y-66570026D01*
X141189973Y-66458601D01*
X141189969Y-66458598D01*
X141058948Y-66371052D01*
X141058938Y-66371047D01*
X140930000Y-66317639D01*
X140930000Y-66913011D01*
X140920060Y-66895795D01*
X140864205Y-66839940D01*
X140795796Y-66800444D01*
X140719496Y-66780000D01*
X140640504Y-66780000D01*
X140564204Y-66800444D01*
X140495795Y-66839940D01*
X140439940Y-66895795D01*
X140430000Y-66913011D01*
X140430000Y-66317639D01*
X140429999Y-66317639D01*
X140301061Y-66371047D01*
X140301051Y-66371052D01*
X140170030Y-66458598D01*
X140170026Y-66458601D01*
X140058601Y-66570026D01*
X140058598Y-66570030D01*
X139971052Y-66701051D01*
X139971047Y-66701060D01*
X139910743Y-66846648D01*
X139910741Y-66846656D01*
X139880000Y-67001202D01*
X139880000Y-67380000D01*
X140380000Y-67380000D01*
X140380000Y-67880000D01*
X139880000Y-67880000D01*
X139880000Y-68258797D01*
X139910741Y-68413343D01*
X139910743Y-68413351D01*
X139971047Y-68558939D01*
X139971052Y-68558948D01*
X140058598Y-68689969D01*
X140058601Y-68689973D01*
X140170026Y-68801398D01*
X140170034Y-68801404D01*
X140301047Y-68888944D01*
X140301065Y-68888954D01*
X140429999Y-68942360D01*
X140430000Y-68942360D01*
X140430000Y-68346988D01*
X140439940Y-68364205D01*
X140495795Y-68420060D01*
X140564204Y-68459556D01*
X140640504Y-68480000D01*
X140719496Y-68480000D01*
X140795796Y-68459556D01*
X140864205Y-68420060D01*
X140920060Y-68364205D01*
X140930000Y-68346988D01*
X140930000Y-68942359D01*
X140978547Y-68922251D01*
X141048017Y-68914782D01*
X141110496Y-68946057D01*
X141146148Y-69006146D01*
X141150000Y-69036812D01*
X141150000Y-69314785D01*
X141150002Y-69314808D01*
X141152908Y-69339869D01*
X141152909Y-69339873D01*
X141198211Y-69442474D01*
X141198214Y-69442479D01*
X141277520Y-69521785D01*
X141277525Y-69521788D01*
X141380123Y-69567089D01*
X141405206Y-69569999D01*
X141500000Y-69569998D01*
X141500000Y-68795000D01*
X141144000Y-68795000D01*
X141076961Y-68775315D01*
X141031206Y-68722511D01*
X141020000Y-68671000D01*
X141020000Y-68419000D01*
X141039685Y-68351961D01*
X141092489Y-68306206D01*
X141144000Y-68295000D01*
X141626000Y-68295000D01*
X141693039Y-68314685D01*
X141738794Y-68367489D01*
X141750000Y-68419000D01*
X141750000Y-68545000D01*
X141825501Y-68545000D01*
X141892540Y-68564685D01*
X141938295Y-68617489D01*
X141949501Y-68669000D01*
X141949501Y-69314856D01*
X141949502Y-69314882D01*
X141952413Y-69339987D01*
X141952414Y-69339988D01*
X141952414Y-69339990D01*
X141952415Y-69339991D01*
X141997794Y-69442765D01*
X141998169Y-69443140D01*
X142088489Y-69642916D01*
X142088672Y-69644228D01*
X142099500Y-69693999D01*
X142099500Y-69700500D01*
X142097498Y-69707315D01*
X142098170Y-69712112D01*
X142092447Y-69724517D01*
X142079815Y-69767539D01*
X142027011Y-69813294D01*
X141975500Y-69824500D01*
X141933856Y-69824500D01*
X141895841Y-69829065D01*
X141849411Y-69834640D01*
X141715023Y-69887636D01*
X141599920Y-69974922D01*
X141523488Y-70075712D01*
X141467295Y-70117235D01*
X141397574Y-70121786D01*
X141336460Y-70087920D01*
X141325881Y-70075711D01*
X141249721Y-69975278D01*
X141134729Y-69888077D01*
X141000467Y-69835131D01*
X140916102Y-69825000D01*
X140900000Y-69825000D01*
X140900000Y-70476000D01*
X140880315Y-70543039D01*
X140827511Y-70588794D01*
X140776000Y-70600000D01*
X140650000Y-70600000D01*
X140650000Y-70726000D01*
X140630315Y-70793039D01*
X140577511Y-70838794D01*
X140526000Y-70850000D01*
X139900000Y-70850000D01*
X139900000Y-70851500D01*
X139880315Y-70918539D01*
X139827511Y-70964294D01*
X139776000Y-70975500D01*
X139156385Y-70975500D01*
X139089346Y-70955815D01*
X139056615Y-70925134D01*
X138996423Y-70843576D01*
X138903109Y-70774708D01*
X138890794Y-70765619D01*
X138890792Y-70765618D01*
X138766880Y-70722258D01*
X138737461Y-70719500D01*
X138262546Y-70719500D01*
X138233125Y-70722258D01*
X138233115Y-70722260D01*
X138109207Y-70765618D01*
X138003576Y-70843576D01*
X137925618Y-70949207D01*
X137882258Y-71073118D01*
X137882258Y-71073120D01*
X137879500Y-71102538D01*
X137879500Y-71477453D01*
X137882258Y-71506874D01*
X137882260Y-71506884D01*
X137925619Y-71630794D01*
X137925619Y-71630795D01*
X137996154Y-71726367D01*
X138020125Y-71791996D01*
X138004809Y-71860166D01*
X137996154Y-71873633D01*
X137925619Y-71969204D01*
X137925619Y-71969205D01*
X137882258Y-72093118D01*
X137882258Y-72093120D01*
X137879500Y-72122538D01*
X137879500Y-72497453D01*
X137882258Y-72526874D01*
X137882260Y-72526884D01*
X137925618Y-72650792D01*
X137925619Y-72650794D01*
X137936500Y-72665537D01*
X138003576Y-72756423D01*
X138042503Y-72785152D01*
X138109206Y-72834381D01*
X138129548Y-72841499D01*
X138233119Y-72877741D01*
X138240796Y-72878460D01*
X138262543Y-72880500D01*
X138737456Y-72880499D01*
X138766879Y-72877741D01*
X138815811Y-72860619D01*
X138842446Y-72851299D01*
X138912225Y-72847737D01*
X138972852Y-72882465D01*
X139005080Y-72944458D01*
X139006575Y-72982631D01*
X139005000Y-72996202D01*
X139005000Y-73041000D01*
X139689410Y-73041000D01*
X139730004Y-73018834D01*
X139756362Y-73016000D01*
X140836000Y-73016000D01*
X140903039Y-73035685D01*
X140948794Y-73088489D01*
X140960000Y-73140000D01*
X140960000Y-73266000D01*
X141086000Y-73266000D01*
X141153039Y-73285685D01*
X141198794Y-73338489D01*
X141210000Y-73390000D01*
X141210000Y-74865999D01*
X141854786Y-74865999D01*
X141854808Y-74865997D01*
X141879869Y-74863091D01*
X141879870Y-74863091D01*
X141982480Y-74817784D01*
X141982482Y-74817783D01*
X142022446Y-74777819D01*
X142083769Y-74744333D01*
X142110120Y-74741499D01*
X142659864Y-74741499D01*
X142659879Y-74741497D01*
X142659882Y-74741497D01*
X142684987Y-74738586D01*
X142684987Y-74738585D01*
X142684991Y-74738585D01*
X142763394Y-74703966D01*
X142832669Y-74694895D01*
X142895854Y-74724718D01*
X142912282Y-74742475D01*
X142974923Y-74825080D01*
X143075712Y-74901511D01*
X143117235Y-74957703D01*
X143121786Y-75027424D01*
X143087921Y-75088538D01*
X143075712Y-75099118D01*
X142975277Y-75175280D01*
X142888077Y-75290270D01*
X142835131Y-75424531D01*
X142835131Y-75424532D01*
X142825000Y-75508897D01*
X142825000Y-75525000D01*
X143476000Y-75525000D01*
X143543039Y-75544685D01*
X143588794Y-75597489D01*
X143600000Y-75649000D01*
X143600000Y-75775000D01*
X143726000Y-75775000D01*
X143793039Y-75794685D01*
X143838794Y-75847489D01*
X143850000Y-75899000D01*
X143850000Y-76525000D01*
X143855500Y-76525000D01*
X143922539Y-76544685D01*
X143968294Y-76597489D01*
X143979500Y-76649000D01*
X143979500Y-77659902D01*
X143959815Y-77726941D01*
X143943181Y-77747583D01*
X143899481Y-77791282D01*
X143899475Y-77791290D01*
X143820426Y-77928209D01*
X143820423Y-77928216D01*
X143779500Y-78080943D01*
X143779500Y-78239057D01*
X143806706Y-78340589D01*
X143820423Y-78391783D01*
X143820426Y-78391790D01*
X143899475Y-78528709D01*
X143899481Y-78528717D01*
X143943181Y-78572417D01*
X143957884Y-78599344D01*
X143974477Y-78625163D01*
X143975368Y-78631363D01*
X143976666Y-78633740D01*
X143979500Y-78660098D01*
X143979500Y-78747116D01*
X143959815Y-78814155D01*
X143907011Y-78859910D01*
X143837853Y-78869854D01*
X143781868Y-78846887D01*
X143767922Y-78836595D01*
X143670000Y-78802330D01*
X143670000Y-79276000D01*
X143650315Y-79343039D01*
X143597511Y-79388794D01*
X143546000Y-79400000D01*
X143420000Y-79400000D01*
X143420000Y-79486500D01*
X143400315Y-79553539D01*
X143347511Y-79599294D01*
X143296000Y-79610500D01*
X141038255Y-79610500D01*
X140971216Y-79590815D01*
X140950574Y-79574181D01*
X140716818Y-79340425D01*
X140702114Y-79313497D01*
X140685522Y-79287679D01*
X140684630Y-79281478D01*
X140683333Y-79279102D01*
X140680499Y-79252744D01*
X140680499Y-79149999D01*
X142842530Y-79149999D01*
X142842531Y-79150000D01*
X143170000Y-79150000D01*
X143170000Y-78802330D01*
X143169999Y-78802330D01*
X143072079Y-78836594D01*
X142965358Y-78915358D01*
X142886594Y-79022080D01*
X142842787Y-79147272D01*
X142842786Y-79147274D01*
X142842530Y-79149999D01*
X140680499Y-79149999D01*
X140680499Y-79062545D01*
X140679477Y-79051639D01*
X140677741Y-79033121D01*
X140634381Y-78909206D01*
X140595402Y-78856391D01*
X140556423Y-78803576D01*
X140479921Y-78747116D01*
X140450794Y-78725619D01*
X140450792Y-78725618D01*
X140326880Y-78682258D01*
X140297461Y-78679500D01*
X139922546Y-78679500D01*
X139893125Y-78682258D01*
X139893115Y-78682260D01*
X139769205Y-78725619D01*
X139769204Y-78725619D01*
X139673633Y-78796154D01*
X139608004Y-78820125D01*
X139539834Y-78804809D01*
X139526367Y-78796154D01*
X139430794Y-78725619D01*
X139306880Y-78682258D01*
X139277461Y-78679500D01*
X138902546Y-78679500D01*
X138873125Y-78682258D01*
X138873115Y-78682260D01*
X138749207Y-78725618D01*
X138643576Y-78803576D01*
X138565618Y-78909207D01*
X138522258Y-79033118D01*
X138522258Y-79033120D01*
X138519500Y-79062538D01*
X138519500Y-79537453D01*
X138522258Y-79566874D01*
X138522260Y-79566884D01*
X138560952Y-79677457D01*
X138565619Y-79690794D01*
X138596156Y-79732170D01*
X138643578Y-79796425D01*
X138646060Y-79798907D01*
X138646703Y-79799201D01*
X138647330Y-79800177D01*
X138650148Y-79802995D01*
X138649535Y-79803607D01*
X138663072Y-79824671D01*
X138681380Y-79848780D01*
X138682509Y-79854916D01*
X138684477Y-79857979D01*
X138689500Y-79892914D01*
X138689500Y-80125502D01*
X138669815Y-80192541D01*
X138621797Y-80235986D01*
X138571777Y-80261473D01*
X138476476Y-80356774D01*
X138476473Y-80356778D01*
X138476472Y-80356780D01*
X138438950Y-80430422D01*
X138415279Y-80476878D01*
X138399500Y-80576506D01*
X138399500Y-80805245D01*
X138379815Y-80872284D01*
X138363181Y-80892926D01*
X137229522Y-82026584D01*
X137229520Y-82026587D01*
X137176791Y-82117913D01*
X137168926Y-82147272D01*
X137168926Y-82147273D01*
X137149500Y-82219773D01*
X137149500Y-82803084D01*
X137129815Y-82870123D01*
X137077011Y-82915878D01*
X137007853Y-82925822D01*
X136944297Y-82896797D01*
X136937819Y-82890765D01*
X136859499Y-82812445D01*
X136859494Y-82812441D01*
X136712997Y-82706006D01*
X136712996Y-82706005D01*
X136712994Y-82706004D01*
X136637063Y-82667315D01*
X136551639Y-82623788D01*
X136551636Y-82623787D01*
X136379410Y-82567828D01*
X136217720Y-82542219D01*
X136154585Y-82512289D01*
X136117654Y-82452978D01*
X136118652Y-82383115D01*
X136157262Y-82324883D01*
X136217721Y-82297273D01*
X136379292Y-82271683D01*
X136551444Y-82215748D01*
X136551452Y-82215745D01*
X136712730Y-82133568D01*
X136728532Y-82122085D01*
X136728533Y-82122085D01*
X136239410Y-81632962D01*
X136302993Y-81615925D01*
X136417007Y-81550099D01*
X136510099Y-81457007D01*
X136575925Y-81342993D01*
X136592962Y-81279410D01*
X137082085Y-81768533D01*
X137082085Y-81768532D01*
X137093568Y-81752730D01*
X137175745Y-81591452D01*
X137175748Y-81591444D01*
X137231682Y-81419293D01*
X137260000Y-81240506D01*
X137260000Y-81059493D01*
X137231682Y-80880706D01*
X137175748Y-80708555D01*
X137175747Y-80708552D01*
X137093571Y-80547275D01*
X137093566Y-80547267D01*
X137082085Y-80531466D01*
X136592962Y-81020589D01*
X136575925Y-80957007D01*
X136510099Y-80842993D01*
X136417007Y-80749901D01*
X136302993Y-80684075D01*
X136239409Y-80667037D01*
X136728533Y-80177913D01*
X136712730Y-80166431D01*
X136551447Y-80084252D01*
X136551444Y-80084251D01*
X136379293Y-80028317D01*
X136217720Y-80002726D01*
X136154585Y-79972797D01*
X136117654Y-79913485D01*
X136118652Y-79843623D01*
X136157262Y-79785390D01*
X136217720Y-79757780D01*
X136232270Y-79755475D01*
X136379409Y-79732171D01*
X136551639Y-79676211D01*
X136712994Y-79593996D01*
X136859501Y-79487553D01*
X136987553Y-79359501D01*
X137093996Y-79212994D01*
X137176211Y-79051639D01*
X137232171Y-78879409D01*
X137256529Y-78725619D01*
X137260500Y-78700551D01*
X137260500Y-78519448D01*
X137240279Y-78391783D01*
X137232171Y-78340591D01*
X137176211Y-78168361D01*
X137176211Y-78168360D01*
X137131669Y-78080943D01*
X137093996Y-78007006D01*
X137072395Y-77977274D01*
X136987558Y-77860505D01*
X136987554Y-77860500D01*
X136859499Y-77732445D01*
X136859494Y-77732441D01*
X136712997Y-77626006D01*
X136712996Y-77626005D01*
X136712994Y-77626004D01*
X136650766Y-77594297D01*
X136551639Y-77543788D01*
X136551636Y-77543787D01*
X136379410Y-77487829D01*
X136219321Y-77462473D01*
X136156186Y-77432544D01*
X136119255Y-77373232D01*
X136120253Y-77303370D01*
X136158863Y-77245137D01*
X136219321Y-77217527D01*
X136289425Y-77206422D01*
X136379409Y-77192171D01*
X136551639Y-77136211D01*
X136712994Y-77053996D01*
X136859501Y-76947553D01*
X136987553Y-76819501D01*
X137093996Y-76672994D01*
X137176211Y-76511639D01*
X137232171Y-76339409D01*
X137250877Y-76221305D01*
X137260500Y-76160551D01*
X137260500Y-76041102D01*
X142825000Y-76041102D01*
X142835131Y-76125467D01*
X142835131Y-76125468D01*
X142888077Y-76259729D01*
X142975278Y-76374721D01*
X143090270Y-76461922D01*
X143224532Y-76514868D01*
X143308898Y-76525000D01*
X143350000Y-76525000D01*
X143350000Y-76025000D01*
X142825000Y-76025000D01*
X142825000Y-76041102D01*
X137260500Y-76041102D01*
X137260500Y-75979449D01*
X137260499Y-75979448D01*
X137255219Y-75946113D01*
X137232171Y-75800591D01*
X137176211Y-75628361D01*
X137176211Y-75628360D01*
X137138836Y-75555009D01*
X137093996Y-75467006D01*
X137073309Y-75438533D01*
X136987558Y-75320505D01*
X136987554Y-75320500D01*
X136859499Y-75192445D01*
X136859494Y-75192441D01*
X136712997Y-75086006D01*
X136712996Y-75086005D01*
X136712994Y-75086004D01*
X136652161Y-75055008D01*
X136551639Y-75003788D01*
X136551636Y-75003787D01*
X136379410Y-74947829D01*
X136219321Y-74922473D01*
X136156186Y-74892544D01*
X136119255Y-74833232D01*
X136120253Y-74763370D01*
X136158863Y-74705137D01*
X136219321Y-74677527D01*
X136289425Y-74666422D01*
X136379409Y-74652171D01*
X136551639Y-74596211D01*
X136712994Y-74513996D01*
X136859501Y-74407553D01*
X136987553Y-74279501D01*
X137093996Y-74132994D01*
X137176211Y-73971639D01*
X137178059Y-73965951D01*
X137184498Y-73946135D01*
X139004500Y-73946135D01*
X139004500Y-73964887D01*
X139004500Y-73964888D01*
X139004500Y-74485856D01*
X139004502Y-74485882D01*
X139007413Y-74510987D01*
X139007415Y-74510991D01*
X139052793Y-74613764D01*
X139052794Y-74613765D01*
X139132235Y-74693206D01*
X139235009Y-74738585D01*
X139260135Y-74741500D01*
X139809872Y-74741499D01*
X139876911Y-74761183D01*
X139897553Y-74777818D01*
X139937520Y-74817785D01*
X139937525Y-74817788D01*
X140040123Y-74863089D01*
X140065206Y-74865999D01*
X140709999Y-74865999D01*
X140710000Y-74865998D01*
X140710000Y-73516000D01*
X139756362Y-73516000D01*
X139689323Y-73496315D01*
X139682727Y-73491000D01*
X139005001Y-73491000D01*
X139005001Y-73535785D01*
X139005002Y-73535808D01*
X139007908Y-73560869D01*
X139007909Y-73560873D01*
X139053212Y-73663477D01*
X139058004Y-73670472D01*
X139059983Y-73676545D01*
X139064501Y-73681058D01*
X139070674Y-73709356D01*
X139079651Y-73736903D01*
X139078032Y-73743081D01*
X139079394Y-73749322D01*
X139071913Y-73783814D01*
X139062837Y-73808191D01*
X139052794Y-73818235D01*
X139007415Y-73921009D01*
X139004500Y-73946135D01*
X137184498Y-73946135D01*
X137198112Y-73904236D01*
X137198112Y-73904235D01*
X137232170Y-73799412D01*
X137232169Y-73799412D01*
X137232171Y-73799409D01*
X137248959Y-73693415D01*
X137260500Y-73620551D01*
X137260500Y-73439448D01*
X137244019Y-73335397D01*
X137232171Y-73260591D01*
X137176211Y-73088361D01*
X137176211Y-73088360D01*
X137129223Y-72996143D01*
X137093996Y-72927006D01*
X137046098Y-72861080D01*
X136987558Y-72780505D01*
X136987554Y-72780500D01*
X136859499Y-72652445D01*
X136859494Y-72652441D01*
X136712997Y-72546006D01*
X136712996Y-72546005D01*
X136712994Y-72546004D01*
X136653945Y-72515917D01*
X136551639Y-72463788D01*
X136551636Y-72463787D01*
X136379410Y-72407829D01*
X136219321Y-72382473D01*
X136156186Y-72352544D01*
X136119255Y-72293232D01*
X136120253Y-72223370D01*
X136158863Y-72165137D01*
X136219321Y-72137527D01*
X136289425Y-72126422D01*
X136379409Y-72112171D01*
X136551639Y-72056211D01*
X136712994Y-71973996D01*
X136859501Y-71867553D01*
X136987553Y-71739501D01*
X137093996Y-71592994D01*
X137176211Y-71431639D01*
X137232171Y-71259409D01*
X137246765Y-71167259D01*
X137260500Y-71080551D01*
X137260500Y-70899448D01*
X137240742Y-70774708D01*
X137232171Y-70720591D01*
X137194332Y-70604133D01*
X137176212Y-70548363D01*
X137176211Y-70548360D01*
X137093995Y-70387004D01*
X137087510Y-70378079D01*
X137037247Y-70308897D01*
X139900000Y-70308897D01*
X139900000Y-70350000D01*
X140400000Y-70350000D01*
X140400000Y-69825000D01*
X140383898Y-69825000D01*
X140299532Y-69835131D01*
X140299531Y-69835131D01*
X140165270Y-69888077D01*
X140050278Y-69975278D01*
X139963077Y-70090270D01*
X139910131Y-70224531D01*
X139910131Y-70224532D01*
X139900000Y-70308897D01*
X137037247Y-70308897D01*
X136987553Y-70240499D01*
X136859501Y-70112447D01*
X136859499Y-70112445D01*
X136859494Y-70112441D01*
X136712997Y-70006006D01*
X136712996Y-70006005D01*
X136712994Y-70006004D01*
X136645277Y-69971500D01*
X136551639Y-69923788D01*
X136551636Y-69923787D01*
X136379410Y-69867828D01*
X136217720Y-69842219D01*
X136154585Y-69812289D01*
X136117654Y-69752978D01*
X136118652Y-69683115D01*
X136157262Y-69624883D01*
X136217721Y-69597273D01*
X136379292Y-69571683D01*
X136551444Y-69515748D01*
X136551452Y-69515745D01*
X136712730Y-69433568D01*
X136728532Y-69422085D01*
X136728533Y-69422085D01*
X136239410Y-68932962D01*
X136302993Y-68915925D01*
X136417007Y-68850099D01*
X136510099Y-68757007D01*
X136575925Y-68642993D01*
X136592962Y-68579410D01*
X137082085Y-69068533D01*
X137082085Y-69068532D01*
X137093568Y-69052730D01*
X137175745Y-68891452D01*
X137175748Y-68891444D01*
X137231682Y-68719293D01*
X137260000Y-68540506D01*
X137260000Y-68359493D01*
X137231682Y-68180706D01*
X137175748Y-68008555D01*
X137175747Y-68008552D01*
X137093571Y-67847275D01*
X137093566Y-67847267D01*
X137082085Y-67831466D01*
X136592962Y-68320589D01*
X136575925Y-68257007D01*
X136510099Y-68142993D01*
X136417007Y-68049901D01*
X136302993Y-67984075D01*
X136239409Y-67967037D01*
X136728533Y-67477913D01*
X136712730Y-67466431D01*
X136551447Y-67384252D01*
X136551444Y-67384251D01*
X136379293Y-67328317D01*
X136217720Y-67302726D01*
X136154585Y-67272797D01*
X136117654Y-67213485D01*
X136118652Y-67143623D01*
X136157262Y-67085390D01*
X136217720Y-67057780D01*
X136232270Y-67055475D01*
X136379409Y-67032171D01*
X136551639Y-66976211D01*
X136712994Y-66893996D01*
X136859501Y-66787553D01*
X136987553Y-66659501D01*
X137093996Y-66512994D01*
X137176211Y-66351639D01*
X137232171Y-66179409D01*
X137246765Y-66087259D01*
X137260500Y-66000551D01*
X137260500Y-65819448D01*
X137233740Y-65650499D01*
X137232171Y-65640591D01*
X137176211Y-65468361D01*
X137176211Y-65468360D01*
X137145085Y-65407273D01*
X137093996Y-65307006D01*
X137085219Y-65294926D01*
X136998638Y-65175755D01*
X136998634Y-65175751D01*
X136987553Y-65160499D01*
X136859501Y-65032447D01*
X136844248Y-65021365D01*
X136844244Y-65021361D01*
X136712997Y-64926006D01*
X136712996Y-64926005D01*
X136712994Y-64926004D01*
X136661300Y-64899664D01*
X136551639Y-64843788D01*
X136551636Y-64843787D01*
X136379410Y-64787829D01*
X136247728Y-64766972D01*
X136184593Y-64737042D01*
X136147662Y-64677731D01*
X136148660Y-64607868D01*
X136187270Y-64549636D01*
X136251234Y-64521522D01*
X136267121Y-64520499D01*
X136642744Y-64520499D01*
X136709783Y-64540184D01*
X136730425Y-64556818D01*
X137763181Y-65589574D01*
X137796666Y-65650897D01*
X137799500Y-65677255D01*
X137799500Y-68399902D01*
X137779815Y-68466941D01*
X137763181Y-68487583D01*
X137719481Y-68531282D01*
X137719475Y-68531290D01*
X137640426Y-68668209D01*
X137640423Y-68668216D01*
X137599500Y-68820943D01*
X137599500Y-68979057D01*
X137640390Y-69131658D01*
X137640423Y-69131783D01*
X137640426Y-69131790D01*
X137719475Y-69268709D01*
X137719479Y-69268714D01*
X137719480Y-69268716D01*
X137831284Y-69380520D01*
X137831286Y-69380521D01*
X137831290Y-69380524D01*
X137938592Y-69442474D01*
X137968216Y-69459577D01*
X138120943Y-69500500D01*
X138120945Y-69500500D01*
X138279055Y-69500500D01*
X138279057Y-69500500D01*
X138431784Y-69459577D01*
X138568716Y-69380520D01*
X138680520Y-69268716D01*
X138759577Y-69131784D01*
X138800500Y-68979057D01*
X138800500Y-68820943D01*
X138759577Y-68668216D01*
X138738247Y-68631271D01*
X138680524Y-68531290D01*
X138680518Y-68531282D01*
X138636819Y-68487583D01*
X138603334Y-68426260D01*
X138600500Y-68399902D01*
X138600500Y-65407275D01*
X138600500Y-65407273D01*
X138573207Y-65305413D01*
X138520480Y-65214087D01*
X138445913Y-65139520D01*
X137296818Y-63990425D01*
X137263333Y-63929102D01*
X137260499Y-63902744D01*
X137260499Y-62624500D01*
X137280184Y-62557461D01*
X137332988Y-62511706D01*
X137384499Y-62500500D01*
X139919842Y-62500500D01*
X139986881Y-62520185D01*
G37*
%TD.AperFunction*%
%TA.AperFunction,Conductor*%
G36*
X135205703Y-79328173D02*
G01*
X135224821Y-79349004D01*
X135232446Y-79359500D01*
X135360500Y-79487554D01*
X135360505Y-79487558D01*
X135469682Y-79566879D01*
X135507006Y-79593996D01*
X135612484Y-79647740D01*
X135668360Y-79676211D01*
X135668363Y-79676212D01*
X135754476Y-79704191D01*
X135840591Y-79732171D01*
X135960038Y-79751089D01*
X136002279Y-79757780D01*
X136065414Y-79787709D01*
X136102345Y-79847021D01*
X136101347Y-79916883D01*
X136062737Y-79975116D01*
X136002279Y-80002726D01*
X135840706Y-80028317D01*
X135668555Y-80084251D01*
X135668547Y-80084254D01*
X135507269Y-80166432D01*
X135491466Y-80177912D01*
X135491466Y-80177913D01*
X135980591Y-80667037D01*
X135917007Y-80684075D01*
X135802993Y-80749901D01*
X135709901Y-80842993D01*
X135644075Y-80957007D01*
X135627037Y-81020590D01*
X135137913Y-80531466D01*
X135134229Y-80531756D01*
X135065852Y-80517392D01*
X135016095Y-80468340D01*
X135000500Y-80408138D01*
X135000500Y-79421886D01*
X135020185Y-79354847D01*
X135072989Y-79309092D01*
X135142147Y-79299148D01*
X135205703Y-79328173D01*
G37*
%TD.AperFunction*%
%TA.AperFunction,Conductor*%
G36*
X154961917Y-79332959D02*
G01*
X154996277Y-79393796D01*
X154999500Y-79421886D01*
X154999500Y-80408138D01*
X154979815Y-80475177D01*
X154927011Y-80520932D01*
X154865773Y-80531756D01*
X154862086Y-80531465D01*
X154372962Y-81020589D01*
X154355925Y-80957007D01*
X154290099Y-80842993D01*
X154197007Y-80749901D01*
X154082993Y-80684075D01*
X154019408Y-80667037D01*
X154508533Y-80177913D01*
X154492730Y-80166431D01*
X154331447Y-80084252D01*
X154331444Y-80084251D01*
X154159293Y-80028317D01*
X153997720Y-80002726D01*
X153934585Y-79972797D01*
X153897654Y-79913485D01*
X153898652Y-79843623D01*
X153937262Y-79785390D01*
X153997720Y-79757780D01*
X154012270Y-79755475D01*
X154159409Y-79732171D01*
X154331639Y-79676211D01*
X154492994Y-79593996D01*
X154639501Y-79487553D01*
X154767553Y-79359501D01*
X154775180Y-79349003D01*
X154830508Y-79306336D01*
X154900121Y-79300355D01*
X154961917Y-79332959D01*
G37*
%TD.AperFunction*%
%TA.AperFunction,Conductor*%
G36*
X147780539Y-75407185D02*
G01*
X147826294Y-75459989D01*
X147837500Y-75511500D01*
X147837500Y-75812499D01*
X147850500Y-75812499D01*
X147917539Y-75832184D01*
X147963294Y-75884988D01*
X147974500Y-75936499D01*
X147974500Y-76484450D01*
X147984779Y-76555007D01*
X147986900Y-76559345D01*
X147999500Y-76613806D01*
X147999500Y-77482744D01*
X147979815Y-77549783D01*
X147963181Y-77570425D01*
X147584832Y-77948773D01*
X147523509Y-77982258D01*
X147453817Y-77977274D01*
X147397884Y-77935402D01*
X147374035Y-77875876D01*
X147364866Y-77799528D01*
X147311922Y-77665270D01*
X147224721Y-77550278D01*
X147124288Y-77474118D01*
X147082764Y-77417926D01*
X147078213Y-77348204D01*
X147112078Y-77287090D01*
X147124288Y-77276510D01*
X147225078Y-77200078D01*
X147312363Y-77084976D01*
X147312362Y-77084976D01*
X147312364Y-77084975D01*
X147365359Y-76950590D01*
X147375500Y-76866144D01*
X147375500Y-76333856D01*
X147365359Y-76249410D01*
X147312364Y-76115025D01*
X147312363Y-76115024D01*
X147312363Y-76115023D01*
X147233801Y-76011424D01*
X147208978Y-75946113D01*
X147223406Y-75877749D01*
X147272503Y-75828038D01*
X147332605Y-75812499D01*
X147587499Y-75812499D01*
X147587500Y-75812498D01*
X147587500Y-75511500D01*
X147590050Y-75502814D01*
X147588762Y-75493853D01*
X147599740Y-75469812D01*
X147607185Y-75444461D01*
X147614025Y-75438533D01*
X147617787Y-75430297D01*
X147640021Y-75416007D01*
X147659989Y-75398706D01*
X147670503Y-75396418D01*
X147676565Y-75392523D01*
X147711500Y-75387500D01*
X147713500Y-75387500D01*
X147780539Y-75407185D01*
G37*
%TD.AperFunction*%
%TA.AperFunction,Conductor*%
G36*
X150530202Y-75897040D02*
G01*
X150536669Y-75903061D01*
X150633530Y-75999922D01*
X150762181Y-76128573D01*
X150795666Y-76189896D01*
X150798500Y-76216254D01*
X150798500Y-76473482D01*
X150778815Y-76540521D01*
X150762181Y-76561163D01*
X150411667Y-76911677D01*
X150384739Y-76926380D01*
X150358921Y-76942973D01*
X150352720Y-76943864D01*
X150350344Y-76945162D01*
X150323986Y-76947996D01*
X150276519Y-76947996D01*
X150209480Y-76928311D01*
X150163725Y-76875507D01*
X150153781Y-76806349D01*
X150182806Y-76742793D01*
X150188838Y-76736315D01*
X150261598Y-76663554D01*
X150314733Y-76554866D01*
X150325000Y-76484395D01*
X150325000Y-76200000D01*
X150014873Y-76200000D01*
X149975855Y-76221305D01*
X149906163Y-76216319D01*
X149850230Y-76174446D01*
X149825815Y-76108981D01*
X149825499Y-76100152D01*
X149825499Y-76073998D01*
X149845184Y-76006961D01*
X149897988Y-75961206D01*
X149949499Y-75950000D01*
X150324999Y-75950000D01*
X150341939Y-75933059D01*
X150344684Y-75923714D01*
X150397488Y-75877959D01*
X150466646Y-75868015D01*
X150530202Y-75897040D01*
G37*
%TD.AperFunction*%
%TA.AperFunction,Conductor*%
G36*
X148969771Y-73686412D02*
G01*
X149011393Y-73734447D01*
X149012395Y-73736497D01*
X149012820Y-73738331D01*
X149013794Y-73739455D01*
X149014965Y-73747602D01*
X149025000Y-73790966D01*
X149025000Y-73933405D01*
X149067361Y-73927234D01*
X149067365Y-73927233D01*
X149094967Y-73913739D01*
X149163840Y-73901978D01*
X149203888Y-73913736D01*
X149232491Y-73927720D01*
X149303051Y-73938000D01*
X149496948Y-73937999D01*
X149496950Y-73937999D01*
X149528484Y-73933405D01*
X149567509Y-73927720D01*
X149595539Y-73914016D01*
X149625125Y-73908964D01*
X149654205Y-73901487D01*
X149660183Y-73902977D01*
X149664409Y-73902256D01*
X149688949Y-73907692D01*
X149696914Y-73910327D01*
X149732491Y-73927720D01*
X149762854Y-73932143D01*
X149773168Y-73935556D01*
X149793320Y-73949495D01*
X149815595Y-73959717D01*
X149821549Y-73969019D01*
X149830632Y-73975302D01*
X149840049Y-73997924D01*
X149853261Y-74018565D01*
X149856924Y-74035405D01*
X149859779Y-74055008D01*
X149873484Y-74083043D01*
X149885241Y-74151916D01*
X149873484Y-74191957D01*
X149860192Y-74219148D01*
X149859780Y-74219991D01*
X149849500Y-74290551D01*
X149849500Y-74290555D01*
X149849500Y-74290556D01*
X149849500Y-74484450D01*
X149859779Y-74555007D01*
X149859779Y-74555008D01*
X149873484Y-74583043D01*
X149885241Y-74651916D01*
X149873484Y-74691957D01*
X149864676Y-74709975D01*
X149859780Y-74719991D01*
X149849500Y-74790551D01*
X149849500Y-74790555D01*
X149849500Y-74790556D01*
X149849500Y-74984450D01*
X149859779Y-75055007D01*
X149859779Y-75055008D01*
X149873484Y-75083043D01*
X149878524Y-75112569D01*
X149886015Y-75141578D01*
X149884509Y-75147630D01*
X149885241Y-75151916D01*
X149879846Y-75176328D01*
X149877195Y-75184366D01*
X149859780Y-75219991D01*
X149855291Y-75250800D01*
X149851907Y-75261065D01*
X149837950Y-75281287D01*
X149827701Y-75303618D01*
X149818455Y-75309534D01*
X149812220Y-75318570D01*
X149789545Y-75328036D01*
X149768852Y-75341280D01*
X149752019Y-75344942D01*
X149732638Y-75347765D01*
X149705027Y-75361263D01*
X149636154Y-75373020D01*
X149596108Y-75361261D01*
X149567511Y-75347280D01*
X149549869Y-75344710D01*
X149496949Y-75337000D01*
X149496943Y-75337000D01*
X149303049Y-75337000D01*
X149232493Y-75347279D01*
X149203888Y-75361263D01*
X149135015Y-75373020D01*
X149094968Y-75361261D01*
X149067364Y-75347765D01*
X149067361Y-75347764D01*
X149025000Y-75341592D01*
X149025000Y-75484032D01*
X149022449Y-75492717D01*
X149023738Y-75501679D01*
X149012384Y-75538526D01*
X149011383Y-75540572D01*
X149006985Y-75545382D01*
X149005315Y-75551071D01*
X148988328Y-75565789D01*
X148964239Y-75592140D01*
X148955135Y-75594551D01*
X148952511Y-75596826D01*
X148919202Y-75604072D01*
X148896700Y-75610034D01*
X148830208Y-75588573D01*
X148788574Y-75540486D01*
X148787573Y-75538438D01*
X148787157Y-75536641D01*
X148786206Y-75535543D01*
X148785056Y-75527548D01*
X148775000Y-75484032D01*
X148775000Y-75341594D01*
X148732633Y-75347767D01*
X148732632Y-75347767D01*
X148705028Y-75361262D01*
X148675444Y-75366312D01*
X148646372Y-75373790D01*
X148640385Y-75372297D01*
X148636155Y-75373020D01*
X148611627Y-75367588D01*
X148603656Y-75364951D01*
X148567509Y-75347280D01*
X148536634Y-75342781D01*
X148526320Y-75339370D01*
X148506158Y-75325426D01*
X148483882Y-75315202D01*
X148477932Y-75305905D01*
X148468854Y-75299627D01*
X148459431Y-75276996D01*
X148446219Y-75256352D01*
X148442557Y-75239518D01*
X148439733Y-75220135D01*
X148426238Y-75192531D01*
X148414478Y-75123658D01*
X148426237Y-75083611D01*
X148440220Y-75055009D01*
X148450500Y-74984449D01*
X148450499Y-74790552D01*
X148450239Y-74788769D01*
X148442929Y-74738585D01*
X148440220Y-74719991D01*
X148426516Y-74691960D01*
X148414756Y-74623091D01*
X148426515Y-74583040D01*
X148440220Y-74555009D01*
X148450500Y-74484449D01*
X148450499Y-74290552D01*
X148440220Y-74219991D01*
X148426516Y-74191960D01*
X148421464Y-74162375D01*
X148413987Y-74133296D01*
X148415477Y-74127316D01*
X148414756Y-74123091D01*
X148420192Y-74098551D01*
X148422827Y-74090585D01*
X148440220Y-74055009D01*
X148444643Y-74024644D01*
X148448056Y-74014331D01*
X148461996Y-73994175D01*
X148472217Y-73971905D01*
X148481518Y-73965951D01*
X148487801Y-73956868D01*
X148510427Y-73947448D01*
X148531065Y-73934239D01*
X148547896Y-73930577D01*
X148567509Y-73927720D01*
X148596108Y-73913738D01*
X148664979Y-73901978D01*
X148705031Y-73913738D01*
X148732635Y-73927233D01*
X148775000Y-73933405D01*
X148775000Y-73790966D01*
X148777550Y-73782280D01*
X148776262Y-73773319D01*
X148787603Y-73736499D01*
X148788606Y-73734447D01*
X148793011Y-73729627D01*
X148794685Y-73723927D01*
X148811669Y-73709209D01*
X148835738Y-73682872D01*
X148844854Y-73680454D01*
X148847489Y-73678172D01*
X148880756Y-73670934D01*
X148903274Y-73664964D01*
X148969771Y-73686412D01*
G37*
%TD.AperFunction*%
%TA.AperFunction,Conductor*%
G36*
X144603039Y-70319685D02*
G01*
X144648794Y-70372489D01*
X144660000Y-70424000D01*
X144660000Y-70905619D01*
X144709546Y-70888284D01*
X144779325Y-70884723D01*
X144839952Y-70919452D01*
X144872179Y-70981446D01*
X144874500Y-71005326D01*
X144874500Y-73495500D01*
X144854815Y-73562539D01*
X144802011Y-73608294D01*
X144750500Y-73619500D01*
X144595943Y-73619500D01*
X144443216Y-73660423D01*
X144443211Y-73660425D01*
X144404941Y-73682520D01*
X144337041Y-73698991D01*
X144271014Y-73676138D01*
X144244139Y-73650057D01*
X144225078Y-73624921D01*
X144109976Y-73537636D01*
X143975588Y-73484640D01*
X143932242Y-73479435D01*
X143891144Y-73474500D01*
X143308856Y-73474500D01*
X143224418Y-73484640D01*
X143224410Y-73484641D01*
X143084988Y-73539621D01*
X143015401Y-73545902D01*
X142953465Y-73513565D01*
X142918845Y-73452875D01*
X142915499Y-73424272D01*
X142915499Y-72996136D01*
X142913686Y-72980499D01*
X142912586Y-72971012D01*
X142912585Y-72971010D01*
X142912585Y-72971009D01*
X142867206Y-72868235D01*
X142867199Y-72868228D01*
X142862303Y-72861080D01*
X142840655Y-72794649D01*
X142858358Y-72727059D01*
X142862303Y-72720920D01*
X142867198Y-72713772D01*
X142867206Y-72713765D01*
X142912585Y-72610991D01*
X142915500Y-72585865D01*
X142915499Y-72046136D01*
X142914390Y-72036573D01*
X142912586Y-72021012D01*
X142912585Y-72021010D01*
X142912585Y-72021009D01*
X142867206Y-71918235D01*
X142787765Y-71838794D01*
X142787764Y-71838793D01*
X142786818Y-71837847D01*
X142753334Y-71776523D01*
X142750500Y-71750166D01*
X142750500Y-71324263D01*
X142770185Y-71257224D01*
X142794238Y-71231227D01*
X142794083Y-71231072D01*
X142798074Y-71227080D01*
X142799573Y-71225460D01*
X142800078Y-71225078D01*
X142887364Y-71109975D01*
X142940359Y-70975590D01*
X142940359Y-70975587D01*
X142943275Y-70968194D01*
X142945394Y-70969029D01*
X142974999Y-70918869D01*
X143037406Y-70887449D01*
X143100660Y-70892385D01*
X143173121Y-70917741D01*
X143173120Y-70917741D01*
X143177534Y-70918154D01*
X143202543Y-70920500D01*
X143577456Y-70920499D01*
X143606879Y-70917741D01*
X143730794Y-70874381D01*
X143826788Y-70803533D01*
X143892416Y-70779563D01*
X143960586Y-70794878D01*
X143974055Y-70803534D01*
X144069443Y-70873934D01*
X144069442Y-70873934D01*
X144159999Y-70905620D01*
X144160000Y-70905620D01*
X144160000Y-70424000D01*
X144179685Y-70356961D01*
X144232489Y-70311206D01*
X144284000Y-70300000D01*
X144536000Y-70300000D01*
X144603039Y-70319685D01*
G37*
%TD.AperFunction*%
%TA.AperFunction,Conductor*%
G36*
X147603039Y-70319685D02*
G01*
X147648794Y-70372489D01*
X147660000Y-70424000D01*
X147660000Y-70590000D01*
X147674133Y-70604133D01*
X147693039Y-70609685D01*
X147738794Y-70662489D01*
X147750000Y-70714000D01*
X147750000Y-71040000D01*
X148105622Y-71040000D01*
X148105621Y-71039999D01*
X148073934Y-70949442D01*
X148073933Y-70949440D01*
X147996064Y-70843933D01*
X147977666Y-70830355D01*
X147935415Y-70774708D01*
X147929956Y-70705052D01*
X147934258Y-70689629D01*
X147948987Y-70647538D01*
X147989710Y-70590762D01*
X148054663Y-70565016D01*
X148123224Y-70578473D01*
X148153709Y-70600813D01*
X148741748Y-71188852D01*
X148775233Y-71250175D01*
X148770249Y-71319867D01*
X148728377Y-71375800D01*
X148695023Y-71393574D01*
X148572079Y-71436595D01*
X148465358Y-71515358D01*
X148386594Y-71622080D01*
X148342787Y-71747272D01*
X148342786Y-71747274D01*
X148342530Y-71749999D01*
X148342531Y-71750000D01*
X148796000Y-71750000D01*
X148863039Y-71769685D01*
X148908794Y-71822489D01*
X148920000Y-71874000D01*
X148920000Y-72000000D01*
X149046000Y-72000000D01*
X149113039Y-72019685D01*
X149158794Y-72072489D01*
X149170000Y-72124000D01*
X149170000Y-72428568D01*
X149150315Y-72495607D01*
X149142829Y-72506028D01*
X149129579Y-72522590D01*
X149123653Y-72525488D01*
X149037988Y-72611153D01*
X149005388Y-72677835D01*
X148996828Y-72688537D01*
X148978970Y-72701031D01*
X148964269Y-72717121D01*
X148950907Y-72720665D01*
X148939579Y-72728591D01*
X148917799Y-72729446D01*
X148896735Y-72735034D01*
X148883577Y-72730791D01*
X148869763Y-72731334D01*
X148850980Y-72720280D01*
X148830237Y-72713592D01*
X148820479Y-72702330D01*
X148809547Y-72695897D01*
X148802060Y-72681074D01*
X148788600Y-72665539D01*
X148762012Y-72611153D01*
X148762010Y-72611151D01*
X148762010Y-72611150D01*
X148706319Y-72555459D01*
X148672834Y-72494136D01*
X148670000Y-72467778D01*
X148670000Y-72250000D01*
X148342532Y-72250000D01*
X148336174Y-72256981D01*
X148276479Y-72293289D01*
X148206631Y-72291560D01*
X148148805Y-72252343D01*
X148121362Y-72188089D01*
X148120499Y-72173484D01*
X148120499Y-72122545D01*
X148120498Y-72122538D01*
X148117741Y-72093121D01*
X148074381Y-71969206D01*
X148003534Y-71873212D01*
X147979563Y-71807583D01*
X147994878Y-71739412D01*
X148003535Y-71725943D01*
X148073933Y-71630560D01*
X148073934Y-71630557D01*
X148105621Y-71540000D01*
X146894378Y-71540000D01*
X146926065Y-71630557D01*
X146926066Y-71630558D01*
X146944832Y-71655986D01*
X146968802Y-71721615D01*
X146953486Y-71789786D01*
X146903745Y-71838853D01*
X146835373Y-71853240D01*
X146799756Y-71842912D01*
X146799329Y-71844135D01*
X146666786Y-71797755D01*
X146650000Y-71796181D01*
X146650000Y-72241000D01*
X146630315Y-72308039D01*
X146577511Y-72353794D01*
X146526000Y-72365000D01*
X146274000Y-72365000D01*
X146206961Y-72345315D01*
X146161206Y-72292511D01*
X146150000Y-72241000D01*
X146150000Y-71784442D01*
X146129697Y-71751068D01*
X146125500Y-71719079D01*
X146125500Y-71044499D01*
X146145185Y-70977460D01*
X146197989Y-70931705D01*
X146249495Y-70920499D01*
X146577456Y-70920499D01*
X146606879Y-70917741D01*
X146730794Y-70874381D01*
X146730793Y-70874381D01*
X146739565Y-70871312D01*
X146740788Y-70874807D01*
X146791661Y-70864433D01*
X146856802Y-70889701D01*
X146897941Y-70946175D01*
X146902016Y-71015926D01*
X146898246Y-71028945D01*
X146894378Y-71039999D01*
X146894378Y-71040000D01*
X147160000Y-71040000D01*
X147160000Y-70424000D01*
X147179685Y-70356961D01*
X147232489Y-70311206D01*
X147284000Y-70300000D01*
X147536000Y-70300000D01*
X147603039Y-70319685D01*
G37*
%TD.AperFunction*%
%TA.AperFunction,Conductor*%
G36*
X153799914Y-64540184D02*
G01*
X153845669Y-64592988D01*
X153855613Y-64662146D01*
X153826588Y-64725702D01*
X153767810Y-64763476D01*
X153752273Y-64766972D01*
X153620589Y-64787829D01*
X153448363Y-64843787D01*
X153448360Y-64843788D01*
X153287002Y-64926006D01*
X153140505Y-65032441D01*
X153140500Y-65032445D01*
X153012445Y-65160500D01*
X153012441Y-65160505D01*
X152906006Y-65307002D01*
X152823788Y-65468360D01*
X152823787Y-65468363D01*
X152767829Y-65640589D01*
X152739500Y-65819448D01*
X152739500Y-66000551D01*
X152767829Y-66179410D01*
X152823787Y-66351636D01*
X152823788Y-66351639D01*
X152906006Y-66512997D01*
X153012441Y-66659494D01*
X153012445Y-66659499D01*
X153140500Y-66787554D01*
X153140505Y-66787558D01*
X153261485Y-66875454D01*
X153287006Y-66893996D01*
X153380724Y-66941748D01*
X153448360Y-66976211D01*
X153448363Y-66976212D01*
X153486503Y-66988604D01*
X153620591Y-67032171D01*
X153740038Y-67051089D01*
X153782279Y-67057780D01*
X153845414Y-67087709D01*
X153882345Y-67147021D01*
X153881347Y-67216883D01*
X153842737Y-67275116D01*
X153782279Y-67302726D01*
X153620706Y-67328317D01*
X153448555Y-67384251D01*
X153448547Y-67384254D01*
X153287269Y-67466432D01*
X153271466Y-67477912D01*
X153271466Y-67477913D01*
X153760591Y-67967037D01*
X153697007Y-67984075D01*
X153582993Y-68049901D01*
X153489901Y-68142993D01*
X153424075Y-68257007D01*
X153407037Y-68320590D01*
X152913067Y-67826620D01*
X152862790Y-67816059D01*
X152813033Y-67767008D01*
X152797694Y-67698842D01*
X152799620Y-67687136D01*
X152799439Y-67687113D01*
X152800500Y-67679055D01*
X152800500Y-67520945D01*
X152800500Y-67520943D01*
X152759577Y-67368216D01*
X152721767Y-67302726D01*
X152680524Y-67231290D01*
X152680518Y-67231282D01*
X152568717Y-67119481D01*
X152568709Y-67119475D01*
X152431790Y-67040426D01*
X152431786Y-67040424D01*
X152431784Y-67040423D01*
X152279057Y-66999500D01*
X152120943Y-66999500D01*
X151968216Y-67040423D01*
X151968209Y-67040426D01*
X151831290Y-67119475D01*
X151831282Y-67119481D01*
X151719481Y-67231282D01*
X151719475Y-67231290D01*
X151640426Y-67368209D01*
X151640423Y-67368216D01*
X151599500Y-67520943D01*
X151599500Y-67679057D01*
X151607292Y-67708138D01*
X151610178Y-67718907D01*
X151608515Y-67788757D01*
X151569352Y-67846619D01*
X151505124Y-67874123D01*
X151500607Y-67874392D01*
X151500000Y-67875000D01*
X151500000Y-68501000D01*
X151480315Y-68568039D01*
X151427511Y-68613794D01*
X151376000Y-68625000D01*
X151250000Y-68625000D01*
X151250000Y-68751000D01*
X151230315Y-68818039D01*
X151177511Y-68863794D01*
X151126000Y-68875000D01*
X150475000Y-68875000D01*
X150475000Y-68891102D01*
X150485131Y-68975467D01*
X150485131Y-68975468D01*
X150538077Y-69109729D01*
X150625278Y-69224721D01*
X150725711Y-69300881D01*
X150767234Y-69357073D01*
X150771786Y-69426795D01*
X150737921Y-69487909D01*
X150725712Y-69498488D01*
X150624922Y-69574920D01*
X150537636Y-69690023D01*
X150484640Y-69824411D01*
X150482502Y-69842219D01*
X150474500Y-69908856D01*
X150474500Y-70441144D01*
X150478686Y-70476000D01*
X150484640Y-70525588D01*
X150537637Y-70659978D01*
X150540882Y-70665749D01*
X150556579Y-70733833D01*
X150532976Y-70799595D01*
X150477566Y-70842157D01*
X150473752Y-70843562D01*
X150409439Y-70866067D01*
X150303934Y-70943934D01*
X150226066Y-71049440D01*
X150200643Y-71122094D01*
X150159921Y-71178870D01*
X150094968Y-71204616D01*
X150026406Y-71191159D01*
X149995921Y-71168819D01*
X148591317Y-69764214D01*
X148557832Y-69702891D01*
X148562816Y-69633199D01*
X148604688Y-69577266D01*
X148628914Y-69563098D01*
X148722473Y-69521789D01*
X148722479Y-69521785D01*
X148801785Y-69442479D01*
X148801788Y-69442474D01*
X148847089Y-69339877D01*
X148847089Y-69339875D01*
X148849999Y-69314794D01*
X148849999Y-69036812D01*
X148869683Y-68969773D01*
X148922487Y-68924018D01*
X148991646Y-68914074D01*
X149021451Y-68922251D01*
X149069999Y-68942360D01*
X149070000Y-68942360D01*
X149070000Y-68346988D01*
X149079940Y-68364205D01*
X149135795Y-68420060D01*
X149204204Y-68459556D01*
X149280504Y-68480000D01*
X149359496Y-68480000D01*
X149435796Y-68459556D01*
X149504205Y-68420060D01*
X149560060Y-68364205D01*
X149570000Y-68346988D01*
X149570000Y-68942360D01*
X149698934Y-68888954D01*
X149698952Y-68888944D01*
X149829965Y-68801404D01*
X149829973Y-68801398D01*
X149941398Y-68689973D01*
X149941401Y-68689969D01*
X150028947Y-68558948D01*
X150028952Y-68558939D01*
X150089256Y-68413351D01*
X150089258Y-68413343D01*
X150100089Y-68358897D01*
X150475000Y-68358897D01*
X150475000Y-68375000D01*
X151000000Y-68375000D01*
X151000000Y-67875000D01*
X150958898Y-67875000D01*
X150874532Y-67885131D01*
X150874531Y-67885131D01*
X150740270Y-67938077D01*
X150625278Y-68025278D01*
X150538077Y-68140270D01*
X150485131Y-68274531D01*
X150485131Y-68274532D01*
X150475000Y-68358897D01*
X150100089Y-68358897D01*
X150105632Y-68331030D01*
X150105637Y-68331002D01*
X150120000Y-68258791D01*
X150120000Y-67880000D01*
X149620000Y-67880000D01*
X149620000Y-67380000D01*
X150120000Y-67380000D01*
X150120000Y-67001206D01*
X150119999Y-67001202D01*
X150089258Y-66846656D01*
X150089256Y-66846648D01*
X150028952Y-66701060D01*
X150028947Y-66701051D01*
X149941401Y-66570030D01*
X149941398Y-66570026D01*
X149829973Y-66458601D01*
X149829969Y-66458598D01*
X149698948Y-66371052D01*
X149698938Y-66371047D01*
X149570000Y-66317639D01*
X149570000Y-66913011D01*
X149560060Y-66895795D01*
X149504205Y-66839940D01*
X149435796Y-66800444D01*
X149359496Y-66780000D01*
X149280504Y-66780000D01*
X149204204Y-66800444D01*
X149135795Y-66839940D01*
X149079940Y-66895795D01*
X149070000Y-66913011D01*
X149070000Y-66317639D01*
X149069999Y-66317639D01*
X148941061Y-66371047D01*
X148941051Y-66371052D01*
X148810030Y-66458598D01*
X148810026Y-66458601D01*
X148698601Y-66570026D01*
X148698598Y-66570030D01*
X148611052Y-66701051D01*
X148611047Y-66701061D01*
X148563328Y-66816265D01*
X148519487Y-66870668D01*
X148453192Y-66892733D01*
X148385493Y-66875454D01*
X148341380Y-66830812D01*
X148310507Y-66777338D01*
X148310506Y-66777336D01*
X148310505Y-66777335D01*
X148212665Y-66679495D01*
X148212664Y-66679494D01*
X148212661Y-66679492D01*
X148092838Y-66610313D01*
X148092831Y-66610310D01*
X148039202Y-66595940D01*
X147979542Y-66559575D01*
X147949014Y-66496728D01*
X147957309Y-66427352D01*
X147983613Y-66388488D01*
X148685284Y-65686819D01*
X148746607Y-65653334D01*
X148772965Y-65650500D01*
X151759308Y-65650500D01*
X151759309Y-65650500D01*
X151849673Y-65626286D01*
X151873887Y-65619799D01*
X151976614Y-65560489D01*
X152980284Y-64556817D01*
X153041607Y-64523333D01*
X153067965Y-64520499D01*
X153732875Y-64520499D01*
X153799914Y-64540184D01*
G37*
%TD.AperFunction*%
%TA.AperFunction,Conductor*%
G36*
X153424075Y-68642993D02*
G01*
X153489901Y-68757007D01*
X153582993Y-68850099D01*
X153697007Y-68915925D01*
X153760590Y-68932962D01*
X153271466Y-69422085D01*
X153271466Y-69422086D01*
X153287267Y-69433566D01*
X153287275Y-69433571D01*
X153448552Y-69515747D01*
X153448555Y-69515748D01*
X153620706Y-69571682D01*
X153782279Y-69597273D01*
X153845413Y-69627202D01*
X153882345Y-69686513D01*
X153881347Y-69756376D01*
X153842738Y-69814609D01*
X153782280Y-69842219D01*
X153620589Y-69867829D01*
X153448363Y-69923787D01*
X153448360Y-69923788D01*
X153287002Y-70006006D01*
X153140505Y-70112441D01*
X153140500Y-70112445D01*
X153012445Y-70240500D01*
X153012441Y-70240505D01*
X152906006Y-70387002D01*
X152834985Y-70526387D01*
X152787010Y-70577183D01*
X152719189Y-70593978D01*
X152653054Y-70571440D01*
X152609603Y-70516725D01*
X152600500Y-70470092D01*
X152600500Y-68968804D01*
X152620185Y-68901765D01*
X152672989Y-68856010D01*
X152742147Y-68846066D01*
X152805703Y-68875091D01*
X152834985Y-68912509D01*
X152906431Y-69052730D01*
X152917913Y-69068532D01*
X152917913Y-69068533D01*
X153407037Y-68579409D01*
X153424075Y-68642993D01*
G37*
%TD.AperFunction*%
%TA.AperFunction,Conductor*%
G36*
X154862084Y-69068532D02*
G01*
X154865772Y-69068242D01*
X154934149Y-69082606D01*
X154983905Y-69131658D01*
X154999500Y-69191860D01*
X154999500Y-70178113D01*
X154979815Y-70245152D01*
X154927011Y-70290907D01*
X154857853Y-70300851D01*
X154794297Y-70271826D01*
X154775182Y-70250998D01*
X154767558Y-70240505D01*
X154767554Y-70240500D01*
X154639499Y-70112445D01*
X154639494Y-70112441D01*
X154492997Y-70006006D01*
X154492996Y-70006005D01*
X154492994Y-70006004D01*
X154425277Y-69971500D01*
X154331639Y-69923788D01*
X154331636Y-69923787D01*
X154159410Y-69867828D01*
X153997720Y-69842219D01*
X153934585Y-69812289D01*
X153897654Y-69752978D01*
X153898652Y-69683115D01*
X153937262Y-69624883D01*
X153997721Y-69597273D01*
X154159292Y-69571683D01*
X154331444Y-69515748D01*
X154331452Y-69515745D01*
X154492730Y-69433568D01*
X154508532Y-69422085D01*
X154508533Y-69422085D01*
X154019410Y-68932962D01*
X154082993Y-68915925D01*
X154197007Y-68850099D01*
X154290099Y-68757007D01*
X154355925Y-68642993D01*
X154372962Y-68579410D01*
X154862084Y-69068532D01*
G37*
%TD.AperFunction*%
%TA.AperFunction,Conductor*%
G36*
X135644075Y-68642993D02*
G01*
X135709901Y-68757007D01*
X135802993Y-68850099D01*
X135917007Y-68915925D01*
X135980590Y-68932962D01*
X135491466Y-69422085D01*
X135491466Y-69422086D01*
X135507267Y-69433566D01*
X135507275Y-69433571D01*
X135668552Y-69515747D01*
X135668555Y-69515748D01*
X135840706Y-69571682D01*
X136002279Y-69597273D01*
X136065413Y-69627202D01*
X136102345Y-69686513D01*
X136101347Y-69756376D01*
X136062738Y-69814609D01*
X136002280Y-69842219D01*
X135840589Y-69867829D01*
X135668363Y-69923787D01*
X135668360Y-69923788D01*
X135507002Y-70006006D01*
X135360505Y-70112441D01*
X135360500Y-70112445D01*
X135232445Y-70240500D01*
X135232441Y-70240505D01*
X135224818Y-70250998D01*
X135169488Y-70293664D01*
X135099875Y-70299643D01*
X135038080Y-70267037D01*
X135003723Y-70206199D01*
X135000500Y-70178113D01*
X135000500Y-69191861D01*
X135020185Y-69124822D01*
X135072989Y-69079067D01*
X135134229Y-69068243D01*
X135137913Y-69068533D01*
X135627037Y-68579409D01*
X135644075Y-68642993D01*
G37*
%TD.AperFunction*%
%TA.AperFunction,Conductor*%
G36*
X148390749Y-68545880D02*
G01*
X148416336Y-68556844D01*
X148443039Y-68564685D01*
X148448002Y-68570412D01*
X148454971Y-68573399D01*
X148470569Y-68596456D01*
X148488794Y-68617489D01*
X148489872Y-68624991D01*
X148494121Y-68631271D01*
X148500000Y-68669000D01*
X148500000Y-69373535D01*
X148480315Y-69440574D01*
X148427511Y-69486329D01*
X148358353Y-69496273D01*
X148294797Y-69467248D01*
X148288319Y-69461216D01*
X148218616Y-69391513D01*
X148218613Y-69391511D01*
X148206728Y-69384649D01*
X148181048Y-69364943D01*
X148086818Y-69270713D01*
X148053333Y-69209390D01*
X148050499Y-69183032D01*
X148050499Y-68644861D01*
X148055118Y-68629129D01*
X148054732Y-68612740D01*
X148064758Y-68596298D01*
X148070184Y-68577822D01*
X148082572Y-68567086D01*
X148091110Y-68553088D01*
X148108436Y-68544676D01*
X148122988Y-68532067D01*
X148139214Y-68529733D01*
X148153964Y-68522573D01*
X148189248Y-68521741D01*
X148390749Y-68545880D01*
G37*
%TD.AperFunction*%
%TA.AperFunction,Conductor*%
G36*
X135205703Y-66628173D02*
G01*
X135224821Y-66649004D01*
X135232446Y-66659500D01*
X135360500Y-66787554D01*
X135360505Y-66787558D01*
X135481485Y-66875454D01*
X135507006Y-66893996D01*
X135600724Y-66941748D01*
X135668360Y-66976211D01*
X135668363Y-66976212D01*
X135706503Y-66988604D01*
X135840591Y-67032171D01*
X135960038Y-67051089D01*
X136002279Y-67057780D01*
X136065414Y-67087709D01*
X136102345Y-67147021D01*
X136101347Y-67216883D01*
X136062737Y-67275116D01*
X136002279Y-67302726D01*
X135840706Y-67328317D01*
X135668555Y-67384251D01*
X135668547Y-67384254D01*
X135507269Y-67466432D01*
X135491466Y-67477912D01*
X135491466Y-67477913D01*
X135980591Y-67967037D01*
X135917007Y-67984075D01*
X135802993Y-68049901D01*
X135709901Y-68142993D01*
X135644075Y-68257007D01*
X135627037Y-68320590D01*
X135137913Y-67831466D01*
X135134229Y-67831756D01*
X135065852Y-67817392D01*
X135016095Y-67768340D01*
X135000500Y-67708138D01*
X135000500Y-66721886D01*
X135020185Y-66654847D01*
X135072989Y-66609092D01*
X135142147Y-66599148D01*
X135205703Y-66628173D01*
G37*
%TD.AperFunction*%
%TA.AperFunction,Conductor*%
G36*
X154961917Y-66632959D02*
G01*
X154996277Y-66693796D01*
X154999500Y-66721886D01*
X154999500Y-67708138D01*
X154979815Y-67775177D01*
X154927011Y-67820932D01*
X154865773Y-67831756D01*
X154862086Y-67831465D01*
X154372962Y-68320589D01*
X154355925Y-68257007D01*
X154290099Y-68142993D01*
X154197007Y-68049901D01*
X154082993Y-67984075D01*
X154019409Y-67967037D01*
X154508533Y-67477913D01*
X154492730Y-67466431D01*
X154331447Y-67384252D01*
X154331444Y-67384251D01*
X154159293Y-67328317D01*
X153997720Y-67302726D01*
X153934585Y-67272797D01*
X153897654Y-67213485D01*
X153898652Y-67143623D01*
X153937262Y-67085390D01*
X153997720Y-67057780D01*
X154012270Y-67055475D01*
X154159409Y-67032171D01*
X154331639Y-66976211D01*
X154492994Y-66893996D01*
X154639501Y-66787553D01*
X154767553Y-66659501D01*
X154775180Y-66649003D01*
X154830508Y-66606336D01*
X154900121Y-66600355D01*
X154961917Y-66632959D01*
G37*
%TD.AperFunction*%
%TA.AperFunction,Conductor*%
G36*
X152682539Y-62520185D02*
G01*
X152728294Y-62572989D01*
X152739500Y-62624500D01*
X152739500Y-63472033D01*
X152719815Y-63539072D01*
X152703181Y-63559714D01*
X151549716Y-64713181D01*
X151488393Y-64746666D01*
X151462035Y-64749500D01*
X149620885Y-64749500D01*
X149553846Y-64729815D01*
X149508091Y-64677011D01*
X149498147Y-64607853D01*
X149527172Y-64544297D01*
X149573432Y-64510939D01*
X149698939Y-64458952D01*
X149698948Y-64458947D01*
X149829969Y-64371401D01*
X149829973Y-64371398D01*
X149941398Y-64259973D01*
X149941401Y-64259969D01*
X150028947Y-64128948D01*
X150028952Y-64128939D01*
X150089256Y-63983351D01*
X150089258Y-63983343D01*
X150119999Y-63828797D01*
X150120000Y-63828794D01*
X150120000Y-63700000D01*
X149620000Y-63700000D01*
X149620000Y-63200000D01*
X150120000Y-63200000D01*
X150120000Y-63071206D01*
X150119999Y-63071202D01*
X150089258Y-62916656D01*
X150089256Y-62916648D01*
X150028952Y-62771060D01*
X150028947Y-62771051D01*
X149977056Y-62693391D01*
X149956178Y-62626714D01*
X149974662Y-62559333D01*
X150026641Y-62512643D01*
X150080158Y-62500500D01*
X152615500Y-62500500D01*
X152682539Y-62520185D01*
G37*
%TD.AperFunction*%
%TD*%
M02*
