%TF.GenerationSoftware,KiCad,Pcbnew,9.0.6*%
%TF.CreationDate,2025-12-31T01:58:10-06:00*%
%TF.ProjectId,fudgeboard,66756467-6562-46f6-9172-642e6b696361,rev?*%
%TF.SameCoordinates,Original*%
%TF.FileFunction,Legend,Bot*%
%TF.FilePolarity,Positive*%
%FSLAX46Y46*%
G04 Gerber Fmt 4.6, Leading zero omitted, Abs format (unit mm)*
G04 Created by KiCad (PCBNEW 9.0.6) date 2025-12-31 01:58:10*
%MOMM*%
%LPD*%
G01*
G04 APERTURE LIST*
%ADD10C,0.150000*%
%ADD11C,0.120000*%
%ADD12C,0.000000*%
G04 APERTURE END LIST*
D10*
X146818990Y-75375595D02*
X146771371Y-75232738D01*
X146771371Y-75232738D02*
X146723752Y-75185119D01*
X146723752Y-75185119D02*
X146628514Y-75137500D01*
X146628514Y-75137500D02*
X146485657Y-75137500D01*
X146485657Y-75137500D02*
X146390419Y-75185119D01*
X146390419Y-75185119D02*
X146342800Y-75232738D01*
X146342800Y-75232738D02*
X146295180Y-75327976D01*
X146295180Y-75327976D02*
X146295180Y-75708928D01*
X146295180Y-75708928D02*
X147295180Y-75708928D01*
X147295180Y-75708928D02*
X147295180Y-75375595D01*
X147295180Y-75375595D02*
X147247561Y-75280357D01*
X147247561Y-75280357D02*
X147199942Y-75232738D01*
X147199942Y-75232738D02*
X147104704Y-75185119D01*
X147104704Y-75185119D02*
X147009466Y-75185119D01*
X147009466Y-75185119D02*
X146914228Y-75232738D01*
X146914228Y-75232738D02*
X146866609Y-75280357D01*
X146866609Y-75280357D02*
X146818990Y-75375595D01*
X146818990Y-75375595D02*
X146818990Y-75708928D01*
X146580895Y-74756547D02*
X146580895Y-74280357D01*
X146295180Y-74851785D02*
X147295180Y-74518452D01*
X147295180Y-74518452D02*
X146295180Y-74185119D01*
X147295180Y-73994642D02*
X147295180Y-73423214D01*
X146295180Y-73708928D02*
X147295180Y-73708928D01*
X147247561Y-71499404D02*
X147295180Y-71594642D01*
X147295180Y-71594642D02*
X147295180Y-71737499D01*
X147295180Y-71737499D02*
X147247561Y-71880356D01*
X147247561Y-71880356D02*
X147152323Y-71975594D01*
X147152323Y-71975594D02*
X147057085Y-72023213D01*
X147057085Y-72023213D02*
X146866609Y-72070832D01*
X146866609Y-72070832D02*
X146723752Y-72070832D01*
X146723752Y-72070832D02*
X146533276Y-72023213D01*
X146533276Y-72023213D02*
X146438038Y-71975594D01*
X146438038Y-71975594D02*
X146342800Y-71880356D01*
X146342800Y-71880356D02*
X146295180Y-71737499D01*
X146295180Y-71737499D02*
X146295180Y-71642261D01*
X146295180Y-71642261D02*
X146342800Y-71499404D01*
X146342800Y-71499404D02*
X146390419Y-71451785D01*
X146390419Y-71451785D02*
X146723752Y-71451785D01*
X146723752Y-71451785D02*
X146723752Y-71642261D01*
X146295180Y-71023213D02*
X147295180Y-71023213D01*
X147295180Y-71023213D02*
X146295180Y-70451785D01*
X146295180Y-70451785D02*
X147295180Y-70451785D01*
X146295180Y-69975594D02*
X147295180Y-69975594D01*
X147295180Y-69975594D02*
X147295180Y-69737499D01*
X147295180Y-69737499D02*
X147247561Y-69594642D01*
X147247561Y-69594642D02*
X147152323Y-69499404D01*
X147152323Y-69499404D02*
X147057085Y-69451785D01*
X147057085Y-69451785D02*
X146866609Y-69404166D01*
X146866609Y-69404166D02*
X146723752Y-69404166D01*
X146723752Y-69404166D02*
X146533276Y-69451785D01*
X146533276Y-69451785D02*
X146438038Y-69499404D01*
X146438038Y-69499404D02*
X146342800Y-69594642D01*
X146342800Y-69594642D02*
X146295180Y-69737499D01*
X146295180Y-69737499D02*
X146295180Y-69975594D01*
D11*
%TO.C,TP2*%
X147700000Y-69287500D02*
X147700000Y-72187500D01*
X147700000Y-72187500D02*
X150600000Y-72187500D01*
X150600000Y-69287500D02*
X147700000Y-69287500D01*
X150600000Y-72187500D02*
X150600000Y-69287500D01*
%TO.C,TP1*%
X147700000Y-73187500D02*
X147700000Y-76087500D01*
X147700000Y-76087500D02*
X150600000Y-76087500D01*
X150600000Y-73187500D02*
X147700000Y-73187500D01*
X150600000Y-76087500D02*
X150600000Y-73187500D01*
D12*
%TO.C,G\u002A\u002A\u002A*%
G36*
X143218497Y-73157070D02*
G01*
X143236661Y-73158831D01*
X143253656Y-73163927D01*
X143270230Y-73172950D01*
X143287131Y-73186491D01*
X143305106Y-73205142D01*
X143324903Y-73229495D01*
X143347272Y-73260141D01*
X143357100Y-73273928D01*
X143371834Y-73294193D01*
X143387486Y-73315379D01*
X143401978Y-73334655D01*
X143416221Y-73353874D01*
X143430127Y-73374360D01*
X143439509Y-73390882D01*
X143444833Y-73404278D01*
X143446561Y-73415391D01*
X143446597Y-73416449D01*
X143448500Y-73427298D01*
X143452377Y-73439151D01*
X143457598Y-73457617D01*
X143457301Y-73478388D01*
X143450434Y-73496894D01*
X143437571Y-73512214D01*
X143419283Y-73523426D01*
X143396143Y-73529611D01*
X143390248Y-73530463D01*
X143373250Y-73533316D01*
X143353414Y-73537026D01*
X143333918Y-73541011D01*
X143294761Y-73548717D01*
X143242951Y-73556261D01*
X143197341Y-73559434D01*
X143157892Y-73558239D01*
X143124563Y-73552677D01*
X143105292Y-73547226D01*
X143073922Y-73535211D01*
X143049303Y-73520784D01*
X143030999Y-73503586D01*
X143018576Y-73483258D01*
X143011602Y-73459444D01*
X143009639Y-73431830D01*
X143012582Y-73398488D01*
X143020429Y-73362097D01*
X143032918Y-73323859D01*
X143049784Y-73284979D01*
X143069704Y-73250251D01*
X143094132Y-73220035D01*
X143123272Y-73194946D01*
X143158119Y-73173962D01*
X143168281Y-73168899D01*
X143182198Y-73162624D01*
X143193316Y-73159027D01*
X143204081Y-73157405D01*
X143216935Y-73157055D01*
X143218497Y-73157070D01*
G37*
G36*
X143444497Y-72329698D02*
G01*
X143468463Y-72338635D01*
X143491695Y-72353229D01*
X143515809Y-72374396D01*
X143540186Y-72401992D01*
X143565048Y-72436297D01*
X143590619Y-72477595D01*
X143617121Y-72526165D01*
X143646308Y-72582615D01*
X143643877Y-72609944D01*
X143642095Y-72628846D01*
X143638945Y-72655424D01*
X143635223Y-72676035D01*
X143630454Y-72691731D01*
X143624164Y-72703567D01*
X143615880Y-72712594D01*
X143605128Y-72719866D01*
X143591434Y-72726434D01*
X143584141Y-72730115D01*
X143574633Y-72736765D01*
X143564126Y-72746391D01*
X143551803Y-72759835D01*
X143536846Y-72777936D01*
X143518438Y-72801537D01*
X143499861Y-72822802D01*
X143481791Y-72836979D01*
X143463752Y-72844114D01*
X143445114Y-72844456D01*
X143425250Y-72838251D01*
X143415497Y-72832680D01*
X143400558Y-72818089D01*
X143391332Y-72799677D01*
X143388798Y-72792680D01*
X143383746Y-72780657D01*
X143377594Y-72767196D01*
X143372593Y-72755946D01*
X143366166Y-72738485D01*
X143360417Y-72718539D01*
X143355121Y-72695080D01*
X143350055Y-72667077D01*
X143344993Y-72633503D01*
X143339713Y-72593328D01*
X143337831Y-72578244D01*
X143334703Y-72553210D01*
X143331903Y-72530847D01*
X143329585Y-72512383D01*
X143327903Y-72499046D01*
X143327012Y-72492065D01*
X143326634Y-72489066D01*
X143324561Y-72453047D01*
X143327195Y-72420051D01*
X143334283Y-72390838D01*
X143345571Y-72366168D01*
X143360808Y-72346801D01*
X143379740Y-72333498D01*
X143396043Y-72328044D01*
X143419643Y-72326127D01*
X143444497Y-72329698D01*
G37*
G36*
X143862205Y-72044475D02*
G01*
X143878449Y-72051411D01*
X143884670Y-72056194D01*
X143893310Y-72066295D01*
X143899168Y-72079437D01*
X143902522Y-72096724D01*
X143903651Y-72119260D01*
X143902833Y-72148150D01*
X143902436Y-72157031D01*
X143901784Y-72177016D01*
X143901155Y-72202489D01*
X143900574Y-72232106D01*
X143900067Y-72264527D01*
X143899659Y-72298408D01*
X143899375Y-72332408D01*
X143898519Y-72466989D01*
X143918293Y-72489080D01*
X143918909Y-72489769D01*
X143929798Y-72502319D01*
X143939628Y-72514240D01*
X143946337Y-72523037D01*
X143951259Y-72531313D01*
X143957044Y-72550082D01*
X143956545Y-72568699D01*
X143950610Y-72586115D01*
X143940089Y-72601281D01*
X143925831Y-72613147D01*
X143908685Y-72620665D01*
X143889499Y-72622784D01*
X143869124Y-72618457D01*
X143866466Y-72617349D01*
X143857052Y-72611923D01*
X143846575Y-72603426D01*
X143834410Y-72591195D01*
X143819931Y-72574565D01*
X143802512Y-72552871D01*
X143781529Y-72525451D01*
X143771621Y-72512423D01*
X143761969Y-72500109D01*
X143752147Y-72488099D01*
X143741306Y-72475418D01*
X143728595Y-72461094D01*
X143713165Y-72444153D01*
X143694167Y-72423621D01*
X143670750Y-72398526D01*
X143667252Y-72394773D01*
X143647064Y-72372364D01*
X143631807Y-72353774D01*
X143620747Y-72337967D01*
X143613150Y-72323911D01*
X143608282Y-72310572D01*
X143606025Y-72299438D01*
X143605301Y-72275483D01*
X143608984Y-72250704D01*
X143616736Y-72228397D01*
X143622509Y-72218610D01*
X143632449Y-72206153D01*
X143646861Y-72191275D01*
X143666636Y-72172988D01*
X143684584Y-72156939D01*
X143704748Y-72138875D01*
X143724152Y-72121460D01*
X143740324Y-72106914D01*
X143769837Y-72082037D01*
X143797399Y-72062706D01*
X143821860Y-72050050D01*
X143843402Y-72043998D01*
X143862205Y-72044475D01*
G37*
G36*
X143196210Y-71887221D02*
G01*
X143212536Y-71893233D01*
X143223335Y-71899881D01*
X143233495Y-71909539D01*
X143240621Y-71921946D01*
X143245169Y-71938303D01*
X143247592Y-71959806D01*
X143248346Y-71987657D01*
X143248218Y-71999886D01*
X143247541Y-72014496D01*
X143246123Y-72029990D01*
X143243786Y-72047684D01*
X143240352Y-72068895D01*
X143235644Y-72094939D01*
X143229482Y-72127133D01*
X143225032Y-72150043D01*
X143220144Y-72175298D01*
X143215847Y-72197598D01*
X143212359Y-72215806D01*
X143209899Y-72228786D01*
X143208684Y-72235401D01*
X143208387Y-72238862D01*
X143209290Y-72250802D01*
X143212143Y-72263834D01*
X143215441Y-72283205D01*
X143212828Y-72304491D01*
X143203739Y-72323304D01*
X143188773Y-72338834D01*
X143168527Y-72350270D01*
X143143600Y-72356800D01*
X143119065Y-72359974D01*
X143090121Y-72362565D01*
X143066543Y-72362833D01*
X143047166Y-72360619D01*
X143030824Y-72355763D01*
X143016351Y-72348105D01*
X143002581Y-72337485D01*
X142995732Y-72330975D01*
X142989111Y-72323251D01*
X142982865Y-72313934D01*
X142976636Y-72302206D01*
X142970065Y-72287243D01*
X142962794Y-72268226D01*
X142954462Y-72244334D01*
X142944714Y-72214745D01*
X142933188Y-72178639D01*
X142923593Y-72148017D01*
X142915075Y-72119820D01*
X142908667Y-72096798D01*
X142904186Y-72077865D01*
X142901451Y-72061934D01*
X142900279Y-72047920D01*
X142900488Y-72034735D01*
X142901895Y-72021294D01*
X142904319Y-72006510D01*
X142905524Y-72000363D01*
X142910275Y-71983044D01*
X142917062Y-71968194D01*
X142926580Y-71955382D01*
X142939519Y-71944177D01*
X142956575Y-71934146D01*
X142978438Y-71924857D01*
X143005802Y-71915880D01*
X143039359Y-71906782D01*
X143079803Y-71897131D01*
X143083172Y-71896368D01*
X143119941Y-71889063D01*
X143150587Y-71885116D01*
X143175785Y-71884509D01*
X143196210Y-71887221D01*
G37*
G36*
X143559006Y-73180108D02*
G01*
X143571293Y-73183637D01*
X143575411Y-73184939D01*
X143581802Y-73187462D01*
X143588513Y-73191015D01*
X143596301Y-73196192D01*
X143605922Y-73203585D01*
X143618133Y-73213789D01*
X143633691Y-73227396D01*
X143653352Y-73244999D01*
X143677873Y-73267191D01*
X143680248Y-73269337D01*
X143700034Y-73286715D01*
X143722918Y-73306140D01*
X143746252Y-73325393D01*
X143767385Y-73342250D01*
X143789099Y-73359557D01*
X143806063Y-73374324D01*
X143818112Y-73386932D01*
X143825973Y-73398451D01*
X143830371Y-73409953D01*
X143832031Y-73422511D01*
X143831681Y-73437195D01*
X143831290Y-73444770D01*
X143831996Y-73461855D01*
X143835499Y-73473802D01*
X143839023Y-73485810D01*
X143839394Y-73504372D01*
X143839300Y-73505396D01*
X143837827Y-73514461D01*
X143834769Y-73523730D01*
X143829404Y-73534703D01*
X143821011Y-73548878D01*
X143808869Y-73567753D01*
X143796030Y-73588072D01*
X143781160Y-73612898D01*
X143766557Y-73638385D01*
X143754073Y-73661374D01*
X143753504Y-73662464D01*
X143734327Y-73698212D01*
X143717641Y-73727293D01*
X143703154Y-73750141D01*
X143690571Y-73767191D01*
X143679597Y-73778877D01*
X143669938Y-73785633D01*
X143664560Y-73788003D01*
X143643954Y-73792370D01*
X143623780Y-73789172D01*
X143604240Y-73778471D01*
X143585534Y-73760326D01*
X143582925Y-73757150D01*
X143570554Y-73740312D01*
X143560329Y-73722558D01*
X143551741Y-73702545D01*
X143544282Y-73678930D01*
X143537444Y-73650369D01*
X143530717Y-73615519D01*
X143529230Y-73607189D01*
X143517440Y-73543221D01*
X143506015Y-73485141D01*
X143494644Y-73431415D01*
X143483016Y-73380511D01*
X143482987Y-73380387D01*
X143477621Y-73357744D01*
X143472784Y-73337290D01*
X143468783Y-73320336D01*
X143465930Y-73308193D01*
X143464533Y-73302175D01*
X143463090Y-73291347D01*
X143462457Y-73276464D01*
X143462674Y-73260711D01*
X143463699Y-73246914D01*
X143465491Y-73237899D01*
X143465650Y-73237492D01*
X143473395Y-73225237D01*
X143486437Y-73211997D01*
X143502962Y-73199365D01*
X143521160Y-73188935D01*
X143533536Y-73183108D01*
X143542847Y-73179556D01*
X143550430Y-73178652D01*
X143559006Y-73180108D01*
G37*
G36*
X143942563Y-72786517D02*
G01*
X143956846Y-72789408D01*
X143970231Y-72794136D01*
X143984210Y-72800951D01*
X144000277Y-72810104D01*
X144012773Y-72817797D01*
X144037592Y-72835855D01*
X144056268Y-72854443D01*
X144069805Y-72874676D01*
X144079207Y-72897668D01*
X144081657Y-72906252D01*
X144087139Y-72931374D01*
X144091408Y-72959660D01*
X144094356Y-72989345D01*
X144095877Y-73018668D01*
X144095861Y-73045866D01*
X144094201Y-73069176D01*
X144090789Y-73086836D01*
X144084439Y-73105428D01*
X144074237Y-73126703D01*
X144061307Y-73143816D01*
X144044428Y-73157970D01*
X144022378Y-73170369D01*
X143993935Y-73182217D01*
X143971361Y-73189643D01*
X143954075Y-73192688D01*
X143952236Y-73193012D01*
X143935422Y-73191725D01*
X143919234Y-73185388D01*
X143901990Y-73173606D01*
X143882007Y-73155986D01*
X143861542Y-73136937D01*
X143841659Y-73119273D01*
X143823839Y-73104688D01*
X143806378Y-73091867D01*
X143787573Y-73079496D01*
X143765721Y-73066261D01*
X143762439Y-73064321D01*
X143744474Y-73053484D01*
X143728026Y-73043228D01*
X143714798Y-73034630D01*
X143706492Y-73028768D01*
X143705143Y-73027654D01*
X143695063Y-73016837D01*
X143683703Y-73001364D01*
X143672406Y-72983352D01*
X143662517Y-72964920D01*
X143655377Y-72948186D01*
X143651729Y-72935911D01*
X143650388Y-72923848D01*
X143779791Y-72923848D01*
X143782255Y-72927192D01*
X143789911Y-72933968D01*
X143801721Y-72943374D01*
X143816647Y-72954608D01*
X143833653Y-72966865D01*
X143851700Y-72979344D01*
X143858151Y-72983819D01*
X143877379Y-72998057D01*
X143897385Y-73013896D01*
X143914751Y-73028662D01*
X143925356Y-73038121D01*
X143938982Y-73049971D01*
X143948280Y-73057257D01*
X143954075Y-73060342D01*
X143957192Y-73059590D01*
X143958457Y-73055366D01*
X143958696Y-73048033D01*
X143957756Y-73034204D01*
X143954735Y-73014215D01*
X143950251Y-72992704D01*
X143944941Y-72972686D01*
X143939446Y-72957176D01*
X143939405Y-72957083D01*
X143933906Y-72946989D01*
X143926820Y-72939643D01*
X143916943Y-72934634D01*
X143903068Y-72931550D01*
X143883992Y-72929979D01*
X143858510Y-72929509D01*
X143840216Y-72929229D01*
X143821569Y-72928449D01*
X143806243Y-72927298D01*
X143796399Y-72925899D01*
X143792929Y-72925139D01*
X143784065Y-72923671D01*
X143779852Y-72923749D01*
X143779791Y-72923848D01*
X143650388Y-72923848D01*
X143649608Y-72916833D01*
X143653094Y-72898996D01*
X143662599Y-72880850D01*
X143678533Y-72860845D01*
X143689168Y-72849728D01*
X143714577Y-72827834D01*
X143741112Y-72810672D01*
X143766973Y-72799491D01*
X143773325Y-72797688D01*
X143788672Y-72794462D01*
X143808122Y-72791745D01*
X143832855Y-72789390D01*
X143864050Y-72787245D01*
X143879405Y-72786363D01*
X143905335Y-72785245D01*
X143925890Y-72785213D01*
X143942563Y-72786517D01*
G37*
G36*
X143538009Y-71705622D02*
G01*
X143567183Y-71709634D01*
X143601332Y-71717179D01*
X143641393Y-71728188D01*
X143660017Y-71733763D01*
X143683864Y-71741528D01*
X143702788Y-71748887D01*
X143718321Y-71756642D01*
X143732000Y-71765600D01*
X143745358Y-71776565D01*
X143759931Y-71790342D01*
X143771488Y-71802045D01*
X143785561Y-71818251D01*
X143794924Y-71833033D01*
X143800441Y-71848338D01*
X143802976Y-71866112D01*
X143803392Y-71888304D01*
X143802812Y-71903457D01*
X143798385Y-71935953D01*
X143789590Y-71962635D01*
X143776313Y-71983904D01*
X143774186Y-71986510D01*
X143764587Y-71999041D01*
X143755639Y-72011660D01*
X143743947Y-72024516D01*
X143727334Y-72035507D01*
X143719754Y-72039037D01*
X143710529Y-72042034D01*
X143701779Y-72041968D01*
X143689651Y-72039218D01*
X143684610Y-72038124D01*
X143669462Y-72036052D01*
X143650944Y-72034604D01*
X143631977Y-72034042D01*
X143616673Y-72034186D01*
X143603681Y-72034941D01*
X143591478Y-72036694D01*
X143578064Y-72039828D01*
X143561440Y-72044728D01*
X143539605Y-72051776D01*
X143511282Y-72060723D01*
X143481561Y-72068896D01*
X143456778Y-72073930D01*
X143453818Y-72074210D01*
X143435849Y-72075911D01*
X143417693Y-72074930D01*
X143401227Y-72071075D01*
X143385369Y-72064434D01*
X143379501Y-72061023D01*
X143363658Y-72046579D01*
X143351286Y-72027178D01*
X143343683Y-72004681D01*
X143342747Y-71999506D01*
X143341612Y-71986963D01*
X143342161Y-71972941D01*
X143344571Y-71955997D01*
X143345085Y-71953536D01*
X143450759Y-71953536D01*
X143453818Y-71955176D01*
X143456517Y-71954651D01*
X143465433Y-71952281D01*
X143478750Y-71948438D01*
X143494764Y-71943604D01*
X143498258Y-71942530D01*
X143524493Y-71934657D01*
X143545735Y-71928794D01*
X143563983Y-71924518D01*
X143581237Y-71921406D01*
X143599499Y-71919036D01*
X143620767Y-71916985D01*
X143637743Y-71915356D01*
X143654481Y-71912988D01*
X143665545Y-71909912D01*
X143672058Y-71905603D01*
X143675143Y-71899535D01*
X143675921Y-71891183D01*
X143675903Y-71890380D01*
X143673981Y-71884464D01*
X143667812Y-71879131D01*
X143655860Y-71872987D01*
X143643733Y-71867846D01*
X143603146Y-71856006D01*
X143560981Y-71851615D01*
X143545018Y-71851833D01*
X143528965Y-71854134D01*
X143516868Y-71859678D01*
X143506702Y-71869504D01*
X143496441Y-71884646D01*
X143489118Y-71896175D01*
X143477447Y-71913208D01*
X143466466Y-71927978D01*
X143458458Y-71938482D01*
X143452206Y-71948186D01*
X143450759Y-71953536D01*
X143345085Y-71953536D01*
X143349022Y-71934685D01*
X143355692Y-71907560D01*
X143366726Y-71868427D01*
X143381191Y-71826900D01*
X143396711Y-71792200D01*
X143413165Y-71764590D01*
X143430436Y-71744329D01*
X143433958Y-71741093D01*
X143452316Y-71726356D01*
X143470963Y-71715513D01*
X143490836Y-71708490D01*
X143512873Y-71705217D01*
X143538009Y-71705622D01*
G37*
G36*
X142783735Y-72398037D02*
G01*
X142812772Y-72403293D01*
X142846996Y-72412461D01*
X142887135Y-72425470D01*
X142922616Y-72438133D01*
X142965644Y-72454589D01*
X143008669Y-72472131D01*
X143050473Y-72490215D01*
X143089834Y-72508293D01*
X143125534Y-72525819D01*
X143156351Y-72542248D01*
X143181067Y-72557034D01*
X143192059Y-72564718D01*
X143219539Y-72589709D01*
X143241920Y-72619115D01*
X143258365Y-72651693D01*
X143268036Y-72686198D01*
X143269818Y-72701249D01*
X143269789Y-72726813D01*
X143266329Y-72756300D01*
X143259315Y-72790614D01*
X143248627Y-72830658D01*
X143243810Y-72847124D01*
X143238181Y-72865662D01*
X143233642Y-72879056D01*
X143229614Y-72888616D01*
X143225521Y-72895650D01*
X143220786Y-72901470D01*
X143214832Y-72907385D01*
X143213213Y-72908868D01*
X143194923Y-72920344D01*
X143174254Y-72925522D01*
X143152892Y-72924460D01*
X143132522Y-72917218D01*
X143123062Y-72910074D01*
X143114829Y-72903856D01*
X143113010Y-72902019D01*
X143102286Y-72892241D01*
X143090871Y-72883010D01*
X143087884Y-72880621D01*
X143078511Y-72871116D01*
X143072461Y-72862006D01*
X143068580Y-72856460D01*
X143059601Y-72847016D01*
X143047172Y-72835622D01*
X143032733Y-72823670D01*
X143025239Y-72817645D01*
X143007878Y-72803097D01*
X142987936Y-72785810D01*
X142967328Y-72767457D01*
X142947969Y-72749707D01*
X142935018Y-72737702D01*
X142911944Y-72716907D01*
X142890424Y-72698523D01*
X142868836Y-72681280D01*
X142845562Y-72663906D01*
X142818981Y-72645128D01*
X142787476Y-72623676D01*
X142770080Y-72611685D01*
X142736555Y-72586384D01*
X142715609Y-72567788D01*
X142917135Y-72567788D01*
X142920522Y-72571506D01*
X142928411Y-72578209D01*
X142939429Y-72586712D01*
X142949300Y-72594583D01*
X142963715Y-72606885D01*
X142980951Y-72622145D01*
X142999644Y-72639153D01*
X143018429Y-72656701D01*
X143039515Y-72676553D01*
X143065472Y-72700492D01*
X143086564Y-72719238D01*
X143103032Y-72732989D01*
X143115118Y-72741944D01*
X143123062Y-72746301D01*
X143127106Y-72746260D01*
X143127205Y-72746151D01*
X143128979Y-72740367D01*
X143130112Y-72729349D01*
X143130362Y-72715385D01*
X143130351Y-72714850D01*
X143128594Y-72694384D01*
X143123611Y-72677765D01*
X143114398Y-72663419D01*
X143099953Y-72649773D01*
X143079270Y-72635253D01*
X143055656Y-72621008D01*
X143004487Y-72595501D01*
X142952058Y-72576106D01*
X142944397Y-72573823D01*
X142930883Y-72570091D01*
X142921229Y-72567832D01*
X142917146Y-72567470D01*
X142917135Y-72567788D01*
X142715609Y-72567788D01*
X142710040Y-72562844D01*
X142690298Y-72540843D01*
X142677092Y-72520158D01*
X142669162Y-72500182D01*
X142667230Y-72482470D01*
X142671455Y-72464924D01*
X142681978Y-72445400D01*
X142690749Y-72432935D01*
X142704822Y-72417562D01*
X142720427Y-72406457D01*
X142738293Y-72399548D01*
X142759152Y-72396765D01*
X142783735Y-72398037D01*
G37*
G36*
X143618937Y-73887548D02*
G01*
X143645351Y-73887870D01*
X143672919Y-73888320D01*
X143708169Y-73889262D01*
X143737282Y-73890616D01*
X143761158Y-73892479D01*
X143780695Y-73894947D01*
X143796792Y-73898119D01*
X143810347Y-73902090D01*
X143822260Y-73906958D01*
X143834562Y-73913143D01*
X143857123Y-73927742D01*
X143872250Y-73943198D01*
X143880066Y-73959662D01*
X143880698Y-73977285D01*
X143880507Y-73978249D01*
X143877621Y-73987279D01*
X143872028Y-74001638D01*
X143864276Y-74020021D01*
X143854912Y-74041123D01*
X143844482Y-74063643D01*
X143834056Y-74086299D01*
X143820212Y-74117749D01*
X143805990Y-74151296D01*
X143792565Y-74184157D01*
X143781114Y-74213548D01*
X143780062Y-74216338D01*
X143770035Y-74242678D01*
X143759735Y-74269351D01*
X143749895Y-74294482D01*
X143741250Y-74316198D01*
X143734531Y-74332623D01*
X143728412Y-74347742D01*
X143722984Y-74362301D01*
X143719483Y-74373084D01*
X143718475Y-74378478D01*
X143718709Y-74379838D01*
X143717545Y-74395115D01*
X143710584Y-74411032D01*
X143698837Y-74425185D01*
X143694217Y-74429194D01*
X143680107Y-74438504D01*
X143665538Y-74442399D01*
X143657860Y-74442185D01*
X143647384Y-74441894D01*
X143637986Y-74440254D01*
X143625546Y-74435306D01*
X143614256Y-74426437D01*
X143602855Y-74412564D01*
X143590082Y-74392602D01*
X143587427Y-74388245D01*
X143575184Y-74369968D01*
X143561523Y-74351696D01*
X143548935Y-74336806D01*
X143538485Y-74325042D01*
X143517784Y-74298244D01*
X143500904Y-74271391D01*
X143489188Y-74246512D01*
X143488511Y-74244632D01*
X143483737Y-74227817D01*
X143478647Y-74204159D01*
X143473376Y-74174337D01*
X143468056Y-74139033D01*
X143467641Y-74133145D01*
X143467281Y-74120362D01*
X143467079Y-74102679D01*
X143467050Y-74081581D01*
X143467209Y-74058553D01*
X143467254Y-74054581D01*
X143467496Y-74036654D01*
X143576817Y-74036654D01*
X143577609Y-74051532D01*
X143580338Y-74065290D01*
X143581906Y-74072104D01*
X143584309Y-74085101D01*
X143587090Y-74101950D01*
X143589912Y-74120698D01*
X143594232Y-74146939D01*
X143601087Y-74177676D01*
X143608938Y-74202534D01*
X143617545Y-74220640D01*
X143619967Y-74224244D01*
X143627422Y-74233728D01*
X143636553Y-74244074D01*
X143645747Y-74253576D01*
X143653387Y-74260528D01*
X143657860Y-74263225D01*
X143658408Y-74262972D01*
X143662168Y-74257775D01*
X143668383Y-74246401D01*
X143676717Y-74229565D01*
X143686833Y-74207978D01*
X143698395Y-74182352D01*
X143711069Y-74153402D01*
X143724517Y-74121838D01*
X143726893Y-74116202D01*
X143744394Y-74075704D01*
X143759676Y-74042253D01*
X143772703Y-74015927D01*
X143783439Y-73996802D01*
X143788021Y-73988742D01*
X143788490Y-73985101D01*
X143784987Y-73984272D01*
X143782490Y-73984640D01*
X143773599Y-73987670D01*
X143762703Y-73992762D01*
X143762490Y-73992874D01*
X143756421Y-73995751D01*
X143749836Y-73997953D01*
X143741547Y-73999612D01*
X143730369Y-74000865D01*
X143715111Y-74001844D01*
X143694588Y-74002684D01*
X143667610Y-74003520D01*
X143666000Y-74003566D01*
X143636449Y-74004598D01*
X143613921Y-74005785D01*
X143597828Y-74007178D01*
X143587580Y-74008827D01*
X143582587Y-74010783D01*
X143580637Y-74013399D01*
X143577860Y-74023121D01*
X143576817Y-74036654D01*
X143467496Y-74036654D01*
X143467574Y-74030896D01*
X143468044Y-74013267D01*
X143468838Y-74000307D01*
X143470134Y-73990630D01*
X143472107Y-73982848D01*
X143474933Y-73975574D01*
X143478790Y-73967420D01*
X143489760Y-73949380D01*
X143507294Y-73928408D01*
X143527611Y-73909925D01*
X143548320Y-73896376D01*
X143552938Y-73894063D01*
X143558997Y-73891440D01*
X143565414Y-73889573D01*
X143573402Y-73888357D01*
X143584176Y-73887685D01*
X143598949Y-73887451D01*
X143618937Y-73887548D01*
G37*
G36*
X143576743Y-69295754D02*
G01*
X143597476Y-69303726D01*
X143615260Y-69316660D01*
X143628102Y-69333679D01*
X143630250Y-69338788D01*
X143634401Y-69353453D01*
X143638421Y-69373235D01*
X143642034Y-69396487D01*
X143644965Y-69421558D01*
X143646940Y-69446798D01*
X143647327Y-69452107D01*
X143649244Y-69469858D01*
X143652318Y-69492710D01*
X143656296Y-69518956D01*
X143660925Y-69546892D01*
X143665951Y-69574811D01*
X143668262Y-69587267D01*
X143673115Y-69614482D01*
X143677489Y-69640403D01*
X143681136Y-69663479D01*
X143683805Y-69682160D01*
X143685248Y-69694893D01*
X143685881Y-69702166D01*
X143687894Y-69722190D01*
X143690412Y-69744537D01*
X143693036Y-69765587D01*
X143694151Y-69774288D01*
X143696783Y-69796840D01*
X143699122Y-69819404D01*
X143700766Y-69838191D01*
X143702291Y-69856079D01*
X143707999Y-69903092D01*
X143715870Y-69949187D01*
X143725369Y-69991042D01*
X143727316Y-69998447D01*
X143742042Y-70053465D01*
X143756196Y-70104610D01*
X143769599Y-70151282D01*
X143782073Y-70192883D01*
X143793439Y-70228816D01*
X143803517Y-70258482D01*
X143812130Y-70281283D01*
X143820837Y-70302692D01*
X143836118Y-70340717D01*
X143848780Y-70373056D01*
X143859111Y-70400590D01*
X143867398Y-70424200D01*
X143873931Y-70444766D01*
X143878997Y-70463171D01*
X143882883Y-70480295D01*
X143885878Y-70497018D01*
X143888271Y-70514223D01*
X143890664Y-70532523D01*
X143893751Y-70553848D01*
X143896797Y-70572861D01*
X143899397Y-70586921D01*
X143901779Y-70598991D01*
X143905179Y-70617487D01*
X143908879Y-70638615D01*
X143912414Y-70659764D01*
X143915036Y-70675269D01*
X143921270Y-70707499D01*
X143928648Y-70739320D01*
X143937657Y-70772581D01*
X143948780Y-70809134D01*
X143962503Y-70850828D01*
X143966844Y-70863857D01*
X143976026Y-70892467D01*
X143985264Y-70922432D01*
X143993685Y-70950901D01*
X144000419Y-70975019D01*
X144008264Y-71003930D01*
X144017043Y-71034565D01*
X144025485Y-71061626D01*
X144034302Y-71087262D01*
X144044205Y-71113626D01*
X144055904Y-71142868D01*
X144064330Y-71164248D01*
X144074087Y-71190478D01*
X144083228Y-71216410D01*
X144090539Y-71238687D01*
X144100521Y-71270614D01*
X144109677Y-71299130D01*
X144118439Y-71325441D01*
X144127683Y-71352169D01*
X144138283Y-71381934D01*
X144139910Y-71386519D01*
X144147232Y-71408197D01*
X144155415Y-71433729D01*
X144163571Y-71460303D01*
X144170814Y-71485109D01*
X144174965Y-71499564D01*
X144186577Y-71537380D01*
X144199335Y-71574954D01*
X144214053Y-71614616D01*
X144231546Y-71658695D01*
X144232039Y-71659920D01*
X144237653Y-71674987D01*
X144244708Y-71695439D01*
X144252618Y-71719501D01*
X144260799Y-71745397D01*
X144268665Y-71771351D01*
X144278533Y-71804077D01*
X144309199Y-71898247D01*
X144342146Y-71988432D01*
X144343248Y-71991348D01*
X144349529Y-72009640D01*
X144356550Y-72032268D01*
X144363529Y-72056636D01*
X144369685Y-72080143D01*
X144372553Y-72091236D01*
X144379338Y-72115521D01*
X144388095Y-72145188D01*
X144398448Y-72179087D01*
X144410020Y-72216065D01*
X144422437Y-72254969D01*
X144435323Y-72294647D01*
X144448302Y-72333946D01*
X144460998Y-72371714D01*
X144473036Y-72406798D01*
X144484041Y-72438045D01*
X144493636Y-72464304D01*
X144501447Y-72484422D01*
X144502805Y-72487768D01*
X144511982Y-72511021D01*
X144521183Y-72535289D01*
X144529407Y-72557887D01*
X144535652Y-72576133D01*
X144536087Y-72577453D01*
X144541980Y-72593541D01*
X144550440Y-72614505D01*
X144560708Y-72638567D01*
X144572027Y-72663946D01*
X144583638Y-72688860D01*
X144584731Y-72691149D01*
X144599090Y-72721630D01*
X144610471Y-72746823D01*
X144619393Y-72768120D01*
X144626376Y-72786915D01*
X144631941Y-72804602D01*
X144636608Y-72822573D01*
X144640897Y-72842222D01*
X144643489Y-72855734D01*
X144646519Y-72876754D01*
X144647608Y-72896311D01*
X144646634Y-72916136D01*
X144643474Y-72937964D01*
X144638004Y-72963528D01*
X144630102Y-72994562D01*
X144627355Y-73004972D01*
X144619582Y-73035286D01*
X144611347Y-73068409D01*
X144603476Y-73100992D01*
X144596793Y-73129689D01*
X144592626Y-73147539D01*
X144586676Y-73171577D01*
X144580817Y-73193792D01*
X144575549Y-73212302D01*
X144571376Y-73225220D01*
X144567725Y-73235713D01*
X144561600Y-73254538D01*
X144555050Y-73275747D01*
X144548986Y-73296443D01*
X144544002Y-73313490D01*
X144536072Y-73339316D01*
X144526798Y-73368451D01*
X144516584Y-73399717D01*
X144505831Y-73431936D01*
X144494941Y-73463929D01*
X144484316Y-73494518D01*
X144474358Y-73522524D01*
X144465469Y-73546770D01*
X144458052Y-73566076D01*
X144452507Y-73579265D01*
X144442185Y-73602775D01*
X144431040Y-73631038D01*
X144420515Y-73661265D01*
X144410396Y-73694258D01*
X144400465Y-73730822D01*
X144390505Y-73771761D01*
X144380301Y-73817878D01*
X144369635Y-73869978D01*
X144358290Y-73928863D01*
X144358088Y-73929937D01*
X144353085Y-73955138D01*
X144346944Y-73984075D01*
X144339998Y-74015347D01*
X144332580Y-74047550D01*
X144325025Y-74079282D01*
X144317666Y-74109138D01*
X144310837Y-74135716D01*
X144304872Y-74157612D01*
X144300105Y-74173425D01*
X144299085Y-74176453D01*
X144294349Y-74189894D01*
X144287456Y-74208890D01*
X144278845Y-74232257D01*
X144268955Y-74258808D01*
X144258224Y-74287358D01*
X144247091Y-74316722D01*
X144245682Y-74320426D01*
X144233712Y-74352088D01*
X144221542Y-74384617D01*
X144209761Y-74416412D01*
X144198959Y-74445874D01*
X144189727Y-74471404D01*
X144182654Y-74491403D01*
X144179949Y-74499112D01*
X144170044Y-74526387D01*
X144159064Y-74555471D01*
X144148163Y-74583342D01*
X144138497Y-74606977D01*
X144138291Y-74607464D01*
X144128268Y-74632704D01*
X144117696Y-74661737D01*
X144107819Y-74691013D01*
X144099886Y-74716981D01*
X144099659Y-74717780D01*
X144091966Y-74743801D01*
X144082862Y-74772947D01*
X144073466Y-74801714D01*
X144064897Y-74826594D01*
X144060567Y-74838956D01*
X144051994Y-74864408D01*
X144042697Y-74892989D01*
X144033537Y-74922033D01*
X144025376Y-74948875D01*
X144021380Y-74962201D01*
X144012155Y-74992242D01*
X144002141Y-75024085D01*
X143992303Y-75054680D01*
X143983605Y-75080977D01*
X143980209Y-75091153D01*
X143971542Y-75117943D01*
X143962866Y-75145758D01*
X143955030Y-75171851D01*
X143948879Y-75193478D01*
X143947422Y-75198764D01*
X143943599Y-75211793D01*
X143939404Y-75224555D01*
X143934449Y-75237933D01*
X143928348Y-75252813D01*
X143920715Y-75270080D01*
X143911163Y-75290620D01*
X143899307Y-75315316D01*
X143884759Y-75345055D01*
X143867134Y-75380721D01*
X143851818Y-75411446D01*
X143827399Y-75459546D01*
X143805304Y-75501774D01*
X143785117Y-75538869D01*
X143766422Y-75571571D01*
X143748802Y-75600617D01*
X143731842Y-75626748D01*
X143715125Y-75650703D01*
X143708632Y-75660120D01*
X143695896Y-75680443D01*
X143683263Y-75702554D01*
X143672701Y-75723098D01*
X143672050Y-75724452D01*
X143661959Y-75743713D01*
X143648991Y-75766168D01*
X143634750Y-75789138D01*
X143620834Y-75809941D01*
X143620680Y-75810161D01*
X143605882Y-75831667D01*
X143589756Y-75855787D01*
X143574240Y-75879587D01*
X143561271Y-75900133D01*
X143554571Y-75911079D01*
X143545774Y-75925968D01*
X143540289Y-75936435D01*
X143537574Y-75943746D01*
X143537088Y-75949169D01*
X143538292Y-75953970D01*
X143540423Y-75960893D01*
X143541986Y-75981865D01*
X143537446Y-76003374D01*
X143527405Y-76023416D01*
X143512464Y-76039989D01*
X143503532Y-76046535D01*
X143492790Y-76052200D01*
X143479955Y-76056511D01*
X143465497Y-76059369D01*
X143463917Y-76059681D01*
X143443569Y-76061925D01*
X143417801Y-76063457D01*
X143385505Y-76064491D01*
X143379154Y-76064638D01*
X143361054Y-76065053D01*
X143345963Y-76065505D01*
X143332840Y-76066171D01*
X143320640Y-76067230D01*
X143308319Y-76068857D01*
X143294834Y-76071230D01*
X143279141Y-76074527D01*
X143260198Y-76078924D01*
X143236959Y-76084598D01*
X143208383Y-76091726D01*
X143173424Y-76100487D01*
X143152841Y-76105497D01*
X143106886Y-76115514D01*
X143061793Y-76123528D01*
X143015872Y-76129747D01*
X142967435Y-76134381D01*
X142914794Y-76137637D01*
X142856258Y-76139726D01*
X142832595Y-76140284D01*
X142793067Y-76141076D01*
X142750949Y-76141781D01*
X142708798Y-76142361D01*
X142669170Y-76142779D01*
X142634625Y-76142996D01*
X142600855Y-76143290D01*
X142563626Y-76144072D01*
X142530525Y-76145283D01*
X142502721Y-76146877D01*
X142481385Y-76148811D01*
X142478381Y-76149151D01*
X142459069Y-76150932D01*
X142433987Y-76152733D01*
X142403923Y-76154531D01*
X142369668Y-76156303D01*
X142332008Y-76158028D01*
X142291732Y-76159681D01*
X142249629Y-76161241D01*
X142206488Y-76162685D01*
X142163096Y-76163990D01*
X142120242Y-76165134D01*
X142078714Y-76166094D01*
X142039301Y-76166847D01*
X142002791Y-76167371D01*
X141969973Y-76167643D01*
X141941636Y-76167640D01*
X141918566Y-76167340D01*
X141901554Y-76166720D01*
X141891387Y-76165757D01*
X141889880Y-76165523D01*
X141879076Y-76164435D01*
X141862083Y-76163249D01*
X141840076Y-76162025D01*
X141814231Y-76160824D01*
X141785724Y-76159707D01*
X141755732Y-76158736D01*
X141749352Y-76158545D01*
X141719281Y-76157485D01*
X141690734Y-76156230D01*
X141664935Y-76154851D01*
X141643106Y-76153419D01*
X141626472Y-76152005D01*
X141616255Y-76150679D01*
X141606525Y-76149174D01*
X141584306Y-76147204D01*
X141558263Y-76146223D01*
X141530677Y-76146215D01*
X141503832Y-76147161D01*
X141480010Y-76149044D01*
X141461494Y-76151847D01*
X141449755Y-76154512D01*
X141430957Y-76159037D01*
X141409758Y-76164341D01*
X141388890Y-76169750D01*
X141375878Y-76173079D01*
X141358412Y-76176993D01*
X141341332Y-76179932D01*
X141322632Y-76182168D01*
X141300304Y-76183977D01*
X141272341Y-76185630D01*
X141251752Y-76186831D01*
X141229091Y-76188407D01*
X141209251Y-76190050D01*
X141193836Y-76191627D01*
X141184452Y-76193003D01*
X141175986Y-76194267D01*
X141160977Y-76195834D01*
X141141371Y-76197492D01*
X141118738Y-76199108D01*
X141094652Y-76200550D01*
X141075360Y-76201708D01*
X141048146Y-76203674D01*
X141021819Y-76205913D01*
X140998628Y-76208230D01*
X140980824Y-76210431D01*
X140960985Y-76212965D01*
X140912578Y-76216466D01*
X140890826Y-76216385D01*
X140865068Y-76216289D01*
X140819954Y-76212532D01*
X140778741Y-76205295D01*
X140742927Y-76194677D01*
X140742464Y-76194503D01*
X140720660Y-76187665D01*
X140693031Y-76180998D01*
X140661347Y-76174815D01*
X140627379Y-76169428D01*
X140592897Y-76165151D01*
X140559674Y-76162296D01*
X140544059Y-76161123D01*
X140502507Y-76156131D01*
X140466052Y-76148886D01*
X140461337Y-76147733D01*
X140444052Y-76143985D01*
X140426690Y-76141167D01*
X140407362Y-76139060D01*
X140384174Y-76137446D01*
X140355235Y-76136106D01*
X140348341Y-76135830D01*
X140324203Y-76134732D01*
X140306135Y-76133582D01*
X140292872Y-76132220D01*
X140283148Y-76130487D01*
X140275698Y-76128223D01*
X140269257Y-76125270D01*
X140252523Y-76114465D01*
X140235778Y-76097558D01*
X140225186Y-76078285D01*
X140221491Y-76057696D01*
X140221484Y-76057214D01*
X140218562Y-76045088D01*
X140210636Y-76028299D01*
X140198133Y-76007506D01*
X140181479Y-75983369D01*
X140161100Y-75956547D01*
X140137423Y-75927700D01*
X140115294Y-75900863D01*
X140091248Y-75868965D01*
X140071166Y-75838424D01*
X140053855Y-75807394D01*
X140038124Y-75774033D01*
X140033636Y-75764213D01*
X140024122Y-75745427D01*
X140014334Y-75728199D01*
X140005802Y-75715308D01*
X140001169Y-75708876D01*
X139991015Y-75693601D01*
X139979892Y-75675750D01*
X139969492Y-75657989D01*
X139962326Y-75645597D01*
X139949455Y-75624284D01*
X139935531Y-75602071D01*
X139922530Y-75582147D01*
X139913133Y-75567850D01*
X139901851Y-75549850D01*
X139890000Y-75529949D01*
X139877020Y-75507155D01*
X139862346Y-75480479D01*
X139845418Y-75448930D01*
X139825672Y-75411517D01*
X139814149Y-75389067D01*
X139799505Y-75358239D01*
X139787279Y-75328796D01*
X139776282Y-75297800D01*
X139765326Y-75262310D01*
X139760015Y-75245048D01*
X139752870Y-75223738D01*
X139745800Y-75204387D01*
X139739759Y-75189706D01*
X139736316Y-75181681D01*
X139729752Y-75165104D01*
X139721981Y-75144415D01*
X139713701Y-75121482D01*
X139705608Y-75098173D01*
X139700362Y-75082803D01*
X139692071Y-75058796D01*
X139684106Y-75036032D01*
X139677167Y-75016511D01*
X139671956Y-75002236D01*
X139670828Y-74999116D01*
X139665472Y-74982265D01*
X139659504Y-74960906D01*
X139653574Y-74937461D01*
X139648333Y-74914346D01*
X139634809Y-74860730D01*
X139616956Y-74809667D01*
X139616054Y-74807439D01*
X139606220Y-74782995D01*
X139598103Y-74762275D01*
X139591266Y-74743885D01*
X139585275Y-74726428D01*
X139579691Y-74708512D01*
X139574078Y-74688741D01*
X139568001Y-74665720D01*
X139561022Y-74638055D01*
X139552706Y-74604350D01*
X139552392Y-74603075D01*
X139544739Y-74572621D01*
X139536842Y-74542374D01*
X139529100Y-74513779D01*
X139521912Y-74488284D01*
X139515677Y-74467334D01*
X139510795Y-74452378D01*
X139504849Y-74434976D01*
X139496851Y-74410203D01*
X139488885Y-74384298D01*
X139482021Y-74360667D01*
X139481792Y-74359847D01*
X139474927Y-74336297D01*
X139466552Y-74309009D01*
X139457703Y-74281299D01*
X139449419Y-74256485D01*
X139443338Y-74237979D01*
X139435253Y-74211683D01*
X139426708Y-74182434D01*
X139418405Y-74152635D01*
X139411042Y-74124692D01*
X139410602Y-74122966D01*
X139403914Y-74097400D01*
X139397057Y-74072349D01*
X139390523Y-74049541D01*
X139384808Y-74030702D01*
X139380405Y-74017563D01*
X139377776Y-74010919D01*
X139370809Y-73994903D01*
X139361010Y-73973536D01*
X139348813Y-73947712D01*
X139334655Y-73918326D01*
X139318971Y-73886273D01*
X139302197Y-73852445D01*
X139284768Y-73817738D01*
X139267120Y-73783046D01*
X139249690Y-73749263D01*
X139248685Y-73747321D01*
X139236423Y-73722317D01*
X139223477Y-73693933D01*
X139211327Y-73665513D01*
X139201456Y-73640402D01*
X139189389Y-73608632D01*
X139174484Y-73571354D01*
X139158491Y-73533068D01*
X139141940Y-73494944D01*
X139125359Y-73458152D01*
X139109276Y-73423861D01*
X139094219Y-73393243D01*
X139080717Y-73367468D01*
X139069298Y-73347704D01*
X139062406Y-73335827D01*
X139052196Y-73316264D01*
X139041857Y-73294655D01*
X139032817Y-73273886D01*
X139025680Y-73256497D01*
X139017926Y-73237788D01*
X139011182Y-73221700D01*
X139006379Y-73210464D01*
X139005200Y-73207584D01*
X139000711Y-73194855D01*
X138995168Y-73177293D01*
X138989166Y-73156830D01*
X138983298Y-73135393D01*
X138978115Y-73116452D01*
X138970893Y-73093214D01*
X138962848Y-73071650D01*
X138952933Y-73049025D01*
X138940100Y-73022602D01*
X138933664Y-73009548D01*
X138915216Y-72969391D01*
X138900332Y-72932450D01*
X138893726Y-72912794D01*
X139048805Y-72912794D01*
X139048806Y-72912803D01*
X139050796Y-72917688D01*
X139055558Y-72927152D01*
X139062066Y-72939154D01*
X139076762Y-72967571D01*
X139094371Y-73006992D01*
X139110777Y-73049493D01*
X139124959Y-73092585D01*
X139132752Y-73117920D01*
X139142616Y-73147592D01*
X139153106Y-73176112D01*
X139164985Y-73205442D01*
X139179022Y-73237543D01*
X139195981Y-73274375D01*
X139201921Y-73287144D01*
X139212300Y-73309859D01*
X139222012Y-73331581D01*
X139230183Y-73350342D01*
X139235935Y-73364175D01*
X139240574Y-73375651D01*
X139248622Y-73395071D01*
X139257634Y-73416414D01*
X139266393Y-73436776D01*
X139270077Y-73445475D01*
X139278742Y-73467144D01*
X139288340Y-73492395D01*
X139297943Y-73518760D01*
X139306623Y-73543771D01*
X139309051Y-73550958D01*
X139315867Y-73570688D01*
X139322546Y-73589141D01*
X139329482Y-73607217D01*
X139337071Y-73625818D01*
X139345707Y-73645846D01*
X139355787Y-73668202D01*
X139367703Y-73693789D01*
X139381853Y-73723506D01*
X139398630Y-73758256D01*
X139418431Y-73798940D01*
X139428823Y-73820276D01*
X139439722Y-73842855D01*
X139449184Y-73862870D01*
X139457597Y-73881303D01*
X139465352Y-73899132D01*
X139472839Y-73917337D01*
X139480446Y-73936900D01*
X139488564Y-73958799D01*
X139497583Y-73984014D01*
X139507892Y-74013525D01*
X139519882Y-74048313D01*
X139533941Y-74089357D01*
X139542492Y-74114482D01*
X139558932Y-74163575D01*
X139574066Y-74209832D01*
X139587621Y-74252388D01*
X139599324Y-74290378D01*
X139608901Y-74322938D01*
X139616078Y-74349203D01*
X139618475Y-74358494D01*
X139628931Y-74398895D01*
X139637848Y-74433027D01*
X139645497Y-74461835D01*
X139652149Y-74486263D01*
X139658075Y-74507256D01*
X139663547Y-74525759D01*
X139668836Y-74542716D01*
X139674214Y-74559073D01*
X139679952Y-74575774D01*
X139686321Y-74593765D01*
X139690063Y-74603993D01*
X139701351Y-74633050D01*
X139714309Y-74664471D01*
X139727615Y-74695100D01*
X139739945Y-74721777D01*
X139749398Y-74741739D01*
X139759450Y-74764313D01*
X139768080Y-74785810D01*
X139776079Y-74808358D01*
X139784242Y-74834088D01*
X139793362Y-74865127D01*
X139801258Y-74891663D01*
X139811201Y-74923198D01*
X139821716Y-74954975D01*
X139831960Y-74984449D01*
X139841089Y-75009078D01*
X139846798Y-75024060D01*
X139855457Y-75047755D01*
X139863306Y-75070338D01*
X139869660Y-75089819D01*
X139873832Y-75104206D01*
X139874110Y-75105282D01*
X139879687Y-75124295D01*
X139886486Y-75144054D01*
X139893099Y-75160450D01*
X139894554Y-75163704D01*
X139904864Y-75189412D01*
X139914002Y-75216556D01*
X139921125Y-75242429D01*
X139925392Y-75264321D01*
X139925723Y-75266705D01*
X139929425Y-75286126D01*
X139935134Y-75303348D01*
X139943910Y-75320976D01*
X139956811Y-75341614D01*
X139960569Y-75347460D01*
X139971373Y-75365798D01*
X139982473Y-75386389D01*
X139991980Y-75405785D01*
X139995003Y-75412227D01*
X140005920Y-75433940D01*
X140018207Y-75456686D01*
X140029736Y-75476479D01*
X140031444Y-75479259D01*
X140062202Y-75530156D01*
X140089389Y-75576749D01*
X140112843Y-75618730D01*
X140132400Y-75655795D01*
X140147899Y-75687635D01*
X140159177Y-75713944D01*
X140166074Y-75734415D01*
X140167171Y-75738457D01*
X140171567Y-75752820D01*
X140176694Y-75765801D01*
X140183364Y-75778867D01*
X140192387Y-75793487D01*
X140204576Y-75811127D01*
X140220743Y-75833256D01*
X140235453Y-75853377D01*
X140252316Y-75876915D01*
X140268739Y-75900245D01*
X140282631Y-75920426D01*
X140311291Y-75962761D01*
X140370521Y-75964673D01*
X140376657Y-75964885D01*
X140405635Y-75966401D01*
X140430876Y-75968868D01*
X140455656Y-75972677D01*
X140483248Y-75978222D01*
X140483801Y-75978342D01*
X140507661Y-75983143D01*
X140533135Y-75987657D01*
X140557210Y-75991383D01*
X140576869Y-75993819D01*
X140584474Y-75994661D01*
X140608072Y-75998071D01*
X140632477Y-76002520D01*
X140653470Y-76007269D01*
X140658647Y-76008583D01*
X140681370Y-76013858D01*
X140705978Y-76018975D01*
X140727984Y-76022988D01*
X140734033Y-76024043D01*
X140756415Y-76028733D01*
X140779489Y-76034522D01*
X140799115Y-76040399D01*
X140802448Y-76041519D01*
X140815111Y-76045535D01*
X140826123Y-76048303D01*
X140837341Y-76050048D01*
X140850626Y-76050989D01*
X140867835Y-76051350D01*
X140890826Y-76051353D01*
X140899320Y-76051284D01*
X140921305Y-76050798D01*
X140941465Y-76049945D01*
X140957859Y-76048821D01*
X140968550Y-76047520D01*
X140969330Y-76047380D01*
X140979855Y-76046060D01*
X140996310Y-76044568D01*
X141017168Y-76043020D01*
X141040905Y-76041529D01*
X141065992Y-76040211D01*
X141069686Y-76040033D01*
X141094295Y-76038669D01*
X141117035Y-76037122D01*
X141136462Y-76035510D01*
X141151135Y-76033949D01*
X141159613Y-76032559D01*
X141167646Y-76031195D01*
X141182132Y-76029584D01*
X141201287Y-76027926D01*
X141223586Y-76026354D01*
X141247503Y-76024997D01*
X141260002Y-76024345D01*
X141287617Y-76022559D01*
X141310946Y-76020355D01*
X141332401Y-76017425D01*
X141354394Y-76013461D01*
X141379337Y-76008154D01*
X141386399Y-76006601D01*
X141410973Y-76001508D01*
X141435716Y-75996786D01*
X141458095Y-75992904D01*
X141475575Y-75990331D01*
X141485443Y-75989299D01*
X141513623Y-75987739D01*
X141546790Y-75987438D01*
X141583152Y-75988362D01*
X141620917Y-75990478D01*
X141658289Y-75993751D01*
X141658579Y-75993782D01*
X141675392Y-75995296D01*
X141697803Y-75996969D01*
X141723815Y-75998672D01*
X141751433Y-76000272D01*
X141778660Y-76001639D01*
X141805507Y-76003032D01*
X141834551Y-76004839D01*
X141862560Y-76006857D01*
X141887335Y-76008925D01*
X141906672Y-76010885D01*
X141916918Y-76011880D01*
X141937327Y-76013301D01*
X141963536Y-76014686D01*
X141994650Y-76016018D01*
X142029772Y-76017281D01*
X142068008Y-76018457D01*
X142108459Y-76019529D01*
X142150233Y-76020482D01*
X142192431Y-76021297D01*
X142234159Y-76021958D01*
X142274520Y-76022449D01*
X142312619Y-76022752D01*
X142347561Y-76022851D01*
X142378448Y-76022729D01*
X142404386Y-76022369D01*
X142424478Y-76021753D01*
X142437829Y-76020866D01*
X142438494Y-76020799D01*
X142450098Y-76019987D01*
X142468484Y-76019127D01*
X142492860Y-76018240D01*
X142522435Y-76017344D01*
X142556419Y-76016462D01*
X142594018Y-76015614D01*
X142634443Y-76014821D01*
X142676902Y-76014103D01*
X142720603Y-76013481D01*
X142736385Y-76013276D01*
X142791250Y-76012507D01*
X142839406Y-76011700D01*
X142881587Y-76010794D01*
X142918531Y-76009726D01*
X142950975Y-76008436D01*
X142979654Y-76006862D01*
X143005305Y-76004942D01*
X143028665Y-76002616D01*
X143050471Y-75999821D01*
X143071459Y-75996497D01*
X143092365Y-75992582D01*
X143113926Y-75988014D01*
X143136879Y-75982732D01*
X143161960Y-75976675D01*
X143199161Y-75968023D01*
X143240065Y-75959687D01*
X143276805Y-75953529D01*
X143308381Y-75949714D01*
X143333796Y-75948406D01*
X143342113Y-75948335D01*
X143354344Y-75947668D01*
X143360423Y-75946157D01*
X143361342Y-75943629D01*
X143359923Y-75940472D01*
X143355656Y-75931127D01*
X143349189Y-75917039D01*
X143341098Y-75899455D01*
X143331953Y-75879623D01*
X143327593Y-75870162D01*
X143314864Y-75842267D01*
X143304785Y-75819563D01*
X143296843Y-75800746D01*
X143290522Y-75784510D01*
X143285306Y-75769550D01*
X143280680Y-75754560D01*
X143276129Y-75738236D01*
X143271893Y-75723018D01*
X143263932Y-75695992D01*
X143254486Y-75665248D01*
X143244150Y-75632632D01*
X143233519Y-75599988D01*
X143223188Y-75569161D01*
X143213754Y-75541996D01*
X143205811Y-75520338D01*
X143202368Y-75511129D01*
X143193940Y-75487257D01*
X143185641Y-75462236D01*
X143178854Y-75440177D01*
X143178536Y-75439089D01*
X143172360Y-75419393D01*
X143164327Y-75395710D01*
X143155441Y-75370922D01*
X143146707Y-75347913D01*
X143137874Y-75324580D01*
X143127934Y-75296762D01*
X143118507Y-75268979D01*
X143110813Y-75244739D01*
X143105234Y-75226621D01*
X143097464Y-75202065D01*
X143088289Y-75173555D01*
X143078123Y-75142341D01*
X143067381Y-75109671D01*
X143056477Y-75076793D01*
X143045824Y-75044954D01*
X143035837Y-75015404D01*
X143026929Y-74989390D01*
X143019516Y-74968161D01*
X143014011Y-74952964D01*
X143012446Y-74948885D01*
X143003345Y-74927175D01*
X142991239Y-74900579D01*
X142976827Y-74870489D01*
X142960813Y-74838299D01*
X142943898Y-74805399D01*
X142926784Y-74773183D01*
X142910172Y-74743042D01*
X142894764Y-74716370D01*
X142888057Y-74704883D01*
X142873175Y-74678153D01*
X142858074Y-74649617D01*
X142844195Y-74622026D01*
X142832975Y-74598134D01*
X142828261Y-74587664D01*
X142818337Y-74566247D01*
X142808743Y-74546277D01*
X142800378Y-74529611D01*
X142794144Y-74518105D01*
X142791634Y-74513662D01*
X142783432Y-74497719D01*
X142774601Y-74478958D01*
X142766662Y-74460562D01*
X142759610Y-74444338D01*
X142749659Y-74423142D01*
X142738532Y-74400693D01*
X142727576Y-74379773D01*
X142719399Y-74364580D01*
X142701003Y-74329744D01*
X142681609Y-74292236D01*
X142661677Y-74252998D01*
X142641663Y-74212971D01*
X142622027Y-74173098D01*
X142603227Y-74134322D01*
X142585722Y-74097583D01*
X142569970Y-74063824D01*
X142556430Y-74033987D01*
X142545560Y-74009015D01*
X142537818Y-73989849D01*
X142537086Y-73987917D01*
X142528977Y-73967153D01*
X142520668Y-73946860D01*
X142513095Y-73929276D01*
X142507192Y-73916639D01*
X142503827Y-73909686D01*
X142495936Y-73892118D01*
X142486513Y-73869991D01*
X142476217Y-73844957D01*
X142465702Y-73818667D01*
X142455626Y-73792773D01*
X142446645Y-73768926D01*
X142439415Y-73748777D01*
X142434593Y-73733978D01*
X142434005Y-73731974D01*
X142429667Y-73717049D01*
X142424027Y-73697494D01*
X142417749Y-73675619D01*
X142411497Y-73653732D01*
X142409804Y-73647926D01*
X142403779Y-73628356D01*
X142395807Y-73603537D01*
X142386354Y-73574874D01*
X142375886Y-73543772D01*
X142364871Y-73511633D01*
X142353773Y-73479864D01*
X142353230Y-73478325D01*
X142340773Y-73442800D01*
X142327242Y-73403852D01*
X142313368Y-73363607D01*
X142299880Y-73324188D01*
X142287508Y-73287717D01*
X142276981Y-73256319D01*
X142267809Y-73229001D01*
X142258029Y-73200402D01*
X142248656Y-73173493D01*
X142240181Y-73149667D01*
X142233094Y-73130319D01*
X142227887Y-73116843D01*
X142222345Y-73102818D01*
X142213592Y-73079386D01*
X142204410Y-73053577D01*
X142195324Y-73026976D01*
X142186864Y-73001169D01*
X142179556Y-72977741D01*
X142173927Y-72958279D01*
X142170506Y-72944368D01*
X142166159Y-72922833D01*
X142113796Y-72920394D01*
X142101960Y-72919846D01*
X142058763Y-72917931D01*
X142021970Y-72916517D01*
X141990597Y-72915645D01*
X141963663Y-72915361D01*
X141940184Y-72915705D01*
X141919179Y-72916722D01*
X141899665Y-72918454D01*
X141880660Y-72920944D01*
X141861181Y-72924236D01*
X141840246Y-72928373D01*
X141816872Y-72933397D01*
X141796126Y-72937776D01*
X141773427Y-72942228D01*
X141752678Y-72945979D01*
X141736626Y-72948513D01*
X141736464Y-72948535D01*
X141717960Y-72951441D01*
X141698808Y-72955027D01*
X141683128Y-72958520D01*
X141675208Y-72959962D01*
X141658499Y-72961788D01*
X141635205Y-72963515D01*
X141605925Y-72965122D01*
X141571260Y-72966592D01*
X141531811Y-72967904D01*
X141488176Y-72969038D01*
X141440958Y-72969976D01*
X141390757Y-72970698D01*
X141338172Y-72971185D01*
X141283805Y-72971417D01*
X141280548Y-72971423D01*
X141242592Y-72971590D01*
X141211304Y-72971940D01*
X141185783Y-72972508D01*
X141165125Y-72973331D01*
X141148429Y-72974442D01*
X141134792Y-72975877D01*
X141123311Y-72977672D01*
X141107777Y-72979857D01*
X141085101Y-72981968D01*
X141056355Y-72983900D01*
X141022335Y-72985600D01*
X140983835Y-72987014D01*
X140982717Y-72987049D01*
X140953963Y-72988067D01*
X140926926Y-72989245D01*
X140902791Y-72990514D01*
X140882742Y-72991807D01*
X140867965Y-72993055D01*
X140859643Y-72994190D01*
X140857149Y-72994532D01*
X140846502Y-72995180D01*
X140828501Y-72995771D01*
X140803335Y-72996303D01*
X140771196Y-72996773D01*
X140732277Y-72997182D01*
X140686768Y-72997525D01*
X140634861Y-72997802D01*
X140576749Y-72998011D01*
X140512621Y-72998150D01*
X140442670Y-72998217D01*
X140391885Y-72998233D01*
X140332754Y-72998232D01*
X140280440Y-72998200D01*
X140273165Y-72998189D01*
X140234477Y-72998131D01*
X140194401Y-72998017D01*
X140159745Y-72997853D01*
X140130044Y-72997631D01*
X140104834Y-72997344D01*
X140083649Y-72996986D01*
X140066022Y-72996550D01*
X140051490Y-72996029D01*
X140039587Y-72995417D01*
X140029847Y-72994706D01*
X140021806Y-72993891D01*
X140014997Y-72992963D01*
X140008956Y-72991917D01*
X140002641Y-72990815D01*
X139994719Y-72989722D01*
X139985438Y-72988782D01*
X139974228Y-72987985D01*
X139960517Y-72987319D01*
X139943734Y-72986771D01*
X139923308Y-72986328D01*
X139898666Y-72985980D01*
X139869239Y-72985714D01*
X139834455Y-72985519D01*
X139793742Y-72985381D01*
X139746529Y-72985288D01*
X139692245Y-72985230D01*
X139409470Y-72985009D01*
X139352151Y-72970681D01*
X139317345Y-72962029D01*
X139264024Y-72949004D01*
X139217663Y-72938004D01*
X139178021Y-72928977D01*
X139144855Y-72921869D01*
X139117924Y-72916627D01*
X139096985Y-72913200D01*
X139081796Y-72911533D01*
X139075481Y-72911180D01*
X139061533Y-72910891D01*
X139052131Y-72911448D01*
X139048805Y-72912794D01*
X138893726Y-72912794D01*
X138889197Y-72899320D01*
X138887772Y-72893635D01*
X142305905Y-72893635D01*
X142308798Y-72926509D01*
X142314667Y-72962638D01*
X142323564Y-73003891D01*
X142326126Y-73014611D01*
X142330617Y-73032171D01*
X142335416Y-73048939D01*
X142340971Y-73066220D01*
X142347733Y-73085316D01*
X142356152Y-73107529D01*
X142366679Y-73134163D01*
X142379764Y-73166519D01*
X142386884Y-73184764D01*
X142396551Y-73211364D01*
X142405715Y-73238358D01*
X142413087Y-73262051D01*
X142425887Y-73305456D01*
X142438769Y-73347472D01*
X142450381Y-73383330D01*
X142460952Y-73413709D01*
X142470711Y-73439292D01*
X142479887Y-73460761D01*
X142489719Y-73483025D01*
X142504399Y-73519915D01*
X142517307Y-73557856D01*
X142529164Y-73599043D01*
X142540692Y-73645669D01*
X142544229Y-73660717D01*
X142551233Y-73688710D01*
X142558178Y-73713158D01*
X142565701Y-73735760D01*
X142574441Y-73758214D01*
X142585036Y-73782220D01*
X142598126Y-73809476D01*
X142614347Y-73841680D01*
X142624193Y-73861395D01*
X142636851Y-73887827D01*
X142648924Y-73914128D01*
X142659407Y-73938094D01*
X142667292Y-73957523D01*
X142671369Y-73968185D01*
X142678204Y-73985705D01*
X142684822Y-74001986D01*
X142691590Y-74017741D01*
X142698876Y-74033684D01*
X142707049Y-74050530D01*
X142716477Y-74068991D01*
X142727527Y-74089783D01*
X142740569Y-74113618D01*
X142755969Y-74141210D01*
X142774096Y-74173274D01*
X142795319Y-74210523D01*
X142820005Y-74253671D01*
X142822958Y-74258836D01*
X142849568Y-74306055D01*
X142875230Y-74352801D01*
X142899314Y-74397876D01*
X142921190Y-74440088D01*
X142940226Y-74478240D01*
X142955794Y-74511137D01*
X142957201Y-74514209D01*
X142968896Y-74539108D01*
X142982440Y-74567075D01*
X142996265Y-74594909D01*
X143008801Y-74619405D01*
X143011575Y-74624746D01*
X143023657Y-74648658D01*
X143036006Y-74673967D01*
X143047317Y-74697968D01*
X143056289Y-74717956D01*
X143058491Y-74723003D01*
X143066884Y-74741656D01*
X143077581Y-74764825D01*
X143089768Y-74790772D01*
X143102633Y-74817762D01*
X143115361Y-74844058D01*
X143120278Y-74854206D01*
X143132587Y-74880260D01*
X143144306Y-74905916D01*
X143154721Y-74929566D01*
X143163121Y-74949606D01*
X143168790Y-74964428D01*
X143169052Y-74965179D01*
X143175821Y-74984101D01*
X143184305Y-75007145D01*
X143193447Y-75031469D01*
X143202188Y-75054228D01*
X143205070Y-75061679D01*
X143224223Y-75114513D01*
X143240051Y-75165036D01*
X143253624Y-75216632D01*
X143254669Y-75220744D01*
X143259112Y-75236362D01*
X143265573Y-75257454D01*
X143273647Y-75282763D01*
X143282929Y-75311028D01*
X143293012Y-75340991D01*
X143303490Y-75371394D01*
X143306168Y-75379071D01*
X143317226Y-75410903D01*
X143328290Y-75442928D01*
X143338851Y-75473667D01*
X143348402Y-75501637D01*
X143356436Y-75525359D01*
X143362444Y-75543351D01*
X143364365Y-75549161D01*
X143377972Y-75589585D01*
X143391464Y-75628448D01*
X143404593Y-75665117D01*
X143417111Y-75698956D01*
X143428770Y-75729330D01*
X143439322Y-75755605D01*
X143448519Y-75777147D01*
X143456113Y-75793319D01*
X143461854Y-75803488D01*
X143465497Y-75807019D01*
X143468025Y-75804844D01*
X143473771Y-75796749D01*
X143481918Y-75783613D01*
X143491922Y-75766435D01*
X143503244Y-75746215D01*
X143515340Y-75723952D01*
X143527670Y-75700646D01*
X143539691Y-75677297D01*
X143550862Y-75654903D01*
X143560641Y-75634465D01*
X143568487Y-75616982D01*
X143570990Y-75611293D01*
X143580024Y-75592533D01*
X143589738Y-75574417D01*
X143598420Y-75560190D01*
X143604341Y-75551192D01*
X143617924Y-75529122D01*
X143632682Y-75503626D01*
X143647547Y-75476669D01*
X143661446Y-75450217D01*
X143673309Y-75426234D01*
X143682066Y-75406686D01*
X143687038Y-75395225D01*
X143695663Y-75376591D01*
X143706259Y-75354587D01*
X143717930Y-75331067D01*
X143729782Y-75307884D01*
X143730360Y-75306771D01*
X143740490Y-75286963D01*
X143749260Y-75268973D01*
X143757193Y-75251503D01*
X143764810Y-75233249D01*
X143772634Y-75212910D01*
X143781185Y-75189186D01*
X143790985Y-75160774D01*
X143802558Y-75126373D01*
X143821863Y-75068208D01*
X143842415Y-75005467D01*
X143861704Y-74945699D01*
X143879510Y-74889605D01*
X143895613Y-74837890D01*
X143909791Y-74791256D01*
X143921823Y-74750407D01*
X143931488Y-74716045D01*
X143936374Y-74698736D01*
X143946920Y-74663988D01*
X143959405Y-74625337D01*
X143973148Y-74584772D01*
X143987469Y-74544282D01*
X144001688Y-74505856D01*
X144015125Y-74471484D01*
X144021698Y-74454769D01*
X144031260Y-74429430D01*
X144042026Y-74400049D01*
X144053360Y-74368386D01*
X144064625Y-74336202D01*
X144075185Y-74305259D01*
X144085089Y-74276251D01*
X144095273Y-74247258D01*
X144105138Y-74219932D01*
X144114172Y-74195675D01*
X144121861Y-74175885D01*
X144127694Y-74161961D01*
X144131638Y-74153159D01*
X144139454Y-74135233D01*
X144145352Y-74120391D01*
X144149999Y-74106514D01*
X144154064Y-74091485D01*
X144158214Y-74073184D01*
X144163114Y-74049492D01*
X144167625Y-74028730D01*
X144173973Y-74001998D01*
X144180925Y-73974635D01*
X144187619Y-73950139D01*
X144188245Y-73947940D01*
X144193943Y-73927078D01*
X144200698Y-73901146D01*
X144207975Y-73872263D01*
X144215241Y-73842545D01*
X144221960Y-73814111D01*
X144224279Y-73804122D01*
X144232216Y-73770316D01*
X144240269Y-73736573D01*
X144248175Y-73703946D01*
X144255673Y-73673492D01*
X144262501Y-73646266D01*
X144268399Y-73623322D01*
X144273106Y-73605716D01*
X144276358Y-73594502D01*
X144276733Y-73593369D01*
X144280299Y-73583748D01*
X144286043Y-73569215D01*
X144293256Y-73551538D01*
X144301229Y-73532487D01*
X144301828Y-73531065D01*
X144310965Y-73507776D01*
X144320673Y-73480555D01*
X144329827Y-73452674D01*
X144337306Y-73427402D01*
X144341448Y-73412469D01*
X144356980Y-73358931D01*
X144374237Y-73302671D01*
X144392189Y-73246987D01*
X144409805Y-73195179D01*
X144412856Y-73186156D01*
X144419905Y-73163657D01*
X144427862Y-73136532D01*
X144436197Y-73106656D01*
X144444381Y-73075903D01*
X144451886Y-73046149D01*
X144456435Y-73027699D01*
X144463501Y-72999715D01*
X144470383Y-72973187D01*
X144476685Y-72949610D01*
X144482013Y-72930479D01*
X144485971Y-72917289D01*
X144486318Y-72916211D01*
X144491423Y-72899023D01*
X144493967Y-72885250D01*
X144493673Y-72872901D01*
X144490261Y-72859984D01*
X144483452Y-72844509D01*
X144472967Y-72824485D01*
X144468554Y-72816092D01*
X144458505Y-72795866D01*
X144447032Y-72771665D01*
X144434820Y-72745036D01*
X144422555Y-72717525D01*
X144410922Y-72690682D01*
X144400606Y-72666053D01*
X144392293Y-72645187D01*
X144386669Y-72629631D01*
X144382515Y-72617809D01*
X144375516Y-72599449D01*
X144367275Y-72578949D01*
X144358826Y-72558937D01*
X144348335Y-72533749D01*
X144333495Y-72494922D01*
X144319342Y-72454450D01*
X144306844Y-72415131D01*
X144296965Y-72379763D01*
X144294118Y-72369218D01*
X144288277Y-72349303D01*
X144280986Y-72325752D01*
X144272901Y-72300669D01*
X144264678Y-72276163D01*
X144258499Y-72257526D01*
X144249080Y-72227302D01*
X144239417Y-72194545D01*
X144230349Y-72162114D01*
X144222711Y-72132865D01*
X144221633Y-72128581D01*
X144215030Y-72103651D01*
X144206629Y-72073551D01*
X144196936Y-72040012D01*
X144186458Y-72004764D01*
X144175701Y-71969540D01*
X144165171Y-71936070D01*
X144161201Y-71923620D01*
X144151250Y-71892040D01*
X144141646Y-71861063D01*
X144132793Y-71832023D01*
X144125096Y-71806251D01*
X144118958Y-71785081D01*
X144114783Y-71769844D01*
X144113314Y-71764376D01*
X144107564Y-71744875D01*
X144099888Y-71720682D01*
X144090881Y-71693597D01*
X144081138Y-71665425D01*
X144071254Y-71637966D01*
X144070074Y-71634753D01*
X144059006Y-71603987D01*
X144047193Y-71570197D01*
X144035505Y-71535922D01*
X144024808Y-71503705D01*
X144015971Y-71476086D01*
X144007775Y-71450395D01*
X143999098Y-71424308D01*
X143990634Y-71399847D01*
X143983043Y-71378913D01*
X143976979Y-71363403D01*
X143974911Y-71358355D01*
X143966817Y-71337394D01*
X143956994Y-71310523D01*
X143945798Y-71278822D01*
X143933585Y-71243371D01*
X143920712Y-71205251D01*
X143907536Y-71165542D01*
X143894412Y-71125325D01*
X143881698Y-71085680D01*
X143869750Y-71047689D01*
X143858923Y-71012430D01*
X143849576Y-70980986D01*
X143842063Y-70954436D01*
X143829145Y-70905923D01*
X143808502Y-70823182D01*
X143789781Y-70741375D01*
X143773431Y-70662492D01*
X143759898Y-70588528D01*
X143758649Y-70581198D01*
X143752487Y-70547049D01*
X143746219Y-70516449D01*
X143739400Y-70487901D01*
X143731589Y-70459905D01*
X143722344Y-70430965D01*
X143711220Y-70399581D01*
X143697775Y-70364257D01*
X143681567Y-70323492D01*
X143678773Y-70316544D01*
X143665162Y-70281993D01*
X143653274Y-70250272D01*
X143642730Y-70220085D01*
X143633148Y-70190138D01*
X143624152Y-70159137D01*
X143615360Y-70125785D01*
X143606395Y-70088789D01*
X143596875Y-70046854D01*
X143586424Y-69998684D01*
X143582831Y-69981711D01*
X143576877Y-69952410D01*
X143572286Y-69927471D01*
X143568754Y-69904854D01*
X143565980Y-69882521D01*
X143563662Y-69858432D01*
X143561496Y-69830548D01*
X143561179Y-69826704D01*
X143559547Y-69811775D01*
X143557010Y-69792243D01*
X143553748Y-69769213D01*
X143549942Y-69743793D01*
X143545773Y-69717089D01*
X143541423Y-69690206D01*
X143537072Y-69664251D01*
X143532901Y-69640330D01*
X143529093Y-69619549D01*
X143525827Y-69603015D01*
X143523285Y-69591834D01*
X143521647Y-69587111D01*
X143520663Y-69587963D01*
X143517614Y-69593994D01*
X143513549Y-69604053D01*
X143512903Y-69605747D01*
X143508185Y-69617277D01*
X143501255Y-69633427D01*
X143492941Y-69652291D01*
X143484068Y-69671965D01*
X143470576Y-69701997D01*
X143451574Y-69745818D01*
X143433176Y-69789921D01*
X143416102Y-69832536D01*
X143401072Y-69871892D01*
X143388807Y-69906216D01*
X143383736Y-69920395D01*
X143374931Y-69943467D01*
X143364152Y-69970531D01*
X143352073Y-69999927D01*
X143339370Y-70029992D01*
X143326717Y-70059067D01*
X143325590Y-70061614D01*
X143314215Y-70087444D01*
X143303802Y-70111287D01*
X143294782Y-70132145D01*
X143287585Y-70149019D01*
X143282639Y-70160911D01*
X143280375Y-70166820D01*
X143279783Y-70168586D01*
X143276332Y-70177615D01*
X143270704Y-70191551D01*
X143263530Y-70208848D01*
X143255439Y-70227961D01*
X143245637Y-70251313D01*
X143234688Y-70278113D01*
X143224141Y-70304552D01*
X143215336Y-70327314D01*
X143214358Y-70329896D01*
X143205562Y-70352679D01*
X143195167Y-70379034D01*
X143184390Y-70405898D01*
X143174447Y-70430208D01*
X143169086Y-70443478D01*
X143153187Y-70488385D01*
X143142615Y-70528699D01*
X143140216Y-70539698D01*
X143134993Y-70561828D01*
X143128588Y-70587460D01*
X143121596Y-70614236D01*
X143114612Y-70639796D01*
X143109769Y-70657153D01*
X143102963Y-70681865D01*
X143096614Y-70705251D01*
X143091268Y-70725303D01*
X143087467Y-70740011D01*
X143085820Y-70746389D01*
X143080925Y-70764319D01*
X143074670Y-70786306D01*
X143067687Y-70810145D01*
X143060610Y-70833632D01*
X143058320Y-70841200D01*
X143050609Y-70867769D01*
X143042896Y-70895767D01*
X143035965Y-70922294D01*
X143030601Y-70944449D01*
X143026022Y-70963168D01*
X143018784Y-70989618D01*
X143010909Y-71015790D01*
X143003445Y-71038070D01*
X142997360Y-71055639D01*
X142989073Y-71081188D01*
X142980956Y-71107722D01*
X142974121Y-71131692D01*
X142973059Y-71135579D01*
X142966178Y-71159228D01*
X142958530Y-71182651D01*
X142949741Y-71206710D01*
X142939437Y-71232262D01*
X142927245Y-71260170D01*
X142912792Y-71291294D01*
X142895703Y-71326492D01*
X142875605Y-71366626D01*
X142852124Y-71412555D01*
X142851700Y-71413378D01*
X142835165Y-71445690D01*
X142818777Y-71478084D01*
X142803100Y-71509416D01*
X142788699Y-71538545D01*
X142776140Y-71564327D01*
X142765987Y-71585619D01*
X142758807Y-71601279D01*
X142757686Y-71603804D01*
X142746396Y-71628468D01*
X142733186Y-71656248D01*
X142719610Y-71683924D01*
X142707221Y-71708275D01*
X142703263Y-71715927D01*
X142692431Y-71737472D01*
X142682243Y-71758530D01*
X142673694Y-71777019D01*
X142667777Y-71790861D01*
X142663958Y-71800295D01*
X142656772Y-71817504D01*
X142647845Y-71838487D01*
X142637955Y-71861421D01*
X142627879Y-71884482D01*
X142619433Y-71904232D01*
X142608576Y-71930592D01*
X142596181Y-71961420D01*
X142582740Y-71995434D01*
X142568748Y-72031351D01*
X142554696Y-72067889D01*
X142541077Y-72103766D01*
X142528385Y-72137700D01*
X142517113Y-72168409D01*
X142507753Y-72194610D01*
X142500798Y-72215022D01*
X142496976Y-72225987D01*
X142490003Y-72244569D01*
X142481300Y-72266755D01*
X142471611Y-72290654D01*
X142461681Y-72314376D01*
X142450667Y-72341372D01*
X142437570Y-72375658D01*
X142423715Y-72413799D01*
X142409733Y-72453974D01*
X142396259Y-72494361D01*
X142383925Y-72533140D01*
X142373363Y-72568490D01*
X142366388Y-72593083D01*
X142356203Y-72629832D01*
X142346320Y-72666417D01*
X142337113Y-72701405D01*
X142328958Y-72733364D01*
X142322230Y-72760861D01*
X142317304Y-72782465D01*
X142314550Y-72795840D01*
X142308834Y-72830170D01*
X142305935Y-72862145D01*
X142305905Y-72893635D01*
X138887772Y-72893635D01*
X138881995Y-72870594D01*
X138878909Y-72846868D01*
X138880123Y-72828735D01*
X138880926Y-72824797D01*
X138881321Y-72813747D01*
X138877535Y-72804756D01*
X138872684Y-72795207D01*
X138868691Y-72783341D01*
X138867570Y-72777716D01*
X138866988Y-72766507D01*
X138869305Y-72755163D01*
X138875070Y-72742294D01*
X138879168Y-72735670D01*
X139036919Y-72735670D01*
X139039059Y-72739992D01*
X139047344Y-72741918D01*
X139062512Y-72742358D01*
X139065441Y-72742390D01*
X139087547Y-72743965D01*
X139115071Y-72747716D01*
X139146457Y-72753367D01*
X139180147Y-72760644D01*
X139214586Y-72769269D01*
X139216826Y-72769871D01*
X139242913Y-72776868D01*
X139271605Y-72784555D01*
X139299574Y-72792039D01*
X139323492Y-72798430D01*
X139375079Y-72812199D01*
X139667406Y-72815135D01*
X139717050Y-72815652D01*
X139767835Y-72816233D01*
X139812025Y-72816812D01*
X139850180Y-72817403D01*
X139882864Y-72818022D01*
X139910636Y-72818685D01*
X139934059Y-72819406D01*
X139953694Y-72820202D01*
X139970103Y-72821088D01*
X139983848Y-72822079D01*
X139995489Y-72823192D01*
X140005589Y-72824440D01*
X140008168Y-72824789D01*
X140016508Y-72825791D01*
X140025740Y-72826674D01*
X140036345Y-72827445D01*
X140048806Y-72828110D01*
X140063605Y-72828676D01*
X140081224Y-72829149D01*
X140102145Y-72829535D01*
X140126851Y-72829840D01*
X140155824Y-72830072D01*
X140189545Y-72830236D01*
X140228498Y-72830339D01*
X140273165Y-72830387D01*
X140324028Y-72830386D01*
X140381568Y-72830343D01*
X140446269Y-72830265D01*
X140483136Y-72830213D01*
X140542892Y-72830116D01*
X140595752Y-72830008D01*
X140642194Y-72829879D01*
X140682695Y-72829720D01*
X140717732Y-72829524D01*
X140747784Y-72829280D01*
X140773328Y-72828981D01*
X140794842Y-72828617D01*
X140812802Y-72828181D01*
X140827688Y-72827662D01*
X140839975Y-72827053D01*
X140850143Y-72826345D01*
X140858668Y-72825528D01*
X140866028Y-72824594D01*
X140872701Y-72823535D01*
X140879164Y-72822342D01*
X140891309Y-72820181D01*
X140907000Y-72818058D01*
X140924277Y-72816566D01*
X140944654Y-72815614D01*
X140969643Y-72815110D01*
X141000757Y-72814962D01*
X141020397Y-72814909D01*
X141047664Y-72814552D01*
X141069384Y-72813793D01*
X141086861Y-72812558D01*
X141101400Y-72810770D01*
X141114305Y-72808352D01*
X141116457Y-72807888D01*
X141123092Y-72806599D01*
X141130319Y-72805478D01*
X141138643Y-72804515D01*
X141148567Y-72803705D01*
X141160595Y-72803040D01*
X141175231Y-72802513D01*
X141192976Y-72802117D01*
X141214336Y-72801845D01*
X141239814Y-72801690D01*
X141269913Y-72801645D01*
X141305137Y-72801702D01*
X141345989Y-72801855D01*
X141392973Y-72802096D01*
X141446592Y-72802418D01*
X141507349Y-72802815D01*
X141511321Y-72802842D01*
X141555158Y-72803110D01*
X141592364Y-72803246D01*
X141623876Y-72803195D01*
X141650627Y-72802902D01*
X141673551Y-72802311D01*
X141693585Y-72801367D01*
X141711662Y-72800015D01*
X141728717Y-72798199D01*
X141745684Y-72795866D01*
X141763499Y-72792958D01*
X141783095Y-72789421D01*
X141805408Y-72785200D01*
X141817495Y-72782942D01*
X141835377Y-72779927D01*
X141851786Y-72777770D01*
X141868546Y-72776329D01*
X141887478Y-72775466D01*
X141910407Y-72775040D01*
X141939153Y-72774910D01*
X141945418Y-72774908D01*
X141973342Y-72775057D01*
X141995554Y-72775548D01*
X142013666Y-72776492D01*
X142029290Y-72777998D01*
X142044038Y-72780177D01*
X142059523Y-72783140D01*
X142068288Y-72784845D01*
X142091337Y-72788610D01*
X142114808Y-72791635D01*
X142134777Y-72793386D01*
X142169907Y-72795332D01*
X142174408Y-72773621D01*
X142176498Y-72764987D01*
X142181171Y-72748659D01*
X142187188Y-72729615D01*
X142193760Y-72710432D01*
X142193845Y-72710194D01*
X142200820Y-72689890D01*
X142208821Y-72665332D01*
X142216869Y-72639596D01*
X142223982Y-72615756D01*
X142224070Y-72615454D01*
X142231355Y-72591607D01*
X142239818Y-72565973D01*
X142248415Y-72541612D01*
X142256103Y-72521581D01*
X142259769Y-72512567D01*
X142267654Y-72492683D01*
X142274481Y-72474444D01*
X142280739Y-72456342D01*
X142286912Y-72436866D01*
X142293490Y-72414507D01*
X142300957Y-72387755D01*
X142309802Y-72355101D01*
X142310743Y-72351628D01*
X142317834Y-72326687D01*
X142326842Y-72296584D01*
X142337218Y-72263072D01*
X142348414Y-72227905D01*
X142359879Y-72192834D01*
X142371065Y-72159614D01*
X142374517Y-72149522D01*
X142385330Y-72117747D01*
X142396009Y-72086136D01*
X142406081Y-72056100D01*
X142415076Y-72029052D01*
X142422520Y-72006404D01*
X142427941Y-71989567D01*
X142439365Y-71954916D01*
X142451514Y-71921331D01*
X142465133Y-71886960D01*
X142480992Y-71849852D01*
X142499866Y-71808057D01*
X142502509Y-71802281D01*
X142512309Y-71780267D01*
X142521684Y-71758374D01*
X142529679Y-71738861D01*
X142535341Y-71723989D01*
X142536523Y-71720714D01*
X142542807Y-71704348D01*
X142551075Y-71683903D01*
X142560389Y-71661664D01*
X142569812Y-71639921D01*
X142572538Y-71633710D01*
X142581715Y-71612216D01*
X142590291Y-71591319D01*
X142597410Y-71573136D01*
X142602214Y-71559788D01*
X142603626Y-71555798D01*
X142609730Y-71540913D01*
X142618714Y-71520952D01*
X142629989Y-71497096D01*
X142642966Y-71470527D01*
X142657055Y-71442423D01*
X142671668Y-71413967D01*
X142686216Y-71386339D01*
X142700108Y-71360720D01*
X142712755Y-71338290D01*
X142719439Y-71326580D01*
X142744682Y-71279571D01*
X142768842Y-71230392D01*
X142790647Y-71181721D01*
X142808824Y-71136235D01*
X142816752Y-71114233D01*
X142826952Y-71084805D01*
X142838455Y-71050737D01*
X142850813Y-71013421D01*
X142863574Y-70974248D01*
X142876290Y-70934609D01*
X142888511Y-70895898D01*
X142899788Y-70859505D01*
X142909670Y-70826822D01*
X142917708Y-70799241D01*
X142920682Y-70788755D01*
X142930968Y-70752525D01*
X142939579Y-70722285D01*
X142946830Y-70696949D01*
X142953039Y-70675433D01*
X142958521Y-70656651D01*
X142963593Y-70639518D01*
X142968570Y-70622949D01*
X142973770Y-70605858D01*
X142979508Y-70587160D01*
X142982436Y-70577591D01*
X142990539Y-70550666D01*
X142998815Y-70522631D01*
X143006442Y-70496287D01*
X143012597Y-70474433D01*
X143015980Y-70462636D01*
X143026074Y-70432344D01*
X143038635Y-70401359D01*
X143054723Y-70366972D01*
X143058570Y-70359099D01*
X143070418Y-70334283D01*
X143082449Y-70308369D01*
X143093449Y-70283995D01*
X143102203Y-70263798D01*
X143109688Y-70246115D01*
X143118870Y-70224762D01*
X143127474Y-70205073D01*
X143134329Y-70189748D01*
X143139465Y-70177549D01*
X143146501Y-70159331D01*
X143154610Y-70137250D01*
X143163150Y-70113052D01*
X143171481Y-70088484D01*
X143178342Y-70067954D01*
X143187912Y-70039748D01*
X143197565Y-70011710D01*
X143206483Y-69986205D01*
X143213852Y-69965601D01*
X143221308Y-69944351D01*
X143229995Y-69918084D01*
X143238090Y-69892199D01*
X143244510Y-69870069D01*
X143248564Y-69855968D01*
X143256430Y-69831007D01*
X143265000Y-69806004D01*
X143273027Y-69784693D01*
X143274079Y-69782082D01*
X143280634Y-69765842D01*
X143288916Y-69745358D01*
X143298542Y-69721574D01*
X143309129Y-69695435D01*
X143320293Y-69667884D01*
X143331652Y-69639865D01*
X143342824Y-69612323D01*
X143353425Y-69586201D01*
X143363072Y-69562443D01*
X143371383Y-69541993D01*
X143377975Y-69525795D01*
X143382464Y-69514794D01*
X143384468Y-69509932D01*
X143384518Y-69509815D01*
X143384413Y-69507266D01*
X143380566Y-69506079D01*
X143371698Y-69506134D01*
X143356532Y-69507311D01*
X143347541Y-69508240D01*
X143327591Y-69510744D01*
X143305376Y-69513945D01*
X143284250Y-69517377D01*
X143269700Y-69519728D01*
X143244640Y-69523249D01*
X143218301Y-69526466D01*
X143194441Y-69528896D01*
X143189710Y-69529321D01*
X143166456Y-69531588D01*
X143139347Y-69534448D01*
X143111375Y-69537579D01*
X143085535Y-69540655D01*
X143080022Y-69541329D01*
X143050533Y-69544627D01*
X143020641Y-69547403D01*
X142989441Y-69549695D01*
X142956030Y-69551539D01*
X142919502Y-69552971D01*
X142878953Y-69554029D01*
X142833478Y-69554749D01*
X142782174Y-69555168D01*
X142724134Y-69555322D01*
X142697628Y-69555319D01*
X142657775Y-69555219D01*
X142624291Y-69554978D01*
X142596370Y-69554575D01*
X142573208Y-69553987D01*
X142553999Y-69553191D01*
X142537941Y-69552163D01*
X142524227Y-69550882D01*
X142512054Y-69549325D01*
X142510169Y-69549057D01*
X142502446Y-69548102D01*
X142493583Y-69547258D01*
X142483117Y-69546520D01*
X142470583Y-69545882D01*
X142455515Y-69545337D01*
X142437451Y-69544881D01*
X142415924Y-69544508D01*
X142390472Y-69544212D01*
X142360628Y-69543987D01*
X142325929Y-69543827D01*
X142285910Y-69543728D01*
X142240106Y-69543682D01*
X142188054Y-69543685D01*
X142129288Y-69543730D01*
X142063344Y-69543813D01*
X142053127Y-69543828D01*
X141986537Y-69543943D01*
X141927064Y-69544085D01*
X141874253Y-69544268D01*
X141827645Y-69544500D01*
X141786781Y-69544793D01*
X141751204Y-69545157D01*
X141720457Y-69545604D01*
X141694081Y-69546145D01*
X141671618Y-69546790D01*
X141652611Y-69547550D01*
X141636601Y-69548435D01*
X141623131Y-69549458D01*
X141611743Y-69550628D01*
X141601979Y-69551957D01*
X141593381Y-69553455D01*
X141585491Y-69555133D01*
X141583479Y-69555477D01*
X141572911Y-69556366D01*
X141555432Y-69557152D01*
X141531578Y-69557822D01*
X141501886Y-69558367D01*
X141466895Y-69558776D01*
X141427139Y-69559039D01*
X141383158Y-69559144D01*
X141374863Y-69559147D01*
X141331027Y-69559110D01*
X141294020Y-69558968D01*
X141263147Y-69558703D01*
X141237715Y-69558296D01*
X141217030Y-69557730D01*
X141200397Y-69556986D01*
X141187123Y-69556046D01*
X141176514Y-69554892D01*
X141167875Y-69553505D01*
X141167822Y-69553495D01*
X141160917Y-69552382D01*
X141152325Y-69551417D01*
X141141505Y-69550591D01*
X141127915Y-69549894D01*
X141111013Y-69549317D01*
X141090259Y-69548848D01*
X141065110Y-69548479D01*
X141035026Y-69548199D01*
X140999466Y-69547998D01*
X140957887Y-69547867D01*
X140909748Y-69547796D01*
X140854508Y-69547774D01*
X140571093Y-69547774D01*
X140562333Y-69566868D01*
X140552214Y-69583356D01*
X140539736Y-69595364D01*
X140531697Y-69601776D01*
X140516176Y-69618481D01*
X140499451Y-69641323D01*
X140482003Y-69669501D01*
X140464312Y-69702215D01*
X140446858Y-69738664D01*
X140430122Y-69778047D01*
X140421116Y-69800429D01*
X140409923Y-69827978D01*
X140398545Y-69855753D01*
X140388424Y-69880225D01*
X140380545Y-69899359D01*
X140368623Y-69928966D01*
X140356247Y-69960352D01*
X140343897Y-69992253D01*
X140332052Y-70023404D01*
X140321192Y-70052542D01*
X140311795Y-70078402D01*
X140304342Y-70099721D01*
X140299311Y-70115233D01*
X140293631Y-70133273D01*
X140282593Y-70165408D01*
X140269378Y-70201295D01*
X140254555Y-70239559D01*
X140238695Y-70278822D01*
X140222370Y-70317708D01*
X140206150Y-70354841D01*
X140190605Y-70388843D01*
X140176308Y-70418339D01*
X140163827Y-70441952D01*
X140162952Y-70443538D01*
X140155996Y-70457544D01*
X140147639Y-70476180D01*
X140138855Y-70497205D01*
X140130617Y-70518377D01*
X140113729Y-70561777D01*
X140088930Y-70620155D01*
X140062008Y-70678295D01*
X140033696Y-70734747D01*
X140004728Y-70788063D01*
X139975838Y-70836793D01*
X139947761Y-70879488D01*
X139945218Y-70883130D01*
X139922670Y-70916118D01*
X139899843Y-70950647D01*
X139877537Y-70985432D01*
X139856552Y-71019190D01*
X139837686Y-71050636D01*
X139821741Y-71078486D01*
X139809515Y-71101457D01*
X139808133Y-71104213D01*
X139796697Y-71127390D01*
X139784690Y-71152290D01*
X139772675Y-71177688D01*
X139761216Y-71202359D01*
X139750880Y-71225077D01*
X139742228Y-71244616D01*
X139735827Y-71259752D01*
X139732240Y-71269257D01*
X139728399Y-71279328D01*
X139721166Y-71295673D01*
X139711344Y-71316466D01*
X139699531Y-71340546D01*
X139686325Y-71366755D01*
X139672324Y-71393932D01*
X139658127Y-71420918D01*
X139644330Y-71446553D01*
X139631533Y-71469678D01*
X139620333Y-71489132D01*
X139611327Y-71503756D01*
X139601345Y-71519225D01*
X139587594Y-71541473D01*
X139576181Y-71561652D01*
X139565893Y-71582084D01*
X139555518Y-71605092D01*
X139543844Y-71632996D01*
X139538234Y-71646197D01*
X139527751Y-71669168D01*
X139516697Y-71691777D01*
X139506699Y-71710628D01*
X139488734Y-71744008D01*
X139467198Y-71787871D01*
X139447553Y-71832056D01*
X139431249Y-71873427D01*
X139426930Y-71884860D01*
X139417004Y-71909189D01*
X139406091Y-71934065D01*
X139395871Y-71955584D01*
X139390517Y-71966320D01*
X139376877Y-71994620D01*
X139364630Y-72021781D01*
X139352881Y-72049917D01*
X139340733Y-72081145D01*
X139327292Y-72117580D01*
X139318478Y-72141808D01*
X139304574Y-72179536D01*
X139291301Y-72214965D01*
X139278977Y-72247277D01*
X139267918Y-72275653D01*
X139258441Y-72299275D01*
X139250863Y-72317324D01*
X139245501Y-72328980D01*
X139241069Y-72337150D01*
X139232487Y-72351805D01*
X139222025Y-72368833D01*
X139211046Y-72385982D01*
X139202859Y-72398859D01*
X139185809Y-72427623D01*
X139168008Y-72459824D01*
X139150458Y-72493506D01*
X139134165Y-72526716D01*
X139120133Y-72557498D01*
X139109366Y-72583896D01*
X139105093Y-72595026D01*
X139095350Y-72619033D01*
X139084842Y-72643559D01*
X139075206Y-72664735D01*
X139069199Y-72677028D01*
X139060077Y-72694658D01*
X139051578Y-72710001D01*
X139044967Y-72720719D01*
X139040185Y-72728040D01*
X139036919Y-72735670D01*
X138879168Y-72735670D01*
X138884834Y-72726510D01*
X138899147Y-72706423D01*
X138904611Y-72698964D01*
X138918701Y-72678872D01*
X138930757Y-72659910D01*
X138941328Y-72640856D01*
X138950963Y-72620488D01*
X138960208Y-72597582D01*
X138969614Y-72570917D01*
X138979727Y-72539270D01*
X138991097Y-72501419D01*
X138994783Y-72489171D01*
X139008363Y-72448645D01*
X139023511Y-72410955D01*
X139041188Y-72374043D01*
X139062357Y-72335852D01*
X139087979Y-72294326D01*
X139093245Y-72285409D01*
X139103030Y-72266578D01*
X139114953Y-72241567D01*
X139128746Y-72210981D01*
X139144147Y-72175424D01*
X139160888Y-72135501D01*
X139178706Y-72091817D01*
X139197334Y-72044976D01*
X139204737Y-72026278D01*
X139216594Y-71996826D01*
X139228507Y-71967762D01*
X139239775Y-71940774D01*
X139249699Y-71917547D01*
X139257580Y-71899767D01*
X139258811Y-71897063D01*
X139268022Y-71876219D01*
X139276764Y-71855471D01*
X139284102Y-71837089D01*
X139289099Y-71823342D01*
X139293644Y-71810705D01*
X139300907Y-71792320D01*
X139309485Y-71771847D01*
X139318343Y-71751824D01*
X139319513Y-71749255D01*
X139327037Y-71732499D01*
X139333157Y-71718459D01*
X139337272Y-71708543D01*
X139338777Y-71704157D01*
X139339785Y-71701274D01*
X139343613Y-71692392D01*
X139349792Y-71678751D01*
X139357783Y-71661536D01*
X139367049Y-71641931D01*
X139371911Y-71631625D01*
X139383087Y-71607293D01*
X139394023Y-71582708D01*
X139403675Y-71560240D01*
X139410996Y-71542258D01*
X139419816Y-71521695D01*
X139437459Y-71487395D01*
X139459592Y-71450548D01*
X139463847Y-71443759D01*
X139477420Y-71420703D01*
X139493033Y-71392549D01*
X139509974Y-71360716D01*
X139527532Y-71326621D01*
X139544994Y-71291680D01*
X139561647Y-71257312D01*
X139576780Y-71224934D01*
X139589681Y-71195962D01*
X139599638Y-71171815D01*
X139602671Y-71164209D01*
X139610034Y-71147154D01*
X139619072Y-71128003D01*
X139630171Y-71106018D01*
X139643718Y-71080464D01*
X139660099Y-71050604D01*
X139679700Y-71015702D01*
X139702909Y-70975019D01*
X139718417Y-70948066D01*
X139734187Y-70920912D01*
X139747407Y-70898548D01*
X139758716Y-70879945D01*
X139768754Y-70864072D01*
X139778161Y-70849901D01*
X139787575Y-70836402D01*
X139797638Y-70822545D01*
X139810664Y-70804622D01*
X139822664Y-70787332D01*
X139833518Y-70770554D01*
X139844107Y-70752802D01*
X139855316Y-70732594D01*
X139868026Y-70708445D01*
X139883122Y-70678871D01*
X139893581Y-70657964D01*
X139912127Y-70619804D01*
X139929967Y-70581775D01*
X139946511Y-70545191D01*
X139961170Y-70511370D01*
X139973352Y-70481627D01*
X139982468Y-70457279D01*
X139982819Y-70456271D01*
X139995402Y-70421710D01*
X140006855Y-70393559D01*
X140017630Y-70370784D01*
X140028177Y-70352349D01*
X140036823Y-70337755D01*
X140048573Y-70315977D01*
X140061966Y-70289648D01*
X140076372Y-70260107D01*
X140091160Y-70228696D01*
X140105702Y-70196753D01*
X140119368Y-70165619D01*
X140131527Y-70136633D01*
X140141550Y-70111136D01*
X140149005Y-70091418D01*
X140159702Y-70063517D01*
X140170521Y-70035679D01*
X140180540Y-70010272D01*
X140188836Y-69989667D01*
X140197571Y-69967826D01*
X140207507Y-69942073D01*
X140216907Y-69916891D01*
X140224544Y-69895510D01*
X140224586Y-69895389D01*
X140232142Y-69874258D01*
X140241493Y-69849234D01*
X140251455Y-69823434D01*
X140260843Y-69799978D01*
X140270081Y-69776791D01*
X140280334Y-69749942D01*
X140290076Y-69723440D01*
X140298057Y-69700625D01*
X140300345Y-69693895D01*
X140313360Y-69658700D01*
X140326741Y-69628578D01*
X140341641Y-69601392D01*
X140359209Y-69575005D01*
X140380595Y-69547280D01*
X140401203Y-69521947D01*
X140391116Y-69502505D01*
X140390811Y-69501914D01*
X140383311Y-69482621D01*
X140381127Y-69462876D01*
X140381276Y-69456244D01*
X140383687Y-69438458D01*
X140389994Y-69423642D01*
X140401428Y-69408497D01*
X140404098Y-69405564D01*
X140421688Y-69391127D01*
X140442687Y-69382058D01*
X140468668Y-69377636D01*
X140472071Y-69377469D01*
X140483820Y-69377244D01*
X140502248Y-69377116D01*
X140526734Y-69377080D01*
X140556660Y-69377135D01*
X140591404Y-69377278D01*
X140630346Y-69377506D01*
X140672867Y-69377815D01*
X140718346Y-69378204D01*
X140766164Y-69378669D01*
X140815699Y-69379207D01*
X140867523Y-69379814D01*
X140920123Y-69380472D01*
X140966030Y-69381102D01*
X141005750Y-69381720D01*
X141039789Y-69382339D01*
X141068654Y-69382974D01*
X141092851Y-69383638D01*
X141112886Y-69384346D01*
X141129267Y-69385112D01*
X141142498Y-69385951D01*
X141153088Y-69386875D01*
X141161541Y-69387900D01*
X141168365Y-69389038D01*
X141172095Y-69389649D01*
X141187203Y-69391147D01*
X141208595Y-69392374D01*
X141235279Y-69393337D01*
X141266261Y-69394040D01*
X141300548Y-69394490D01*
X141337147Y-69394693D01*
X141375065Y-69394656D01*
X141413308Y-69394383D01*
X141450884Y-69393881D01*
X141486799Y-69393156D01*
X141520060Y-69392215D01*
X141549674Y-69391062D01*
X141574648Y-69389704D01*
X141593988Y-69388146D01*
X141606702Y-69386396D01*
X141608298Y-69386081D01*
X141613817Y-69385139D01*
X141620228Y-69384316D01*
X141627982Y-69383608D01*
X141637529Y-69383012D01*
X141649318Y-69382526D01*
X141663800Y-69382147D01*
X141681424Y-69381872D01*
X141702641Y-69381698D01*
X141727901Y-69381623D01*
X141757652Y-69381644D01*
X141792347Y-69381757D01*
X141832433Y-69381961D01*
X141878362Y-69382252D01*
X141930583Y-69382628D01*
X141989546Y-69383086D01*
X142055702Y-69383622D01*
X142116861Y-69384153D01*
X142182166Y-69384789D01*
X142242073Y-69385450D01*
X142296332Y-69386131D01*
X142344694Y-69386829D01*
X142386909Y-69387539D01*
X142422728Y-69388256D01*
X142451902Y-69388977D01*
X142474181Y-69389698D01*
X142489317Y-69390414D01*
X142497059Y-69391120D01*
X142499921Y-69391509D01*
X142511785Y-69392431D01*
X142530118Y-69393346D01*
X142554097Y-69394242D01*
X142582895Y-69395108D01*
X142615688Y-69395934D01*
X142651651Y-69396710D01*
X142689958Y-69397423D01*
X142729785Y-69398063D01*
X142770307Y-69398620D01*
X142810698Y-69399083D01*
X142850134Y-69399441D01*
X142887789Y-69399683D01*
X142922839Y-69399798D01*
X142954458Y-69399776D01*
X142981821Y-69399605D01*
X143004103Y-69399276D01*
X143020480Y-69398776D01*
X143030126Y-69398096D01*
X143038860Y-69397209D01*
X143055660Y-69395972D01*
X143077584Y-69394675D01*
X143103227Y-69393393D01*
X143131183Y-69392200D01*
X143160050Y-69391173D01*
X143212130Y-69389308D01*
X143259542Y-69387126D01*
X143302871Y-69384543D01*
X143343914Y-69381439D01*
X143384470Y-69377691D01*
X143426336Y-69373179D01*
X143484363Y-69366537D01*
X143488674Y-69349414D01*
X143495207Y-69333953D01*
X143507915Y-69317305D01*
X143524149Y-69303820D01*
X143541747Y-69295686D01*
X143555056Y-69293622D01*
X143576743Y-69295754D01*
G37*
G36*
X144799048Y-91541216D02*
G01*
X144880111Y-91543509D01*
X144947668Y-91548909D01*
X145006388Y-91558276D01*
X145060940Y-91572472D01*
X145115994Y-91592357D01*
X145176218Y-91618792D01*
X145187643Y-91624228D01*
X145234836Y-91649367D01*
X145282116Y-91679502D01*
X145332159Y-91716725D01*
X145387639Y-91763127D01*
X145451232Y-91820796D01*
X145525612Y-91891824D01*
X145554397Y-91920140D01*
X145627929Y-91996773D01*
X145687825Y-92067144D01*
X145736766Y-92134850D01*
X145777432Y-92203485D01*
X145812503Y-92276644D01*
X145825184Y-92306475D01*
X145852457Y-92376778D01*
X145872596Y-92441461D01*
X145886583Y-92505724D01*
X145895399Y-92574763D01*
X145900024Y-92653777D01*
X145901439Y-92747963D01*
X145898438Y-92843442D01*
X145883891Y-92961222D01*
X145855917Y-93074759D01*
X145813013Y-93191583D01*
X145805644Y-93209453D01*
X145786321Y-93258151D01*
X145763510Y-93317439D01*
X145739466Y-93381416D01*
X145716445Y-93444182D01*
X145657374Y-93607606D01*
X145681769Y-93636598D01*
X145689205Y-93646266D01*
X145710931Y-93693526D01*
X145715734Y-93745668D01*
X145703777Y-93797514D01*
X145675224Y-93843886D01*
X145636719Y-93876458D01*
X145584907Y-93895976D01*
X145525262Y-93896781D01*
X145495123Y-93894467D01*
X145472162Y-93899810D01*
X145449231Y-93915786D01*
X145449085Y-93915909D01*
X145398449Y-93945607D01*
X145339988Y-93958294D01*
X145277684Y-93953702D01*
X145216190Y-93931802D01*
X145215517Y-93931562D01*
X145204192Y-93925038D01*
X145176341Y-93904321D01*
X145150100Y-93879757D01*
X145130595Y-93856448D01*
X145122954Y-93839494D01*
X145122314Y-93836592D01*
X145117110Y-93831966D01*
X145104493Y-93827383D01*
X145081882Y-93822300D01*
X145046697Y-93816176D01*
X144996356Y-93808470D01*
X144928278Y-93798639D01*
X144860779Y-93788491D01*
X144785932Y-93776355D01*
X144713179Y-93763802D01*
X144651635Y-93752356D01*
X144600978Y-93742919D01*
X144535118Y-93731426D01*
X144460521Y-93718976D01*
X144383005Y-93706541D01*
X144308391Y-93695090D01*
X144253587Y-93686673D01*
X144128399Y-93665238D01*
X144021091Y-93643255D01*
X143929789Y-93620270D01*
X143852622Y-93595833D01*
X143787717Y-93569492D01*
X143784859Y-93568153D01*
X143740513Y-93544383D01*
X143684965Y-93510481D01*
X143622318Y-93469352D01*
X143556673Y-93423898D01*
X143492133Y-93377024D01*
X143432800Y-93331634D01*
X143382776Y-93290631D01*
X143346164Y-93256920D01*
X143329612Y-93239789D01*
X143280148Y-93183502D01*
X143244668Y-93131802D01*
X143220657Y-93079561D01*
X143205597Y-93021652D01*
X143196971Y-92952947D01*
X143195489Y-92934879D01*
X143192098Y-92892883D01*
X143189460Y-92859318D01*
X143188049Y-92840178D01*
X143188035Y-92839956D01*
X143187922Y-92816714D01*
X143189101Y-92777035D01*
X143191341Y-92724854D01*
X143194412Y-92664104D01*
X143198083Y-92598721D01*
X143199778Y-92570997D01*
X143620692Y-92570997D01*
X143621635Y-92642655D01*
X143624818Y-92714296D01*
X143630190Y-92781900D01*
X143637703Y-92841448D01*
X143647308Y-92888921D01*
X143651119Y-92901577D01*
X143666257Y-92934867D01*
X143690177Y-92968555D01*
X143725123Y-93005096D01*
X143773340Y-93046946D01*
X143837072Y-93096562D01*
X143861162Y-93114455D01*
X143914830Y-93152054D01*
X143965340Y-93183104D01*
X144016054Y-93208851D01*
X144070335Y-93230541D01*
X144131544Y-93249420D01*
X144203043Y-93266734D01*
X144288194Y-93283730D01*
X144390360Y-93301654D01*
X144428533Y-93308521D01*
X144482017Y-93318801D01*
X144547406Y-93331799D01*
X144621793Y-93346898D01*
X144702267Y-93363486D01*
X144785920Y-93380948D01*
X144869845Y-93398670D01*
X144951131Y-93416037D01*
X145026871Y-93432435D01*
X145094155Y-93447250D01*
X145150076Y-93459868D01*
X145191724Y-93469674D01*
X145216190Y-93476054D01*
X145224090Y-93474372D01*
X145232985Y-93462919D01*
X145243978Y-93439196D01*
X145258219Y-93400718D01*
X145276859Y-93344999D01*
X145296407Y-93287883D01*
X145321637Y-93219393D01*
X145347622Y-93153206D01*
X145371056Y-93097989D01*
X145371079Y-93097938D01*
X145401934Y-93026494D01*
X145424196Y-92966370D01*
X145439246Y-92911217D01*
X145448462Y-92854686D01*
X145453225Y-92790431D01*
X145454913Y-92712102D01*
X145455060Y-92678449D01*
X145454535Y-92625480D01*
X145452506Y-92585565D01*
X145448460Y-92553788D01*
X145441884Y-92525233D01*
X145432265Y-92494983D01*
X145419708Y-92461782D01*
X145393888Y-92408070D01*
X145360342Y-92354712D01*
X145316826Y-92298651D01*
X145261097Y-92236830D01*
X145190910Y-92166193D01*
X145160359Y-92136751D01*
X145104810Y-92085557D01*
X145057932Y-92046731D01*
X145016489Y-92018181D01*
X144977246Y-91997816D01*
X144936967Y-91983546D01*
X144892417Y-91973278D01*
X144849922Y-91968201D01*
X144789011Y-91965755D01*
X144717730Y-91966286D01*
X144641201Y-91969566D01*
X144564546Y-91975371D01*
X144492886Y-91983474D01*
X144431344Y-91993647D01*
X144427966Y-91994332D01*
X144376444Y-92004502D01*
X144313075Y-92016635D01*
X144245579Y-92029269D01*
X144181677Y-92040941D01*
X144165372Y-92043955D01*
X144109378Y-92055497D01*
X144058470Y-92067687D01*
X144017702Y-92079247D01*
X143992125Y-92088898D01*
X143983900Y-92093175D01*
X143937623Y-92120112D01*
X143885758Y-92154119D01*
X143831584Y-92192636D01*
X143778384Y-92233099D01*
X143729436Y-92272947D01*
X143688022Y-92309617D01*
X143657422Y-92340549D01*
X143640917Y-92363179D01*
X143640279Y-92364578D01*
X143631780Y-92396112D01*
X143625715Y-92443706D01*
X143622035Y-92503341D01*
X143620692Y-92570997D01*
X143199778Y-92570997D01*
X143202124Y-92532637D01*
X143206303Y-92469788D01*
X143210391Y-92414107D01*
X143214156Y-92369530D01*
X143217368Y-92339989D01*
X143222022Y-92311802D01*
X143243220Y-92236769D01*
X143277872Y-92165637D01*
X143327949Y-92094874D01*
X143395422Y-92020946D01*
X143440367Y-91976707D01*
X143527823Y-91895411D01*
X143609228Y-91827962D01*
X143688372Y-91772336D01*
X143769048Y-91726511D01*
X143855047Y-91688463D01*
X143950160Y-91656169D01*
X144058181Y-91627605D01*
X144182899Y-91600749D01*
X144251887Y-91587348D01*
X144344689Y-91570772D01*
X144426629Y-91558490D01*
X144503123Y-91549935D01*
X144579588Y-91544541D01*
X144661440Y-91541740D01*
X144754095Y-91540966D01*
X144799048Y-91541216D01*
G37*
G36*
X145097273Y-90291001D02*
G01*
X145187517Y-90293861D01*
X145267951Y-90299013D01*
X145342438Y-90306988D01*
X145414838Y-90318317D01*
X145489015Y-90333531D01*
X145568830Y-90353159D01*
X145658145Y-90377732D01*
X145760823Y-90407781D01*
X145762066Y-90408151D01*
X145869879Y-90441201D01*
X145961373Y-90471639D01*
X146040216Y-90501193D01*
X146110073Y-90531590D01*
X146174611Y-90564557D01*
X146237496Y-90601822D01*
X146302395Y-90645111D01*
X146372974Y-90696153D01*
X146434649Y-90743353D01*
X146561209Y-90850880D01*
X146670730Y-90960956D01*
X146765576Y-91076333D01*
X146848113Y-91199765D01*
X146920703Y-91334006D01*
X146929552Y-91353048D01*
X146951408Y-91404618D01*
X146977539Y-91470769D01*
X147006774Y-91548149D01*
X147037944Y-91633403D01*
X147069879Y-91723180D01*
X147101409Y-91814127D01*
X147131365Y-91902891D01*
X147158577Y-91986119D01*
X147181874Y-92060458D01*
X147200088Y-92122557D01*
X147212048Y-92169061D01*
X147216261Y-92187889D01*
X147240688Y-92301176D01*
X147260091Y-92400603D01*
X147275143Y-92491198D01*
X147286516Y-92577987D01*
X147294883Y-92665998D01*
X147300917Y-92760258D01*
X147305291Y-92865793D01*
X147306967Y-92912119D01*
X147310358Y-92991037D01*
X147314244Y-93067176D01*
X147318370Y-93136109D01*
X147322485Y-93193410D01*
X147326336Y-93234652D01*
X147329741Y-93268598D01*
X147333844Y-93345015D01*
X147333177Y-93427003D01*
X147327561Y-93518107D01*
X147316816Y-93621869D01*
X147300764Y-93741832D01*
X147287569Y-93826933D01*
X147257288Y-93988255D01*
X147220222Y-94144857D01*
X147174929Y-94301970D01*
X147119970Y-94464824D01*
X147053905Y-94638650D01*
X147029720Y-94700825D01*
X147006270Y-94763881D01*
X146985858Y-94821527D01*
X146970082Y-94869253D01*
X146960536Y-94902550D01*
X146954487Y-94928261D01*
X146948817Y-94959007D01*
X146948539Y-94983376D01*
X146953925Y-95009731D01*
X146965250Y-95046435D01*
X146976246Y-95085006D01*
X146984559Y-95123238D01*
X146987738Y-95150720D01*
X146987718Y-95153046D01*
X146977634Y-95204098D01*
X146951777Y-95250854D01*
X146914073Y-95289263D01*
X146868449Y-95315278D01*
X146818833Y-95324849D01*
X146798556Y-95323306D01*
X146758724Y-95315872D01*
X146718679Y-95304357D01*
X146692610Y-95296109D01*
X146656401Y-95287289D01*
X146629773Y-95283865D01*
X146603267Y-95283036D01*
X146553542Y-95278665D01*
X146541857Y-95277638D01*
X146463548Y-95267499D01*
X146370197Y-95252949D01*
X146263663Y-95234320D01*
X146145802Y-95211944D01*
X146018473Y-95186152D01*
X145883534Y-95157276D01*
X145742841Y-95125646D01*
X145737109Y-95124350D01*
X145681156Y-95113244D01*
X145613743Y-95101909D01*
X145542845Y-95091603D01*
X145476443Y-95083588D01*
X145466351Y-95082522D01*
X145400335Y-95075261D01*
X145332350Y-95067366D01*
X145269851Y-95059721D01*
X145220291Y-95053210D01*
X145192621Y-95049647D01*
X145134603Y-95043100D01*
X145061313Y-95035605D01*
X144975904Y-95027445D01*
X144881531Y-95018902D01*
X144781346Y-95010260D01*
X144678502Y-95001802D01*
X144576153Y-94993809D01*
X144477451Y-94986566D01*
X144447537Y-94984385D01*
X144394309Y-94980157D01*
X144349550Y-94976159D01*
X144317253Y-94972757D01*
X144301411Y-94970321D01*
X144292228Y-94969076D01*
X144264218Y-94966950D01*
X144220973Y-94964446D01*
X144165500Y-94961720D01*
X144100804Y-94958926D01*
X144029890Y-94956222D01*
X143941477Y-94952961D01*
X143824611Y-94948376D01*
X143705228Y-94943415D01*
X143585883Y-94938202D01*
X143469130Y-94932860D01*
X143357526Y-94927512D01*
X143253625Y-94922282D01*
X143159982Y-94917291D01*
X143079153Y-94912664D01*
X143013693Y-94908523D01*
X142966157Y-94904992D01*
X142934921Y-94902016D01*
X142774536Y-94876968D01*
X142604996Y-94834944D01*
X142427716Y-94776284D01*
X142314929Y-94732479D01*
X142210046Y-94686500D01*
X142121715Y-94641147D01*
X142047982Y-94595311D01*
X141986891Y-94547884D01*
X141936486Y-94497758D01*
X141914283Y-94469274D01*
X141878108Y-94411305D01*
X141839936Y-94337815D01*
X141801057Y-94251545D01*
X141762759Y-94155231D01*
X141726333Y-94051613D01*
X141715953Y-94019461D01*
X141669357Y-93850946D01*
X141637655Y-93685710D01*
X141619381Y-93516418D01*
X141611914Y-93370771D01*
X141610998Y-93230900D01*
X141614760Y-93154410D01*
X141970473Y-93154410D01*
X141973440Y-93292209D01*
X141988414Y-93438333D01*
X142015637Y-93595356D01*
X142055354Y-93765856D01*
X142081819Y-93862046D01*
X142120819Y-93982204D01*
X142162021Y-94083962D01*
X142206083Y-94168527D01*
X142253660Y-94237112D01*
X142305410Y-94290927D01*
X142361989Y-94331181D01*
X142384496Y-94342814D01*
X142428734Y-94362942D01*
X142485711Y-94386968D01*
X142551603Y-94413397D01*
X142622585Y-94440736D01*
X142694834Y-94467488D01*
X142764525Y-94492159D01*
X142827835Y-94513255D01*
X142859897Y-94522353D01*
X142930939Y-94537713D01*
X143020057Y-94552362D01*
X143125722Y-94566160D01*
X143246403Y-94578965D01*
X143380571Y-94590636D01*
X143526694Y-94601033D01*
X143683244Y-94610014D01*
X143848690Y-94617439D01*
X144021501Y-94623166D01*
X144080897Y-94625119D01*
X144227111Y-94632109D01*
X144386553Y-94642325D01*
X144554446Y-94655326D01*
X144726014Y-94670669D01*
X144896478Y-94687910D01*
X145061064Y-94706608D01*
X145214994Y-94726319D01*
X145353490Y-94746601D01*
X145375163Y-94750024D01*
X145442744Y-94760666D01*
X145510623Y-94771315D01*
X145571952Y-94780899D01*
X145619888Y-94788345D01*
X145669265Y-94796955D01*
X145731884Y-94809414D01*
X145798380Y-94823841D01*
X145860671Y-94838549D01*
X145948507Y-94859893D01*
X146047792Y-94882955D01*
X146145556Y-94904636D01*
X146239179Y-94924413D01*
X146326041Y-94941764D01*
X146403522Y-94956168D01*
X146468999Y-94967104D01*
X146519854Y-94974049D01*
X146553465Y-94976481D01*
X146553542Y-94976481D01*
X146565238Y-94974369D01*
X146572449Y-94965099D01*
X146576901Y-94944230D01*
X146580316Y-94907322D01*
X146582521Y-94888001D01*
X146591206Y-94843779D01*
X146606358Y-94786071D01*
X146628471Y-94713076D01*
X146658037Y-94622994D01*
X146659561Y-94618455D01*
X146686308Y-94534163D01*
X146715403Y-94434891D01*
X146745593Y-94325524D01*
X146775630Y-94210945D01*
X146804262Y-94096038D01*
X146830239Y-93985687D01*
X146852311Y-93884774D01*
X146869227Y-93798185D01*
X146880413Y-93728499D01*
X146895494Y-93595655D01*
X146902937Y-93464025D01*
X146902120Y-93342235D01*
X146900395Y-93301837D01*
X146897965Y-93240544D01*
X146895188Y-93167028D01*
X146892226Y-93085676D01*
X146889242Y-93000879D01*
X146886396Y-92917023D01*
X146884884Y-92872747D01*
X146881620Y-92788515D01*
X146878146Y-92718830D01*
X146874102Y-92659610D01*
X146869131Y-92606770D01*
X146862875Y-92556228D01*
X146854975Y-92503901D01*
X146845074Y-92445704D01*
X146835465Y-92392937D01*
X146811508Y-92276383D01*
X146784386Y-92166436D01*
X146751961Y-92054855D01*
X146712094Y-91933401D01*
X146685210Y-91855394D01*
X146648757Y-91751133D01*
X146617502Y-91663903D01*
X146590874Y-91592179D01*
X146568304Y-91534436D01*
X146549222Y-91489151D01*
X146533056Y-91454799D01*
X146529059Y-91446998D01*
X146455388Y-91325825D01*
X146362405Y-91208963D01*
X146250971Y-91097381D01*
X146121945Y-90992047D01*
X146067099Y-90952814D01*
X145981428Y-90897725D01*
X145894102Y-90849917D01*
X145801980Y-90808152D01*
X145701923Y-90771192D01*
X145590792Y-90737797D01*
X145465448Y-90706730D01*
X145322752Y-90676752D01*
X145290221Y-90670464D01*
X145251880Y-90663563D01*
X145217011Y-90658332D01*
X145182188Y-90654564D01*
X145143990Y-90652050D01*
X145098993Y-90650582D01*
X145043774Y-90649953D01*
X144974910Y-90649953D01*
X144888978Y-90650376D01*
X144805822Y-90651320D01*
X144691857Y-90654613D01*
X144586724Y-90660662D01*
X144486396Y-90670030D01*
X144386842Y-90683280D01*
X144284035Y-90700974D01*
X144173947Y-90723676D01*
X144052549Y-90751948D01*
X143915811Y-90786353D01*
X143798506Y-90819321D01*
X143674087Y-90861800D01*
X143558118Y-90910891D01*
X143446630Y-90968677D01*
X143335652Y-91037243D01*
X143221217Y-91118673D01*
X143099355Y-91215050D01*
X143012870Y-91289756D01*
X142910474Y-91387320D01*
X142806181Y-91496746D01*
X142698422Y-91619765D01*
X142585627Y-91758111D01*
X142466224Y-91913514D01*
X142378241Y-92037677D01*
X142278117Y-92198042D01*
X142190103Y-92361608D01*
X142115368Y-92525758D01*
X142055080Y-92687879D01*
X142010410Y-92845354D01*
X141982526Y-92995568D01*
X141979267Y-93022357D01*
X141970473Y-93154410D01*
X141614760Y-93154410D01*
X141617552Y-93097646D01*
X141632153Y-92967017D01*
X141655380Y-92835023D01*
X141687812Y-92697674D01*
X141730028Y-92550980D01*
X141782606Y-92390949D01*
X141822718Y-92287200D01*
X141876790Y-92168832D01*
X141941657Y-92043203D01*
X142015422Y-91913981D01*
X142096188Y-91784833D01*
X142104921Y-91771756D01*
X142140659Y-91721426D01*
X142186729Y-91659950D01*
X142240598Y-91590457D01*
X142299729Y-91516080D01*
X142361586Y-91439949D01*
X142423635Y-91365195D01*
X142483340Y-91294949D01*
X142538165Y-91232342D01*
X142585574Y-91180505D01*
X142592241Y-91173496D01*
X142659827Y-91106825D01*
X142740295Y-91033820D01*
X142829320Y-90958066D01*
X142922576Y-90883152D01*
X143015737Y-90812663D01*
X143104479Y-90750188D01*
X143115115Y-90743179D01*
X143170617Y-90709596D01*
X143239492Y-90671475D01*
X143317097Y-90631121D01*
X143398786Y-90590838D01*
X143479914Y-90552930D01*
X143555835Y-90519703D01*
X143621905Y-90493461D01*
X143634996Y-90488721D01*
X143717697Y-90461682D01*
X143815399Y-90433683D01*
X143923558Y-90405753D01*
X144037627Y-90378923D01*
X144153060Y-90354221D01*
X144265311Y-90332677D01*
X144369834Y-90315321D01*
X144462082Y-90303182D01*
X144472414Y-90302176D01*
X144517213Y-90299114D01*
X144577670Y-90296313D01*
X144650115Y-90293883D01*
X144730876Y-90291935D01*
X144816282Y-90290579D01*
X144902663Y-90289925D01*
X144993356Y-90289905D01*
X145097273Y-90291001D01*
G37*
G36*
X145159352Y-96408045D02*
G01*
X145281719Y-96411365D01*
X145392167Y-96417102D01*
X145494081Y-96425632D01*
X145590849Y-96437328D01*
X145685857Y-96452569D01*
X145782493Y-96471728D01*
X145884144Y-96495182D01*
X145994195Y-96523307D01*
X146090203Y-96549446D01*
X146185549Y-96577680D01*
X146266468Y-96605114D01*
X146336039Y-96633301D01*
X146397343Y-96663797D01*
X146453458Y-96698154D01*
X146507462Y-96737929D01*
X146562436Y-96784674D01*
X146621457Y-96839945D01*
X146643107Y-96861475D01*
X146741573Y-96976386D01*
X146825498Y-97104330D01*
X146893434Y-97242836D01*
X146943928Y-97389432D01*
X146948773Y-97407158D01*
X146956298Y-97436445D01*
X146962010Y-97463377D01*
X146966160Y-97491218D01*
X146969000Y-97523232D01*
X146970780Y-97562682D01*
X146971751Y-97612832D01*
X146972163Y-97676947D01*
X146972268Y-97758290D01*
X146972272Y-97777730D01*
X146972148Y-97855489D01*
X146971631Y-97916478D01*
X146970510Y-97963758D01*
X146968571Y-98000385D01*
X146965602Y-98029419D01*
X146961389Y-98053916D01*
X146955721Y-98076935D01*
X146948384Y-98101533D01*
X146920083Y-98179547D01*
X146884512Y-98250311D01*
X146840369Y-98312939D01*
X146785340Y-98369809D01*
X146717110Y-98423301D01*
X146633364Y-98475793D01*
X146531788Y-98529664D01*
X146469566Y-98559470D01*
X146374291Y-98599456D01*
X146280833Y-98630670D01*
X146180797Y-98656135D01*
X146172600Y-98657934D01*
X146144976Y-98663493D01*
X146117039Y-98668027D01*
X146086266Y-98671674D01*
X146050135Y-98674575D01*
X146006123Y-98676871D01*
X145951709Y-98678700D01*
X145884369Y-98680205D01*
X145801583Y-98681524D01*
X145700826Y-98682797D01*
X145684707Y-98682982D01*
X145572437Y-98683974D01*
X145477194Y-98684175D01*
X145395925Y-98683520D01*
X145325576Y-98681944D01*
X145263097Y-98679382D01*
X145205432Y-98675769D01*
X145149530Y-98671039D01*
X145146390Y-98670744D01*
X145075102Y-98665219D01*
X144993967Y-98660802D01*
X144906016Y-98657494D01*
X144814280Y-98655295D01*
X144721789Y-98654205D01*
X144631574Y-98654225D01*
X144546667Y-98655354D01*
X144470098Y-98657594D01*
X144404899Y-98660944D01*
X144354099Y-98665404D01*
X144320731Y-98670975D01*
X144288980Y-98679917D01*
X144230636Y-98702315D01*
X144185007Y-98730558D01*
X144146767Y-98767603D01*
X144131559Y-98786877D01*
X144111744Y-98820334D01*
X144097850Y-98859010D01*
X144089006Y-98906687D01*
X144084340Y-98967146D01*
X144082978Y-99044171D01*
X144083040Y-99065695D01*
X144084622Y-99127881D01*
X144089486Y-99175510D01*
X144099152Y-99213145D01*
X144115143Y-99245347D01*
X144138979Y-99276680D01*
X144172181Y-99311705D01*
X144190965Y-99329592D01*
X144263820Y-99387762D01*
X144352066Y-99444784D01*
X144451843Y-99498690D01*
X144559292Y-99547517D01*
X144670553Y-99589299D01*
X144781766Y-99622071D01*
X144800007Y-99626622D01*
X144849582Y-99638471D01*
X144894714Y-99648098D01*
X144938964Y-99655957D01*
X144985889Y-99662504D01*
X145039048Y-99668192D01*
X145102001Y-99673478D01*
X145178306Y-99678814D01*
X145271522Y-99684657D01*
X145296816Y-99686196D01*
X145388971Y-99691975D01*
X145466714Y-99697566D01*
X145533404Y-99703713D01*
X145592396Y-99711162D01*
X145647050Y-99720658D01*
X145700721Y-99732948D01*
X145756767Y-99748776D01*
X145818544Y-99768889D01*
X145889411Y-99794031D01*
X145972724Y-99824949D01*
X146071840Y-99862387D01*
X146154334Y-99894649D01*
X146231989Y-99928140D01*
X146295361Y-99960033D01*
X146347412Y-99992184D01*
X146391106Y-100026448D01*
X146429403Y-100064678D01*
X146465266Y-100108731D01*
X146476339Y-100123757D01*
X146542978Y-100227559D01*
X146594656Y-100335546D01*
X146632050Y-100450262D01*
X146655839Y-100574253D01*
X146666699Y-100710064D01*
X146665308Y-100860240D01*
X146664303Y-100880022D01*
X146654784Y-100990075D01*
X146638057Y-101097327D01*
X146612876Y-101208485D01*
X146577994Y-101330258D01*
X146553762Y-101397984D01*
X146517156Y-101471617D01*
X146470779Y-101536862D01*
X146412030Y-101596718D01*
X146338310Y-101654186D01*
X146247018Y-101712267D01*
X146244132Y-101713962D01*
X146187073Y-101745487D01*
X146141203Y-101765591D01*
X146101818Y-101775478D01*
X146064219Y-101776349D01*
X146023702Y-101769408D01*
X145996346Y-101759787D01*
X145949857Y-101732308D01*
X145907309Y-101695175D01*
X145876040Y-101654119D01*
X145874469Y-101651504D01*
X145867766Y-101644664D01*
X145856131Y-101641048D01*
X145835710Y-101640448D01*
X145802647Y-101642654D01*
X145753087Y-101647458D01*
X145728994Y-101649643D01*
X145651406Y-101654074D01*
X145562020Y-101656176D01*
X145465440Y-101656079D01*
X145451589Y-101655776D01*
X145366274Y-101653912D01*
X145269127Y-101649808D01*
X145178606Y-101643895D01*
X145099315Y-101636304D01*
X145035862Y-101627165D01*
X145017873Y-101623787D01*
X144948767Y-101609731D01*
X144864713Y-101591372D01*
X144769368Y-101569595D01*
X144666387Y-101545284D01*
X144559428Y-101519322D01*
X144452148Y-101492594D01*
X144348203Y-101465983D01*
X144251250Y-101440373D01*
X144164946Y-101416649D01*
X144110923Y-101401932D01*
X144021122Y-101379013D01*
X143925397Y-101356046D01*
X143832199Y-101335039D01*
X143749981Y-101318001D01*
X143722144Y-101312581D01*
X143575423Y-101283878D01*
X143446522Y-101258345D01*
X143333461Y-101235506D01*
X143234258Y-101214886D01*
X143146934Y-101196006D01*
X143069507Y-101178390D01*
X142999998Y-101161561D01*
X142936424Y-101145044D01*
X142876807Y-101128360D01*
X142819165Y-101111034D01*
X142761517Y-101092588D01*
X142701883Y-101072547D01*
X142638282Y-101050432D01*
X142550769Y-101018292D01*
X142435258Y-100970072D01*
X142334721Y-100919370D01*
X142245886Y-100863814D01*
X142165482Y-100801032D01*
X142090238Y-100728651D01*
X142016885Y-100644300D01*
X141942149Y-100545607D01*
X141931270Y-100529880D01*
X141896523Y-100474236D01*
X141856874Y-100404376D01*
X141814092Y-100323936D01*
X141769945Y-100236551D01*
X141726199Y-100145855D01*
X141684623Y-100055484D01*
X141646984Y-99969072D01*
X141615050Y-99890255D01*
X141590588Y-99822668D01*
X141579031Y-99787467D01*
X141542945Y-99671570D01*
X141514383Y-99567891D01*
X141492314Y-99471531D01*
X141475705Y-99377591D01*
X141463527Y-99281170D01*
X141454747Y-99177370D01*
X141452889Y-99143906D01*
X141450725Y-99081653D01*
X141449245Y-99006928D01*
X141448414Y-98922477D01*
X141448197Y-98831048D01*
X141448559Y-98735387D01*
X141449463Y-98638241D01*
X141450221Y-98586795D01*
X141763061Y-98586795D01*
X141763090Y-98692595D01*
X141764503Y-98801994D01*
X141767218Y-98911551D01*
X141771150Y-99017827D01*
X141776219Y-99117384D01*
X141782341Y-99206782D01*
X141789434Y-99282582D01*
X141797414Y-99341345D01*
X141797438Y-99341484D01*
X141810066Y-99406475D01*
X141827408Y-99483576D01*
X141847810Y-99566327D01*
X141869617Y-99648272D01*
X141891174Y-99722952D01*
X141910826Y-99783909D01*
X141914166Y-99793009D01*
X141931711Y-99834914D01*
X141956833Y-99889416D01*
X141987503Y-99952483D01*
X142021692Y-100020082D01*
X142057372Y-100088182D01*
X142092513Y-100152750D01*
X142125087Y-100209755D01*
X142181406Y-100296652D01*
X142247873Y-100384895D01*
X142320641Y-100470088D01*
X142396124Y-100548283D01*
X142470738Y-100615529D01*
X142540896Y-100667876D01*
X142589783Y-100697445D01*
X142655187Y-100733177D01*
X142730581Y-100771615D01*
X142811257Y-100810490D01*
X142892505Y-100847537D01*
X142969615Y-100880490D01*
X143037879Y-100907080D01*
X143081186Y-100922164D01*
X143166402Y-100949294D01*
X143266140Y-100978546D01*
X143376893Y-101008969D01*
X143495155Y-101039610D01*
X143617420Y-101069517D01*
X143740183Y-101097739D01*
X143797981Y-101110842D01*
X143886644Y-101131667D01*
X143979284Y-101154112D01*
X144067890Y-101176228D01*
X144144454Y-101196067D01*
X144159868Y-101200159D01*
X144340456Y-101246809D01*
X144505028Y-101286528D01*
X144656476Y-101319667D01*
X144797694Y-101346577D01*
X144931575Y-101367610D01*
X145061011Y-101383116D01*
X145188897Y-101393447D01*
X145318126Y-101398953D01*
X145451589Y-101399986D01*
X145592181Y-101396897D01*
X145742794Y-101390037D01*
X145807792Y-101386344D01*
X145864152Y-101382336D01*
X145907278Y-101377399D01*
X145940982Y-101370460D01*
X145969073Y-101360443D01*
X145995359Y-101346274D01*
X146023652Y-101326879D01*
X146057760Y-101301182D01*
X146072571Y-101289399D01*
X146109868Y-101253529D01*
X146139668Y-101212903D01*
X146162820Y-101164924D01*
X146180173Y-101106991D01*
X146192576Y-101036506D01*
X146200879Y-100950868D01*
X146205929Y-100847479D01*
X146207271Y-100787870D01*
X146205603Y-100684007D01*
X146197639Y-100596863D01*
X146182711Y-100524393D01*
X146160150Y-100464555D01*
X146129287Y-100415303D01*
X146089452Y-100374593D01*
X146039977Y-100340382D01*
X146036111Y-100338269D01*
X146009908Y-100325970D01*
X145968940Y-100308462D01*
X145916784Y-100287211D01*
X145857012Y-100263679D01*
X145793202Y-100239331D01*
X145769373Y-100230398D01*
X145710862Y-100208791D01*
X145660483Y-100191192D01*
X145615060Y-100177020D01*
X145571417Y-100165691D01*
X145526378Y-100156622D01*
X145476766Y-100149230D01*
X145419404Y-100142932D01*
X145351117Y-100137145D01*
X145268728Y-100131286D01*
X145169061Y-100124772D01*
X145101867Y-100119954D01*
X144941094Y-100103539D01*
X144794076Y-100080464D01*
X144656437Y-100049653D01*
X144523801Y-100010028D01*
X144391794Y-99960513D01*
X144256042Y-99900030D01*
X144232701Y-99888751D01*
X144095281Y-99815162D01*
X143977293Y-99738233D01*
X143877942Y-99657141D01*
X143796433Y-99571065D01*
X143731971Y-99479182D01*
X143683760Y-99380670D01*
X143651004Y-99274708D01*
X143649010Y-99265758D01*
X143642199Y-99228433D01*
X143637404Y-99187123D01*
X143634348Y-99137706D01*
X143632751Y-99076060D01*
X143632336Y-98998064D01*
X143632342Y-98992215D01*
X143632582Y-98924877D01*
X143633390Y-98873871D01*
X143635159Y-98835333D01*
X143638282Y-98805395D01*
X143643150Y-98780191D01*
X143650156Y-98755854D01*
X143659693Y-98728518D01*
X143697704Y-98639722D01*
X143759512Y-98535937D01*
X143834426Y-98445787D01*
X143921072Y-98370866D01*
X144018076Y-98312769D01*
X144059522Y-98293093D01*
X144104359Y-98273310D01*
X144146144Y-98257482D01*
X144187821Y-98245119D01*
X144232332Y-98235738D01*
X144282620Y-98228850D01*
X144341628Y-98223970D01*
X144412300Y-98220610D01*
X144497577Y-98218285D01*
X144600404Y-98216508D01*
X144736267Y-98215291D01*
X144880703Y-98216196D01*
X145007417Y-98219689D01*
X145117831Y-98225794D01*
X145196741Y-98230367D01*
X145295924Y-98234055D01*
X145408593Y-98236546D01*
X145531178Y-98237761D01*
X145660111Y-98237623D01*
X145733212Y-98237129D01*
X145813559Y-98236424D01*
X145878159Y-98235500D01*
X145929709Y-98234182D01*
X145970908Y-98232297D01*
X146004453Y-98229671D01*
X146033043Y-98226131D01*
X146059375Y-98221504D01*
X146086149Y-98215615D01*
X146116061Y-98208291D01*
X146178819Y-98191272D01*
X146251208Y-98168372D01*
X146316214Y-98144323D01*
X146369577Y-98120722D01*
X146407035Y-98099167D01*
X146411941Y-98095604D01*
X146458517Y-98054979D01*
X146498645Y-98008503D01*
X146526162Y-97963211D01*
X146530526Y-97950990D01*
X146538638Y-97912448D01*
X146545177Y-97860089D01*
X146549923Y-97798405D01*
X146552654Y-97731890D01*
X146553150Y-97665035D01*
X146551190Y-97602333D01*
X146546554Y-97548276D01*
X146540100Y-97506365D01*
X146507987Y-97387353D01*
X146456017Y-97272930D01*
X146384123Y-97162969D01*
X146292239Y-97057342D01*
X146290092Y-97055169D01*
X146250063Y-97017504D01*
X146208371Y-96984614D01*
X146161970Y-96954909D01*
X146107817Y-96926802D01*
X146042865Y-96898703D01*
X145964071Y-96869024D01*
X145868390Y-96836175D01*
X145813781Y-96818479D01*
X145711313Y-96788241D01*
X145611910Y-96763453D01*
X145512226Y-96743661D01*
X145408912Y-96728410D01*
X145298621Y-96717247D01*
X145178007Y-96709717D01*
X145043721Y-96705366D01*
X144892417Y-96703739D01*
X144703159Y-96705518D01*
X144488864Y-96714063D01*
X144285908Y-96730139D01*
X144089866Y-96754308D01*
X143896311Y-96787134D01*
X143700815Y-96829179D01*
X143498952Y-96881007D01*
X143451928Y-96894072D01*
X143335694Y-96927671D01*
X143233753Y-96959648D01*
X143141858Y-96991747D01*
X143055760Y-97025708D01*
X142971212Y-97063274D01*
X142883966Y-97106185D01*
X142789774Y-97156185D01*
X142684390Y-97215015D01*
X142671990Y-97222067D01*
X142581399Y-97274551D01*
X142504273Y-97321526D01*
X142436223Y-97366114D01*
X142372859Y-97411438D01*
X142309791Y-97460619D01*
X142242630Y-97516782D01*
X142166985Y-97583049D01*
X142139838Y-97607412D01*
X142082423Y-97661224D01*
X142036170Y-97709053D01*
X141997271Y-97755290D01*
X141961916Y-97804328D01*
X141926298Y-97860557D01*
X141893330Y-97916856D01*
X141851811Y-97996354D01*
X141820957Y-98070322D01*
X141798809Y-98144593D01*
X141783406Y-98224996D01*
X141772789Y-98317362D01*
X141772105Y-98325373D01*
X141767486Y-98399745D01*
X141764499Y-98488032D01*
X141763061Y-98586795D01*
X141450221Y-98586795D01*
X141450875Y-98542357D01*
X141452759Y-98450482D01*
X141455080Y-98365363D01*
X141457802Y-98289746D01*
X141460890Y-98226380D01*
X141464309Y-98178010D01*
X141468023Y-98147384D01*
X141478182Y-98097523D01*
X141524366Y-97937209D01*
X141589895Y-97783513D01*
X141674644Y-97636695D01*
X141778489Y-97497015D01*
X141826122Y-97442925D01*
X141925832Y-97343599D01*
X142041099Y-97243275D01*
X142169002Y-97143865D01*
X142306617Y-97047278D01*
X142451023Y-96955425D01*
X142599297Y-96870216D01*
X142748517Y-96793561D01*
X142895762Y-96727371D01*
X143038108Y-96673556D01*
X143144913Y-96638988D01*
X143366590Y-96576784D01*
X143597421Y-96524621D01*
X143838971Y-96482282D01*
X144092805Y-96449547D01*
X144360486Y-96426198D01*
X144643579Y-96412015D01*
X144943648Y-96406779D01*
X145021677Y-96406764D01*
X145159352Y-96408045D01*
G37*
G36*
X146156247Y-102323327D02*
G01*
X146191524Y-102330479D01*
X146222310Y-102342391D01*
X146256310Y-102362418D01*
X146309922Y-102409839D01*
X146353669Y-102469147D01*
X146383114Y-102535027D01*
X146391032Y-102566285D01*
X146401118Y-102640077D01*
X146404898Y-102733358D01*
X146402373Y-102846131D01*
X146393542Y-102978396D01*
X146378405Y-103130156D01*
X146356963Y-103301412D01*
X146356152Y-103307387D01*
X146347944Y-103368602D01*
X146337841Y-103444948D01*
X146326451Y-103531773D01*
X146314383Y-103624424D01*
X146302245Y-103718248D01*
X146290645Y-103808593D01*
X146288762Y-103823312D01*
X146277591Y-103910185D01*
X146264410Y-104012093D01*
X146249796Y-104124616D01*
X146234324Y-104243331D01*
X146218571Y-104363817D01*
X146203113Y-104481653D01*
X146188525Y-104592417D01*
X146171773Y-104720672D01*
X146148362Y-104906046D01*
X146128327Y-105073985D01*
X146111585Y-105226168D01*
X146098054Y-105364277D01*
X146087652Y-105489993D01*
X146080295Y-105604996D01*
X146075903Y-105710966D01*
X146074391Y-105809584D01*
X146075679Y-105902532D01*
X146079683Y-105991488D01*
X146086321Y-106078135D01*
X146095511Y-106164152D01*
X146107169Y-106251221D01*
X146108540Y-106260640D01*
X146120039Y-106343508D01*
X146127570Y-106409272D01*
X146130877Y-106460707D01*
X146129707Y-106500587D01*
X146123805Y-106531686D01*
X146112915Y-106556779D01*
X146096784Y-106578640D01*
X146075157Y-106600042D01*
X146065702Y-106608320D01*
X146027287Y-106634390D01*
X145987977Y-106645534D01*
X145939468Y-106644470D01*
X145896532Y-106639659D01*
X145896532Y-106696998D01*
X145895987Y-106713652D01*
X145884349Y-106766279D01*
X145856770Y-106806743D01*
X145812203Y-106836774D01*
X145798464Y-106842980D01*
X145792700Y-106844815D01*
X145782509Y-106848060D01*
X145764218Y-106849908D01*
X145739121Y-106848499D01*
X145702747Y-106843805D01*
X145650626Y-106835800D01*
X145628377Y-106832465D01*
X145592534Y-106827911D01*
X145554210Y-106824241D01*
X145510832Y-106821352D01*
X145459826Y-106819143D01*
X145398621Y-106817511D01*
X145324643Y-106816354D01*
X145235319Y-106815571D01*
X145128077Y-106815058D01*
X145058094Y-106814664D01*
X144959621Y-106813591D01*
X144868595Y-106811992D01*
X144787626Y-106809937D01*
X144719322Y-106807497D01*
X144666291Y-106804741D01*
X144631142Y-106801739D01*
X144602043Y-106798141D01*
X144551252Y-106791792D01*
X144487384Y-106783760D01*
X144414424Y-106774546D01*
X144336355Y-106764653D01*
X144257161Y-106754584D01*
X144154548Y-106741780D01*
X144037459Y-106727990D01*
X143924164Y-106715697D01*
X143809811Y-106704426D01*
X143689545Y-106693705D01*
X143558512Y-106683058D01*
X143411861Y-106672011D01*
X143347863Y-106667030D01*
X143253779Y-106658943D01*
X143154896Y-106649743D01*
X143059631Y-106640222D01*
X142976403Y-106631167D01*
X142910425Y-106623728D01*
X142824317Y-106614352D01*
X142736909Y-106605139D01*
X142655415Y-106596848D01*
X142587052Y-106590237D01*
X142569522Y-106588591D01*
X142490321Y-106580838D01*
X142403378Y-106571925D01*
X142318078Y-106562828D01*
X142243809Y-106554525D01*
X142202163Y-106549882D01*
X142124128Y-106541762D01*
X142038376Y-106533391D01*
X141952714Y-106525521D01*
X141874950Y-106518908D01*
X141865697Y-106518156D01*
X141759812Y-106508614D01*
X141641705Y-106496506D01*
X141514640Y-106482266D01*
X141381880Y-106466333D01*
X141246690Y-106449142D01*
X141112331Y-106431129D01*
X140982069Y-106412731D01*
X140859165Y-106394385D01*
X140746885Y-106376527D01*
X140648490Y-106359593D01*
X140567246Y-106344021D01*
X140515995Y-106332979D01*
X140440063Y-106313793D01*
X140377336Y-106293097D01*
X140323214Y-106269012D01*
X140273097Y-106239659D01*
X140222385Y-106203160D01*
X140212827Y-106195331D01*
X140182538Y-106162579D01*
X140158504Y-106120973D01*
X140139630Y-106067627D01*
X140124824Y-105999652D01*
X140112991Y-105914159D01*
X140111288Y-105891898D01*
X140109557Y-105846478D01*
X140108424Y-105785919D01*
X140107861Y-105713276D01*
X140107841Y-105631603D01*
X140108223Y-105564067D01*
X140546214Y-105564067D01*
X140546700Y-105596372D01*
X140547903Y-105611900D01*
X140549486Y-105621828D01*
X140552323Y-105649666D01*
X140555511Y-105689287D01*
X140558613Y-105735649D01*
X140561013Y-105769881D01*
X140564852Y-105810909D01*
X140568844Y-105841148D01*
X140572433Y-105855757D01*
X140585265Y-105863263D01*
X140616898Y-105873211D01*
X140665256Y-105884928D01*
X140728470Y-105898122D01*
X140804672Y-105912503D01*
X140891992Y-105927780D01*
X140988562Y-105943663D01*
X141092513Y-105959860D01*
X141201975Y-105976081D01*
X141315080Y-105992035D01*
X141429958Y-106007431D01*
X141544741Y-106021979D01*
X141657559Y-106035386D01*
X141766545Y-106047364D01*
X141869827Y-106057621D01*
X141897282Y-106060216D01*
X141969812Y-106067356D01*
X142043795Y-106074978D01*
X142111942Y-106082322D01*
X142166963Y-106088628D01*
X142175801Y-106089673D01*
X142222359Y-106094884D01*
X142284523Y-106101513D01*
X142358465Y-106109169D01*
X142440355Y-106117457D01*
X142526366Y-106125986D01*
X142612667Y-106134362D01*
X142635249Y-106136538D01*
X142721427Y-106144997D01*
X142806019Y-106153530D01*
X142885260Y-106161742D01*
X142955388Y-106169240D01*
X143012638Y-106175629D01*
X143053248Y-106180514D01*
X143055874Y-106180851D01*
X143104714Y-106186716D01*
X143168141Y-106193786D01*
X143240697Y-106201482D01*
X143316925Y-106209224D01*
X143391368Y-106216431D01*
X143425914Y-106219698D01*
X143544272Y-106231189D01*
X143656482Y-106242632D01*
X143766320Y-106254464D01*
X143877559Y-106267123D01*
X143993972Y-106281045D01*
X144119333Y-106296669D01*
X144257417Y-106314432D01*
X144411995Y-106334772D01*
X144428274Y-106336925D01*
X144526619Y-106349621D01*
X144624477Y-106361769D01*
X144718547Y-106372990D01*
X144805525Y-106382907D01*
X144882111Y-106391141D01*
X144945002Y-106397315D01*
X144990898Y-106401050D01*
X145085605Y-106408168D01*
X145251377Y-106425735D01*
X145403673Y-106449291D01*
X145546688Y-106479539D01*
X145684616Y-106517180D01*
X145707839Y-106524152D01*
X145751509Y-106536406D01*
X145779046Y-106542389D01*
X145792700Y-106542510D01*
X145794725Y-106537178D01*
X145793032Y-106531330D01*
X145788452Y-106504007D01*
X145783713Y-106462183D01*
X145779132Y-106410147D01*
X145775026Y-106352188D01*
X145771712Y-106292598D01*
X145769508Y-106235665D01*
X145768731Y-106185680D01*
X145769982Y-106128815D01*
X145779608Y-106010608D01*
X145799093Y-105881340D01*
X145828867Y-105737808D01*
X145836550Y-105703928D01*
X145856325Y-105609714D01*
X145874337Y-105512152D01*
X145890993Y-105408386D01*
X145906702Y-105295562D01*
X145921871Y-105170824D01*
X145936909Y-105031317D01*
X145952222Y-104874184D01*
X145952680Y-104869280D01*
X145967790Y-104704904D01*
X145980738Y-104557681D01*
X145991669Y-104424492D01*
X146000727Y-104302215D01*
X146008057Y-104187729D01*
X146013804Y-104077916D01*
X146018110Y-103969654D01*
X146021122Y-103859822D01*
X146022983Y-103745301D01*
X146023837Y-103622970D01*
X146023829Y-103489709D01*
X146023104Y-103342397D01*
X146022860Y-103301936D01*
X146022466Y-103198480D01*
X146022417Y-103100828D01*
X146022694Y-103011077D01*
X146023280Y-102931325D01*
X146024155Y-102863671D01*
X146025300Y-102810214D01*
X146026697Y-102773051D01*
X146028328Y-102754281D01*
X146037171Y-102709207D01*
X145971975Y-102715813D01*
X145954816Y-102717314D01*
X145912380Y-102720224D01*
X145857728Y-102723337D01*
X145796065Y-102726364D01*
X145732595Y-102729020D01*
X145730706Y-102729092D01*
X145667401Y-102731377D01*
X145620462Y-102732489D01*
X145585881Y-102732087D01*
X145559652Y-102729834D01*
X145537768Y-102725391D01*
X145516223Y-102718417D01*
X145491008Y-102708574D01*
X145486145Y-102706635D01*
X145438138Y-102689551D01*
X145405201Y-102682782D01*
X145385010Y-102686145D01*
X145375243Y-102699456D01*
X145374814Y-102701028D01*
X145370289Y-102723838D01*
X145364052Y-102762633D01*
X145356634Y-102813534D01*
X145348567Y-102872663D01*
X145340382Y-102936141D01*
X145332609Y-103000089D01*
X145325781Y-103060630D01*
X145323295Y-103088957D01*
X145319922Y-103148309D01*
X145317240Y-103223550D01*
X145315321Y-103311877D01*
X145314238Y-103410488D01*
X145314061Y-103516580D01*
X145314927Y-103637335D01*
X145317404Y-103762841D01*
X145321813Y-103878805D01*
X145328519Y-103990164D01*
X145337883Y-104101854D01*
X145350270Y-104218811D01*
X145366042Y-104345972D01*
X145385563Y-104488271D01*
X145387295Y-104500512D01*
X145400655Y-104599586D01*
X145410125Y-104681224D01*
X145415703Y-104747843D01*
X145417387Y-104801856D01*
X145415174Y-104845680D01*
X145409062Y-104881730D01*
X145399048Y-104912421D01*
X145385131Y-104940167D01*
X145366929Y-104965753D01*
X145321432Y-105009938D01*
X145261047Y-105052512D01*
X145189279Y-105091429D01*
X145109634Y-105124643D01*
X145025616Y-105150105D01*
X144866269Y-105183970D01*
X144676163Y-105212625D01*
X144481027Y-105230564D01*
X144287899Y-105236958D01*
X144241147Y-105236969D01*
X144185573Y-105236503D01*
X144144081Y-105235124D01*
X144112822Y-105232457D01*
X144087953Y-105228128D01*
X144065625Y-105221761D01*
X144041994Y-105212982D01*
X144012812Y-105199791D01*
X143957820Y-105163603D01*
X143917188Y-105119624D01*
X143893935Y-105070751D01*
X143892544Y-105065252D01*
X143888036Y-105036983D01*
X143887114Y-105002819D01*
X143890049Y-104959960D01*
X143897109Y-104905608D01*
X143908565Y-104836965D01*
X143924686Y-104751231D01*
X143931274Y-104716499D01*
X143941061Y-104660782D01*
X143950215Y-104602661D01*
X143958869Y-104540630D01*
X143967158Y-104473183D01*
X143975215Y-104398816D01*
X143983176Y-104316024D01*
X143991174Y-104223300D01*
X143999343Y-104119140D01*
X144007819Y-104002037D01*
X144016734Y-103870487D01*
X144026223Y-103722985D01*
X144036420Y-103558024D01*
X144047460Y-103374100D01*
X144050991Y-103316973D01*
X144056978Y-103228613D01*
X144063303Y-103144124D01*
X144069686Y-103066825D01*
X144075849Y-103000035D01*
X144081512Y-102947071D01*
X144086395Y-102911254D01*
X144104108Y-102806054D01*
X144011575Y-102800429D01*
X144009322Y-102800292D01*
X143885059Y-102794131D01*
X143753009Y-102790289D01*
X143610024Y-102788732D01*
X143452957Y-102789424D01*
X143278662Y-102792332D01*
X143260979Y-102792714D01*
X143167243Y-102794588D01*
X143090936Y-102795705D01*
X143029442Y-102795953D01*
X142980147Y-102795220D01*
X142940437Y-102793395D01*
X142907696Y-102790365D01*
X142879312Y-102786018D01*
X142852669Y-102780243D01*
X142825153Y-102772928D01*
X142807915Y-102768253D01*
X142784886Y-102764239D01*
X142770162Y-102767683D01*
X142756347Y-102779267D01*
X142753505Y-102782916D01*
X142742055Y-102806150D01*
X142727281Y-102844958D01*
X142710176Y-102896028D01*
X142691730Y-102956049D01*
X142672937Y-103021712D01*
X142654789Y-103089706D01*
X142638278Y-103156720D01*
X142624397Y-103219444D01*
X142616072Y-103262065D01*
X142601040Y-103348089D01*
X142585832Y-103445016D01*
X142571294Y-103546817D01*
X142558269Y-103647463D01*
X142547601Y-103740926D01*
X142540135Y-103821176D01*
X142537457Y-103867483D01*
X142535216Y-103930512D01*
X142533524Y-104005507D01*
X142532454Y-104088181D01*
X142532083Y-104174248D01*
X142532484Y-104259420D01*
X142533189Y-104343803D01*
X142533427Y-104416364D01*
X142533030Y-104473501D01*
X142531892Y-104517827D01*
X142529905Y-104551957D01*
X142526963Y-104578503D01*
X142522960Y-104600079D01*
X142517788Y-104619297D01*
X142513236Y-104632667D01*
X142480041Y-104692833D01*
X142429713Y-104744106D01*
X142364189Y-104784401D01*
X142362163Y-104785345D01*
X142309377Y-104805906D01*
X142238454Y-104827608D01*
X142151580Y-104850033D01*
X142050945Y-104872761D01*
X141938738Y-104895374D01*
X141817145Y-104917451D01*
X141688357Y-104938573D01*
X141554561Y-104958321D01*
X141417946Y-104976276D01*
X141280700Y-104992018D01*
X141254109Y-104994856D01*
X141183974Y-105002623D01*
X141120447Y-105010239D01*
X141059710Y-105018278D01*
X140997944Y-105027318D01*
X140931331Y-105037933D01*
X140856052Y-105050699D01*
X140768289Y-105066194D01*
X140664222Y-105084991D01*
X140664089Y-105085015D01*
X140618469Y-105093693D01*
X140589131Y-105100805D01*
X140572135Y-105108024D01*
X140563537Y-105117024D01*
X140559396Y-105129476D01*
X140557549Y-105145648D01*
X140555475Y-105178972D01*
X140553412Y-105225119D01*
X140551449Y-105280387D01*
X140549674Y-105341078D01*
X140548175Y-105403491D01*
X140547039Y-105463926D01*
X140546357Y-105518685D01*
X140546214Y-105564067D01*
X140108223Y-105564067D01*
X140108337Y-105543957D01*
X140109321Y-105453393D01*
X140110766Y-105362967D01*
X140112645Y-105275732D01*
X140114929Y-105194745D01*
X140117593Y-105123061D01*
X140120608Y-105063736D01*
X140120830Y-105060114D01*
X140124653Y-105006434D01*
X140129059Y-104967903D01*
X140135101Y-104939472D01*
X140143833Y-104916092D01*
X140156310Y-104892716D01*
X140172783Y-104866864D01*
X140225508Y-104802816D01*
X140287345Y-104748733D01*
X140352696Y-104709825D01*
X140396765Y-104692404D01*
X140479231Y-104668273D01*
X140581550Y-104646364D01*
X140703407Y-104626723D01*
X140844485Y-104609401D01*
X141004470Y-104594445D01*
X141183046Y-104581904D01*
X141244645Y-104577842D01*
X141356186Y-104568885D01*
X141469326Y-104557947D01*
X141581614Y-104545388D01*
X141690599Y-104531565D01*
X141793832Y-104516837D01*
X141888862Y-104501562D01*
X141973239Y-104486100D01*
X142044513Y-104470808D01*
X142100233Y-104456046D01*
X142137950Y-104442172D01*
X142139441Y-104441444D01*
X142157286Y-104428353D01*
X142167487Y-104408667D01*
X142170393Y-104379158D01*
X142166353Y-104336594D01*
X142155717Y-104277744D01*
X142148998Y-104242434D01*
X142143949Y-104205140D01*
X142142527Y-104169221D01*
X142144521Y-104127463D01*
X142149721Y-104072648D01*
X142157500Y-104009329D01*
X142172638Y-103910062D01*
X142193431Y-103791648D01*
X142219823Y-103654381D01*
X142251755Y-103498554D01*
X142289172Y-103324462D01*
X142332015Y-103132398D01*
X142333924Y-103123957D01*
X142350066Y-103051608D01*
X142367530Y-102971920D01*
X142384335Y-102893995D01*
X142398501Y-102826933D01*
X142401572Y-102812306D01*
X142422266Y-102722333D01*
X142442990Y-102649988D01*
X142465076Y-102592813D01*
X142489853Y-102548353D01*
X142518652Y-102514153D01*
X142552803Y-102487756D01*
X142593637Y-102466706D01*
X142636143Y-102453405D01*
X142701289Y-102442021D01*
X142785438Y-102433926D01*
X142887946Y-102429160D01*
X143008169Y-102427769D01*
X143145463Y-102429794D01*
X143154155Y-102430019D01*
X143259526Y-102432945D01*
X143369399Y-102436326D01*
X143481689Y-102440074D01*
X143594317Y-102444100D01*
X143705198Y-102448315D01*
X143812253Y-102452630D01*
X143913398Y-102456957D01*
X144006552Y-102461206D01*
X144089632Y-102465289D01*
X144160558Y-102469117D01*
X144217246Y-102472601D01*
X144257615Y-102475652D01*
X144279583Y-102478181D01*
X144316308Y-102487488D01*
X144374977Y-102516576D01*
X144419629Y-102560539D01*
X144450054Y-102619135D01*
X144466042Y-102692123D01*
X144468818Y-102723208D01*
X144470096Y-102757626D01*
X144469123Y-102794214D01*
X144465551Y-102835514D01*
X144459034Y-102884065D01*
X144449226Y-102942406D01*
X144435782Y-103013079D01*
X144418353Y-103098624D01*
X144396596Y-103201579D01*
X144383600Y-103262728D01*
X144363448Y-103359329D01*
X144345208Y-103449638D01*
X144328371Y-103536613D01*
X144312426Y-103623210D01*
X144296864Y-103712385D01*
X144281172Y-103807095D01*
X144264842Y-103910295D01*
X144247363Y-104024942D01*
X144228225Y-104153993D01*
X144206917Y-104300404D01*
X144200138Y-104347324D01*
X144183174Y-104465202D01*
X144168971Y-104564978D01*
X144157361Y-104648251D01*
X144148175Y-104716619D01*
X144141245Y-104771682D01*
X144136402Y-104815037D01*
X144133478Y-104848283D01*
X144132304Y-104873020D01*
X144132712Y-104890845D01*
X144134534Y-104903357D01*
X144137601Y-104912155D01*
X144141744Y-104918838D01*
X144144314Y-104922094D01*
X144152478Y-104929104D01*
X144164918Y-104932778D01*
X144185653Y-104933348D01*
X144218701Y-104931043D01*
X144268080Y-104926096D01*
X144373941Y-104913904D01*
X144485458Y-104898954D01*
X144592329Y-104882580D01*
X144689281Y-104865595D01*
X144771038Y-104848807D01*
X144797754Y-104842774D01*
X144871194Y-104825950D01*
X144927633Y-104811040D01*
X144969218Y-104795529D01*
X144998097Y-104776901D01*
X145016418Y-104752642D01*
X145026328Y-104720237D01*
X145029975Y-104677171D01*
X145029506Y-104620931D01*
X145027068Y-104549000D01*
X145025933Y-104499228D01*
X145025814Y-104402258D01*
X145027764Y-104289600D01*
X145031643Y-104164169D01*
X145037308Y-104028879D01*
X145044617Y-103886644D01*
X145053430Y-103740377D01*
X145063604Y-103592994D01*
X145074998Y-103447409D01*
X145087469Y-103306535D01*
X145089047Y-103289074D01*
X145094107Y-103225082D01*
X145099377Y-103148174D01*
X145104504Y-103064023D01*
X145109136Y-102978305D01*
X145112920Y-102896693D01*
X145115052Y-102849478D01*
X145118771Y-102780090D01*
X145122804Y-102717631D01*
X145126901Y-102665489D01*
X145130815Y-102627052D01*
X145134295Y-102605707D01*
X145141347Y-102587649D01*
X145164264Y-102550349D01*
X145197224Y-102510730D01*
X145214852Y-102492830D01*
X145237728Y-102473113D01*
X145262488Y-102457459D01*
X145292218Y-102444866D01*
X145330003Y-102434331D01*
X145378930Y-102424853D01*
X145442083Y-102415428D01*
X145522550Y-102405054D01*
X145539473Y-102402910D01*
X145617175Y-102392263D01*
X145703323Y-102379439D01*
X145788578Y-102365865D01*
X145863602Y-102352968D01*
X145914925Y-102343932D01*
X145995820Y-102331235D01*
X146061161Y-102323623D01*
X146113715Y-102321014D01*
X146156247Y-102323327D01*
G37*
G36*
X145500157Y-83991707D02*
G01*
X145568748Y-83994912D01*
X145625541Y-84001897D01*
X145675893Y-84013722D01*
X145725161Y-84031449D01*
X145778702Y-84056141D01*
X145796204Y-84065041D01*
X145836906Y-84088330D01*
X145873673Y-84114519D01*
X145912157Y-84147916D01*
X145958008Y-84192831D01*
X146041955Y-84284187D01*
X146118633Y-84383065D01*
X146186159Y-84489155D01*
X146247334Y-84606880D01*
X146304957Y-84740662D01*
X146323939Y-84789494D01*
X146349625Y-84857531D01*
X146377849Y-84933898D01*
X146407207Y-85014669D01*
X146436294Y-85095918D01*
X146463707Y-85173720D01*
X146488041Y-85244148D01*
X146507893Y-85303277D01*
X146521859Y-85347180D01*
X146535405Y-85397150D01*
X146550945Y-85476701D01*
X146560571Y-85563225D01*
X146564356Y-85659271D01*
X146562373Y-85767392D01*
X146554695Y-85890138D01*
X146541395Y-86030059D01*
X146526939Y-86140196D01*
X146502785Y-86267340D01*
X146470023Y-86392655D01*
X146427362Y-86520391D01*
X146373509Y-86654796D01*
X146307171Y-86800121D01*
X146296121Y-86823166D01*
X146261827Y-86894790D01*
X146227536Y-86966550D01*
X146195466Y-87033794D01*
X146167836Y-87091871D01*
X146146866Y-87136131D01*
X146120053Y-87189220D01*
X146078126Y-87256277D01*
X146032218Y-87309122D01*
X145978851Y-87351513D01*
X145914550Y-87387206D01*
X145903793Y-87392247D01*
X145868797Y-87406974D01*
X145838442Y-87415191D01*
X145804367Y-87418593D01*
X145758210Y-87418872D01*
X145738056Y-87418170D01*
X145655602Y-87407821D01*
X145568456Y-87386762D01*
X145481649Y-87356915D01*
X145400212Y-87320200D01*
X145329175Y-87278539D01*
X145273570Y-87233850D01*
X145255028Y-87214323D01*
X145223641Y-87173274D01*
X145196621Y-87124840D01*
X145172527Y-87065757D01*
X145149917Y-86992759D01*
X145127351Y-86902582D01*
X145124410Y-86889814D01*
X145102645Y-86794492D01*
X145085334Y-86716778D01*
X145072070Y-86654632D01*
X145062448Y-86606014D01*
X145056061Y-86568882D01*
X145052502Y-86541196D01*
X145051366Y-86520916D01*
X145051224Y-86512225D01*
X145048517Y-86488528D01*
X145042951Y-86483638D01*
X145035269Y-86496485D01*
X145026216Y-86525995D01*
X145016535Y-86571097D01*
X145014310Y-86583628D01*
X145005995Y-86638967D01*
X144997617Y-86706507D01*
X144989463Y-86782631D01*
X144981819Y-86863725D01*
X144974970Y-86946173D01*
X144969203Y-87026360D01*
X144964803Y-87100670D01*
X144962056Y-87165489D01*
X144961249Y-87217200D01*
X144962667Y-87252189D01*
X144964743Y-87269244D01*
X144976269Y-87333585D01*
X144994225Y-87409688D01*
X145017173Y-87492263D01*
X145043675Y-87576020D01*
X145072295Y-87655668D01*
X145081185Y-87678388D01*
X145105398Y-87734023D01*
X145129830Y-87776053D01*
X145158394Y-87808268D01*
X145195003Y-87834457D01*
X145243570Y-87858409D01*
X145308007Y-87883913D01*
X145404092Y-87916027D01*
X145496940Y-87937893D01*
X145587372Y-87948324D01*
X145679238Y-87947268D01*
X145776386Y-87934676D01*
X145882666Y-87910494D01*
X146001927Y-87874672D01*
X146031068Y-87865042D01*
X146132835Y-87829937D01*
X146215971Y-87798564D01*
X146281593Y-87770454D01*
X146330817Y-87745138D01*
X146364758Y-87722147D01*
X146367169Y-87720085D01*
X146391757Y-87694054D01*
X146424120Y-87653296D01*
X146462319Y-87600646D01*
X146504414Y-87538937D01*
X146548466Y-87471003D01*
X146592536Y-87399678D01*
X146634683Y-87327794D01*
X146664061Y-87277070D01*
X146701110Y-87214805D01*
X146737858Y-87154546D01*
X146769500Y-87104257D01*
X146799788Y-87056751D01*
X146829398Y-87008193D01*
X146850698Y-86969507D01*
X146865616Y-86936814D01*
X146876079Y-86906238D01*
X146884015Y-86873901D01*
X146888099Y-86850555D01*
X146893953Y-86787521D01*
X146895519Y-86714716D01*
X146892951Y-86639184D01*
X146886402Y-86567967D01*
X146876026Y-86508109D01*
X146864819Y-86457399D01*
X146853307Y-86399781D01*
X146844340Y-86349295D01*
X146840696Y-86327627D01*
X146832924Y-86283612D01*
X146822496Y-86226035D01*
X146810102Y-86158663D01*
X146796433Y-86085266D01*
X146782177Y-86009610D01*
X146760259Y-85889852D01*
X146734076Y-85730272D01*
X146713846Y-85582187D01*
X146699031Y-85440982D01*
X146689094Y-85302042D01*
X146683501Y-85160751D01*
X146681904Y-85075507D01*
X146682290Y-84990676D01*
X146685891Y-84920886D01*
X146693486Y-84863219D01*
X146705855Y-84814759D01*
X146723775Y-84772586D01*
X146748027Y-84733785D01*
X146779389Y-84695437D01*
X146818641Y-84654626D01*
X146859995Y-84615742D01*
X146965239Y-84530587D01*
X147083071Y-84451625D01*
X147208028Y-84382671D01*
X147276987Y-84350213D01*
X147338063Y-84326036D01*
X147392585Y-84310623D01*
X147445839Y-84302497D01*
X147503107Y-84300181D01*
X147513774Y-84300368D01*
X147573668Y-84308536D01*
X147630051Y-84329654D01*
X147684207Y-84364905D01*
X147737417Y-84415475D01*
X147790965Y-84482550D01*
X147846131Y-84567314D01*
X147904198Y-84670954D01*
X147926328Y-84714416D01*
X147959655Y-84788059D01*
X147988464Y-84864441D01*
X148013797Y-84947112D01*
X148036692Y-85039619D01*
X148058191Y-85145510D01*
X148079333Y-85268334D01*
X148079863Y-85271706D01*
X148085964Y-85323137D01*
X148091569Y-85394296D01*
X148096637Y-85484487D01*
X148101128Y-85593008D01*
X148105003Y-85719161D01*
X148106947Y-85791339D01*
X148109494Y-85876909D01*
X148112080Y-85947087D01*
X148114978Y-86004846D01*
X148118457Y-86053159D01*
X148122790Y-86094999D01*
X148128248Y-86133338D01*
X148135101Y-86171149D01*
X148143622Y-86211406D01*
X148154080Y-86257080D01*
X148158142Y-86274930D01*
X148187923Y-86456200D01*
X148197352Y-86639771D01*
X148186435Y-86825737D01*
X148183059Y-86856774D01*
X148177413Y-86911477D01*
X148171399Y-86972220D01*
X148165855Y-87030658D01*
X148158275Y-87112058D01*
X148149136Y-87207311D01*
X148141218Y-87285444D01*
X148134278Y-87348368D01*
X148128072Y-87397997D01*
X148122355Y-87436240D01*
X148116884Y-87465010D01*
X148111415Y-87486218D01*
X148105703Y-87501776D01*
X148103259Y-87506913D01*
X148082919Y-87538322D01*
X148055278Y-87570306D01*
X148026158Y-87596743D01*
X148001380Y-87611508D01*
X148000334Y-87612171D01*
X147994760Y-87625281D01*
X147988535Y-87655347D01*
X147981526Y-87703244D01*
X147973603Y-87769849D01*
X147964633Y-87856037D01*
X147956099Y-87940335D01*
X147945740Y-88035860D01*
X147935958Y-88116387D01*
X147926264Y-88185013D01*
X147916172Y-88244834D01*
X147905193Y-88298946D01*
X147892841Y-88350447D01*
X147878627Y-88402434D01*
X147828265Y-88553942D01*
X147754785Y-88721213D01*
X147666491Y-88875471D01*
X147563882Y-89015862D01*
X147447454Y-89141534D01*
X147416658Y-89170675D01*
X147292535Y-89279941D01*
X147171174Y-89372487D01*
X147049132Y-89450348D01*
X146922966Y-89515559D01*
X146789234Y-89570155D01*
X146644495Y-89616171D01*
X146635930Y-89618552D01*
X146577362Y-89633666D01*
X146520830Y-89645733D01*
X146462579Y-89655194D01*
X146398856Y-89662490D01*
X146325907Y-89668063D01*
X146239978Y-89672354D01*
X146137314Y-89675805D01*
X146137072Y-89675811D01*
X146092932Y-89676984D01*
X146033399Y-89678123D01*
X145978967Y-89678311D01*
X145927343Y-89677288D01*
X145876233Y-89674794D01*
X145823342Y-89670568D01*
X145766376Y-89664349D01*
X145703041Y-89655879D01*
X145631042Y-89644895D01*
X145548087Y-89631139D01*
X145451880Y-89614349D01*
X145340127Y-89594265D01*
X145210535Y-89570626D01*
X145069310Y-89540415D01*
X144879113Y-89486112D01*
X144684294Y-89415018D01*
X144482575Y-89326368D01*
X144434481Y-89302111D01*
X144374233Y-89269464D01*
X144305893Y-89230820D01*
X144233198Y-89188417D01*
X144159883Y-89144495D01*
X144089687Y-89101292D01*
X144026345Y-89061048D01*
X143973594Y-89026000D01*
X143935172Y-88998389D01*
X143902843Y-88971629D01*
X143850572Y-88923284D01*
X143793776Y-88866164D01*
X143736798Y-88804833D01*
X143683982Y-88743857D01*
X143639671Y-88687801D01*
X143614477Y-88652666D01*
X143577326Y-88598215D01*
X143536253Y-88535826D01*
X143493862Y-88469627D01*
X143452755Y-88403746D01*
X143415534Y-88342311D01*
X143384802Y-88289448D01*
X143363162Y-88249286D01*
X143347543Y-88217267D01*
X143297248Y-88104034D01*
X143246522Y-87975278D01*
X143196692Y-87834682D01*
X143149086Y-87685933D01*
X143105032Y-87532715D01*
X143086536Y-87463856D01*
X143067901Y-87391887D01*
X143053612Y-87332350D01*
X143042835Y-87281231D01*
X143034738Y-87234517D01*
X143028490Y-87188192D01*
X143023259Y-87138242D01*
X143020747Y-87105345D01*
X143017665Y-87040997D01*
X143015516Y-86963924D01*
X143014304Y-86878818D01*
X143014111Y-86815015D01*
X143382821Y-86815015D01*
X143383440Y-86903448D01*
X143385264Y-86988246D01*
X143388285Y-87064424D01*
X143392498Y-87126998D01*
X143402109Y-87199606D01*
X143423544Y-87302608D01*
X143454929Y-87418541D01*
X143495561Y-87545079D01*
X143544739Y-87679895D01*
X143601760Y-87820664D01*
X143604614Y-87827379D01*
X143646914Y-87925323D01*
X143684469Y-88008204D01*
X143719494Y-88079937D01*
X143754203Y-88144439D01*
X143790811Y-88205624D01*
X143831533Y-88267410D01*
X143878582Y-88333710D01*
X143934174Y-88408441D01*
X143945639Y-88423589D01*
X143996832Y-88489835D01*
X144042641Y-88545644D01*
X144086010Y-88593507D01*
X144129882Y-88635915D01*
X144177200Y-88675359D01*
X144230907Y-88714330D01*
X144293947Y-88755320D01*
X144369262Y-88800818D01*
X144459796Y-88853316D01*
X144502032Y-88877419D01*
X144604511Y-88934627D01*
X144694569Y-88982512D01*
X144775596Y-89022530D01*
X144850983Y-89056137D01*
X144924120Y-89084787D01*
X144998398Y-89109936D01*
X145077207Y-89133040D01*
X145163938Y-89155552D01*
X145253827Y-89175659D01*
X145362166Y-89196122D01*
X145480133Y-89215349D01*
X145602190Y-89232560D01*
X145722799Y-89246977D01*
X145836421Y-89257820D01*
X145937516Y-89264312D01*
X145953544Y-89264968D01*
X146137072Y-89266024D01*
X146310695Y-89255017D01*
X146473114Y-89232242D01*
X146623026Y-89197989D01*
X146759132Y-89152551D01*
X146880129Y-89096219D01*
X146984718Y-89029286D01*
X147021147Y-89000087D01*
X147074995Y-88952432D01*
X147132708Y-88897406D01*
X147190321Y-88839053D01*
X147243867Y-88781416D01*
X147289381Y-88728539D01*
X147322897Y-88684467D01*
X147331128Y-88672173D01*
X147366813Y-88614129D01*
X147404270Y-88546841D01*
X147440876Y-88475569D01*
X147474007Y-88405576D01*
X147501039Y-88342123D01*
X147519349Y-88290473D01*
X147524200Y-88273504D01*
X147533341Y-88237289D01*
X147542286Y-88195288D01*
X147551436Y-88145071D01*
X147561191Y-88084205D01*
X147571954Y-88010261D01*
X147584125Y-87920807D01*
X147598106Y-87813412D01*
X147603380Y-87770002D01*
X147617793Y-87617923D01*
X147627059Y-87459940D01*
X147631185Y-87300343D01*
X147630179Y-87143425D01*
X147624046Y-86993478D01*
X147612793Y-86854793D01*
X147596427Y-86731661D01*
X147579117Y-86627430D01*
X147603617Y-86578015D01*
X147621957Y-86548431D01*
X147661887Y-86510849D01*
X147710444Y-86489618D01*
X147764029Y-86486782D01*
X147776664Y-86488323D01*
X147797180Y-86489104D01*
X147804268Y-86483560D01*
X147802827Y-86469511D01*
X147780411Y-86363054D01*
X147759277Y-86257238D01*
X147742134Y-86163320D01*
X147728371Y-86077079D01*
X147717377Y-85994294D01*
X147708539Y-85910746D01*
X147701246Y-85822212D01*
X147694887Y-85724474D01*
X147686574Y-85597197D01*
X147673926Y-85445364D01*
X147659345Y-85312604D01*
X147642716Y-85198149D01*
X147623923Y-85101231D01*
X147602851Y-85021082D01*
X147579383Y-84956934D01*
X147566594Y-84930126D01*
X147542898Y-84887151D01*
X147516171Y-84844166D01*
X147489473Y-84805749D01*
X147465864Y-84776479D01*
X147448405Y-84760937D01*
X147437547Y-84756349D01*
X147407962Y-84753800D01*
X147370973Y-84763529D01*
X147324268Y-84786323D01*
X147265531Y-84822965D01*
X147231583Y-84846334D01*
X147178237Y-84887503D01*
X147140167Y-84924797D01*
X147114935Y-84960796D01*
X147100103Y-84998082D01*
X147099485Y-85000539D01*
X147095073Y-85035941D01*
X147093923Y-85087755D01*
X147095744Y-85152549D01*
X147100246Y-85226894D01*
X147107139Y-85307360D01*
X147116133Y-85390516D01*
X147126939Y-85472932D01*
X147139266Y-85551178D01*
X147152825Y-85621824D01*
X147156126Y-85637240D01*
X147177576Y-85737900D01*
X147195301Y-85822281D01*
X147209935Y-85893657D01*
X147222112Y-85955299D01*
X147232465Y-86010481D01*
X147241626Y-86062475D01*
X147250230Y-86114553D01*
X147258910Y-86169988D01*
X147263624Y-86200039D01*
X147275420Y-86270973D01*
X147288051Y-86342204D01*
X147300279Y-86406872D01*
X147310867Y-86458112D01*
X147314975Y-86477115D01*
X147325356Y-86533001D01*
X147331797Y-86585966D01*
X147335059Y-86643793D01*
X147335901Y-86714264D01*
X147335898Y-86716327D01*
X147335242Y-86789316D01*
X147332877Y-86851860D01*
X147327813Y-86907067D01*
X147319061Y-86958044D01*
X147305629Y-87007900D01*
X147286528Y-87059742D01*
X147260768Y-87116679D01*
X147227357Y-87181817D01*
X147185307Y-87258264D01*
X147133627Y-87349130D01*
X147113850Y-87383711D01*
X147078264Y-87446375D01*
X147045471Y-87504656D01*
X147017334Y-87555216D01*
X146995720Y-87594713D01*
X146982493Y-87619807D01*
X146979382Y-87625966D01*
X146956359Y-87668496D01*
X146930455Y-87710295D01*
X146898924Y-87755315D01*
X146859017Y-87807511D01*
X146807984Y-87870835D01*
X146760195Y-87927697D01*
X146696273Y-87997509D01*
X146634288Y-88055958D01*
X146570554Y-88105534D01*
X146501384Y-88148724D01*
X146423094Y-88188017D01*
X146331996Y-88225903D01*
X146224406Y-88264869D01*
X146136005Y-88294886D01*
X146060318Y-88319250D01*
X145995958Y-88337918D01*
X145938973Y-88351733D01*
X145885414Y-88361534D01*
X145831329Y-88368164D01*
X145772767Y-88372462D01*
X145705778Y-88375270D01*
X145646395Y-88376680D01*
X145555593Y-88375971D01*
X145477325Y-88370704D01*
X145406731Y-88360281D01*
X145338953Y-88344106D01*
X145269131Y-88321580D01*
X145259887Y-88318191D01*
X145197197Y-88291775D01*
X145127857Y-88257774D01*
X145057042Y-88219127D01*
X144989925Y-88178775D01*
X144931678Y-88139657D01*
X144887476Y-88104713D01*
X144867326Y-88085920D01*
X144804844Y-88017309D01*
X144748965Y-87938047D01*
X144698290Y-87845682D01*
X144651424Y-87737759D01*
X144606969Y-87611823D01*
X144582989Y-87535521D01*
X144561629Y-87461265D01*
X144546414Y-87397833D01*
X144536607Y-87340804D01*
X144531468Y-87285758D01*
X144530263Y-87228276D01*
X144532253Y-87163938D01*
X144534235Y-87124081D01*
X144542622Y-86980347D01*
X144552561Y-86850715D01*
X144564684Y-86730114D01*
X144579621Y-86613472D01*
X144598003Y-86495718D01*
X144620462Y-86371781D01*
X144647629Y-86236588D01*
X144661700Y-86169866D01*
X144681853Y-86078497D01*
X144700074Y-86003470D01*
X144717351Y-85942420D01*
X144734675Y-85892988D01*
X144753032Y-85852811D01*
X144773413Y-85819526D01*
X144796805Y-85790774D01*
X144824197Y-85764191D01*
X144856578Y-85737416D01*
X144913429Y-85695773D01*
X144995777Y-85647806D01*
X145075670Y-85617497D01*
X145155883Y-85603892D01*
X145239193Y-85606040D01*
X145280201Y-85612287D01*
X145340225Y-85630330D01*
X145388331Y-85659508D01*
X145426990Y-85702135D01*
X145458675Y-85760524D01*
X145485856Y-85836991D01*
X145494734Y-85868211D01*
X145505757Y-85915553D01*
X145512528Y-85961819D01*
X145515207Y-86011264D01*
X145513954Y-86068141D01*
X145508928Y-86136708D01*
X145500290Y-86221219D01*
X145499389Y-86229376D01*
X145491935Y-86300101D01*
X145487065Y-86355212D01*
X145484633Y-86398973D01*
X145484491Y-86435649D01*
X145486492Y-86469502D01*
X145490489Y-86504796D01*
X145493541Y-86525933D01*
X145504269Y-86586256D01*
X145518321Y-86652608D01*
X145534396Y-86719736D01*
X145551191Y-86782384D01*
X145567407Y-86835298D01*
X145581740Y-86873223D01*
X145584740Y-86879696D01*
X145609550Y-86924895D01*
X145638256Y-86966262D01*
X145666995Y-86998744D01*
X145691902Y-87017286D01*
X145699407Y-87020203D01*
X145717703Y-87021407D01*
X145735084Y-87011464D01*
X145753372Y-86988293D01*
X145774393Y-86949812D01*
X145799969Y-86893938D01*
X145810908Y-86869540D01*
X145835167Y-86817797D01*
X145864609Y-86757025D01*
X145896474Y-86692891D01*
X145928002Y-86631061D01*
X145933744Y-86619930D01*
X145974556Y-86537307D01*
X146007638Y-86462281D01*
X146036421Y-86386567D01*
X146064335Y-86301882D01*
X146064408Y-86301649D01*
X146086605Y-86229378D01*
X146104148Y-86168611D01*
X146117580Y-86115348D01*
X146127449Y-86065590D01*
X146134298Y-86015339D01*
X146138674Y-85960594D01*
X146141122Y-85897356D01*
X146142188Y-85821627D01*
X146142416Y-85729407D01*
X146142395Y-85463010D01*
X146109729Y-85369480D01*
X146096054Y-85332143D01*
X146073841Y-85275115D01*
X146046834Y-85208379D01*
X146016577Y-85135531D01*
X145984611Y-85060165D01*
X145952478Y-84985877D01*
X145921722Y-84916262D01*
X145893884Y-84854914D01*
X145870507Y-84805428D01*
X145853133Y-84771400D01*
X145840980Y-84749714D01*
X145786106Y-84660673D01*
X145729294Y-84584132D01*
X145665971Y-84513797D01*
X145657697Y-84505448D01*
X145608458Y-84460176D01*
X145563639Y-84429403D01*
X145517545Y-84410701D01*
X145464484Y-84401641D01*
X145398760Y-84399793D01*
X145290407Y-84405060D01*
X145152944Y-84420405D01*
X145003067Y-84445254D01*
X144843571Y-84479135D01*
X144677250Y-84521577D01*
X144604414Y-84542583D01*
X144511153Y-84572946D01*
X144420715Y-84607104D01*
X144326490Y-84647602D01*
X144221868Y-84696986D01*
X144180686Y-84717334D01*
X144134162Y-84741717D01*
X144097894Y-84763510D01*
X144066899Y-84786100D01*
X144036191Y-84812873D01*
X144000786Y-84847217D01*
X143979347Y-84869480D01*
X143935117Y-84919750D01*
X143892452Y-84973057D01*
X143858203Y-85021048D01*
X143809053Y-85102564D01*
X143756953Y-85200648D01*
X143705883Y-85307687D01*
X143658522Y-85418059D01*
X143617547Y-85526143D01*
X143591623Y-85603984D01*
X143554457Y-85728676D01*
X143518293Y-85864323D01*
X143484252Y-86005935D01*
X143453455Y-86148523D01*
X143427019Y-86287097D01*
X143406067Y-86416668D01*
X143391717Y-86532248D01*
X143388257Y-86577772D01*
X143385223Y-86647192D01*
X143383413Y-86727935D01*
X143382821Y-86815015D01*
X143014111Y-86815015D01*
X143014036Y-86790364D01*
X143014716Y-86703253D01*
X143016351Y-86622173D01*
X143018946Y-86551812D01*
X143022506Y-86496858D01*
X143031261Y-86418301D01*
X143045950Y-86317456D01*
X143065217Y-86204392D01*
X143088241Y-86082929D01*
X143114205Y-85956888D01*
X143142288Y-85830091D01*
X143171672Y-85706357D01*
X143201538Y-85589507D01*
X143231066Y-85483363D01*
X143259437Y-85391744D01*
X143311987Y-85245946D01*
X143392288Y-85061488D01*
X143482709Y-84892501D01*
X143582778Y-84739684D01*
X143692027Y-84603733D01*
X143809987Y-84485348D01*
X143936189Y-84385226D01*
X143977000Y-84358625D01*
X144071697Y-84306712D01*
X144182661Y-84256313D01*
X144307089Y-84208156D01*
X144442178Y-84162971D01*
X144585124Y-84121488D01*
X144733124Y-84084435D01*
X144883375Y-84052542D01*
X145033074Y-84026538D01*
X145179418Y-84007153D01*
X145319604Y-83995115D01*
X145450828Y-83991155D01*
X145500157Y-83991707D01*
G37*
G36*
X146003121Y-77113138D02*
G01*
X146102290Y-77133466D01*
X146108158Y-77135174D01*
X146188363Y-77160940D01*
X146253924Y-77187959D01*
X146310248Y-77219200D01*
X146362742Y-77257633D01*
X146416814Y-77306228D01*
X146423284Y-77312551D01*
X146463273Y-77356009D01*
X146498528Y-77403420D01*
X146529799Y-77456847D01*
X146557835Y-77518352D01*
X146583383Y-77589998D01*
X146607194Y-77673848D01*
X146630016Y-77771963D01*
X146652597Y-77886407D01*
X146675687Y-78019242D01*
X146679381Y-78041746D01*
X146694241Y-78137877D01*
X146704629Y-78219578D01*
X146710515Y-78291456D01*
X146711868Y-78358118D01*
X146708656Y-78424171D01*
X146700848Y-78494222D01*
X146688414Y-78572877D01*
X146671321Y-78664744D01*
X146658842Y-78730764D01*
X146644316Y-78811504D01*
X146630559Y-78891722D01*
X146618687Y-78964899D01*
X146609813Y-79024519D01*
X146604530Y-79061080D01*
X146593452Y-79132183D01*
X146580321Y-79211593D01*
X146566354Y-79292018D01*
X146552767Y-79366171D01*
X146547407Y-79394782D01*
X146534636Y-79467323D01*
X146525791Y-79527059D01*
X146520265Y-79579311D01*
X146517455Y-79629398D01*
X146516754Y-79682637D01*
X146516944Y-79712881D01*
X146519165Y-79796778D01*
X146524353Y-79863042D01*
X146533168Y-79913769D01*
X146546272Y-79951055D01*
X146564327Y-79976993D01*
X146587993Y-79993680D01*
X146617932Y-80003211D01*
X146620981Y-80003817D01*
X146642288Y-80006774D01*
X146648862Y-80001696D01*
X146645455Y-79985529D01*
X146642685Y-79976122D01*
X146635277Y-79946605D01*
X146631947Y-79919678D01*
X146633380Y-79891779D01*
X146640260Y-79859344D01*
X146653272Y-79818811D01*
X146673098Y-79766616D01*
X146700424Y-79699196D01*
X146722769Y-79645439D01*
X146787229Y-79498364D01*
X146850283Y-79367454D01*
X146913603Y-79249718D01*
X146978864Y-79142164D01*
X147047737Y-79041800D01*
X147121896Y-78945634D01*
X147178468Y-78880649D01*
X147259913Y-78803629D01*
X147342095Y-78746148D01*
X147426283Y-78707671D01*
X147513750Y-78687664D01*
X147605766Y-78685591D01*
X147703602Y-78700918D01*
X147726009Y-78706730D01*
X147822352Y-78744150D01*
X147911720Y-78798758D01*
X147991702Y-78868182D01*
X148059891Y-78950050D01*
X148113878Y-79041991D01*
X148151253Y-79141633D01*
X148153727Y-79151986D01*
X148160324Y-79195169D01*
X148165769Y-79254402D01*
X148170013Y-79326383D01*
X148173011Y-79407811D01*
X148174714Y-79495383D01*
X148175077Y-79585799D01*
X148174051Y-79675756D01*
X148171591Y-79761954D01*
X148167649Y-79841090D01*
X148162178Y-79909863D01*
X148153215Y-79990486D01*
X148142390Y-80064435D01*
X148128817Y-80132486D01*
X148111073Y-80200783D01*
X148087737Y-80275468D01*
X148057388Y-80362685D01*
X148055871Y-80366909D01*
X148015817Y-80480969D01*
X147978262Y-80592617D01*
X147944247Y-80698538D01*
X147914810Y-80795414D01*
X147890989Y-80879929D01*
X147873823Y-80948768D01*
X147864316Y-80989519D01*
X147847524Y-81057602D01*
X147829258Y-81128233D01*
X147812078Y-81191355D01*
X147810563Y-81196743D01*
X147797351Y-81244679D01*
X147786585Y-81285397D01*
X147779339Y-81314738D01*
X147776685Y-81328545D01*
X147783169Y-81333341D01*
X147801654Y-81325376D01*
X147829757Y-81306034D01*
X147865087Y-81276963D01*
X147905256Y-81239812D01*
X147991743Y-81145987D01*
X148076673Y-81028543D01*
X148149147Y-80897140D01*
X148210385Y-80749819D01*
X148214651Y-80737948D01*
X148233410Y-80685770D01*
X148255954Y-80623097D01*
X148279817Y-80556778D01*
X148302535Y-80493667D01*
X148312846Y-80464642D01*
X148335262Y-80398707D01*
X148358153Y-80327192D01*
X148382217Y-80247700D01*
X148408152Y-80157836D01*
X148436658Y-80055205D01*
X148468432Y-79937410D01*
X148504174Y-79802058D01*
X148510176Y-79779371D01*
X148537337Y-79683690D01*
X148564994Y-79600176D01*
X148595562Y-79523159D01*
X148631457Y-79446968D01*
X148675092Y-79365934D01*
X148728882Y-79274385D01*
X148764609Y-79216241D01*
X148828417Y-79118302D01*
X148888070Y-79035934D01*
X148945751Y-78966835D01*
X149003645Y-78908701D01*
X149063935Y-78859230D01*
X149128805Y-78816117D01*
X149200438Y-78777062D01*
X149220106Y-78767456D01*
X149284631Y-78740062D01*
X149340002Y-78724671D01*
X149391251Y-78720218D01*
X149443407Y-78725640D01*
X149492559Y-78737867D01*
X149550992Y-78760830D01*
X149599953Y-78789564D01*
X149633931Y-78821302D01*
X149641187Y-78831225D01*
X149675368Y-78887834D01*
X149711881Y-78963481D01*
X149750268Y-79057145D01*
X149790066Y-79167806D01*
X149811570Y-79231960D01*
X149830294Y-79291009D01*
X149845243Y-79343940D01*
X149856896Y-79394079D01*
X149865734Y-79444752D01*
X149872234Y-79499285D01*
X149876878Y-79561006D01*
X149880145Y-79633239D01*
X149882514Y-79719311D01*
X149884464Y-79822550D01*
X149885386Y-79884394D01*
X149886208Y-80000089D01*
X149885342Y-80100151D01*
X149882550Y-80187837D01*
X149877598Y-80266404D01*
X149870250Y-80339110D01*
X149860270Y-80409211D01*
X149847423Y-80479964D01*
X149831472Y-80554626D01*
X149806574Y-80667547D01*
X149722749Y-81101496D01*
X149657313Y-81536206D01*
X149652275Y-81574566D01*
X149635893Y-81688658D01*
X149619113Y-81787410D01*
X149601059Y-81874765D01*
X149580859Y-81954663D01*
X149557637Y-82031046D01*
X149530519Y-82107853D01*
X149510162Y-82161497D01*
X149461908Y-82282392D01*
X149416144Y-82387045D01*
X149371500Y-82478147D01*
X149326606Y-82558387D01*
X149280093Y-82630457D01*
X149230591Y-82697049D01*
X149212927Y-82720066D01*
X149176951Y-82770151D01*
X149139840Y-82825064D01*
X149107310Y-82876487D01*
X149106433Y-82877936D01*
X149055350Y-82956019D01*
X149006020Y-83016666D01*
X148955220Y-83062264D01*
X148899727Y-83095205D01*
X148836320Y-83117876D01*
X148761774Y-83132668D01*
X148684934Y-83139866D01*
X148584186Y-83139050D01*
X148504959Y-83130926D01*
X148472304Y-83127577D01*
X148346230Y-83105243D01*
X148332438Y-83102376D01*
X148279450Y-83091012D01*
X148241416Y-83081624D01*
X148214098Y-83072575D01*
X148193258Y-83062234D01*
X148174658Y-83048963D01*
X148154061Y-83031131D01*
X148130544Y-83007907D01*
X148109009Y-82981809D01*
X148098397Y-82962478D01*
X148097396Y-82959106D01*
X148087248Y-82944251D01*
X148065504Y-82931109D01*
X148027893Y-82916922D01*
X148002939Y-82907602D01*
X147957983Y-82888328D01*
X147907110Y-82864481D01*
X147857254Y-82839218D01*
X147783556Y-82800581D01*
X147611089Y-82713791D01*
X147448480Y-82637554D01*
X147291596Y-82569977D01*
X147136306Y-82509168D01*
X147079894Y-82488219D01*
X147016479Y-82464827D01*
X146960947Y-82444513D01*
X146916123Y-82428305D01*
X146884834Y-82417231D01*
X146869908Y-82412318D01*
X146861366Y-82409898D01*
X146834388Y-82401890D01*
X146792824Y-82389372D01*
X146739640Y-82373240D01*
X146677799Y-82354391D01*
X146610268Y-82333723D01*
X146569626Y-82321327D01*
X146500166Y-82300434D01*
X146435608Y-82281368D01*
X146379619Y-82265194D01*
X146335864Y-82252978D01*
X146308009Y-82245787D01*
X146289722Y-82241707D01*
X146213732Y-82226964D01*
X146123427Y-82212180D01*
X146023601Y-82198048D01*
X145919048Y-82185261D01*
X145814563Y-82174511D01*
X145786097Y-82171862D01*
X145696131Y-82163113D01*
X145619422Y-82154853D01*
X145550363Y-82146356D01*
X145483344Y-82136897D01*
X145412759Y-82125748D01*
X145332998Y-82112186D01*
X145272790Y-82101958D01*
X145195594Y-82089337D01*
X145118377Y-82077144D01*
X145051231Y-82066996D01*
X144996304Y-82058442D01*
X144923347Y-82045957D01*
X144851335Y-82032616D01*
X144789957Y-82020156D01*
X144785100Y-82019121D01*
X144734116Y-82009497D01*
X144668837Y-81998793D01*
X144594714Y-81987821D01*
X144517199Y-81977393D01*
X144441743Y-81968319D01*
X144401351Y-81963705D01*
X144291828Y-81949867D01*
X144199965Y-81935629D01*
X144123637Y-81920211D01*
X144060721Y-81902833D01*
X144009096Y-81882714D01*
X143966639Y-81859074D01*
X143931225Y-81831133D01*
X143900733Y-81798109D01*
X143873040Y-81759222D01*
X143858999Y-81736119D01*
X143845002Y-81709262D01*
X143832664Y-81679879D01*
X143821751Y-81646337D01*
X143812034Y-81607005D01*
X143803281Y-81560252D01*
X143795260Y-81504446D01*
X143787741Y-81437956D01*
X143780493Y-81359150D01*
X143773283Y-81266397D01*
X143765881Y-81158065D01*
X143758055Y-81032524D01*
X143749575Y-80888141D01*
X143746869Y-80844093D01*
X143741663Y-80769479D01*
X143735837Y-80695445D01*
X143729923Y-80628621D01*
X143724454Y-80575636D01*
X143720756Y-80538326D01*
X143716331Y-80472624D01*
X144007124Y-80472624D01*
X144007330Y-80500205D01*
X144007584Y-80517604D01*
X144008466Y-80550713D01*
X144010187Y-80581576D01*
X144013193Y-80613386D01*
X144017933Y-80649336D01*
X144024856Y-80692619D01*
X144034408Y-80746426D01*
X144047038Y-80813951D01*
X144063194Y-80898387D01*
X144071698Y-80941402D01*
X144086350Y-81011639D01*
X144102662Y-81086222D01*
X144119901Y-81162101D01*
X144137332Y-81236228D01*
X144154222Y-81305550D01*
X144169836Y-81367019D01*
X144183440Y-81417584D01*
X144194300Y-81454195D01*
X144201682Y-81473801D01*
X144212049Y-81488583D01*
X144227647Y-81501252D01*
X144250948Y-81512499D01*
X144284475Y-81523126D01*
X144330755Y-81533930D01*
X144392313Y-81545712D01*
X144471675Y-81559272D01*
X144542985Y-81571616D01*
X144617712Y-81585582D01*
X144688837Y-81599815D01*
X144750807Y-81613204D01*
X144798069Y-81624637D01*
X144850458Y-81637762D01*
X144918129Y-81653421D01*
X144988909Y-81668752D01*
X145053944Y-81681777D01*
X145115973Y-81694080D01*
X145182451Y-81708209D01*
X145244693Y-81722280D01*
X145294727Y-81734546D01*
X145303229Y-81736738D01*
X145361334Y-81750711D01*
X145434806Y-81767124D01*
X145519545Y-81785160D01*
X145611447Y-81804004D01*
X145706412Y-81822839D01*
X145800337Y-81840850D01*
X145889120Y-81857221D01*
X145968660Y-81871135D01*
X146034854Y-81881777D01*
X146040178Y-81882579D01*
X146112280Y-81893999D01*
X146175459Y-81905465D01*
X146234401Y-81918163D01*
X146293793Y-81933281D01*
X146358323Y-81952005D01*
X146432677Y-81975522D01*
X146521542Y-82005019D01*
X146556982Y-82016812D01*
X146638584Y-82043234D01*
X146726116Y-82070792D01*
X146811156Y-82096849D01*
X146885277Y-82118771D01*
X146893024Y-82121009D01*
X146982615Y-82147618D01*
X147078921Y-82177385D01*
X147178643Y-82209198D01*
X147278483Y-82241949D01*
X147375141Y-82274527D01*
X147465318Y-82305820D01*
X147545716Y-82334719D01*
X147613036Y-82360113D01*
X147663978Y-82380892D01*
X147688135Y-82391597D01*
X147742728Y-82416658D01*
X147806183Y-82446604D01*
X147872454Y-82478567D01*
X147935499Y-82509681D01*
X147998038Y-82540462D01*
X148087138Y-82582239D01*
X148164310Y-82615719D01*
X148228145Y-82640336D01*
X148277236Y-82655522D01*
X148310177Y-82660710D01*
X148330006Y-82662287D01*
X148366171Y-82668226D01*
X148405339Y-82677065D01*
X148428760Y-82682489D01*
X148504959Y-82692308D01*
X148581255Y-82691646D01*
X148651557Y-82680839D01*
X148709776Y-82660225D01*
X148711970Y-82659093D01*
X148734598Y-82644904D01*
X148758936Y-82624444D01*
X148786931Y-82595567D01*
X148820530Y-82556129D01*
X148861679Y-82503982D01*
X148912325Y-82436983D01*
X148951322Y-82384026D01*
X149004773Y-82308049D01*
X149048950Y-82239720D01*
X149086635Y-82174397D01*
X149120610Y-82107437D01*
X149153655Y-82034198D01*
X149171569Y-81992318D01*
X149189528Y-81949121D01*
X149204652Y-81910250D01*
X149217803Y-81872651D01*
X149229841Y-81833274D01*
X149241625Y-81789067D01*
X149254017Y-81736978D01*
X149267877Y-81673956D01*
X149284064Y-81596949D01*
X149303440Y-81502905D01*
X149315951Y-81441787D01*
X149335406Y-81345640D01*
X149351459Y-81264066D01*
X149364678Y-81193554D01*
X149375634Y-81130594D01*
X149384895Y-81071674D01*
X149393030Y-81013283D01*
X149400609Y-80951909D01*
X149408200Y-80884043D01*
X149416372Y-80806172D01*
X149423425Y-80740135D01*
X149432316Y-80661849D01*
X149441487Y-80585436D01*
X149450196Y-80517071D01*
X149457698Y-80462929D01*
X149465036Y-80401148D01*
X149471359Y-80316389D01*
X149475453Y-80220576D01*
X149477391Y-80117208D01*
X149477247Y-80009783D01*
X149475094Y-79901799D01*
X149471008Y-79796755D01*
X149465062Y-79698149D01*
X149457331Y-79609480D01*
X149447887Y-79534247D01*
X149436806Y-79475948D01*
X149428882Y-79445700D01*
X149411041Y-79387728D01*
X149390888Y-79332123D01*
X149370201Y-79283273D01*
X149350761Y-79245566D01*
X149334348Y-79223391D01*
X149316333Y-79213408D01*
X149292453Y-79215238D01*
X149264198Y-79231853D01*
X149230768Y-79264036D01*
X149191367Y-79312572D01*
X149145194Y-79378245D01*
X149091451Y-79461839D01*
X149064330Y-79505652D01*
X149020059Y-79579267D01*
X148984275Y-79643218D01*
X148955283Y-79701772D01*
X148931390Y-79759197D01*
X148910902Y-79819763D01*
X148892127Y-79887737D01*
X148873370Y-79967388D01*
X148852938Y-80062984D01*
X148840826Y-80118824D01*
X148816712Y-80220684D01*
X148788529Y-80330726D01*
X148757224Y-80445817D01*
X148723746Y-80562828D01*
X148689040Y-80678626D01*
X148654055Y-80790079D01*
X148619737Y-80894056D01*
X148587034Y-80987426D01*
X148556892Y-81067058D01*
X148530259Y-81129819D01*
X148500159Y-81189120D01*
X148446336Y-81275812D01*
X148378178Y-81367067D01*
X148293848Y-81465493D01*
X148282870Y-81477547D01*
X148196537Y-81565494D01*
X148114139Y-81635695D01*
X148032901Y-81689478D01*
X147950044Y-81728175D01*
X147862789Y-81753114D01*
X147768360Y-81765626D01*
X147663978Y-81767040D01*
X147610203Y-81764713D01*
X147570794Y-81761185D01*
X147539884Y-81755319D01*
X147511470Y-81745975D01*
X147479549Y-81732014D01*
X147461866Y-81723542D01*
X147401712Y-81689511D01*
X147359081Y-81654028D01*
X147331700Y-81614024D01*
X147317293Y-81566432D01*
X147313586Y-81508186D01*
X147314924Y-81478437D01*
X147318588Y-81445649D01*
X147325156Y-81407894D01*
X147335213Y-81362756D01*
X147349342Y-81307817D01*
X147368129Y-81240663D01*
X147392158Y-81158878D01*
X147422014Y-81060045D01*
X147442981Y-80988131D01*
X147466285Y-80902950D01*
X147490014Y-80811812D01*
X147512325Y-80721790D01*
X147531379Y-80639957D01*
X147550126Y-80558781D01*
X147572129Y-80468272D01*
X147595398Y-80376375D01*
X147618125Y-80290242D01*
X147638496Y-80217023D01*
X147649812Y-80177334D01*
X147675821Y-80079956D01*
X147695600Y-79993330D01*
X147710118Y-79911388D01*
X147720344Y-79828064D01*
X147727247Y-79737289D01*
X147731797Y-79632998D01*
X147733790Y-79584447D01*
X147737496Y-79521848D01*
X147742053Y-79465541D01*
X147747065Y-79420260D01*
X147752133Y-79390736D01*
X147754957Y-79378904D01*
X147765085Y-79315521D01*
X147762013Y-79265186D01*
X147744459Y-79224658D01*
X147711139Y-79190694D01*
X147660767Y-79160051D01*
X147624001Y-79145361D01*
X147570846Y-79137235D01*
X147522421Y-79144810D01*
X147483171Y-79167891D01*
X147482405Y-79168613D01*
X147462637Y-79191310D01*
X147435065Y-79228210D01*
X147401915Y-79275890D01*
X147365416Y-79330925D01*
X147327797Y-79389893D01*
X147291285Y-79449369D01*
X147258108Y-79505930D01*
X147230495Y-79556152D01*
X147216188Y-79584522D01*
X147191689Y-79635804D01*
X147162550Y-79698990D01*
X147130591Y-79770072D01*
X147097630Y-79845041D01*
X147065486Y-79919887D01*
X147031722Y-79999383D01*
X146998634Y-80076548D01*
X146971411Y-80138674D01*
X146948969Y-80187854D01*
X146930226Y-80226179D01*
X146914098Y-80255741D01*
X146899502Y-80278633D01*
X146885355Y-80296945D01*
X146870575Y-80312770D01*
X146854077Y-80328200D01*
X146827263Y-80349756D01*
X146770335Y-80381361D01*
X146702128Y-80402103D01*
X146618879Y-80413342D01*
X146555088Y-80414741D01*
X146456389Y-80401701D01*
X146361220Y-80369213D01*
X146313641Y-80343016D01*
X146271257Y-80307837D01*
X146235174Y-80262761D01*
X146204618Y-80206032D01*
X146178815Y-80135895D01*
X146156991Y-80050598D01*
X146138372Y-79948384D01*
X146122183Y-79827499D01*
X146116880Y-79774034D01*
X146113039Y-79657580D01*
X146121305Y-79543605D01*
X146142130Y-79422953D01*
X146144258Y-79412387D01*
X146151219Y-79372643D01*
X146159775Y-79318377D01*
X146169299Y-79253789D01*
X146179165Y-79183080D01*
X146188746Y-79110448D01*
X146189253Y-79106493D01*
X146200650Y-79022570D01*
X146214103Y-78930958D01*
X146228517Y-78838670D01*
X146242799Y-78752718D01*
X146255856Y-78680113D01*
X146277326Y-78554088D01*
X146293343Y-78417727D01*
X146298932Y-78291548D01*
X146293890Y-78171391D01*
X146278012Y-78053091D01*
X146251093Y-77932487D01*
X146212930Y-77805415D01*
X146198771Y-77763321D01*
X146175775Y-77698409D01*
X146155709Y-77648944D01*
X146136757Y-77612173D01*
X146117100Y-77585343D01*
X146094922Y-77565701D01*
X146068403Y-77550491D01*
X146035728Y-77536962D01*
X146026792Y-77533824D01*
X145960155Y-77519622D01*
X145881830Y-77515490D01*
X145796712Y-77520686D01*
X145709697Y-77534472D01*
X145625677Y-77556109D01*
X145549550Y-77584857D01*
X145486209Y-77619976D01*
X145460710Y-77639690D01*
X145425033Y-77670376D01*
X145384500Y-77707414D01*
X145343883Y-77746561D01*
X145338238Y-77752225D01*
X145293758Y-77800739D01*
X145244921Y-77860721D01*
X145190929Y-77933316D01*
X145130984Y-78019670D01*
X145064287Y-78120927D01*
X144990041Y-78238233D01*
X144907447Y-78372731D01*
X144887226Y-78406068D01*
X144842671Y-78479532D01*
X144794474Y-78559011D01*
X144747226Y-78636933D01*
X144705517Y-78705729D01*
X144671810Y-78762037D01*
X144604845Y-78878253D01*
X144542962Y-78991487D01*
X144487929Y-79098362D01*
X144441513Y-79195495D01*
X144405482Y-79279508D01*
X144363616Y-79387168D01*
X144313916Y-79519130D01*
X144261532Y-79662022D01*
X144208108Y-79811302D01*
X144155287Y-79962426D01*
X144104712Y-80110854D01*
X144091143Y-80151257D01*
X144065976Y-80226552D01*
X144046356Y-80286383D01*
X144031606Y-80333465D01*
X144021045Y-80370511D01*
X144013995Y-80400236D01*
X144009778Y-80425353D01*
X144007714Y-80448578D01*
X144007124Y-80472624D01*
X143716331Y-80472624D01*
X143716117Y-80469448D01*
X143713628Y-80399833D01*
X143713763Y-80339976D01*
X143714145Y-80328033D01*
X143715421Y-80297345D01*
X143717510Y-80270085D01*
X143721126Y-80243394D01*
X143726984Y-80214418D01*
X143735796Y-80180298D01*
X143748276Y-80138179D01*
X143765138Y-80085203D01*
X143787096Y-80018515D01*
X143814863Y-79935257D01*
X143820153Y-79919431D01*
X143869339Y-79772873D01*
X143916025Y-79634805D01*
X143959732Y-79506602D01*
X143999981Y-79389638D01*
X144036295Y-79285290D01*
X144068195Y-79194931D01*
X144095203Y-79119938D01*
X144116841Y-79061686D01*
X144132630Y-79021549D01*
X144151078Y-78978102D01*
X144181449Y-78909724D01*
X144213969Y-78839514D01*
X144246630Y-78771620D01*
X144277424Y-78710191D01*
X144304343Y-78659376D01*
X144325378Y-78623324D01*
X144330732Y-78614787D01*
X144349994Y-78583087D01*
X144376564Y-78538501D01*
X144408400Y-78484487D01*
X144443459Y-78424503D01*
X144479700Y-78362007D01*
X144488335Y-78347081D01*
X144528170Y-78278818D01*
X144569041Y-78209616D01*
X144608153Y-78144162D01*
X144642710Y-78087140D01*
X144669916Y-78043235D01*
X144676488Y-78032795D01*
X144710611Y-77977847D01*
X144749739Y-77913916D01*
X144789537Y-77848116D01*
X144825673Y-77787562D01*
X144875260Y-77705469D01*
X144920066Y-77635811D01*
X144961581Y-77577088D01*
X145002656Y-77525498D01*
X145046142Y-77477236D01*
X145094891Y-77428501D01*
X145135916Y-77390781D01*
X145258446Y-77295818D01*
X145389425Y-77218960D01*
X145527673Y-77160938D01*
X145549217Y-77153881D01*
X145660918Y-77125883D01*
X145777255Y-77109594D01*
X145893050Y-77105263D01*
X146003121Y-77113138D01*
G37*
%TD*%
M02*
