%TF.GenerationSoftware,KiCad,Pcbnew,9.0.6*%
%TF.CreationDate,2025-12-31T01:01:46-06:00*%
%TF.ProjectId,fudgeboard,66756467-6562-46f6-9172-642e6b696361,rev?*%
%TF.SameCoordinates,Original*%
%TF.FileFunction,Soldermask,Top*%
%TF.FilePolarity,Negative*%
%FSLAX46Y46*%
G04 Gerber Fmt 4.6, Leading zero omitted, Abs format (unit mm)*
G04 Created by KiCad (PCBNEW 9.0.6) date 2025-12-31 01:01:46*
%MOMM*%
%LPD*%
G01*
G04 APERTURE LIST*
G04 Aperture macros list*
%AMRoundRect*
0 Rectangle with rounded corners*
0 $1 Rounding radius*
0 $2 $3 $4 $5 $6 $7 $8 $9 X,Y pos of 4 corners*
0 Add a 4 corners polygon primitive as box body*
4,1,4,$2,$3,$4,$5,$6,$7,$8,$9,$2,$3,0*
0 Add four circle primitives for the rounded corners*
1,1,$1+$1,$2,$3*
1,1,$1+$1,$4,$5*
1,1,$1+$1,$6,$7*
1,1,$1+$1,$8,$9*
0 Add four rect primitives between the rounded corners*
20,1,$1+$1,$2,$3,$4,$5,0*
20,1,$1+$1,$4,$5,$6,$7,0*
20,1,$1+$1,$6,$7,$8,$9,0*
20,1,$1+$1,$8,$9,$2,$3,0*%
G04 Aperture macros list end*
%ADD10R,0.630000X0.450000*%
%ADD11R,1.700000X2.600000*%
%ADD12RoundRect,0.135000X-0.135000X-0.185000X0.135000X-0.185000X0.135000X0.185000X-0.135000X0.185000X0*%
%ADD13RoundRect,0.140000X0.170000X-0.140000X0.170000X0.140000X-0.170000X0.140000X-0.170000X-0.140000X0*%
%ADD14RoundRect,0.135000X0.135000X0.185000X-0.135000X0.185000X-0.135000X-0.185000X0.135000X-0.185000X0*%
%ADD15RoundRect,0.140000X-0.140000X-0.170000X0.140000X-0.170000X0.140000X0.170000X-0.140000X0.170000X0*%
%ADD16RoundRect,0.140000X0.219203X0.021213X0.021213X0.219203X-0.219203X-0.021213X-0.021213X-0.219203X0*%
%ADD17RoundRect,0.140000X-0.170000X0.140000X-0.170000X-0.140000X0.170000X-0.140000X0.170000X0.140000X0*%
%ADD18RoundRect,0.062500X-0.375000X-0.062500X0.375000X-0.062500X0.375000X0.062500X-0.375000X0.062500X0*%
%ADD19RoundRect,0.062500X-0.062500X-0.375000X0.062500X-0.375000X0.062500X0.375000X-0.062500X0.375000X0*%
%ADD20R,1.600000X1.600000*%
%ADD21RoundRect,0.135000X-0.185000X0.135000X-0.185000X-0.135000X0.185000X-0.135000X0.185000X0.135000X0*%
%ADD22R,1.700000X1.700000*%
%ADD23C,1.700000*%
%ADD24C,0.650000*%
%ADD25R,0.600000X1.450000*%
%ADD26R,0.300000X1.450000*%
%ADD27O,1.000000X2.100000*%
%ADD28O,1.000000X1.600000*%
%ADD29RoundRect,0.250000X0.450000X0.350000X-0.450000X0.350000X-0.450000X-0.350000X0.450000X-0.350000X0*%
%ADD30RoundRect,0.200000X0.800000X-0.200000X0.800000X0.200000X-0.800000X0.200000X-0.800000X-0.200000X0*%
%ADD31RoundRect,0.050000X-0.387500X-0.050000X0.387500X-0.050000X0.387500X0.050000X-0.387500X0.050000X0*%
%ADD32RoundRect,0.050000X-0.050000X-0.387500X0.050000X-0.387500X0.050000X0.387500X-0.050000X0.387500X0*%
%ADD33R,3.200000X3.200000*%
%ADD34RoundRect,0.140000X0.140000X0.170000X-0.140000X0.170000X-0.140000X-0.170000X0.140000X-0.170000X0*%
%ADD35RoundRect,0.200000X-0.800000X0.200000X-0.800000X-0.200000X0.800000X-0.200000X0.800000X0.200000X0*%
%ADD36RoundRect,0.225000X0.250000X-0.225000X0.250000X0.225000X-0.250000X0.225000X-0.250000X-0.225000X0*%
%ADD37RoundRect,0.218750X-0.256250X0.218750X-0.256250X-0.218750X0.256250X-0.218750X0.256250X0.218750X0*%
%ADD38RoundRect,0.218750X0.256250X-0.218750X0.256250X0.218750X-0.256250X0.218750X-0.256250X-0.218750X0*%
%ADD39RoundRect,0.225000X-0.250000X0.225000X-0.250000X-0.225000X0.250000X-0.225000X0.250000X0.225000X0*%
%ADD40RoundRect,0.135000X0.185000X-0.135000X0.185000X0.135000X-0.185000X0.135000X-0.185000X-0.135000X0*%
%ADD41RoundRect,0.125000X-0.262500X-0.125000X0.262500X-0.125000X0.262500X0.125000X-0.262500X0.125000X0*%
%ADD42R,3.400000X4.000000*%
%ADD43RoundRect,0.225000X0.225000X0.250000X-0.225000X0.250000X-0.225000X-0.250000X0.225000X-0.250000X0*%
G04 APERTURE END LIST*
D10*
%TO.C,U4*%
X139620000Y-72316000D03*
X139620000Y-73266000D03*
X139620000Y-74216000D03*
X142300000Y-74216000D03*
X142300000Y-73266000D03*
X142300000Y-72316000D03*
D11*
X140960000Y-73266000D03*
%TD*%
D12*
%TO.C,R6*%
X139090000Y-79300000D03*
X140110000Y-79300000D03*
%TD*%
D13*
%TO.C,C8*%
X148950000Y-87480000D03*
X148950000Y-86520000D03*
%TD*%
D12*
%TO.C,R14*%
X147740000Y-103000000D03*
X148760000Y-103000000D03*
%TD*%
D14*
%TO.C,R5*%
X144510000Y-97400000D03*
X143490000Y-97400000D03*
%TD*%
D15*
%TO.C,C7*%
X149440000Y-88500000D03*
X150400000Y-88500000D03*
%TD*%
D16*
%TO.C,C4*%
X139589411Y-93089411D03*
X138910589Y-92410589D03*
%TD*%
D17*
%TO.C,C15*%
X140200000Y-99220000D03*
X140200000Y-100180000D03*
%TD*%
D18*
%TO.C,U1*%
X147712500Y-73887500D03*
X147712500Y-74387500D03*
X147712500Y-74887500D03*
X147712500Y-75387500D03*
D19*
X148400000Y-76075000D03*
X148900000Y-76075000D03*
X149400000Y-76075000D03*
X149900000Y-76075000D03*
D18*
X150587500Y-75387500D03*
X150587500Y-74887500D03*
X150587500Y-74387500D03*
X150587500Y-73887500D03*
D19*
X149900000Y-73200000D03*
X149400000Y-73200000D03*
X148900000Y-73200000D03*
X148400000Y-73200000D03*
D20*
X149150000Y-74637500D03*
%TD*%
D21*
%TO.C,R13*%
X150800000Y-71390000D03*
X150800000Y-72410000D03*
%TD*%
D12*
%TO.C,R2*%
X143390000Y-70300000D03*
X144410000Y-70300000D03*
%TD*%
D15*
%TO.C,C14*%
X149320000Y-85500000D03*
X150280000Y-85500000D03*
%TD*%
D22*
%TO.C,J2*%
X153890000Y-63370000D03*
D23*
X153890000Y-65910000D03*
X153890000Y-68450000D03*
X153890000Y-70990000D03*
X153890000Y-73530000D03*
X153890000Y-76070000D03*
X153890000Y-78610000D03*
X153890000Y-81150000D03*
X153890000Y-83690000D03*
X153890000Y-86230000D03*
X153890000Y-88770000D03*
X153890000Y-91310000D03*
X153890000Y-93850000D03*
X153890000Y-96390000D03*
X153890000Y-98930000D03*
X153890000Y-101470000D03*
X153890000Y-104010000D03*
X153890000Y-106550000D03*
X153890000Y-109090000D03*
X153890000Y-111630000D03*
%TD*%
D12*
%TO.C,R1*%
X146390000Y-70300000D03*
X147410000Y-70300000D03*
%TD*%
%TO.C,R8*%
X139890000Y-102000000D03*
X140910000Y-102000000D03*
%TD*%
D13*
%TO.C,C16*%
X145500000Y-100330000D03*
X145500000Y-99370000D03*
%TD*%
D24*
%TO.C,J1*%
X147890000Y-67100000D03*
X142110000Y-67100000D03*
D25*
X148250000Y-68545000D03*
X147450000Y-68545000D03*
D26*
X146250000Y-68545000D03*
X145250000Y-68545000D03*
X144750000Y-68545000D03*
X143750000Y-68545000D03*
D25*
X142550000Y-68545000D03*
X141750000Y-68545000D03*
X141750000Y-68545000D03*
X142550000Y-68545000D03*
D26*
X143250000Y-68545000D03*
X144250000Y-68545000D03*
X145750000Y-68545000D03*
X146750000Y-68545000D03*
D25*
X147450000Y-68545000D03*
X148250000Y-68545000D03*
D27*
X149320000Y-67630000D03*
D28*
X149320000Y-63450000D03*
D27*
X140680000Y-67630000D03*
D28*
X140680000Y-63450000D03*
%TD*%
D29*
%TO.C,Y1*%
X143900000Y-98900000D03*
X141700000Y-98900000D03*
X141700000Y-100600000D03*
X143900000Y-100600000D03*
%TD*%
D17*
%TO.C,C13*%
X146500000Y-97420000D03*
X146500000Y-98380000D03*
%TD*%
%TO.C,C5*%
X145500000Y-97420000D03*
X145500000Y-98380000D03*
%TD*%
D21*
%TO.C,R4*%
X146700000Y-85990000D03*
X146700000Y-87010000D03*
%TD*%
D30*
%TO.C,SW1*%
X145000000Y-107350000D03*
X145000000Y-103150000D03*
%TD*%
D13*
%TO.C,C11*%
X149960000Y-87480000D03*
X149960000Y-86520000D03*
%TD*%
D31*
%TO.C,U2*%
X141562500Y-89400000D03*
X141562500Y-89800000D03*
X141562500Y-90200000D03*
X141562500Y-90600000D03*
X141562500Y-91000000D03*
X141562500Y-91400000D03*
X141562500Y-91800000D03*
X141562500Y-92200000D03*
X141562500Y-92600000D03*
X141562500Y-93000000D03*
X141562500Y-93400000D03*
X141562500Y-93800000D03*
X141562500Y-94200000D03*
X141562500Y-94600000D03*
D32*
X142400000Y-95437500D03*
X142800000Y-95437500D03*
X143200000Y-95437500D03*
X143600000Y-95437500D03*
X144000000Y-95437500D03*
X144400000Y-95437500D03*
X144800000Y-95437500D03*
X145200000Y-95437500D03*
X145600000Y-95437500D03*
X146000000Y-95437500D03*
X146400000Y-95437500D03*
X146800000Y-95437500D03*
X147200000Y-95437500D03*
X147600000Y-95437500D03*
D31*
X148437500Y-94600000D03*
X148437500Y-94200000D03*
X148437500Y-93800000D03*
X148437500Y-93400000D03*
X148437500Y-93000000D03*
X148437500Y-92600000D03*
X148437500Y-92200000D03*
X148437500Y-91800000D03*
X148437500Y-91400000D03*
X148437500Y-91000000D03*
X148437500Y-90600000D03*
X148437500Y-90200000D03*
X148437500Y-89800000D03*
X148437500Y-89400000D03*
D32*
X147600000Y-88562500D03*
X147200000Y-88562500D03*
X146800000Y-88562500D03*
X146400000Y-88562500D03*
X146000000Y-88562500D03*
X145600000Y-88562500D03*
X145200000Y-88562500D03*
X144800000Y-88562500D03*
X144400000Y-88562500D03*
X144000000Y-88562500D03*
X143600000Y-88562500D03*
X143200000Y-88562500D03*
X142800000Y-88562500D03*
X142400000Y-88562500D03*
D33*
X145000000Y-92000000D03*
%TD*%
D14*
%TO.C,R7*%
X141810000Y-87300000D03*
X140790000Y-87300000D03*
%TD*%
D22*
%TO.C,J4*%
X142460000Y-111390000D03*
D23*
X145000000Y-111390000D03*
X147540000Y-111390000D03*
%TD*%
D34*
%TO.C,C17*%
X144380000Y-79400000D03*
X143420000Y-79400000D03*
%TD*%
D21*
%TO.C,R12*%
X147500000Y-71290000D03*
X147500000Y-72310000D03*
%TD*%
D15*
%TO.C,C6*%
X150270000Y-92900000D03*
X151230000Y-92900000D03*
%TD*%
D35*
%TO.C,SW2*%
X141000000Y-103150000D03*
X141000000Y-107350000D03*
%TD*%
D36*
%TO.C,C19*%
X151250000Y-70175000D03*
X151250000Y-68625000D03*
%TD*%
D37*
%TO.C,D3*%
X150000000Y-79612500D03*
X150000000Y-81187500D03*
%TD*%
D21*
%TO.C,R15*%
X138500000Y-71290000D03*
X138500000Y-72310000D03*
%TD*%
D34*
%TO.C,C3*%
X140730000Y-88500000D03*
X139770000Y-88500000D03*
%TD*%
D38*
%TO.C,D4*%
X148000000Y-106037500D03*
X148000000Y-104462500D03*
%TD*%
D36*
%TO.C,C21*%
X146600000Y-78150000D03*
X146600000Y-76600000D03*
%TD*%
D39*
%TO.C,C2*%
X143600000Y-74225000D03*
X143600000Y-75775000D03*
%TD*%
D17*
%TO.C,C18*%
X147500000Y-97420000D03*
X147500000Y-98380000D03*
%TD*%
D40*
%TO.C,R11*%
X146400000Y-73385000D03*
X146400000Y-72365000D03*
%TD*%
D13*
%TO.C,C9*%
X147987312Y-84420000D03*
X147987312Y-83460000D03*
%TD*%
%TO.C,C10*%
X146967312Y-84430000D03*
X146967312Y-83470000D03*
%TD*%
D21*
%TO.C,R3*%
X145700000Y-85990000D03*
X145700000Y-87010000D03*
%TD*%
D41*
%TO.C,U3*%
X139087500Y-80735000D03*
X139087500Y-82005000D03*
X139087500Y-83275000D03*
X139087500Y-84545000D03*
X144412500Y-84545000D03*
X144412500Y-83275000D03*
X144412500Y-82005000D03*
X144412500Y-80735000D03*
D42*
X141750000Y-82640000D03*
%TD*%
D13*
%TO.C,C12*%
X147700000Y-87280000D03*
X147700000Y-86320000D03*
%TD*%
D21*
%TO.C,R9*%
X151500000Y-79490000D03*
X151500000Y-80510000D03*
%TD*%
D15*
%TO.C,C20*%
X148920000Y-72000000D03*
X149880000Y-72000000D03*
%TD*%
D22*
%TO.C,J3*%
X136110000Y-63370000D03*
D23*
X136110000Y-65910000D03*
X136110000Y-68450000D03*
X136110000Y-70990000D03*
X136110000Y-73530000D03*
X136110000Y-76070000D03*
X136110000Y-78610000D03*
X136110000Y-81150000D03*
X136110000Y-83690000D03*
X136110000Y-86230000D03*
X136110000Y-88770000D03*
X136110000Y-91310000D03*
X136110000Y-93850000D03*
X136110000Y-96390000D03*
X136110000Y-98930000D03*
X136110000Y-101470000D03*
X136110000Y-104010000D03*
X136110000Y-106550000D03*
X136110000Y-109090000D03*
X136110000Y-111630000D03*
%TD*%
D40*
%TO.C,R10*%
X146500000Y-80510000D03*
X146500000Y-79490000D03*
%TD*%
D37*
%TO.C,D2*%
X148000000Y-79612500D03*
X148000000Y-81187500D03*
%TD*%
D43*
%TO.C,C1*%
X142200000Y-70600000D03*
X140650000Y-70600000D03*
%TD*%
M02*
