%TF.GenerationSoftware,KiCad,Pcbnew,9.0.6*%
%TF.CreationDate,2025-12-31T01:01:46-06:00*%
%TF.ProjectId,fudgeboard,66756467-6562-46f6-9172-642e6b696361,rev?*%
%TF.SameCoordinates,Original*%
%TF.FileFunction,Copper,L2,Bot*%
%TF.FilePolarity,Positive*%
%FSLAX46Y46*%
G04 Gerber Fmt 4.6, Leading zero omitted, Abs format (unit mm)*
G04 Created by KiCad (PCBNEW 9.0.6) date 2025-12-31 01:01:46*
%MOMM*%
%LPD*%
G01*
G04 APERTURE LIST*
%TA.AperFunction,ComponentPad*%
%ADD10R,1.700000X1.700000*%
%TD*%
%TA.AperFunction,ComponentPad*%
%ADD11C,1.700000*%
%TD*%
%TA.AperFunction,HeatsinkPad*%
%ADD12O,1.000000X2.100000*%
%TD*%
%TA.AperFunction,HeatsinkPad*%
%ADD13O,1.000000X1.600000*%
%TD*%
%TA.AperFunction,SMDPad,CuDef*%
%ADD14R,2.500000X2.500000*%
%TD*%
%TA.AperFunction,ViaPad*%
%ADD15C,0.600000*%
%TD*%
%TA.AperFunction,Conductor*%
%ADD16C,0.200000*%
%TD*%
%TA.AperFunction,Conductor*%
%ADD17C,0.300000*%
%TD*%
G04 APERTURE END LIST*
D10*
%TO.P,J2,1,Pin_1*%
%TO.N,VBUS*%
X153890000Y-63370000D03*
D11*
%TO.P,J2,2,Pin_2*%
%TO.N,GPIO29_ADC3*%
X153890000Y-65910000D03*
%TO.P,J2,3,Pin_3*%
%TO.N,GND*%
X153890000Y-68450000D03*
%TO.P,J2,4,Pin_4*%
%TO.N,GPIO28_ADC2*%
X153890000Y-70990000D03*
%TO.P,J2,5,Pin_5*%
%TO.N,+3V3*%
X153890000Y-73530000D03*
%TO.P,J2,6,Pin_6*%
%TO.N,GPIO27_ADC1*%
X153890000Y-76070000D03*
%TO.P,J2,7,Pin_7*%
%TO.N,GPIO26_ADC0*%
X153890000Y-78610000D03*
%TO.P,J2,8,Pin_8*%
%TO.N,GND*%
X153890000Y-81150000D03*
%TO.P,J2,9,Pin_9*%
%TO.N,GPIO24*%
X153890000Y-83690000D03*
%TO.P,J2,10,Pin_10*%
%TO.N,GPIO23*%
X153890000Y-86230000D03*
%TO.P,J2,11,Pin_11*%
%TO.N,RUN*%
X153890000Y-88770000D03*
%TO.P,J2,12,Pin_12*%
%TO.N,GPIO22*%
X153890000Y-91310000D03*
%TO.P,J2,13,Pin_13*%
%TO.N,GND*%
X153890000Y-93850000D03*
%TO.P,J2,14,Pin_14*%
%TO.N,GPIO21*%
X153890000Y-96390000D03*
%TO.P,J2,15,Pin_15*%
%TO.N,GPIO20*%
X153890000Y-98930000D03*
%TO.P,J2,16,Pin_16*%
%TO.N,GPIO19*%
X153890000Y-101470000D03*
%TO.P,J2,17,Pin_17*%
%TO.N,GPIO18*%
X153890000Y-104010000D03*
%TO.P,J2,18,Pin_18*%
%TO.N,GND*%
X153890000Y-106550000D03*
%TO.P,J2,19,Pin_19*%
%TO.N,GPIO17*%
X153890000Y-109090000D03*
%TO.P,J2,20,Pin_20*%
%TO.N,GPIO16*%
X153890000Y-111630000D03*
%TD*%
D12*
%TO.P,J1,S1,SHIELD*%
%TO.N,GND*%
X149320000Y-67630000D03*
D13*
X149320000Y-63450000D03*
D12*
X140680000Y-67630000D03*
D13*
X140680000Y-63450000D03*
%TD*%
D10*
%TO.P,J4,1,Pin_1*%
%TO.N,SWCLK*%
X142460000Y-111390000D03*
D11*
%TO.P,J4,2,Pin_2*%
%TO.N,GND*%
X145000000Y-111390000D03*
%TO.P,J4,3,Pin_3*%
%TO.N,SWD*%
X147540000Y-111390000D03*
%TD*%
D10*
%TO.P,J3,1,Pin_1*%
%TO.N,GPIO0*%
X136110000Y-63370000D03*
D11*
%TO.P,J3,2,Pin_2*%
%TO.N,GPIO1*%
X136110000Y-65910000D03*
%TO.P,J3,3,Pin_3*%
%TO.N,GND*%
X136110000Y-68450000D03*
%TO.P,J3,4,Pin_4*%
%TO.N,GPIO2*%
X136110000Y-70990000D03*
%TO.P,J3,5,Pin_5*%
%TO.N,GPIO3*%
X136110000Y-73530000D03*
%TO.P,J3,6,Pin_6*%
%TO.N,GPIO4*%
X136110000Y-76070000D03*
%TO.P,J3,7,Pin_7*%
%TO.N,GPIO5*%
X136110000Y-78610000D03*
%TO.P,J3,8,Pin_8*%
%TO.N,GND*%
X136110000Y-81150000D03*
%TO.P,J3,9,Pin_9*%
%TO.N,GPIO6*%
X136110000Y-83690000D03*
%TO.P,J3,10,Pin_10*%
%TO.N,GPIO7*%
X136110000Y-86230000D03*
%TO.P,J3,11,Pin_11*%
%TO.N,GPIO8*%
X136110000Y-88770000D03*
%TO.P,J3,12,Pin_12*%
%TO.N,GPIO9*%
X136110000Y-91310000D03*
%TO.P,J3,13,Pin_13*%
%TO.N,GND*%
X136110000Y-93850000D03*
%TO.P,J3,14,Pin_14*%
%TO.N,GPIO10*%
X136110000Y-96390000D03*
%TO.P,J3,15,Pin_15*%
%TO.N,GPIO11*%
X136110000Y-98930000D03*
%TO.P,J3,16,Pin_16*%
%TO.N,GPIO12*%
X136110000Y-101470000D03*
%TO.P,J3,17,Pin_17*%
%TO.N,GPIO13*%
X136110000Y-104010000D03*
%TO.P,J3,18,Pin_18*%
%TO.N,GND*%
X136110000Y-106550000D03*
%TO.P,J3,19,Pin_19*%
%TO.N,GPIO14*%
X136110000Y-109090000D03*
%TO.P,J3,20,Pin_20*%
%TO.N,GPIO15*%
X136110000Y-111630000D03*
%TD*%
D14*
%TO.P,TP2,1,1*%
%TO.N,GND*%
X149150000Y-70737500D03*
%TD*%
%TO.P,TP1,1,1*%
%TO.N,Net-(C21-Pad2)*%
X149150000Y-74637500D03*
%TD*%
D15*
%TO.N,GND*%
X152565687Y-95565687D03*
X138540000Y-63450000D03*
X151434313Y-94434313D03*
X147250000Y-99500000D03*
X146960000Y-82220000D03*
X145500000Y-90000000D03*
X138020735Y-91529265D03*
X151220000Y-63450000D03*
X141000000Y-105900000D03*
X141800000Y-102000000D03*
X150599000Y-76410604D03*
X152032900Y-83010000D03*
X148470000Y-107610000D03*
X139706199Y-83913677D03*
X143000000Y-91000000D03*
X139711702Y-81370001D03*
X145000000Y-108800000D03*
X141700000Y-97671000D03*
X145000000Y-105850000D03*
X144410000Y-71270000D03*
X140960000Y-75530000D03*
X143110000Y-93770000D03*
X138100000Y-108200000D03*
X147100000Y-90500000D03*
X139770000Y-87855076D03*
X149240000Y-84260000D03*
X146500000Y-100250000D03*
X145030000Y-63450000D03*
X143788298Y-83910000D03*
X143780000Y-81370001D03*
X143500000Y-89750000D03*
X146410000Y-71270000D03*
X146500000Y-99500000D03*
X147785735Y-77465735D03*
X137520000Y-69870000D03*
%TO.N,+3V3*%
X144675000Y-74220000D03*
X145383946Y-87766373D03*
X138049587Y-92401060D03*
X144380000Y-78160000D03*
X139850000Y-101000000D03*
X146955038Y-85223229D03*
X147300000Y-89520000D03*
%TO.N,RUN*%
X152000000Y-95000000D03*
X148111000Y-99500000D03*
%TO.N,Net-(C21-Pad2)*%
X146710000Y-74650000D03*
%TO.N,Net-(D2-K)*%
X149000543Y-77011481D03*
X148224265Y-78724265D03*
%TO.N,Net-(D3-K)*%
X149089737Y-78800000D03*
X150341241Y-77548496D03*
%TO.N,GPIO28_ADC2*%
X150325735Y-90000000D03*
X152800000Y-74770000D03*
%TO.N,GPIO29_ADC3*%
X149736874Y-89458478D03*
X152200000Y-67600000D03*
X151648529Y-78199999D03*
%TO.N,GPIO22*%
X147624632Y-92600216D03*
%TO.N,GPIO2*%
X139880002Y-86500000D03*
%TO.N,GPIO1*%
X142385472Y-90213184D03*
%TO.N,GPIO3*%
X139079999Y-86500000D03*
%TO.N,GPIO8*%
X142375895Y-93400870D03*
%TO.N,GPIO5*%
X142483268Y-92386301D03*
%TO.N,GPIO4*%
X138279999Y-86500000D03*
%TO.N,GPIO0*%
X138200000Y-68900000D03*
X140749236Y-89800707D03*
%TO.N,GPIO14*%
X143201400Y-94623681D03*
%TO.N,SWCLK*%
X145670200Y-94297291D03*
%TO.N,SWD*%
X146830000Y-94190000D03*
%TO.N,Net-(R7-Pad2)*%
X143205735Y-102705735D03*
X141125000Y-86625000D03*
%TO.N,GPIO25*%
X147624452Y-91400440D03*
X148740000Y-101910000D03*
%TD*%
D16*
%TO.N,GND*%
X138049265Y-91529265D02*
X139210000Y-92690000D01*
X138020735Y-91529265D02*
X136110000Y-93440000D01*
X139770000Y-87855076D02*
X140481002Y-87144074D01*
X138020735Y-91529265D02*
X138020735Y-91430735D01*
X138020735Y-91529265D02*
X138049265Y-91529265D01*
X140481002Y-84688480D02*
X139706199Y-83913677D01*
X136110000Y-93440000D02*
X136110000Y-93850000D01*
X138020735Y-91430735D02*
X136660000Y-90070000D01*
X140481002Y-87144074D02*
X140481002Y-84688480D01*
%TO.N,+3V3*%
X145383946Y-87766373D02*
X146955038Y-86195281D01*
X147300000Y-89520000D02*
X146955038Y-89175038D01*
X144380000Y-78160000D02*
X144380000Y-82648191D01*
X153890000Y-73530000D02*
X153040000Y-72680000D01*
X139850000Y-94201473D02*
X139850000Y-101000000D01*
X146955038Y-89175038D02*
X146955038Y-85223229D01*
X146955038Y-86195281D02*
X146955038Y-85223229D01*
X153040000Y-72680000D02*
X146215000Y-72680000D01*
X146215000Y-72680000D02*
X144675000Y-74220000D01*
X144380000Y-82648191D02*
X146955038Y-85223229D01*
X138049587Y-92401060D02*
X139850000Y-94201473D01*
%TO.N,RUN*%
X149810000Y-102080000D02*
X149810000Y-97190000D01*
X149810000Y-97190000D02*
X152000000Y-95000000D01*
X148430000Y-102740000D02*
X149150000Y-102740000D01*
X149150000Y-102740000D02*
X149810000Y-102080000D01*
X148111000Y-102421000D02*
X148430000Y-102740000D01*
X148111000Y-99489000D02*
X148111000Y-102421000D01*
D17*
%TO.N,Net-(C21-Pad2)*%
X146710000Y-74650000D02*
X149137500Y-74650000D01*
X149137500Y-74650000D02*
X149150000Y-74637500D01*
D16*
%TO.N,Net-(D2-K)*%
X149000543Y-77011481D02*
X149000543Y-77995063D01*
X148271341Y-78724265D02*
X148224265Y-78724265D01*
X149000543Y-77995063D02*
X148271341Y-78724265D01*
%TO.N,Net-(D3-K)*%
X150341241Y-77548496D02*
X149089737Y-78800000D01*
%TO.N,GPIO28_ADC2*%
X152670000Y-74900000D02*
X152670000Y-87655735D01*
X152670000Y-87655735D02*
X150325735Y-90000000D01*
X152800000Y-74770000D02*
X152670000Y-74900000D01*
%TO.N,GPIO29_ADC3*%
X148520000Y-88241604D02*
X149736874Y-89458478D01*
X151648529Y-78201471D02*
X148520000Y-81330000D01*
X151648529Y-78199999D02*
X151648529Y-78201471D01*
X153890000Y-65910000D02*
X152200000Y-67600000D01*
X148520000Y-81330000D02*
X148520000Y-88241604D01*
%TO.N,GPIO22*%
X147624632Y-92600216D02*
X152599784Y-92600216D01*
X152599784Y-92600216D02*
X153890000Y-91310000D01*
%TO.N,GPIO2*%
X138464000Y-73344000D02*
X136110000Y-70990000D01*
X138464000Y-85011845D02*
X138464000Y-73344000D01*
X139900215Y-86498000D02*
X139900215Y-86448060D01*
X139900215Y-86448060D02*
X138464000Y-85011845D01*
%TO.N,GPIO1*%
X142385472Y-72175472D02*
X136120000Y-65910000D01*
X142385472Y-90213184D02*
X142385472Y-72175472D01*
X136120000Y-65910000D02*
X136110000Y-65910000D01*
%TO.N,GPIO3*%
X139100212Y-86290212D02*
X138063000Y-85253000D01*
X138063000Y-85253000D02*
X138063000Y-75483000D01*
X139100212Y-86498000D02*
X139100212Y-86290212D01*
X138063000Y-75483000D02*
X136110000Y-73530000D01*
%TO.N,GPIO8*%
X140743885Y-93403885D02*
X136110000Y-88770000D01*
X142375895Y-93400870D02*
X140746900Y-93400870D01*
X140746900Y-93400870D02*
X140743885Y-93403885D01*
%TO.N,GPIO5*%
X142483268Y-92386301D02*
X141896677Y-91799710D01*
X140289710Y-91799710D02*
X137261000Y-88771000D01*
X137261000Y-79761000D02*
X136110000Y-78610000D01*
X141896677Y-91799710D02*
X140289710Y-91799710D01*
X137261000Y-88771000D02*
X137261000Y-79761000D01*
%TO.N,GPIO4*%
X138279999Y-86497099D02*
X138279234Y-86497864D01*
X137662000Y-85894550D02*
X137662000Y-77622000D01*
X138279234Y-86497864D02*
X138265314Y-86497864D01*
X138265314Y-86497864D02*
X137662000Y-85894550D01*
X137662000Y-77622000D02*
X136110000Y-76070000D01*
%TO.N,GPIO0*%
X138200000Y-68900000D02*
X141850000Y-72550000D01*
X141850000Y-72550000D02*
X141850000Y-88699943D01*
X141850000Y-88699943D02*
X140749236Y-89800707D01*
%TO.N,GPIO14*%
X143201400Y-94623681D02*
X143201400Y-101748600D01*
X136110000Y-108840000D02*
X136110000Y-109090000D01*
X143201400Y-101748600D02*
X136110000Y-108840000D01*
%TO.N,SWCLK*%
X144470000Y-102290000D02*
X144470000Y-95497491D01*
X142460000Y-111390000D02*
X142460000Y-104300000D01*
X142460000Y-104300000D02*
X144470000Y-102290000D01*
X144470000Y-95497491D02*
X145670200Y-94297291D01*
%TO.N,SWD*%
X146830000Y-94190000D02*
X144999000Y-96021000D01*
X147540000Y-104789943D02*
X147540000Y-111390000D01*
X144999000Y-96021000D02*
X144999000Y-102248943D01*
X144999000Y-102248943D02*
X147540000Y-104789943D01*
%TO.N,Net-(R7-Pad2)*%
X144069000Y-101842470D02*
X143205735Y-102705735D01*
X140934142Y-88665858D02*
X140148236Y-89451764D01*
X142256910Y-91310000D02*
X144069000Y-93122090D01*
X140934142Y-86815858D02*
X140934142Y-88665858D01*
X141125000Y-86625000D02*
X140934142Y-86815858D01*
X140148236Y-90049650D02*
X141408586Y-91310000D01*
X141408586Y-91310000D02*
X142256910Y-91310000D01*
X140148236Y-89451764D02*
X140148236Y-90049650D01*
X144069000Y-93122090D02*
X144069000Y-101842470D01*
%TO.N,GPIO25*%
X147023632Y-93193632D02*
X148740000Y-94910000D01*
X148740000Y-94910000D02*
X148740000Y-101910000D01*
X147023632Y-92001260D02*
X147023632Y-93193632D01*
X147624452Y-91400440D02*
X147023632Y-92001260D01*
%TD*%
%TA.AperFunction,Conductor*%
%TO.N,GND*%
G36*
X142616074Y-102979041D02*
G01*
X142638276Y-102980629D01*
X142648965Y-102988631D01*
X142661784Y-102992369D01*
X142688501Y-103015431D01*
X142696349Y-103024454D01*
X142725215Y-103074451D01*
X142837019Y-103186255D01*
X142837159Y-103186335D01*
X142840382Y-103190041D01*
X142853230Y-103218035D01*
X142867989Y-103245063D01*
X142867671Y-103249498D01*
X142869527Y-103253541D01*
X142865202Y-103284033D01*
X142863005Y-103314755D01*
X142860339Y-103318315D01*
X142859715Y-103322719D01*
X142834504Y-103359102D01*
X142139522Y-104054084D01*
X142139518Y-104054090D01*
X142086792Y-104145412D01*
X142086793Y-104145413D01*
X142059500Y-104247273D01*
X142059500Y-110115500D01*
X142039815Y-110182539D01*
X141987011Y-110228294D01*
X141935500Y-110239500D01*
X141565143Y-110239500D01*
X141565117Y-110239502D01*
X141540012Y-110242413D01*
X141540008Y-110242415D01*
X141437235Y-110287793D01*
X141357794Y-110367234D01*
X141312415Y-110470006D01*
X141312415Y-110470008D01*
X141309500Y-110495131D01*
X141309500Y-112284856D01*
X141309502Y-112284882D01*
X141312413Y-112309986D01*
X141312414Y-112309990D01*
X141312415Y-112309991D01*
X141319225Y-112325414D01*
X141328297Y-112394690D01*
X141298475Y-112457876D01*
X141239226Y-112494907D01*
X141205791Y-112499500D01*
X137143733Y-112499500D01*
X137076694Y-112479815D01*
X137030939Y-112427011D01*
X137020995Y-112357853D01*
X137043414Y-112302615D01*
X137068887Y-112267554D01*
X137093996Y-112232994D01*
X137176211Y-112071639D01*
X137232171Y-111899409D01*
X137249484Y-111790099D01*
X137260500Y-111720551D01*
X137260500Y-111539448D01*
X137236829Y-111390001D01*
X137232171Y-111360591D01*
X137191713Y-111236073D01*
X137176212Y-111188363D01*
X137176211Y-111188360D01*
X137122523Y-111082993D01*
X137093996Y-111027006D01*
X137067038Y-110989901D01*
X136987558Y-110880505D01*
X136987554Y-110880500D01*
X136859499Y-110752445D01*
X136859494Y-110752441D01*
X136712997Y-110646006D01*
X136712996Y-110646005D01*
X136712994Y-110646004D01*
X136661300Y-110619664D01*
X136551639Y-110563788D01*
X136551636Y-110563787D01*
X136379410Y-110507829D01*
X136219321Y-110482473D01*
X136156186Y-110452544D01*
X136119255Y-110393232D01*
X136120253Y-110323370D01*
X136158863Y-110265137D01*
X136219321Y-110237527D01*
X136289425Y-110226422D01*
X136379409Y-110212171D01*
X136551639Y-110156211D01*
X136712994Y-110073996D01*
X136859501Y-109967553D01*
X136987553Y-109839501D01*
X137093996Y-109692994D01*
X137176211Y-109531639D01*
X137232171Y-109359409D01*
X137246765Y-109267259D01*
X137260500Y-109180551D01*
X137260500Y-108999448D01*
X137244019Y-108895397D01*
X137232171Y-108820591D01*
X137176211Y-108648361D01*
X137176209Y-108648356D01*
X137144691Y-108586500D01*
X137113087Y-108524475D01*
X137100191Y-108455808D01*
X137126467Y-108391067D01*
X137135882Y-108380509D01*
X142507263Y-103009128D01*
X142518979Y-103002731D01*
X142527705Y-102992623D01*
X142549049Y-102986311D01*
X142568584Y-102975645D01*
X142581901Y-102976597D01*
X142594707Y-102972811D01*
X142616074Y-102979041D01*
G37*
%TD.AperFunction*%
%TA.AperFunction,Conductor*%
G36*
X143815702Y-111450214D02*
G01*
X143853476Y-111508992D01*
X143856972Y-111524529D01*
X143878317Y-111659293D01*
X143934251Y-111831444D01*
X143934252Y-111831447D01*
X144016431Y-111992730D01*
X144027913Y-112008532D01*
X144027913Y-112008533D01*
X144517037Y-111519409D01*
X144534075Y-111582993D01*
X144599901Y-111697007D01*
X144692993Y-111790099D01*
X144807007Y-111855925D01*
X144870590Y-111872962D01*
X144381466Y-112362085D01*
X144381757Y-112365771D01*
X144367393Y-112434149D01*
X144318341Y-112483905D01*
X144258139Y-112499500D01*
X143714210Y-112499500D01*
X143647171Y-112479815D01*
X143601416Y-112427011D01*
X143591472Y-112357853D01*
X143600775Y-112325414D01*
X143600776Y-112325412D01*
X143607585Y-112309991D01*
X143610500Y-112284865D01*
X143610499Y-111543925D01*
X143630183Y-111476888D01*
X143682987Y-111431133D01*
X143752146Y-111421189D01*
X143815702Y-111450214D01*
G37*
%TD.AperFunction*%
%TA.AperFunction,Conductor*%
G36*
X146306376Y-111398652D02*
G01*
X146364609Y-111437261D01*
X146392219Y-111497720D01*
X146417828Y-111659410D01*
X146473787Y-111831636D01*
X146473788Y-111831639D01*
X146508320Y-111899410D01*
X146555869Y-111992730D01*
X146556006Y-111992997D01*
X146662441Y-112139494D01*
X146662445Y-112139499D01*
X146790500Y-112267554D01*
X146790505Y-112267558D01*
X146800998Y-112275182D01*
X146843664Y-112330512D01*
X146849643Y-112400125D01*
X146817037Y-112461920D01*
X146756199Y-112496277D01*
X146728113Y-112499500D01*
X145741861Y-112499500D01*
X145674822Y-112479815D01*
X145629067Y-112427011D01*
X145618243Y-112365774D01*
X145618533Y-112362085D01*
X145129410Y-111872962D01*
X145192993Y-111855925D01*
X145307007Y-111790099D01*
X145400099Y-111697007D01*
X145465925Y-111582993D01*
X145482962Y-111519410D01*
X145972085Y-112008533D01*
X145972085Y-112008532D01*
X145983568Y-111992730D01*
X146065745Y-111831452D01*
X146065748Y-111831444D01*
X146121683Y-111659292D01*
X146147273Y-111497721D01*
X146177202Y-111434586D01*
X146236513Y-111397654D01*
X146306376Y-111398652D01*
G37*
%TD.AperFunction*%
%TA.AperFunction,Conductor*%
G36*
X153476716Y-92385424D02*
G01*
X153620591Y-92432171D01*
X153740038Y-92451089D01*
X153782279Y-92457780D01*
X153845414Y-92487709D01*
X153882345Y-92547021D01*
X153881347Y-92616883D01*
X153842737Y-92675116D01*
X153782279Y-92702726D01*
X153620706Y-92728317D01*
X153448555Y-92784251D01*
X153448547Y-92784254D01*
X153287269Y-92866432D01*
X153271466Y-92877912D01*
X153271466Y-92877913D01*
X153760591Y-93367037D01*
X153697007Y-93384075D01*
X153582993Y-93449901D01*
X153489901Y-93542993D01*
X153424075Y-93657007D01*
X153407037Y-93720590D01*
X152917913Y-93231466D01*
X152917912Y-93231466D01*
X152906432Y-93247269D01*
X152824254Y-93408547D01*
X152824251Y-93408555D01*
X152768317Y-93580706D01*
X152740000Y-93759493D01*
X152740000Y-93940506D01*
X152768317Y-94119293D01*
X152824251Y-94291444D01*
X152824252Y-94291447D01*
X152906431Y-94452730D01*
X152917913Y-94468532D01*
X152917913Y-94468533D01*
X153407037Y-93979409D01*
X153424075Y-94042993D01*
X153489901Y-94157007D01*
X153582993Y-94250099D01*
X153697007Y-94315925D01*
X153760590Y-94332962D01*
X153271466Y-94822085D01*
X153271466Y-94822086D01*
X153287267Y-94833566D01*
X153287275Y-94833571D01*
X153448552Y-94915747D01*
X153448555Y-94915748D01*
X153620706Y-94971682D01*
X153782279Y-94997273D01*
X153845413Y-95027202D01*
X153882345Y-95086513D01*
X153881347Y-95156376D01*
X153842738Y-95214609D01*
X153782280Y-95242219D01*
X153620589Y-95267829D01*
X153448363Y-95323787D01*
X153448360Y-95323788D01*
X153287002Y-95406006D01*
X153140505Y-95512441D01*
X153140500Y-95512445D01*
X153012445Y-95640500D01*
X153012441Y-95640505D01*
X152906006Y-95787002D01*
X152823788Y-95948360D01*
X152823787Y-95948363D01*
X152767829Y-96120589D01*
X152739500Y-96299448D01*
X152739500Y-96480551D01*
X152767829Y-96659410D01*
X152823787Y-96831636D01*
X152823788Y-96831639D01*
X152879664Y-96941300D01*
X152881084Y-96944087D01*
X152906006Y-96992997D01*
X153012441Y-97139494D01*
X153012445Y-97139499D01*
X153140500Y-97267554D01*
X153140505Y-97267558D01*
X153240510Y-97340215D01*
X153287006Y-97373996D01*
X153392484Y-97427740D01*
X153448360Y-97456211D01*
X153448363Y-97456212D01*
X153534476Y-97484191D01*
X153620591Y-97512171D01*
X153693639Y-97523740D01*
X153780678Y-97537527D01*
X153843813Y-97567456D01*
X153880744Y-97626768D01*
X153879746Y-97696631D01*
X153841136Y-97754863D01*
X153780678Y-97782473D01*
X153620589Y-97807829D01*
X153448363Y-97863787D01*
X153448360Y-97863788D01*
X153287002Y-97946006D01*
X153140505Y-98052441D01*
X153140500Y-98052445D01*
X153012445Y-98180500D01*
X153012441Y-98180505D01*
X152906006Y-98327002D01*
X152823788Y-98488360D01*
X152823787Y-98488363D01*
X152767829Y-98660589D01*
X152739500Y-98839448D01*
X152739500Y-99020551D01*
X152767829Y-99199410D01*
X152823787Y-99371636D01*
X152823788Y-99371639D01*
X152906006Y-99532997D01*
X153012441Y-99679494D01*
X153012445Y-99679499D01*
X153140500Y-99807554D01*
X153140505Y-99807558D01*
X153224673Y-99868709D01*
X153287006Y-99913996D01*
X153355187Y-99948736D01*
X153448360Y-99996211D01*
X153448363Y-99996212D01*
X153534476Y-100024191D01*
X153620591Y-100052171D01*
X153693639Y-100063740D01*
X153780678Y-100077527D01*
X153843813Y-100107456D01*
X153880744Y-100166768D01*
X153879746Y-100236631D01*
X153841136Y-100294863D01*
X153780678Y-100322473D01*
X153620589Y-100347829D01*
X153448363Y-100403787D01*
X153448360Y-100403788D01*
X153287002Y-100486006D01*
X153140505Y-100592441D01*
X153140500Y-100592445D01*
X153012445Y-100720500D01*
X153012441Y-100720505D01*
X152906006Y-100867002D01*
X152823788Y-101028360D01*
X152823787Y-101028363D01*
X152767829Y-101200589D01*
X152739500Y-101379448D01*
X152739500Y-101560551D01*
X152767829Y-101739410D01*
X152823787Y-101911636D01*
X152823788Y-101911639D01*
X152860204Y-101983107D01*
X152884957Y-102031688D01*
X152906006Y-102072997D01*
X153012441Y-102219494D01*
X153012445Y-102219499D01*
X153140500Y-102347554D01*
X153140505Y-102347558D01*
X153268287Y-102440396D01*
X153287006Y-102453996D01*
X153392484Y-102507740D01*
X153448360Y-102536211D01*
X153448363Y-102536212D01*
X153534476Y-102564191D01*
X153620591Y-102592171D01*
X153693639Y-102603740D01*
X153780678Y-102617527D01*
X153843813Y-102647456D01*
X153880744Y-102706768D01*
X153879746Y-102776631D01*
X153841136Y-102834863D01*
X153780678Y-102862473D01*
X153620589Y-102887829D01*
X153448363Y-102943787D01*
X153448360Y-102943788D01*
X153287002Y-103026006D01*
X153140505Y-103132441D01*
X153140500Y-103132445D01*
X153012445Y-103260500D01*
X153012441Y-103260505D01*
X152906006Y-103407002D01*
X152823788Y-103568360D01*
X152823787Y-103568363D01*
X152767829Y-103740589D01*
X152739500Y-103919448D01*
X152739500Y-104100551D01*
X152767829Y-104279410D01*
X152823787Y-104451636D01*
X152823788Y-104451639D01*
X152906006Y-104612997D01*
X153012441Y-104759494D01*
X153012445Y-104759499D01*
X153140500Y-104887554D01*
X153140505Y-104887558D01*
X153268287Y-104980396D01*
X153287006Y-104993996D01*
X153392484Y-105047740D01*
X153448360Y-105076211D01*
X153448363Y-105076212D01*
X153534476Y-105104191D01*
X153620591Y-105132171D01*
X153740038Y-105151089D01*
X153782279Y-105157780D01*
X153845414Y-105187709D01*
X153882345Y-105247021D01*
X153881347Y-105316883D01*
X153842737Y-105375116D01*
X153782279Y-105402726D01*
X153620706Y-105428317D01*
X153448555Y-105484251D01*
X153448547Y-105484254D01*
X153287269Y-105566432D01*
X153271466Y-105577912D01*
X153271466Y-105577913D01*
X153760591Y-106067037D01*
X153697007Y-106084075D01*
X153582993Y-106149901D01*
X153489901Y-106242993D01*
X153424075Y-106357007D01*
X153407037Y-106420590D01*
X152917913Y-105931466D01*
X152917912Y-105931466D01*
X152906432Y-105947269D01*
X152824254Y-106108547D01*
X152824251Y-106108555D01*
X152768317Y-106280706D01*
X152740000Y-106459493D01*
X152740000Y-106640506D01*
X152768317Y-106819293D01*
X152824251Y-106991444D01*
X152824252Y-106991447D01*
X152906431Y-107152730D01*
X152917913Y-107168532D01*
X152917913Y-107168533D01*
X153407037Y-106679409D01*
X153424075Y-106742993D01*
X153489901Y-106857007D01*
X153582993Y-106950099D01*
X153697007Y-107015925D01*
X153760590Y-107032962D01*
X153271466Y-107522085D01*
X153271466Y-107522086D01*
X153287267Y-107533566D01*
X153287275Y-107533571D01*
X153448552Y-107615747D01*
X153448555Y-107615748D01*
X153620706Y-107671682D01*
X153782279Y-107697273D01*
X153845413Y-107727202D01*
X153882345Y-107786513D01*
X153881347Y-107856376D01*
X153842738Y-107914609D01*
X153782280Y-107942219D01*
X153620589Y-107967829D01*
X153448363Y-108023787D01*
X153448360Y-108023788D01*
X153287002Y-108106006D01*
X153140505Y-108212441D01*
X153140500Y-108212445D01*
X153012445Y-108340500D01*
X153012441Y-108340505D01*
X152906006Y-108487002D01*
X152823788Y-108648360D01*
X152823787Y-108648363D01*
X152767829Y-108820589D01*
X152739500Y-108999448D01*
X152739500Y-109180551D01*
X152767829Y-109359410D01*
X152823787Y-109531636D01*
X152823788Y-109531639D01*
X152906006Y-109692997D01*
X153012441Y-109839494D01*
X153012445Y-109839499D01*
X153140500Y-109967554D01*
X153140505Y-109967558D01*
X153268287Y-110060396D01*
X153287006Y-110073996D01*
X153368462Y-110115500D01*
X153448360Y-110156211D01*
X153448363Y-110156212D01*
X153529392Y-110182539D01*
X153620591Y-110212171D01*
X153693639Y-110223740D01*
X153780678Y-110237527D01*
X153843813Y-110267456D01*
X153880744Y-110326768D01*
X153879746Y-110396631D01*
X153841136Y-110454863D01*
X153780678Y-110482473D01*
X153620589Y-110507829D01*
X153448363Y-110563787D01*
X153448360Y-110563788D01*
X153287002Y-110646006D01*
X153140505Y-110752441D01*
X153140500Y-110752445D01*
X153012445Y-110880500D01*
X153012441Y-110880505D01*
X152906006Y-111027002D01*
X152823788Y-111188360D01*
X152823787Y-111188363D01*
X152767829Y-111360589D01*
X152739500Y-111539448D01*
X152739500Y-111720551D01*
X152767829Y-111899410D01*
X152823787Y-112071636D01*
X152823788Y-112071639D01*
X152906003Y-112232993D01*
X152956586Y-112302615D01*
X152980065Y-112368422D01*
X152964239Y-112436476D01*
X152914133Y-112485170D01*
X152856267Y-112499500D01*
X148351887Y-112499500D01*
X148284848Y-112479815D01*
X148239093Y-112427011D01*
X148229149Y-112357853D01*
X148258174Y-112294297D01*
X148279002Y-112275182D01*
X148289494Y-112267558D01*
X148289492Y-112267558D01*
X148289501Y-112267553D01*
X148417553Y-112139501D01*
X148523996Y-111992994D01*
X148606211Y-111831639D01*
X148662171Y-111659409D01*
X148676765Y-111567259D01*
X148690500Y-111480551D01*
X148690500Y-111299448D01*
X148672905Y-111188361D01*
X148662171Y-111120591D01*
X148606273Y-110948552D01*
X148606212Y-110948363D01*
X148606211Y-110948360D01*
X148571633Y-110880499D01*
X148523996Y-110787006D01*
X148498883Y-110752441D01*
X148417558Y-110640505D01*
X148417554Y-110640500D01*
X148289499Y-110512445D01*
X148289494Y-110512441D01*
X148142997Y-110406006D01*
X148142996Y-110406005D01*
X148142994Y-110406004D01*
X148008205Y-110337325D01*
X147957409Y-110289350D01*
X147940500Y-110226840D01*
X147940500Y-104852672D01*
X147940501Y-104852659D01*
X147940501Y-104737217D01*
X147932965Y-104709092D01*
X147913207Y-104635356D01*
X147861567Y-104545913D01*
X147860480Y-104544030D01*
X147785913Y-104469463D01*
X147785910Y-104469461D01*
X146608275Y-103291826D01*
X145435819Y-102119369D01*
X145402334Y-102058046D01*
X145399500Y-102031688D01*
X145399500Y-96238255D01*
X145419185Y-96171216D01*
X145435819Y-96150574D01*
X146759574Y-94826819D01*
X146820897Y-94793334D01*
X146847255Y-94790500D01*
X146909055Y-94790500D01*
X146909057Y-94790500D01*
X147061784Y-94749577D01*
X147198716Y-94670520D01*
X147310520Y-94558716D01*
X147389577Y-94421784D01*
X147396502Y-94395936D01*
X147432863Y-94336280D01*
X147495709Y-94305748D01*
X147565085Y-94314041D01*
X147603957Y-94340350D01*
X148303181Y-95039574D01*
X148336666Y-95100897D01*
X148339500Y-95127255D01*
X148339500Y-98777943D01*
X148319815Y-98844982D01*
X148267011Y-98890737D01*
X148197853Y-98900681D01*
X148195747Y-98900249D01*
X148190058Y-98899500D01*
X148190057Y-98899500D01*
X148031943Y-98899500D01*
X147879216Y-98940423D01*
X147879209Y-98940426D01*
X147742290Y-99019475D01*
X147742282Y-99019481D01*
X147630481Y-99131282D01*
X147630475Y-99131290D01*
X147551426Y-99268209D01*
X147551423Y-99268216D01*
X147510500Y-99420943D01*
X147510500Y-99579057D01*
X147537414Y-99679499D01*
X147551423Y-99731783D01*
X147551426Y-99731790D01*
X147630475Y-99868709D01*
X147630481Y-99868717D01*
X147674181Y-99912417D01*
X147707666Y-99973740D01*
X147710500Y-100000098D01*
X147710500Y-102473726D01*
X147737793Y-102575589D01*
X147747367Y-102592171D01*
X147790520Y-102666913D01*
X148184087Y-103060480D01*
X148275412Y-103113207D01*
X148377273Y-103140500D01*
X148377275Y-103140500D01*
X149202725Y-103140500D01*
X149202727Y-103140500D01*
X149304588Y-103113207D01*
X149395913Y-103060480D01*
X150130480Y-102325913D01*
X150183207Y-102234588D01*
X150210500Y-102132727D01*
X150210500Y-102027273D01*
X150210500Y-97407254D01*
X150230185Y-97340215D01*
X150246819Y-97319573D01*
X151929573Y-95636819D01*
X151990896Y-95603334D01*
X152017254Y-95600500D01*
X152079055Y-95600500D01*
X152079057Y-95600500D01*
X152231784Y-95559577D01*
X152368716Y-95480520D01*
X152480520Y-95368716D01*
X152559577Y-95231784D01*
X152600500Y-95079057D01*
X152600500Y-94920943D01*
X152559577Y-94768216D01*
X152481070Y-94632236D01*
X152480524Y-94631290D01*
X152480518Y-94631282D01*
X152368717Y-94519481D01*
X152368709Y-94519475D01*
X152231790Y-94440426D01*
X152231786Y-94440424D01*
X152231784Y-94440423D01*
X152079057Y-94399500D01*
X151920943Y-94399500D01*
X151768216Y-94440423D01*
X151768209Y-94440426D01*
X151631290Y-94519475D01*
X151631282Y-94519481D01*
X151519481Y-94631282D01*
X151519475Y-94631290D01*
X151440426Y-94768209D01*
X151440423Y-94768216D01*
X151399500Y-94920943D01*
X151399500Y-94982745D01*
X151379815Y-95049784D01*
X151363181Y-95070426D01*
X149489522Y-96944084D01*
X149489520Y-96944087D01*
X149436793Y-97035410D01*
X149409500Y-97137273D01*
X149409500Y-101430902D01*
X149403261Y-101452147D01*
X149401682Y-101474236D01*
X149393609Y-101485019D01*
X149389815Y-101497941D01*
X149373081Y-101512440D01*
X149359810Y-101530169D01*
X149347189Y-101534876D01*
X149337011Y-101543696D01*
X149315093Y-101546847D01*
X149294346Y-101554586D01*
X149281185Y-101551723D01*
X149267853Y-101553640D01*
X149247709Y-101544440D01*
X149226073Y-101539734D01*
X149208347Y-101526465D01*
X149204297Y-101524615D01*
X149197819Y-101518583D01*
X149176819Y-101497583D01*
X149143334Y-101436260D01*
X149140500Y-101409902D01*
X149140500Y-94857275D01*
X149140500Y-94857273D01*
X149124502Y-94797567D01*
X149123368Y-94793334D01*
X149113208Y-94755413D01*
X149082795Y-94702738D01*
X149060480Y-94664087D01*
X147771500Y-93375107D01*
X147738015Y-93313784D01*
X147742999Y-93244092D01*
X147784871Y-93188159D01*
X147827086Y-93167651D01*
X147856416Y-93159793D01*
X147993348Y-93080736D01*
X148037049Y-93037035D01*
X148098372Y-93003550D01*
X148124730Y-93000716D01*
X152652509Y-93000716D01*
X152652511Y-93000716D01*
X152754372Y-92973423D01*
X152845697Y-92920696D01*
X153350719Y-92415672D01*
X153412040Y-92382189D01*
X153476716Y-92385424D01*
G37*
%TD.AperFunction*%
%TA.AperFunction,Conductor*%
G36*
X144798362Y-102630544D02*
G01*
X144842709Y-102659045D01*
X147103181Y-104919516D01*
X147136666Y-104980839D01*
X147139500Y-105007197D01*
X147139500Y-110226840D01*
X147119815Y-110293879D01*
X147071795Y-110337325D01*
X146937002Y-110406006D01*
X146790505Y-110512441D01*
X146790500Y-110512445D01*
X146662445Y-110640500D01*
X146662441Y-110640505D01*
X146556006Y-110787002D01*
X146473788Y-110948360D01*
X146473787Y-110948363D01*
X146417829Y-111120589D01*
X146392219Y-111282280D01*
X146362289Y-111345414D01*
X146302978Y-111382345D01*
X146233115Y-111381347D01*
X146174883Y-111342737D01*
X146147273Y-111282279D01*
X146121682Y-111120706D01*
X146065748Y-110948555D01*
X146065747Y-110948552D01*
X145983571Y-110787275D01*
X145983566Y-110787267D01*
X145972085Y-110771466D01*
X145482962Y-111260589D01*
X145465925Y-111197007D01*
X145400099Y-111082993D01*
X145307007Y-110989901D01*
X145192993Y-110924075D01*
X145129409Y-110907037D01*
X145618533Y-110417913D01*
X145602730Y-110406431D01*
X145441447Y-110324252D01*
X145441444Y-110324251D01*
X145269293Y-110268317D01*
X145090506Y-110240000D01*
X144909494Y-110240000D01*
X144730706Y-110268317D01*
X144558555Y-110324251D01*
X144558547Y-110324254D01*
X144397269Y-110406432D01*
X144381466Y-110417912D01*
X144381466Y-110417913D01*
X144870591Y-110907037D01*
X144807007Y-110924075D01*
X144692993Y-110989901D01*
X144599901Y-111082993D01*
X144534075Y-111197007D01*
X144517037Y-111260590D01*
X144027912Y-110771466D01*
X144016432Y-110787269D01*
X143934254Y-110948547D01*
X143934251Y-110948555D01*
X143878317Y-111120706D01*
X143856972Y-111255471D01*
X143827043Y-111318606D01*
X143767731Y-111355537D01*
X143697868Y-111354539D01*
X143639636Y-111315929D01*
X143611522Y-111251965D01*
X143610499Y-111236073D01*
X143610499Y-110495143D01*
X143610499Y-110495136D01*
X143609292Y-110484735D01*
X143608681Y-110479458D01*
X143608680Y-110479455D01*
X143607585Y-110470009D01*
X143562206Y-110367235D01*
X143482765Y-110287794D01*
X143431452Y-110265137D01*
X143379992Y-110242415D01*
X143354868Y-110239500D01*
X143354865Y-110239500D01*
X142984500Y-110239500D01*
X142917461Y-110219815D01*
X142871706Y-110167011D01*
X142860500Y-110115500D01*
X142860500Y-104517254D01*
X142880185Y-104450215D01*
X142896814Y-104429578D01*
X144667347Y-102659044D01*
X144728670Y-102625560D01*
X144798362Y-102630544D01*
G37*
%TD.AperFunction*%
%TA.AperFunction,Conductor*%
G36*
X154862084Y-107168532D02*
G01*
X154865772Y-107168242D01*
X154934149Y-107182606D01*
X154983905Y-107231658D01*
X154999500Y-107291860D01*
X154999500Y-108278113D01*
X154979815Y-108345152D01*
X154927011Y-108390907D01*
X154857853Y-108400851D01*
X154794297Y-108371826D01*
X154775182Y-108350998D01*
X154767558Y-108340505D01*
X154767554Y-108340500D01*
X154639499Y-108212445D01*
X154639494Y-108212441D01*
X154492997Y-108106006D01*
X154492996Y-108106005D01*
X154492994Y-108106004D01*
X154441300Y-108079664D01*
X154331639Y-108023788D01*
X154331636Y-108023787D01*
X154159410Y-107967828D01*
X153997720Y-107942219D01*
X153934585Y-107912289D01*
X153897654Y-107852978D01*
X153898652Y-107783115D01*
X153937262Y-107724883D01*
X153997721Y-107697273D01*
X154159292Y-107671683D01*
X154331444Y-107615748D01*
X154331452Y-107615745D01*
X154492730Y-107533568D01*
X154508532Y-107522085D01*
X154508533Y-107522085D01*
X154019410Y-107032962D01*
X154082993Y-107015925D01*
X154197007Y-106950099D01*
X154290099Y-106857007D01*
X154355925Y-106742993D01*
X154372962Y-106679410D01*
X154862084Y-107168532D01*
G37*
%TD.AperFunction*%
%TA.AperFunction,Conductor*%
G36*
X135644075Y-106742993D02*
G01*
X135709901Y-106857007D01*
X135802993Y-106950099D01*
X135917007Y-107015925D01*
X135980590Y-107032962D01*
X135491466Y-107522085D01*
X135491466Y-107522086D01*
X135507267Y-107533566D01*
X135507275Y-107533571D01*
X135668552Y-107615747D01*
X135668555Y-107615748D01*
X135840706Y-107671682D01*
X136002279Y-107697273D01*
X136065413Y-107727202D01*
X136102345Y-107786513D01*
X136101347Y-107856376D01*
X136062738Y-107914609D01*
X136002280Y-107942219D01*
X135840589Y-107967829D01*
X135668363Y-108023787D01*
X135668360Y-108023788D01*
X135507002Y-108106006D01*
X135360505Y-108212441D01*
X135360500Y-108212445D01*
X135232445Y-108340500D01*
X135232441Y-108340505D01*
X135224818Y-108350998D01*
X135169488Y-108393664D01*
X135099875Y-108399643D01*
X135038080Y-108367037D01*
X135003723Y-108306199D01*
X135000500Y-108278113D01*
X135000500Y-107291861D01*
X135020185Y-107224822D01*
X135072989Y-107179067D01*
X135134229Y-107168243D01*
X135137913Y-107168533D01*
X135627037Y-106679409D01*
X135644075Y-106742993D01*
G37*
%TD.AperFunction*%
%TA.AperFunction,Conductor*%
G36*
X136649281Y-89875674D02*
G01*
X137012705Y-90239098D01*
X137046190Y-90300421D01*
X137041206Y-90370113D01*
X137015091Y-90404996D01*
X137035354Y-90385305D01*
X137103832Y-90371430D01*
X137168941Y-90396779D01*
X137180901Y-90407294D01*
X138410262Y-91636655D01*
X138443747Y-91697978D01*
X138438763Y-91767670D01*
X138396891Y-91823603D01*
X138331427Y-91848020D01*
X138289838Y-91841286D01*
X138289222Y-91843587D01*
X138281372Y-91841483D01*
X138281371Y-91841483D01*
X138128644Y-91800560D01*
X137970530Y-91800560D01*
X137817803Y-91841483D01*
X137817796Y-91841486D01*
X137680877Y-91920535D01*
X137680869Y-91920541D01*
X137569068Y-92032342D01*
X137569062Y-92032350D01*
X137490013Y-92169269D01*
X137490010Y-92169276D01*
X137449087Y-92322003D01*
X137449087Y-92480117D01*
X137486056Y-92618085D01*
X137490010Y-92632843D01*
X137490013Y-92632850D01*
X137569062Y-92769769D01*
X137569066Y-92769774D01*
X137569067Y-92769776D01*
X137680871Y-92881580D01*
X137680873Y-92881581D01*
X137680877Y-92881584D01*
X137757314Y-92925714D01*
X137817803Y-92960637D01*
X137970530Y-93001560D01*
X138032332Y-93001560D01*
X138099371Y-93021245D01*
X138120013Y-93037879D01*
X139413181Y-94331047D01*
X139446666Y-94392370D01*
X139449500Y-94418728D01*
X139449500Y-100499902D01*
X139429815Y-100566941D01*
X139413181Y-100587583D01*
X139369481Y-100631282D01*
X139369475Y-100631290D01*
X139290426Y-100768209D01*
X139290423Y-100768216D01*
X139249500Y-100920943D01*
X139249500Y-101079057D01*
X139282065Y-101200589D01*
X139290423Y-101231783D01*
X139290426Y-101231790D01*
X139369475Y-101368709D01*
X139369479Y-101368714D01*
X139369480Y-101368716D01*
X139481284Y-101480520D01*
X139481286Y-101480521D01*
X139481290Y-101480524D01*
X139596167Y-101546847D01*
X139618216Y-101559577D01*
X139770943Y-101600500D01*
X139770945Y-101600500D01*
X139929055Y-101600500D01*
X139929057Y-101600500D01*
X140081784Y-101559577D01*
X140218716Y-101480520D01*
X140330520Y-101368716D01*
X140409577Y-101231784D01*
X140450500Y-101079057D01*
X140450500Y-100920943D01*
X140409577Y-100768216D01*
X140400114Y-100751826D01*
X140330524Y-100631290D01*
X140330518Y-100631282D01*
X140286819Y-100587583D01*
X140253334Y-100526260D01*
X140250500Y-100499902D01*
X140250500Y-94148748D01*
X140250500Y-94148746D01*
X140223207Y-94046886D01*
X140170480Y-93955560D01*
X140095913Y-93880993D01*
X138686406Y-92471486D01*
X138652921Y-92410163D01*
X138650087Y-92383805D01*
X138650087Y-92322005D01*
X138650087Y-92322003D01*
X138609164Y-92169276D01*
X138609163Y-92169274D01*
X138607060Y-92161425D01*
X138610147Y-92160597D01*
X138604277Y-92106064D01*
X138635544Y-92043581D01*
X138695629Y-92007921D01*
X138765454Y-92010406D01*
X138813991Y-92040384D01*
X140423405Y-93649798D01*
X140497972Y-93724365D01*
X140589297Y-93777092D01*
X140691158Y-93804385D01*
X140691160Y-93804385D01*
X140796610Y-93804385D01*
X140796612Y-93804385D01*
X140796613Y-93804384D01*
X140804668Y-93803324D01*
X140804747Y-93803929D01*
X140824188Y-93801370D01*
X141875797Y-93801370D01*
X141942836Y-93821055D01*
X141963478Y-93837689D01*
X142007179Y-93881390D01*
X142007181Y-93881391D01*
X142007185Y-93881394D01*
X142088917Y-93928581D01*
X142144111Y-93960447D01*
X142296838Y-94001370D01*
X142296840Y-94001370D01*
X142454950Y-94001370D01*
X142454952Y-94001370D01*
X142607679Y-93960447D01*
X142744611Y-93881390D01*
X142856415Y-93769586D01*
X142935472Y-93632654D01*
X142976395Y-93479927D01*
X142976395Y-93321813D01*
X142935472Y-93169086D01*
X142884464Y-93080736D01*
X142856419Y-93032160D01*
X142856416Y-93032157D01*
X142856415Y-93032154D01*
X142856412Y-93032151D01*
X142851469Y-93025709D01*
X142852294Y-93025075D01*
X142847628Y-93021582D01*
X142838393Y-92996822D01*
X142825729Y-92973630D01*
X142826374Y-92964600D01*
X142823211Y-92956118D01*
X142828827Y-92930297D01*
X142830713Y-92903938D01*
X142836531Y-92894884D01*
X142838063Y-92887845D01*
X142859214Y-92859591D01*
X142961980Y-92756825D01*
X143023303Y-92723340D01*
X143092995Y-92728324D01*
X143137342Y-92756825D01*
X143632181Y-93251664D01*
X143665666Y-93312987D01*
X143668500Y-93339345D01*
X143668500Y-93985189D01*
X143648815Y-94052228D01*
X143596011Y-94097983D01*
X143526853Y-94107927D01*
X143482501Y-94092577D01*
X143433184Y-94064104D01*
X143368914Y-94046883D01*
X143280457Y-94023181D01*
X143122343Y-94023181D01*
X142969616Y-94064104D01*
X142969609Y-94064107D01*
X142832690Y-94143156D01*
X142832682Y-94143162D01*
X142720881Y-94254963D01*
X142720875Y-94254971D01*
X142641826Y-94391890D01*
X142641823Y-94391897D01*
X142600900Y-94544624D01*
X142600900Y-94702738D01*
X142634148Y-94826819D01*
X142641823Y-94855464D01*
X142641826Y-94855471D01*
X142720875Y-94992390D01*
X142720881Y-94992398D01*
X142764581Y-95036098D01*
X142798066Y-95097421D01*
X142800900Y-95123779D01*
X142800900Y-101531344D01*
X142781215Y-101598383D01*
X142764581Y-101619025D01*
X137436804Y-106946801D01*
X137375481Y-106980286D01*
X137305789Y-106975302D01*
X137249856Y-106933430D01*
X137225439Y-106867966D01*
X137230792Y-106824094D01*
X137230545Y-106824035D01*
X137231063Y-106821873D01*
X137231196Y-106820790D01*
X137231683Y-106819290D01*
X137260000Y-106640506D01*
X137260000Y-106459493D01*
X137231682Y-106280706D01*
X137175748Y-106108555D01*
X137175747Y-106108552D01*
X137093571Y-105947275D01*
X137093566Y-105947267D01*
X137082085Y-105931466D01*
X136592962Y-106420590D01*
X136575925Y-106357007D01*
X136510099Y-106242993D01*
X136417007Y-106149901D01*
X136302993Y-106084075D01*
X136239409Y-106067037D01*
X136728533Y-105577913D01*
X136712730Y-105566431D01*
X136551447Y-105484252D01*
X136551444Y-105484251D01*
X136379293Y-105428317D01*
X136217720Y-105402726D01*
X136154585Y-105372797D01*
X136117654Y-105313485D01*
X136118652Y-105243623D01*
X136157262Y-105185390D01*
X136217720Y-105157780D01*
X136232270Y-105155475D01*
X136379409Y-105132171D01*
X136551639Y-105076211D01*
X136712994Y-104993996D01*
X136859501Y-104887553D01*
X136987553Y-104759501D01*
X137093996Y-104612994D01*
X137176211Y-104451639D01*
X137232171Y-104279409D01*
X137253394Y-104145412D01*
X137260500Y-104100551D01*
X137260500Y-103919448D01*
X137244019Y-103815397D01*
X137232171Y-103740591D01*
X137176211Y-103568361D01*
X137176211Y-103568360D01*
X137147740Y-103512484D01*
X137093996Y-103407006D01*
X137059192Y-103359102D01*
X136987558Y-103260505D01*
X136987554Y-103260500D01*
X136859499Y-103132445D01*
X136859494Y-103132441D01*
X136712997Y-103026006D01*
X136712996Y-103026005D01*
X136712994Y-103026004D01*
X136635093Y-102986311D01*
X136551639Y-102943788D01*
X136551636Y-102943787D01*
X136379410Y-102887829D01*
X136219321Y-102862473D01*
X136156186Y-102832544D01*
X136119255Y-102773232D01*
X136120253Y-102703370D01*
X136158863Y-102645137D01*
X136219321Y-102617527D01*
X136289425Y-102606422D01*
X136379409Y-102592171D01*
X136551639Y-102536211D01*
X136712994Y-102453996D01*
X136859501Y-102347553D01*
X136987553Y-102219501D01*
X137093996Y-102072994D01*
X137176211Y-101911639D01*
X137232171Y-101739409D01*
X137254172Y-101600500D01*
X137260500Y-101560551D01*
X137260500Y-101379448D01*
X137237111Y-101231783D01*
X137232171Y-101200591D01*
X137176211Y-101028361D01*
X137176211Y-101028360D01*
X137121478Y-100920943D01*
X137093996Y-100867006D01*
X137031401Y-100780851D01*
X136987558Y-100720505D01*
X136987554Y-100720500D01*
X136859499Y-100592445D01*
X136859494Y-100592441D01*
X136712997Y-100486006D01*
X136712996Y-100486005D01*
X136712994Y-100486004D01*
X136661300Y-100459664D01*
X136551639Y-100403788D01*
X136551636Y-100403787D01*
X136379410Y-100347829D01*
X136219321Y-100322473D01*
X136156186Y-100292544D01*
X136119255Y-100233232D01*
X136120253Y-100163370D01*
X136158863Y-100105137D01*
X136219321Y-100077527D01*
X136289425Y-100066422D01*
X136379409Y-100052171D01*
X136551639Y-99996211D01*
X136712994Y-99913996D01*
X136859501Y-99807553D01*
X136987553Y-99679501D01*
X137093996Y-99532994D01*
X137176211Y-99371639D01*
X137232171Y-99199409D01*
X137246765Y-99107259D01*
X137260500Y-99020551D01*
X137260500Y-98839448D01*
X137244019Y-98735397D01*
X137232171Y-98660591D01*
X137176211Y-98488361D01*
X137176211Y-98488360D01*
X137147740Y-98432484D01*
X137093996Y-98327006D01*
X137031401Y-98240851D01*
X136987558Y-98180505D01*
X136987554Y-98180500D01*
X136859499Y-98052445D01*
X136859494Y-98052441D01*
X136712997Y-97946006D01*
X136712996Y-97946005D01*
X136712994Y-97946004D01*
X136661300Y-97919664D01*
X136551639Y-97863788D01*
X136551636Y-97863787D01*
X136379410Y-97807829D01*
X136219321Y-97782473D01*
X136156186Y-97752544D01*
X136119255Y-97693232D01*
X136120253Y-97623370D01*
X136158863Y-97565137D01*
X136219321Y-97537527D01*
X136289425Y-97526422D01*
X136379409Y-97512171D01*
X136551639Y-97456211D01*
X136712994Y-97373996D01*
X136859501Y-97267553D01*
X136987553Y-97139501D01*
X137093996Y-96992994D01*
X137176211Y-96831639D01*
X137232171Y-96659409D01*
X137246765Y-96567259D01*
X137260500Y-96480551D01*
X137260500Y-96299448D01*
X137240189Y-96171216D01*
X137232171Y-96120591D01*
X137176211Y-95948361D01*
X137176211Y-95948360D01*
X137147740Y-95892484D01*
X137093996Y-95787006D01*
X137031401Y-95700851D01*
X136987558Y-95640505D01*
X136987554Y-95640500D01*
X136859499Y-95512445D01*
X136859494Y-95512441D01*
X136712997Y-95406006D01*
X136712996Y-95406005D01*
X136712994Y-95406004D01*
X136639799Y-95368709D01*
X136551639Y-95323788D01*
X136551636Y-95323787D01*
X136379410Y-95267828D01*
X136217720Y-95242219D01*
X136154585Y-95212289D01*
X136117654Y-95152978D01*
X136118652Y-95083115D01*
X136157262Y-95024883D01*
X136217721Y-94997273D01*
X136379292Y-94971683D01*
X136551444Y-94915748D01*
X136551452Y-94915745D01*
X136712730Y-94833568D01*
X136728532Y-94822085D01*
X136728533Y-94822085D01*
X136239410Y-94332962D01*
X136302993Y-94315925D01*
X136417007Y-94250099D01*
X136510099Y-94157007D01*
X136575925Y-94042993D01*
X136592962Y-93979410D01*
X137082085Y-94468533D01*
X137082085Y-94468532D01*
X137093568Y-94452730D01*
X137175745Y-94291452D01*
X137175748Y-94291444D01*
X137231682Y-94119293D01*
X137260000Y-93940506D01*
X137260000Y-93759493D01*
X137231682Y-93580706D01*
X137175748Y-93408555D01*
X137175747Y-93408552D01*
X137093571Y-93247275D01*
X137093566Y-93247267D01*
X137082085Y-93231466D01*
X136592962Y-93720589D01*
X136575925Y-93657007D01*
X136510099Y-93542993D01*
X136417007Y-93449901D01*
X136302993Y-93384075D01*
X136239409Y-93367037D01*
X136728533Y-92877913D01*
X136712730Y-92866431D01*
X136551447Y-92784252D01*
X136551444Y-92784251D01*
X136379293Y-92728317D01*
X136217720Y-92702726D01*
X136154585Y-92672797D01*
X136117654Y-92613485D01*
X136118652Y-92543623D01*
X136157262Y-92485390D01*
X136217720Y-92457780D01*
X136232270Y-92455475D01*
X136379409Y-92432171D01*
X136551639Y-92376211D01*
X136712994Y-92293996D01*
X136859501Y-92187553D01*
X136987553Y-92059501D01*
X137093996Y-91912994D01*
X137176211Y-91751639D01*
X137232171Y-91579409D01*
X137246765Y-91487259D01*
X137260500Y-91400551D01*
X137260500Y-91219448D01*
X137244019Y-91115397D01*
X137232171Y-91040591D01*
X137176211Y-90868361D01*
X137176211Y-90868360D01*
X137145287Y-90807670D01*
X137093996Y-90707006D01*
X137084330Y-90693702D01*
X136992902Y-90567860D01*
X136969422Y-90502054D01*
X136985248Y-90434000D01*
X136989756Y-90429618D01*
X136933870Y-90450463D01*
X136865597Y-90435611D01*
X136852139Y-90427097D01*
X136712997Y-90326006D01*
X136712996Y-90326005D01*
X136712994Y-90326004D01*
X136661300Y-90299664D01*
X136551639Y-90243788D01*
X136551636Y-90243787D01*
X136379410Y-90187829D01*
X136219321Y-90162473D01*
X136156186Y-90132544D01*
X136119255Y-90073232D01*
X136120253Y-90003370D01*
X136158863Y-89945137D01*
X136219321Y-89917527D01*
X136379409Y-89892171D01*
X136390039Y-89888717D01*
X136523284Y-89845423D01*
X136593123Y-89843429D01*
X136649281Y-89875674D01*
G37*
%TD.AperFunction*%
%TA.AperFunction,Conductor*%
G36*
X135205703Y-104728173D02*
G01*
X135224821Y-104749004D01*
X135232446Y-104759500D01*
X135360500Y-104887554D01*
X135360505Y-104887558D01*
X135488287Y-104980396D01*
X135507006Y-104993996D01*
X135612484Y-105047740D01*
X135668360Y-105076211D01*
X135668363Y-105076212D01*
X135754476Y-105104191D01*
X135840591Y-105132171D01*
X135960038Y-105151089D01*
X136002279Y-105157780D01*
X136065414Y-105187709D01*
X136102345Y-105247021D01*
X136101347Y-105316883D01*
X136062737Y-105375116D01*
X136002279Y-105402726D01*
X135840706Y-105428317D01*
X135668555Y-105484251D01*
X135668547Y-105484254D01*
X135507269Y-105566432D01*
X135491466Y-105577912D01*
X135491466Y-105577913D01*
X135980591Y-106067037D01*
X135917007Y-106084075D01*
X135802993Y-106149901D01*
X135709901Y-106242993D01*
X135644075Y-106357007D01*
X135627037Y-106420590D01*
X135137913Y-105931466D01*
X135134229Y-105931756D01*
X135065852Y-105917392D01*
X135016095Y-105868340D01*
X135000500Y-105808138D01*
X135000500Y-104821886D01*
X135020185Y-104754847D01*
X135072989Y-104709092D01*
X135142147Y-104699148D01*
X135205703Y-104728173D01*
G37*
%TD.AperFunction*%
%TA.AperFunction,Conductor*%
G36*
X154961917Y-104732959D02*
G01*
X154996277Y-104793796D01*
X154999500Y-104821886D01*
X154999500Y-105808138D01*
X154979815Y-105875177D01*
X154927011Y-105920932D01*
X154865773Y-105931756D01*
X154862086Y-105931465D01*
X154372962Y-106420589D01*
X154355925Y-106357007D01*
X154290099Y-106242993D01*
X154197007Y-106149901D01*
X154082993Y-106084075D01*
X154019409Y-106067037D01*
X154508533Y-105577913D01*
X154492730Y-105566431D01*
X154331447Y-105484252D01*
X154331444Y-105484251D01*
X154159293Y-105428317D01*
X153997720Y-105402726D01*
X153934585Y-105372797D01*
X153897654Y-105313485D01*
X153898652Y-105243623D01*
X153937262Y-105185390D01*
X153997720Y-105157780D01*
X154012270Y-105155475D01*
X154159409Y-105132171D01*
X154331639Y-105076211D01*
X154492994Y-104993996D01*
X154639501Y-104887553D01*
X154767553Y-104759501D01*
X154775180Y-104749003D01*
X154830508Y-104706336D01*
X154900121Y-104700355D01*
X154961917Y-104732959D01*
G37*
%TD.AperFunction*%
%TA.AperFunction,Conductor*%
G36*
X154862084Y-94468532D02*
G01*
X154865772Y-94468242D01*
X154934149Y-94482606D01*
X154983905Y-94531658D01*
X154999500Y-94591860D01*
X154999500Y-95578113D01*
X154979815Y-95645152D01*
X154927011Y-95690907D01*
X154857853Y-95700851D01*
X154794297Y-95671826D01*
X154775182Y-95650998D01*
X154767558Y-95640505D01*
X154767554Y-95640500D01*
X154639499Y-95512445D01*
X154639494Y-95512441D01*
X154492997Y-95406006D01*
X154492996Y-95406005D01*
X154492994Y-95406004D01*
X154419799Y-95368709D01*
X154331639Y-95323788D01*
X154331636Y-95323787D01*
X154159410Y-95267828D01*
X153997720Y-95242219D01*
X153934585Y-95212289D01*
X153897654Y-95152978D01*
X153898652Y-95083115D01*
X153937262Y-95024883D01*
X153997721Y-94997273D01*
X154159292Y-94971683D01*
X154331444Y-94915748D01*
X154331452Y-94915745D01*
X154492730Y-94833568D01*
X154508532Y-94822085D01*
X154508533Y-94822085D01*
X154019410Y-94332962D01*
X154082993Y-94315925D01*
X154197007Y-94250099D01*
X154290099Y-94157007D01*
X154355925Y-94042993D01*
X154372962Y-93979410D01*
X154862084Y-94468532D01*
G37*
%TD.AperFunction*%
%TA.AperFunction,Conductor*%
G36*
X135644075Y-94042993D02*
G01*
X135709901Y-94157007D01*
X135802993Y-94250099D01*
X135917007Y-94315925D01*
X135980590Y-94332962D01*
X135491466Y-94822085D01*
X135491466Y-94822086D01*
X135507267Y-94833566D01*
X135507275Y-94833571D01*
X135668552Y-94915747D01*
X135668555Y-94915748D01*
X135840706Y-94971682D01*
X136002279Y-94997273D01*
X136065413Y-95027202D01*
X136102345Y-95086513D01*
X136101347Y-95156376D01*
X136062738Y-95214609D01*
X136002280Y-95242219D01*
X135840589Y-95267829D01*
X135668363Y-95323787D01*
X135668360Y-95323788D01*
X135507002Y-95406006D01*
X135360505Y-95512441D01*
X135360500Y-95512445D01*
X135232445Y-95640500D01*
X135232441Y-95640505D01*
X135224818Y-95650998D01*
X135169488Y-95693664D01*
X135099875Y-95699643D01*
X135038080Y-95667037D01*
X135003723Y-95606199D01*
X135000500Y-95578113D01*
X135000500Y-94591861D01*
X135020185Y-94524822D01*
X135072989Y-94479067D01*
X135134229Y-94468243D01*
X135137913Y-94468533D01*
X135627037Y-93979409D01*
X135644075Y-94042993D01*
G37*
%TD.AperFunction*%
%TA.AperFunction,Conductor*%
G36*
X139986881Y-62520185D02*
G01*
X140032636Y-62572989D01*
X140042580Y-62642147D01*
X140022944Y-62693391D01*
X139971052Y-62771051D01*
X139971047Y-62771060D01*
X139910743Y-62916648D01*
X139910741Y-62916656D01*
X139880000Y-63071202D01*
X139880000Y-63200000D01*
X140380000Y-63200000D01*
X140380000Y-63700000D01*
X139880000Y-63700000D01*
X139880000Y-63828797D01*
X139910741Y-63983343D01*
X139910743Y-63983351D01*
X139971047Y-64128939D01*
X139971052Y-64128948D01*
X140058598Y-64259969D01*
X140058601Y-64259973D01*
X140170026Y-64371398D01*
X140170034Y-64371404D01*
X140301047Y-64458944D01*
X140301065Y-64458954D01*
X140429999Y-64512360D01*
X140430000Y-64512360D01*
X140430000Y-63916988D01*
X140439940Y-63934205D01*
X140495795Y-63990060D01*
X140564204Y-64029556D01*
X140640504Y-64050000D01*
X140719496Y-64050000D01*
X140795796Y-64029556D01*
X140864205Y-63990060D01*
X140920060Y-63934205D01*
X140930000Y-63916988D01*
X140930000Y-64512360D01*
X141058934Y-64458954D01*
X141058952Y-64458944D01*
X141189965Y-64371404D01*
X141189973Y-64371398D01*
X141301398Y-64259973D01*
X141301401Y-64259969D01*
X141388947Y-64128948D01*
X141388952Y-64128939D01*
X141449256Y-63983351D01*
X141449258Y-63983343D01*
X141479999Y-63828797D01*
X141480000Y-63828794D01*
X141480000Y-63700000D01*
X140980000Y-63700000D01*
X140980000Y-63200000D01*
X141480000Y-63200000D01*
X141480000Y-63071206D01*
X141479999Y-63071202D01*
X141449258Y-62916656D01*
X141449256Y-62916648D01*
X141388952Y-62771060D01*
X141388947Y-62771051D01*
X141337056Y-62693391D01*
X141316178Y-62626714D01*
X141334662Y-62559333D01*
X141386641Y-62512643D01*
X141440158Y-62500500D01*
X148559842Y-62500500D01*
X148626881Y-62520185D01*
X148672636Y-62572989D01*
X148682580Y-62642147D01*
X148662944Y-62693391D01*
X148611052Y-62771051D01*
X148611047Y-62771060D01*
X148550743Y-62916648D01*
X148550741Y-62916656D01*
X148520000Y-63071202D01*
X148520000Y-63200000D01*
X149020000Y-63200000D01*
X149020000Y-63700000D01*
X148520000Y-63700000D01*
X148520000Y-63828797D01*
X148550741Y-63983343D01*
X148550743Y-63983351D01*
X148611047Y-64128939D01*
X148611052Y-64128948D01*
X148698598Y-64259969D01*
X148698601Y-64259973D01*
X148810026Y-64371398D01*
X148810034Y-64371404D01*
X148941047Y-64458944D01*
X148941065Y-64458954D01*
X149069999Y-64512360D01*
X149070000Y-64512360D01*
X149070000Y-63916988D01*
X149079940Y-63934205D01*
X149135795Y-63990060D01*
X149204204Y-64029556D01*
X149280504Y-64050000D01*
X149359496Y-64050000D01*
X149435796Y-64029556D01*
X149504205Y-63990060D01*
X149560060Y-63934205D01*
X149570000Y-63916988D01*
X149570000Y-64512360D01*
X149698934Y-64458954D01*
X149698952Y-64458944D01*
X149829965Y-64371404D01*
X149829973Y-64371398D01*
X149941398Y-64259973D01*
X149941401Y-64259969D01*
X150028947Y-64128948D01*
X150028952Y-64128939D01*
X150089256Y-63983351D01*
X150089258Y-63983343D01*
X150119999Y-63828797D01*
X150120000Y-63828794D01*
X150120000Y-63700000D01*
X149620000Y-63700000D01*
X149620000Y-63200000D01*
X150120000Y-63200000D01*
X150120000Y-63071206D01*
X150119999Y-63071202D01*
X150089258Y-62916656D01*
X150089256Y-62916648D01*
X150028952Y-62771060D01*
X150028947Y-62771051D01*
X149977056Y-62693391D01*
X149956178Y-62626714D01*
X149974662Y-62559333D01*
X150026641Y-62512643D01*
X150080158Y-62500500D01*
X152615500Y-62500500D01*
X152682539Y-62520185D01*
X152728294Y-62572989D01*
X152739500Y-62624500D01*
X152739500Y-64264856D01*
X152739502Y-64264882D01*
X152742413Y-64289987D01*
X152742415Y-64289991D01*
X152787793Y-64392764D01*
X152787794Y-64392765D01*
X152867235Y-64472206D01*
X152970009Y-64517585D01*
X152995135Y-64520500D01*
X153732873Y-64520499D01*
X153799910Y-64540183D01*
X153845665Y-64592987D01*
X153855609Y-64662146D01*
X153826584Y-64725702D01*
X153767806Y-64763476D01*
X153752270Y-64766972D01*
X153620589Y-64787829D01*
X153448363Y-64843787D01*
X153448360Y-64843788D01*
X153287002Y-64926006D01*
X153140505Y-65032441D01*
X153140500Y-65032445D01*
X153012445Y-65160500D01*
X153012441Y-65160505D01*
X152906006Y-65307002D01*
X152823788Y-65468360D01*
X152823787Y-65468363D01*
X152767829Y-65640589D01*
X152739500Y-65819448D01*
X152739500Y-66000551D01*
X152767829Y-66179412D01*
X152814575Y-66323283D01*
X152816570Y-66393124D01*
X152784325Y-66449281D01*
X152270426Y-66963181D01*
X152209103Y-66996666D01*
X152182745Y-66999500D01*
X152120943Y-66999500D01*
X151968216Y-67040423D01*
X151968209Y-67040426D01*
X151831290Y-67119475D01*
X151831282Y-67119481D01*
X151719481Y-67231282D01*
X151719475Y-67231290D01*
X151640426Y-67368209D01*
X151640423Y-67368216D01*
X151599500Y-67520943D01*
X151599500Y-67679057D01*
X151640416Y-67831756D01*
X151640423Y-67831783D01*
X151640426Y-67831790D01*
X151719475Y-67968709D01*
X151719479Y-67968714D01*
X151719480Y-67968716D01*
X151831284Y-68080520D01*
X151831286Y-68080521D01*
X151831290Y-68080524D01*
X151898209Y-68119159D01*
X151968216Y-68159577D01*
X152120943Y-68200500D01*
X152120945Y-68200500D01*
X152279055Y-68200500D01*
X152279057Y-68200500D01*
X152431784Y-68159577D01*
X152501791Y-68119159D01*
X152575755Y-68076457D01*
X152576624Y-68077962D01*
X152632563Y-68056326D01*
X152701010Y-68070353D01*
X152751007Y-68119159D01*
X152766682Y-68187247D01*
X152765373Y-68199292D01*
X152740000Y-68359493D01*
X152740000Y-68540506D01*
X152768317Y-68719293D01*
X152824251Y-68891444D01*
X152824252Y-68891447D01*
X152906431Y-69052730D01*
X152917913Y-69068532D01*
X152917913Y-69068533D01*
X153407037Y-68579409D01*
X153424075Y-68642993D01*
X153489901Y-68757007D01*
X153582993Y-68850099D01*
X153697007Y-68915925D01*
X153760590Y-68932962D01*
X153271466Y-69422085D01*
X153271466Y-69422086D01*
X153287267Y-69433566D01*
X153287275Y-69433571D01*
X153448552Y-69515747D01*
X153448555Y-69515748D01*
X153620706Y-69571682D01*
X153782279Y-69597273D01*
X153845413Y-69627202D01*
X153882345Y-69686513D01*
X153881347Y-69756376D01*
X153842738Y-69814609D01*
X153782280Y-69842219D01*
X153620589Y-69867829D01*
X153448363Y-69923787D01*
X153448360Y-69923788D01*
X153287002Y-70006006D01*
X153140505Y-70112441D01*
X153140500Y-70112445D01*
X153012445Y-70240500D01*
X153012441Y-70240505D01*
X152906006Y-70387002D01*
X152823788Y-70548360D01*
X152823787Y-70548363D01*
X152767829Y-70720589D01*
X152739500Y-70899448D01*
X152739500Y-71080551D01*
X152767829Y-71259410D01*
X152823787Y-71431636D01*
X152823788Y-71431639D01*
X152906006Y-71592997D01*
X153012441Y-71739494D01*
X153012445Y-71739499D01*
X153140500Y-71867554D01*
X153140505Y-71867558D01*
X153225843Y-71929559D01*
X153287006Y-71973996D01*
X153392484Y-72027740D01*
X153448360Y-72056211D01*
X153448363Y-72056212D01*
X153534476Y-72084191D01*
X153620591Y-72112171D01*
X153687353Y-72122745D01*
X153780678Y-72137527D01*
X153843813Y-72167456D01*
X153880744Y-72226768D01*
X153879746Y-72296631D01*
X153841136Y-72354863D01*
X153780678Y-72382473D01*
X153620587Y-72407829D01*
X153476716Y-72454575D01*
X153406875Y-72456570D01*
X153350718Y-72424325D01*
X153285915Y-72359522D01*
X153285913Y-72359520D01*
X153240250Y-72333156D01*
X153194589Y-72306793D01*
X153143657Y-72293146D01*
X153092727Y-72279500D01*
X150789314Y-72279500D01*
X150722275Y-72259815D01*
X150676520Y-72207011D01*
X150666576Y-72137853D01*
X150675879Y-72105415D01*
X150697089Y-72057377D01*
X150697089Y-72057375D01*
X150699999Y-72032294D01*
X150700000Y-72032291D01*
X150700000Y-70987500D01*
X147600001Y-70987500D01*
X147600001Y-72032285D01*
X147600002Y-72032308D01*
X147602908Y-72057369D01*
X147602909Y-72057372D01*
X147624122Y-72105415D01*
X147633193Y-72174693D01*
X147603369Y-72237878D01*
X147544119Y-72274908D01*
X147510687Y-72279500D01*
X146162273Y-72279500D01*
X146060410Y-72306793D01*
X145969087Y-72359520D01*
X145969084Y-72359522D01*
X144745426Y-73583181D01*
X144684103Y-73616666D01*
X144657745Y-73619500D01*
X144595943Y-73619500D01*
X144443216Y-73660423D01*
X144443209Y-73660426D01*
X144306290Y-73739475D01*
X144306282Y-73739481D01*
X144194481Y-73851282D01*
X144194475Y-73851290D01*
X144115426Y-73988209D01*
X144115423Y-73988216D01*
X144074500Y-74140943D01*
X144074500Y-74299057D01*
X144106429Y-74418216D01*
X144115423Y-74451783D01*
X144115426Y-74451790D01*
X144194475Y-74588709D01*
X144194479Y-74588714D01*
X144194480Y-74588716D01*
X144306284Y-74700520D01*
X144306286Y-74700521D01*
X144306290Y-74700524D01*
X144415144Y-74763370D01*
X144443216Y-74779577D01*
X144595943Y-74820500D01*
X144595945Y-74820500D01*
X144754055Y-74820500D01*
X144754057Y-74820500D01*
X144906784Y-74779577D01*
X145043716Y-74700520D01*
X145155520Y-74588716D01*
X145234577Y-74451784D01*
X145275500Y-74299057D01*
X145275500Y-74237255D01*
X145295185Y-74170216D01*
X145311819Y-74149574D01*
X146344574Y-73116819D01*
X146405897Y-73083334D01*
X146432255Y-73080500D01*
X147516764Y-73080500D01*
X147583803Y-73100185D01*
X147629558Y-73152989D01*
X147639502Y-73222147D01*
X147630198Y-73254587D01*
X147602415Y-73317506D01*
X147602415Y-73317508D01*
X147599500Y-73342631D01*
X147599500Y-74075500D01*
X147579815Y-74142539D01*
X147527011Y-74188294D01*
X147475500Y-74199500D01*
X147159931Y-74199500D01*
X147092892Y-74179815D01*
X147084443Y-74173875D01*
X147078709Y-74169475D01*
X146941790Y-74090426D01*
X146941786Y-74090424D01*
X146941784Y-74090423D01*
X146789057Y-74049500D01*
X146630943Y-74049500D01*
X146478216Y-74090423D01*
X146478209Y-74090426D01*
X146341290Y-74169475D01*
X146341282Y-74169481D01*
X146229481Y-74281282D01*
X146229475Y-74281290D01*
X146150426Y-74418209D01*
X146150423Y-74418216D01*
X146109500Y-74570943D01*
X146109500Y-74729057D01*
X146138325Y-74836631D01*
X146150423Y-74881783D01*
X146150426Y-74881790D01*
X146229475Y-75018709D01*
X146229479Y-75018714D01*
X146229480Y-75018716D01*
X146341284Y-75130520D01*
X146341286Y-75130521D01*
X146341290Y-75130524D01*
X146478209Y-75209573D01*
X146478216Y-75209577D01*
X146630943Y-75250500D01*
X146630945Y-75250500D01*
X146789055Y-75250500D01*
X146789057Y-75250500D01*
X146941784Y-75209577D01*
X147078716Y-75130520D01*
X147078721Y-75130514D01*
X147084443Y-75126125D01*
X147149612Y-75100930D01*
X147159931Y-75100500D01*
X147475501Y-75100500D01*
X147542540Y-75120185D01*
X147588295Y-75172989D01*
X147599501Y-75224500D01*
X147599501Y-75932356D01*
X147599502Y-75932382D01*
X147602413Y-75957487D01*
X147602415Y-75957491D01*
X147647793Y-76060264D01*
X147647794Y-76060265D01*
X147727235Y-76139706D01*
X147830009Y-76185085D01*
X147855135Y-76188000D01*
X148811793Y-76187999D01*
X148878830Y-76207683D01*
X148924585Y-76260487D01*
X148934529Y-76329646D01*
X148905504Y-76393202D01*
X148846726Y-76430976D01*
X148843885Y-76431774D01*
X148768757Y-76451904D01*
X148768752Y-76451907D01*
X148631833Y-76530956D01*
X148631825Y-76530962D01*
X148520024Y-76642763D01*
X148520018Y-76642771D01*
X148440969Y-76779690D01*
X148440966Y-76779697D01*
X148400043Y-76932424D01*
X148400043Y-77090538D01*
X148427276Y-77192171D01*
X148440966Y-77243264D01*
X148440969Y-77243271D01*
X148520018Y-77380190D01*
X148520024Y-77380198D01*
X148563724Y-77423898D01*
X148597209Y-77485221D01*
X148600043Y-77511579D01*
X148600043Y-77777807D01*
X148580358Y-77844846D01*
X148563724Y-77865488D01*
X148341766Y-78087446D01*
X148280443Y-78120931D01*
X148254085Y-78123765D01*
X148145208Y-78123765D01*
X147992481Y-78164688D01*
X147992474Y-78164691D01*
X147855555Y-78243740D01*
X147855547Y-78243746D01*
X147743746Y-78355547D01*
X147743740Y-78355555D01*
X147664691Y-78492474D01*
X147664688Y-78492481D01*
X147623765Y-78645208D01*
X147623765Y-78803322D01*
X147644153Y-78879409D01*
X147664688Y-78956048D01*
X147664691Y-78956055D01*
X147743740Y-79092974D01*
X147743744Y-79092979D01*
X147743745Y-79092981D01*
X147855549Y-79204785D01*
X147855551Y-79204786D01*
X147855555Y-79204789D01*
X147938922Y-79252920D01*
X147992481Y-79283842D01*
X148145208Y-79324765D01*
X148145210Y-79324765D01*
X148303320Y-79324765D01*
X148303322Y-79324765D01*
X148456049Y-79283842D01*
X148543740Y-79233213D01*
X148611641Y-79216741D01*
X148677667Y-79239594D01*
X148693421Y-79252920D01*
X148721021Y-79280520D01*
X148721023Y-79280521D01*
X148721027Y-79280524D01*
X148839640Y-79349004D01*
X148857953Y-79359577D01*
X149010680Y-79400500D01*
X149010682Y-79400500D01*
X149168792Y-79400500D01*
X149168794Y-79400500D01*
X149321521Y-79359577D01*
X149458453Y-79280520D01*
X149570257Y-79168716D01*
X149649314Y-79031784D01*
X149690237Y-78879057D01*
X149690237Y-78817255D01*
X149709922Y-78750216D01*
X149726556Y-78729574D01*
X150270815Y-78185315D01*
X150332138Y-78151830D01*
X150358496Y-78148996D01*
X150420296Y-78148996D01*
X150420298Y-78148996D01*
X150573025Y-78108073D01*
X150709957Y-78029016D01*
X150821761Y-77917212D01*
X150900818Y-77780280D01*
X150941741Y-77627553D01*
X150941741Y-77469439D01*
X150900818Y-77316712D01*
X150875422Y-77272724D01*
X150821765Y-77179786D01*
X150821759Y-77179778D01*
X150709958Y-77067977D01*
X150709950Y-77067971D01*
X150573031Y-76988922D01*
X150573027Y-76988920D01*
X150573025Y-76988919D01*
X150420298Y-76947996D01*
X150262184Y-76947996D01*
X150109457Y-76988919D01*
X150109450Y-76988922D01*
X149972531Y-77067971D01*
X149972523Y-77067977D01*
X149860722Y-77179778D01*
X149860718Y-77179783D01*
X149807058Y-77272724D01*
X149807053Y-77272736D01*
X149781664Y-77316712D01*
X149764647Y-77380218D01*
X149764645Y-77380225D01*
X149740741Y-77469439D01*
X149740741Y-77531241D01*
X149734552Y-77552315D01*
X149733051Y-77574229D01*
X149723943Y-77588447D01*
X149721056Y-77598280D01*
X149713389Y-77604923D01*
X149704422Y-77618922D01*
X149612724Y-77710620D01*
X149551401Y-77744105D01*
X149481709Y-77739121D01*
X149425776Y-77697249D01*
X149401359Y-77631785D01*
X149401043Y-77622939D01*
X149401043Y-77511579D01*
X149407231Y-77490504D01*
X149408733Y-77468591D01*
X149416882Y-77457637D01*
X149420728Y-77444540D01*
X149437362Y-77423898D01*
X149481063Y-77380197D01*
X149560120Y-77243265D01*
X149601043Y-77090538D01*
X149601043Y-76932424D01*
X149560120Y-76779697D01*
X149498516Y-76672994D01*
X149481067Y-76642771D01*
X149481061Y-76642763D01*
X149369260Y-76530962D01*
X149369252Y-76530956D01*
X149232333Y-76451907D01*
X149232328Y-76451904D01*
X149187532Y-76439901D01*
X149157199Y-76431773D01*
X149097540Y-76395408D01*
X149067011Y-76332561D01*
X149075306Y-76263186D01*
X149119791Y-76209308D01*
X149186344Y-76188034D01*
X149189253Y-76187999D01*
X150444864Y-76187999D01*
X150444879Y-76187997D01*
X150444882Y-76187997D01*
X150469987Y-76185086D01*
X150469988Y-76185085D01*
X150469991Y-76185085D01*
X150572765Y-76139706D01*
X150652206Y-76060265D01*
X150697585Y-75957491D01*
X150700500Y-75932365D01*
X150700499Y-73342636D01*
X150700497Y-73342617D01*
X150697586Y-73317512D01*
X150697585Y-73317510D01*
X150697585Y-73317509D01*
X150672453Y-73260591D01*
X150669802Y-73254586D01*
X150660730Y-73185308D01*
X150690554Y-73122123D01*
X150749803Y-73085092D01*
X150783236Y-73080500D01*
X152655672Y-73080500D01*
X152722711Y-73100185D01*
X152768466Y-73152989D01*
X152778410Y-73222147D01*
X152773604Y-73242816D01*
X152767828Y-73260591D01*
X152739500Y-73439448D01*
X152739500Y-73620551D01*
X152767829Y-73799410D01*
X152823787Y-73971636D01*
X152823791Y-73971645D01*
X152832739Y-73989206D01*
X152845635Y-74057875D01*
X152819358Y-74122615D01*
X152762251Y-74162872D01*
X152728995Y-74168382D01*
X152729003Y-74168439D01*
X152727317Y-74168660D01*
X152722254Y-74169500D01*
X152720943Y-74169500D01*
X152568216Y-74210423D01*
X152568209Y-74210426D01*
X152431290Y-74289475D01*
X152431282Y-74289481D01*
X152319481Y-74401282D01*
X152319475Y-74401290D01*
X152240426Y-74538209D01*
X152240423Y-74538216D01*
X152199500Y-74690943D01*
X152199500Y-74849057D01*
X152240423Y-75001784D01*
X152252887Y-75023373D01*
X152269500Y-75085372D01*
X152269500Y-77672372D01*
X152249815Y-77739411D01*
X152197011Y-77785166D01*
X152127853Y-77795110D01*
X152064297Y-77766085D01*
X152057819Y-77760053D01*
X152017246Y-77719480D01*
X152017238Y-77719474D01*
X151880319Y-77640425D01*
X151880315Y-77640423D01*
X151880313Y-77640422D01*
X151727586Y-77599499D01*
X151569472Y-77599499D01*
X151416745Y-77640422D01*
X151416738Y-77640425D01*
X151279819Y-77719474D01*
X151279811Y-77719480D01*
X151168010Y-77831281D01*
X151168004Y-77831289D01*
X151088955Y-77968208D01*
X151088952Y-77968215D01*
X151048029Y-78120942D01*
X151048029Y-78184216D01*
X151028344Y-78251255D01*
X151011710Y-78271897D01*
X148199522Y-81084084D01*
X148199518Y-81084090D01*
X148146792Y-81175412D01*
X148146793Y-81175413D01*
X148119500Y-81277273D01*
X148119500Y-88294330D01*
X148146793Y-88396193D01*
X148168855Y-88434404D01*
X148199520Y-88487517D01*
X148649827Y-88937824D01*
X149100055Y-89388051D01*
X149133540Y-89449374D01*
X149136374Y-89475732D01*
X149136374Y-89537535D01*
X149165854Y-89647554D01*
X149177297Y-89690261D01*
X149177300Y-89690268D01*
X149256349Y-89827187D01*
X149256353Y-89827192D01*
X149256354Y-89827194D01*
X149368158Y-89938998D01*
X149368160Y-89938999D01*
X149368164Y-89939002D01*
X149485540Y-90006768D01*
X149505090Y-90018055D01*
X149655502Y-90058357D01*
X149715162Y-90094722D01*
X149743181Y-90146036D01*
X149749449Y-90169424D01*
X149766158Y-90231785D01*
X149766161Y-90231790D01*
X149845210Y-90368709D01*
X149845214Y-90368714D01*
X149845215Y-90368716D01*
X149957019Y-90480520D01*
X149957021Y-90480521D01*
X149957025Y-90480524D01*
X149987491Y-90498113D01*
X150093951Y-90559577D01*
X150246678Y-90600500D01*
X150246680Y-90600500D01*
X150404790Y-90600500D01*
X150404792Y-90600500D01*
X150557519Y-90559577D01*
X150694451Y-90480520D01*
X150806255Y-90368716D01*
X150885312Y-90231784D01*
X150926235Y-90079057D01*
X150926235Y-90017255D01*
X150945920Y-89950216D01*
X150962554Y-89929574D01*
X151769817Y-89122311D01*
X152583723Y-88308404D01*
X152645044Y-88274921D01*
X152714736Y-88279905D01*
X152770669Y-88321777D01*
X152795086Y-88387241D01*
X152789333Y-88434404D01*
X152767829Y-88500587D01*
X152739500Y-88679448D01*
X152739500Y-88860551D01*
X152767829Y-89039410D01*
X152823787Y-89211636D01*
X152823788Y-89211639D01*
X152876222Y-89314544D01*
X152894393Y-89350207D01*
X152906006Y-89372997D01*
X153012441Y-89519494D01*
X153012445Y-89519499D01*
X153140500Y-89647554D01*
X153140505Y-89647558D01*
X153199283Y-89690262D01*
X153287006Y-89753996D01*
X153378799Y-89800767D01*
X153448360Y-89836211D01*
X153448363Y-89836212D01*
X153534476Y-89864191D01*
X153620591Y-89892171D01*
X153693639Y-89903740D01*
X153780678Y-89917527D01*
X153843813Y-89947456D01*
X153880744Y-90006768D01*
X153879746Y-90076631D01*
X153841136Y-90134863D01*
X153780678Y-90162473D01*
X153620589Y-90187829D01*
X153448363Y-90243787D01*
X153448360Y-90243788D01*
X153287002Y-90326006D01*
X153140505Y-90432441D01*
X153140500Y-90432445D01*
X153012445Y-90560500D01*
X153012441Y-90560505D01*
X152906006Y-90707002D01*
X152823788Y-90868360D01*
X152823787Y-90868363D01*
X152767829Y-91040589D01*
X152739500Y-91219448D01*
X152739500Y-91400551D01*
X152767829Y-91579412D01*
X152814575Y-91723283D01*
X152816570Y-91793124D01*
X152784325Y-91849281D01*
X152470210Y-92163397D01*
X152408887Y-92196882D01*
X152382529Y-92199716D01*
X148124730Y-92199716D01*
X148100387Y-92192568D01*
X148075212Y-92189400D01*
X148064317Y-92181976D01*
X148057691Y-92180031D01*
X148045190Y-92170844D01*
X148040954Y-92167302D01*
X147993348Y-92119696D01*
X147963205Y-92102293D01*
X147954966Y-92095404D01*
X147941288Y-92074923D01*
X147924291Y-92057098D01*
X147922224Y-92046378D01*
X147916162Y-92037300D01*
X147915728Y-92012674D01*
X147911067Y-91988491D01*
X147915124Y-91978356D01*
X147914932Y-91967441D01*
X147927880Y-91946490D01*
X147937034Y-91923626D01*
X147947753Y-91914338D01*
X147951666Y-91908007D01*
X147959237Y-91904386D01*
X147972508Y-91892888D01*
X147975535Y-91891139D01*
X147993168Y-91880960D01*
X148104972Y-91769156D01*
X148184029Y-91632224D01*
X148224952Y-91479497D01*
X148224952Y-91321383D01*
X148184029Y-91168656D01*
X148184025Y-91168649D01*
X148104976Y-91031730D01*
X148104970Y-91031722D01*
X147993169Y-90919921D01*
X147993161Y-90919915D01*
X147856242Y-90840866D01*
X147856238Y-90840864D01*
X147856236Y-90840863D01*
X147703509Y-90799940D01*
X147545395Y-90799940D01*
X147392668Y-90840863D01*
X147392661Y-90840866D01*
X147255742Y-90919915D01*
X147255734Y-90919921D01*
X147143933Y-91031722D01*
X147143927Y-91031730D01*
X147064878Y-91168649D01*
X147064875Y-91168656D01*
X147023952Y-91321383D01*
X147023952Y-91383185D01*
X147004267Y-91450224D01*
X146987633Y-91470866D01*
X146703154Y-91755344D01*
X146703152Y-91755347D01*
X146650423Y-91846674D01*
X146634961Y-91904386D01*
X146630633Y-91920540D01*
X146623132Y-91948533D01*
X146623132Y-93140905D01*
X146623132Y-93246359D01*
X146634285Y-93287983D01*
X146650425Y-93348221D01*
X146703732Y-93440549D01*
X146720205Y-93508449D01*
X146697353Y-93574476D01*
X146642432Y-93617667D01*
X146628447Y-93622322D01*
X146598216Y-93630423D01*
X146598215Y-93630423D01*
X146598213Y-93630424D01*
X146598209Y-93630426D01*
X146461290Y-93709475D01*
X146461282Y-93709481D01*
X146349481Y-93821282D01*
X146349477Y-93821287D01*
X146318257Y-93875363D01*
X146267690Y-93923579D01*
X146199083Y-93936802D01*
X146134218Y-93910834D01*
X146123189Y-93901044D01*
X146038917Y-93816772D01*
X146038909Y-93816766D01*
X145901990Y-93737717D01*
X145901986Y-93737715D01*
X145901984Y-93737714D01*
X145749257Y-93696791D01*
X145591143Y-93696791D01*
X145438416Y-93737714D01*
X145438409Y-93737717D01*
X145301490Y-93816766D01*
X145301482Y-93816772D01*
X145189681Y-93928573D01*
X145189675Y-93928581D01*
X145110626Y-94065500D01*
X145110623Y-94065507D01*
X145069700Y-94218234D01*
X145069700Y-94280036D01*
X145050015Y-94347075D01*
X145033381Y-94367717D01*
X144681181Y-94719917D01*
X144619858Y-94753402D01*
X144550166Y-94748418D01*
X144494233Y-94706546D01*
X144469816Y-94641082D01*
X144469500Y-94632236D01*
X144469500Y-93069366D01*
X144469499Y-93069359D01*
X144458327Y-93027663D01*
X144442207Y-92967502D01*
X144389480Y-92876177D01*
X142507921Y-90994618D01*
X142474436Y-90933295D01*
X142479420Y-90863603D01*
X142521292Y-90807670D01*
X142563506Y-90787162D01*
X142617256Y-90772761D01*
X142754188Y-90693704D01*
X142865992Y-90581900D01*
X142945049Y-90444968D01*
X142985972Y-90292241D01*
X142985972Y-90134127D01*
X142945049Y-89981400D01*
X142920571Y-89939002D01*
X142865996Y-89844474D01*
X142865990Y-89844466D01*
X142822291Y-89800767D01*
X142788806Y-89739444D01*
X142785972Y-89713086D01*
X142785972Y-78080943D01*
X143779500Y-78080943D01*
X143779500Y-78239057D01*
X143810716Y-78355555D01*
X143820423Y-78391783D01*
X143820426Y-78391790D01*
X143899475Y-78528709D01*
X143899481Y-78528717D01*
X143943181Y-78572417D01*
X143976666Y-78633740D01*
X143979500Y-78660098D01*
X143979500Y-82595464D01*
X143979500Y-82700918D01*
X143984683Y-82720260D01*
X144006793Y-82802780D01*
X144033156Y-82848441D01*
X144059520Y-82894104D01*
X144059521Y-82894105D01*
X144059522Y-82894106D01*
X146318219Y-85152802D01*
X146351704Y-85214125D01*
X146354538Y-85240483D01*
X146354538Y-85302286D01*
X146393100Y-85446199D01*
X146395461Y-85455012D01*
X146395464Y-85455019D01*
X146474513Y-85591938D01*
X146474519Y-85591946D01*
X146518219Y-85635646D01*
X146551704Y-85696969D01*
X146554538Y-85723327D01*
X146554538Y-85978026D01*
X146534853Y-86045065D01*
X146518219Y-86065707D01*
X145454372Y-87129554D01*
X145393049Y-87163039D01*
X145366691Y-87165873D01*
X145304889Y-87165873D01*
X145152162Y-87206796D01*
X145152155Y-87206799D01*
X145015236Y-87285848D01*
X145015228Y-87285854D01*
X144903427Y-87397655D01*
X144903421Y-87397663D01*
X144824372Y-87534582D01*
X144824369Y-87534589D01*
X144783446Y-87687316D01*
X144783446Y-87845430D01*
X144813640Y-87958113D01*
X144824369Y-87998156D01*
X144824372Y-87998163D01*
X144903421Y-88135082D01*
X144903425Y-88135087D01*
X144903426Y-88135089D01*
X145015230Y-88246893D01*
X145015232Y-88246894D01*
X145015236Y-88246897D01*
X145144934Y-88321777D01*
X145152162Y-88325950D01*
X145304889Y-88366873D01*
X145304891Y-88366873D01*
X145463001Y-88366873D01*
X145463003Y-88366873D01*
X145615730Y-88325950D01*
X145752662Y-88246893D01*
X145864466Y-88135089D01*
X145943523Y-87998157D01*
X145984446Y-87845430D01*
X145984446Y-87783627D01*
X146004131Y-87716588D01*
X146020765Y-87695946D01*
X146342857Y-87373854D01*
X146404180Y-87340369D01*
X146473872Y-87345353D01*
X146529805Y-87387225D01*
X146554222Y-87452689D01*
X146554538Y-87461535D01*
X146554538Y-89122311D01*
X146554538Y-89227765D01*
X146560259Y-89249115D01*
X146581831Y-89329627D01*
X146597298Y-89356416D01*
X146634558Y-89420951D01*
X146634560Y-89420953D01*
X146663181Y-89449574D01*
X146696666Y-89510897D01*
X146699500Y-89537255D01*
X146699500Y-89599057D01*
X146740193Y-89750923D01*
X146740423Y-89751783D01*
X146740426Y-89751790D01*
X146819475Y-89888709D01*
X146819479Y-89888714D01*
X146819480Y-89888716D01*
X146931284Y-90000520D01*
X146931286Y-90000521D01*
X146931290Y-90000524D01*
X147032537Y-90058978D01*
X147068216Y-90079577D01*
X147220943Y-90120500D01*
X147220945Y-90120500D01*
X147379055Y-90120500D01*
X147379057Y-90120500D01*
X147531784Y-90079577D01*
X147668716Y-90000520D01*
X147780520Y-89888716D01*
X147859577Y-89751784D01*
X147900500Y-89599057D01*
X147900500Y-89440943D01*
X147859577Y-89288216D01*
X147824676Y-89227765D01*
X147780524Y-89151290D01*
X147780518Y-89151282D01*
X147668717Y-89039481D01*
X147668709Y-89039475D01*
X147531790Y-88960426D01*
X147531785Y-88960423D01*
X147447444Y-88937824D01*
X147387783Y-88901458D01*
X147357255Y-88838611D01*
X147355538Y-88818049D01*
X147355538Y-86248011D01*
X147355539Y-86248008D01*
X147355539Y-86142554D01*
X147355538Y-86142550D01*
X147355538Y-85723327D01*
X147375223Y-85656288D01*
X147391857Y-85635646D01*
X147400497Y-85627006D01*
X147435558Y-85591945D01*
X147514615Y-85455013D01*
X147555538Y-85302286D01*
X147555538Y-85144172D01*
X147514615Y-84991445D01*
X147477274Y-84926768D01*
X147435562Y-84854519D01*
X147435556Y-84854511D01*
X147323755Y-84742710D01*
X147323747Y-84742704D01*
X147186828Y-84663655D01*
X147186824Y-84663653D01*
X147186822Y-84663652D01*
X147034095Y-84622729D01*
X147034094Y-84622729D01*
X146972292Y-84622729D01*
X146905253Y-84603044D01*
X146884611Y-84586410D01*
X144816819Y-82518617D01*
X144783334Y-82457294D01*
X144780500Y-82430936D01*
X144780500Y-78660098D01*
X144800185Y-78593059D01*
X144816819Y-78572417D01*
X144820521Y-78568715D01*
X144860520Y-78528716D01*
X144939577Y-78391784D01*
X144980500Y-78239057D01*
X144980500Y-78080943D01*
X144939577Y-77928216D01*
X144934627Y-77919643D01*
X144860524Y-77791290D01*
X144860518Y-77791282D01*
X144748717Y-77679481D01*
X144748709Y-77679475D01*
X144611790Y-77600426D01*
X144611786Y-77600424D01*
X144611784Y-77600423D01*
X144459057Y-77559500D01*
X144300943Y-77559500D01*
X144148216Y-77600423D01*
X144148209Y-77600426D01*
X144011290Y-77679475D01*
X144011282Y-77679481D01*
X143899481Y-77791282D01*
X143899475Y-77791290D01*
X143820426Y-77928209D01*
X143820423Y-77928216D01*
X143779500Y-78080943D01*
X142785972Y-78080943D01*
X142785972Y-72122747D01*
X142785972Y-72122745D01*
X142758679Y-72020885D01*
X142705952Y-71929559D01*
X142631385Y-71854992D01*
X140219098Y-69442705D01*
X147600000Y-69442705D01*
X147600000Y-70487500D01*
X148900000Y-70487500D01*
X149400000Y-70487500D01*
X150699999Y-70487500D01*
X150699999Y-69442714D01*
X150699997Y-69442691D01*
X150697091Y-69417630D01*
X150697090Y-69417626D01*
X150651788Y-69315025D01*
X150651785Y-69315020D01*
X150572479Y-69235714D01*
X150572474Y-69235711D01*
X150469876Y-69190410D01*
X150444794Y-69187500D01*
X149400000Y-69187500D01*
X149400000Y-70487500D01*
X148900000Y-70487500D01*
X148900000Y-69187500D01*
X147855214Y-69187500D01*
X147855191Y-69187502D01*
X147830130Y-69190408D01*
X147830126Y-69190409D01*
X147727525Y-69235711D01*
X147727520Y-69235714D01*
X147648214Y-69315020D01*
X147648211Y-69315025D01*
X147602910Y-69417622D01*
X147602910Y-69417624D01*
X147600000Y-69442705D01*
X140219098Y-69442705D01*
X137777595Y-67001202D01*
X139880000Y-67001202D01*
X139880000Y-67380000D01*
X140380000Y-67380000D01*
X140380000Y-67880000D01*
X139880000Y-67880000D01*
X139880000Y-68258797D01*
X139910741Y-68413343D01*
X139910743Y-68413351D01*
X139971047Y-68558939D01*
X139971052Y-68558948D01*
X140058598Y-68689969D01*
X140058601Y-68689973D01*
X140170026Y-68801398D01*
X140170034Y-68801404D01*
X140301047Y-68888944D01*
X140301065Y-68888954D01*
X140429999Y-68942360D01*
X140430000Y-68942360D01*
X140430000Y-68346988D01*
X140439940Y-68364205D01*
X140495795Y-68420060D01*
X140564204Y-68459556D01*
X140640504Y-68480000D01*
X140719496Y-68480000D01*
X140795796Y-68459556D01*
X140864205Y-68420060D01*
X140920060Y-68364205D01*
X140930000Y-68346988D01*
X140930000Y-68942360D01*
X141058934Y-68888954D01*
X141058952Y-68888944D01*
X141189965Y-68801404D01*
X141189973Y-68801398D01*
X141301398Y-68689973D01*
X141301401Y-68689969D01*
X141388947Y-68558948D01*
X141388952Y-68558939D01*
X141449256Y-68413351D01*
X141449258Y-68413343D01*
X141479999Y-68258797D01*
X141480000Y-68258794D01*
X141480000Y-67880000D01*
X140980000Y-67880000D01*
X140980000Y-67380000D01*
X141479999Y-67380000D01*
X141482928Y-67377071D01*
X141544250Y-67343585D01*
X141613942Y-67348569D01*
X141669876Y-67390439D01*
X141677997Y-67402750D01*
X141689492Y-67422661D01*
X141689495Y-67422665D01*
X141787335Y-67520505D01*
X141787336Y-67520506D01*
X141787338Y-67520507D01*
X141803041Y-67529573D01*
X141907164Y-67589688D01*
X142040817Y-67625500D01*
X142040819Y-67625500D01*
X142179181Y-67625500D01*
X142179183Y-67625500D01*
X142312836Y-67589688D01*
X142432665Y-67520505D01*
X142530505Y-67422665D01*
X142599688Y-67302836D01*
X142635500Y-67169183D01*
X142635500Y-67030817D01*
X147364500Y-67030817D01*
X147364500Y-67169183D01*
X147392885Y-67275116D01*
X147400312Y-67302835D01*
X147400313Y-67302838D01*
X147469492Y-67422661D01*
X147469494Y-67422664D01*
X147469495Y-67422665D01*
X147567335Y-67520505D01*
X147567336Y-67520506D01*
X147567338Y-67520507D01*
X147583041Y-67529573D01*
X147687164Y-67589688D01*
X147820817Y-67625500D01*
X147820819Y-67625500D01*
X147959181Y-67625500D01*
X147959183Y-67625500D01*
X148092836Y-67589688D01*
X148212665Y-67520505D01*
X148310505Y-67422665D01*
X148322001Y-67402752D01*
X148372567Y-67354537D01*
X148441173Y-67341312D01*
X148506039Y-67367279D01*
X148517070Y-67377070D01*
X148520000Y-67380000D01*
X149020000Y-67380000D01*
X149020000Y-67880000D01*
X148520000Y-67880000D01*
X148520000Y-68258797D01*
X148550741Y-68413343D01*
X148550743Y-68413351D01*
X148611047Y-68558939D01*
X148611052Y-68558948D01*
X148698598Y-68689969D01*
X148698601Y-68689973D01*
X148810026Y-68801398D01*
X148810034Y-68801404D01*
X148941047Y-68888944D01*
X148941065Y-68888954D01*
X149069999Y-68942360D01*
X149070000Y-68942360D01*
X149070000Y-68346988D01*
X149079940Y-68364205D01*
X149135795Y-68420060D01*
X149204204Y-68459556D01*
X149280504Y-68480000D01*
X149359496Y-68480000D01*
X149435796Y-68459556D01*
X149504205Y-68420060D01*
X149560060Y-68364205D01*
X149570000Y-68346988D01*
X149570000Y-68939500D01*
X149576905Y-68939500D01*
X149698934Y-68888954D01*
X149698952Y-68888944D01*
X149829965Y-68801404D01*
X149829973Y-68801398D01*
X149941398Y-68689973D01*
X149941401Y-68689969D01*
X150028947Y-68558948D01*
X150028952Y-68558939D01*
X150089256Y-68413351D01*
X150089258Y-68413343D01*
X150119999Y-68258797D01*
X150120000Y-68258794D01*
X150120000Y-67880000D01*
X149620000Y-67880000D01*
X149620000Y-67380000D01*
X150120000Y-67380000D01*
X150120000Y-67001206D01*
X150119999Y-67001202D01*
X150089258Y-66846656D01*
X150089256Y-66846648D01*
X150028952Y-66701060D01*
X150028947Y-66701051D01*
X149941401Y-66570030D01*
X149941398Y-66570026D01*
X149829973Y-66458601D01*
X149829969Y-66458598D01*
X149698948Y-66371052D01*
X149698938Y-66371047D01*
X149570000Y-66317639D01*
X149570000Y-66913011D01*
X149560060Y-66895795D01*
X149504205Y-66839940D01*
X149435796Y-66800444D01*
X149359496Y-66780000D01*
X149280504Y-66780000D01*
X149204204Y-66800444D01*
X149135795Y-66839940D01*
X149079940Y-66895795D01*
X149070000Y-66913011D01*
X149070000Y-66317639D01*
X149069999Y-66317639D01*
X148941061Y-66371047D01*
X148941051Y-66371052D01*
X148810030Y-66458598D01*
X148810026Y-66458601D01*
X148698601Y-66570026D01*
X148698598Y-66570030D01*
X148611052Y-66701051D01*
X148611047Y-66701061D01*
X148563328Y-66816265D01*
X148519487Y-66870668D01*
X148453192Y-66892733D01*
X148385493Y-66875454D01*
X148341380Y-66830812D01*
X148310507Y-66777338D01*
X148310506Y-66777336D01*
X148310505Y-66777335D01*
X148212665Y-66679495D01*
X148212664Y-66679494D01*
X148212661Y-66679492D01*
X148092838Y-66610313D01*
X148092837Y-66610312D01*
X148092836Y-66610312D01*
X147959183Y-66574500D01*
X147820817Y-66574500D01*
X147687164Y-66610312D01*
X147687161Y-66610313D01*
X147567338Y-66679492D01*
X147567333Y-66679496D01*
X147469496Y-66777333D01*
X147469492Y-66777338D01*
X147400313Y-66897161D01*
X147400312Y-66897164D01*
X147364500Y-67030817D01*
X142635500Y-67030817D01*
X142599688Y-66897164D01*
X142536405Y-66787554D01*
X142530507Y-66777338D01*
X142530506Y-66777336D01*
X142530505Y-66777335D01*
X142432665Y-66679495D01*
X142432664Y-66679494D01*
X142432661Y-66679492D01*
X142312838Y-66610313D01*
X142312837Y-66610312D01*
X142312836Y-66610312D01*
X142179183Y-66574500D01*
X142040817Y-66574500D01*
X141907164Y-66610312D01*
X141907161Y-66610313D01*
X141787338Y-66679492D01*
X141787333Y-66679496D01*
X141689496Y-66777333D01*
X141689494Y-66777336D01*
X141658619Y-66830813D01*
X141608051Y-66879028D01*
X141539444Y-66892250D01*
X141474580Y-66866282D01*
X141436671Y-66816264D01*
X141388954Y-66701064D01*
X141388947Y-66701051D01*
X141301401Y-66570030D01*
X141301398Y-66570026D01*
X141189973Y-66458601D01*
X141189969Y-66458598D01*
X141058948Y-66371052D01*
X141058938Y-66371047D01*
X140930000Y-66317639D01*
X140930000Y-66913011D01*
X140920060Y-66895795D01*
X140864205Y-66839940D01*
X140795796Y-66800444D01*
X140719496Y-66780000D01*
X140640504Y-66780000D01*
X140564204Y-66800444D01*
X140495795Y-66839940D01*
X140439940Y-66895795D01*
X140430000Y-66913011D01*
X140430000Y-66317639D01*
X140429999Y-66317639D01*
X140301061Y-66371047D01*
X140301051Y-66371052D01*
X140170030Y-66458598D01*
X140170026Y-66458601D01*
X140058601Y-66570026D01*
X140058598Y-66570030D01*
X139971052Y-66701051D01*
X139971047Y-66701060D01*
X139910743Y-66846648D01*
X139910741Y-66846656D01*
X139880000Y-67001202D01*
X137777595Y-67001202D01*
X137218126Y-66441733D01*
X137184641Y-66380410D01*
X137187875Y-66315738D01*
X137232171Y-66179409D01*
X137240265Y-66128305D01*
X137260500Y-66000551D01*
X137260500Y-65819448D01*
X137244019Y-65715397D01*
X137232171Y-65640591D01*
X137176211Y-65468361D01*
X137176211Y-65468360D01*
X137147740Y-65412484D01*
X137093996Y-65307006D01*
X137031401Y-65220851D01*
X136987558Y-65160505D01*
X136987554Y-65160500D01*
X136859499Y-65032445D01*
X136859494Y-65032441D01*
X136712997Y-64926006D01*
X136712996Y-64926005D01*
X136712994Y-64926004D01*
X136661300Y-64899664D01*
X136551639Y-64843788D01*
X136551636Y-64843787D01*
X136379410Y-64787829D01*
X136247728Y-64766972D01*
X136184594Y-64737042D01*
X136147663Y-64677731D01*
X136148661Y-64607868D01*
X136187271Y-64549636D01*
X136251235Y-64521522D01*
X136267120Y-64520499D01*
X137004864Y-64520499D01*
X137004879Y-64520497D01*
X137004882Y-64520497D01*
X137029987Y-64517586D01*
X137029988Y-64517585D01*
X137029991Y-64517585D01*
X137132765Y-64472206D01*
X137212206Y-64392765D01*
X137257585Y-64289991D01*
X137260500Y-64264865D01*
X137260499Y-63200000D01*
X137260499Y-62624500D01*
X137280183Y-62557461D01*
X137332987Y-62511706D01*
X137384499Y-62500500D01*
X139919842Y-62500500D01*
X139986881Y-62520185D01*
G37*
%TD.AperFunction*%
%TA.AperFunction,Conductor*%
G36*
X135205703Y-92028173D02*
G01*
X135224821Y-92049004D01*
X135232446Y-92059500D01*
X135360500Y-92187554D01*
X135360505Y-92187558D01*
X135405014Y-92219895D01*
X135507006Y-92293996D01*
X135612484Y-92347740D01*
X135668360Y-92376211D01*
X135668363Y-92376212D01*
X135752522Y-92403556D01*
X135840591Y-92432171D01*
X135960038Y-92451089D01*
X136002279Y-92457780D01*
X136065414Y-92487709D01*
X136102345Y-92547021D01*
X136101347Y-92616883D01*
X136062737Y-92675116D01*
X136002279Y-92702726D01*
X135840706Y-92728317D01*
X135668555Y-92784251D01*
X135668547Y-92784254D01*
X135507269Y-92866432D01*
X135491466Y-92877912D01*
X135491466Y-92877913D01*
X135980591Y-93367037D01*
X135917007Y-93384075D01*
X135802993Y-93449901D01*
X135709901Y-93542993D01*
X135644075Y-93657007D01*
X135627037Y-93720590D01*
X135137913Y-93231466D01*
X135134229Y-93231756D01*
X135065852Y-93217392D01*
X135016095Y-93168340D01*
X135000500Y-93108138D01*
X135000500Y-92121886D01*
X135020185Y-92054847D01*
X135072989Y-92009092D01*
X135142147Y-91999148D01*
X135205703Y-92028173D01*
G37*
%TD.AperFunction*%
%TA.AperFunction,Conductor*%
G36*
X154961917Y-92032959D02*
G01*
X154996277Y-92093796D01*
X154999500Y-92121886D01*
X154999500Y-93108138D01*
X154979815Y-93175177D01*
X154927011Y-93220932D01*
X154865773Y-93231756D01*
X154862086Y-93231465D01*
X154372962Y-93720589D01*
X154355925Y-93657007D01*
X154290099Y-93542993D01*
X154197007Y-93449901D01*
X154082993Y-93384075D01*
X154019409Y-93367037D01*
X154508533Y-92877913D01*
X154492730Y-92866431D01*
X154331447Y-92784252D01*
X154331444Y-92784251D01*
X154159293Y-92728317D01*
X153997720Y-92702726D01*
X153934585Y-92672797D01*
X153897654Y-92613485D01*
X153898652Y-92543623D01*
X153937262Y-92485390D01*
X153997720Y-92457780D01*
X154012270Y-92455475D01*
X154159409Y-92432171D01*
X154331639Y-92376211D01*
X154492994Y-92293996D01*
X154639501Y-92187553D01*
X154767553Y-92059501D01*
X154775180Y-92049003D01*
X154830508Y-92006336D01*
X154900121Y-92000355D01*
X154961917Y-92032959D01*
G37*
%TD.AperFunction*%
%TA.AperFunction,Conductor*%
G36*
X140452976Y-86878776D02*
G01*
X140508909Y-86920648D01*
X140533326Y-86986112D01*
X140533642Y-86994958D01*
X140533642Y-88448603D01*
X140513957Y-88515642D01*
X140497323Y-88536284D01*
X139827758Y-89205848D01*
X139827756Y-89205851D01*
X139775027Y-89297177D01*
X139760820Y-89350205D01*
X139747736Y-89399035D01*
X139747736Y-89399037D01*
X139747736Y-89996923D01*
X139747736Y-90102377D01*
X139759435Y-90146038D01*
X139775029Y-90204239D01*
X139797863Y-90243787D01*
X139827756Y-90295563D01*
X139827758Y-90295565D01*
X140719722Y-91187529D01*
X140730334Y-91206965D01*
X140744835Y-91223699D01*
X140746751Y-91237030D01*
X140753207Y-91248852D01*
X140751627Y-91270938D01*
X140754779Y-91292857D01*
X140749183Y-91305108D01*
X140748223Y-91318544D01*
X140734952Y-91336270D01*
X140725754Y-91356413D01*
X140714422Y-91363695D01*
X140706351Y-91374477D01*
X140685605Y-91382214D01*
X140666976Y-91394187D01*
X140645057Y-91397338D01*
X140640887Y-91398894D01*
X140632041Y-91399210D01*
X140506964Y-91399210D01*
X140439925Y-91379525D01*
X140419283Y-91362891D01*
X137697819Y-88641426D01*
X137664334Y-88580103D01*
X137661500Y-88553745D01*
X137661500Y-87030099D01*
X137681185Y-86963060D01*
X137733989Y-86917305D01*
X137803147Y-86907361D01*
X137866703Y-86936386D01*
X137873181Y-86942418D01*
X137911283Y-86980520D01*
X137911285Y-86980521D01*
X137911289Y-86980524D01*
X138017573Y-87041886D01*
X138048215Y-87059577D01*
X138200942Y-87100500D01*
X138200944Y-87100500D01*
X138359054Y-87100500D01*
X138359056Y-87100500D01*
X138511783Y-87059577D01*
X138562841Y-87030099D01*
X138618000Y-86998254D01*
X138685900Y-86981781D01*
X138741998Y-86998254D01*
X138817573Y-87041886D01*
X138848215Y-87059577D01*
X139000942Y-87100500D01*
X139000944Y-87100500D01*
X139159054Y-87100500D01*
X139159056Y-87100500D01*
X139311783Y-87059577D01*
X139418003Y-86998251D01*
X139485900Y-86981779D01*
X139541997Y-86998251D01*
X139648218Y-87059577D01*
X139800945Y-87100500D01*
X139800947Y-87100500D01*
X139959057Y-87100500D01*
X139959059Y-87100500D01*
X140111786Y-87059577D01*
X140248718Y-86980520D01*
X140321961Y-86907277D01*
X140383284Y-86873792D01*
X140452976Y-86878776D01*
G37*
%TD.AperFunction*%
%TA.AperFunction,Conductor*%
G36*
X152188834Y-78611444D02*
G01*
X152244767Y-78653316D01*
X152269184Y-78718780D01*
X152269500Y-78727626D01*
X152269500Y-87438480D01*
X152249815Y-87505519D01*
X152233181Y-87526161D01*
X150496855Y-89262486D01*
X150435532Y-89295971D01*
X150365840Y-89290987D01*
X150309907Y-89249115D01*
X150300991Y-89233456D01*
X150300515Y-89233732D01*
X150217398Y-89089768D01*
X150217392Y-89089760D01*
X150105591Y-88977959D01*
X150105583Y-88977953D01*
X149968664Y-88898904D01*
X149968660Y-88898902D01*
X149968658Y-88898901D01*
X149815931Y-88857978D01*
X149815930Y-88857978D01*
X149754128Y-88857978D01*
X149687089Y-88838293D01*
X149666447Y-88821659D01*
X148956819Y-88112030D01*
X148923334Y-88050707D01*
X148920500Y-88024349D01*
X148920500Y-81547255D01*
X148940185Y-81480216D01*
X148956819Y-81459574D01*
X151579575Y-78836818D01*
X151640898Y-78803333D01*
X151667256Y-78800499D01*
X151727584Y-78800499D01*
X151727586Y-78800499D01*
X151880313Y-78759576D01*
X152017245Y-78680519D01*
X152057819Y-78639945D01*
X152119142Y-78606460D01*
X152188834Y-78611444D01*
G37*
%TD.AperFunction*%
%TA.AperFunction,Conductor*%
G36*
X136656828Y-67013221D02*
G01*
X137863972Y-68220365D01*
X137897457Y-68281688D01*
X137892473Y-68351380D01*
X137850601Y-68407313D01*
X137838297Y-68415429D01*
X137831293Y-68419473D01*
X137831282Y-68419481D01*
X137719481Y-68531282D01*
X137719475Y-68531290D01*
X137640426Y-68668209D01*
X137640423Y-68668216D01*
X137599500Y-68820943D01*
X137599500Y-68979057D01*
X137640390Y-69131658D01*
X137640423Y-69131783D01*
X137640426Y-69131790D01*
X137719475Y-69268709D01*
X137719479Y-69268714D01*
X137719480Y-69268716D01*
X137831284Y-69380520D01*
X137831286Y-69380521D01*
X137831290Y-69380524D01*
X137939008Y-69442714D01*
X137968216Y-69459577D01*
X138120943Y-69500500D01*
X138182745Y-69500500D01*
X138249784Y-69520185D01*
X138270426Y-69536819D01*
X141413181Y-72679573D01*
X141446666Y-72740896D01*
X141449500Y-72767254D01*
X141449500Y-85928666D01*
X141429815Y-85995705D01*
X141377011Y-86041460D01*
X141307853Y-86051404D01*
X141293407Y-86048441D01*
X141222299Y-86029388D01*
X141204057Y-86024500D01*
X141045943Y-86024500D01*
X140893216Y-86065423D01*
X140893209Y-86065426D01*
X140756290Y-86144475D01*
X140756282Y-86144481D01*
X140644481Y-86256282D01*
X140639530Y-86262735D01*
X140637851Y-86261446D01*
X140595384Y-86301925D01*
X140526775Y-86315135D01*
X140461915Y-86289156D01*
X140431199Y-86253701D01*
X140360522Y-86131284D01*
X140248718Y-86019480D01*
X140248716Y-86019479D01*
X140248711Y-86019475D01*
X140111792Y-85940426D01*
X140111788Y-85940424D01*
X140111786Y-85940423D01*
X139959059Y-85899500D01*
X139959058Y-85899500D01*
X139953558Y-85898776D01*
X139889662Y-85870508D01*
X139882065Y-85863518D01*
X138900819Y-84882271D01*
X138867334Y-84820948D01*
X138864500Y-84794590D01*
X138864500Y-73406729D01*
X138864501Y-73406716D01*
X138864501Y-73291274D01*
X138864501Y-73291273D01*
X138837207Y-73189413D01*
X138802616Y-73129500D01*
X138784480Y-73098087D01*
X138709913Y-73023520D01*
X138709910Y-73023518D01*
X137961300Y-72274908D01*
X137215674Y-71529281D01*
X137182189Y-71467958D01*
X137185423Y-71403284D01*
X137232171Y-71259409D01*
X137260500Y-71080551D01*
X137260500Y-70899448D01*
X137244019Y-70795397D01*
X137232171Y-70720591D01*
X137176211Y-70548361D01*
X137176211Y-70548360D01*
X137145201Y-70487500D01*
X137093996Y-70387006D01*
X137031401Y-70300851D01*
X136987558Y-70240505D01*
X136987554Y-70240500D01*
X136859499Y-70112445D01*
X136859494Y-70112441D01*
X136712997Y-70006006D01*
X136712996Y-70006005D01*
X136712994Y-70006004D01*
X136661300Y-69979664D01*
X136551639Y-69923788D01*
X136551636Y-69923787D01*
X136379410Y-69867828D01*
X136217720Y-69842219D01*
X136154585Y-69812289D01*
X136117654Y-69752978D01*
X136118652Y-69683115D01*
X136157262Y-69624883D01*
X136217721Y-69597273D01*
X136379292Y-69571683D01*
X136551444Y-69515748D01*
X136551452Y-69515745D01*
X136712730Y-69433568D01*
X136728532Y-69422085D01*
X136728533Y-69422085D01*
X136239410Y-68932962D01*
X136302993Y-68915925D01*
X136417007Y-68850099D01*
X136510099Y-68757007D01*
X136575925Y-68642993D01*
X136592962Y-68579410D01*
X137082085Y-69068533D01*
X137082085Y-69068532D01*
X137093568Y-69052730D01*
X137175745Y-68891452D01*
X137175748Y-68891444D01*
X137231682Y-68719293D01*
X137260000Y-68540506D01*
X137260000Y-68359493D01*
X137231682Y-68180706D01*
X137175748Y-68008555D01*
X137175747Y-68008552D01*
X137093571Y-67847275D01*
X137093566Y-67847267D01*
X137082085Y-67831466D01*
X136592962Y-68320589D01*
X136575925Y-68257007D01*
X136510099Y-68142993D01*
X136417007Y-68049901D01*
X136302993Y-67984075D01*
X136239409Y-67967037D01*
X136728533Y-67477913D01*
X136712730Y-67466431D01*
X136551447Y-67384252D01*
X136551444Y-67384251D01*
X136379293Y-67328317D01*
X136217720Y-67302726D01*
X136154585Y-67272797D01*
X136117654Y-67213485D01*
X136118652Y-67143623D01*
X136157262Y-67085390D01*
X136217720Y-67057780D01*
X136251361Y-67052451D01*
X136379409Y-67032171D01*
X136530834Y-66982970D01*
X136600669Y-66980976D01*
X136656828Y-67013221D01*
G37*
%TD.AperFunction*%
%TA.AperFunction,Conductor*%
G36*
X154862084Y-81768532D02*
G01*
X154865772Y-81768242D01*
X154934149Y-81782606D01*
X154983905Y-81831658D01*
X154999500Y-81891860D01*
X154999500Y-82878113D01*
X154979815Y-82945152D01*
X154927011Y-82990907D01*
X154857853Y-83000851D01*
X154794297Y-82971826D01*
X154775182Y-82950998D01*
X154767558Y-82940505D01*
X154767554Y-82940500D01*
X154639499Y-82812445D01*
X154639494Y-82812441D01*
X154492997Y-82706006D01*
X154492996Y-82706005D01*
X154492994Y-82706004D01*
X154437649Y-82677804D01*
X154331639Y-82623788D01*
X154331636Y-82623787D01*
X154159410Y-82567828D01*
X153997720Y-82542219D01*
X153934585Y-82512289D01*
X153897654Y-82452978D01*
X153898652Y-82383115D01*
X153937262Y-82324883D01*
X153997721Y-82297273D01*
X154159292Y-82271683D01*
X154331444Y-82215748D01*
X154331452Y-82215745D01*
X154492730Y-82133568D01*
X154508532Y-82122085D01*
X154019409Y-81632962D01*
X154082993Y-81615925D01*
X154197007Y-81550099D01*
X154290099Y-81457007D01*
X154355925Y-81342993D01*
X154372962Y-81279410D01*
X154862084Y-81768532D01*
G37*
%TD.AperFunction*%
%TA.AperFunction,Conductor*%
G36*
X135644075Y-81342993D02*
G01*
X135709901Y-81457007D01*
X135802993Y-81550099D01*
X135917007Y-81615925D01*
X135980589Y-81632962D01*
X135491466Y-82122085D01*
X135491466Y-82122086D01*
X135507267Y-82133566D01*
X135507275Y-82133571D01*
X135668552Y-82215747D01*
X135668555Y-82215748D01*
X135840706Y-82271682D01*
X136002279Y-82297273D01*
X136065413Y-82327202D01*
X136102345Y-82386513D01*
X136101347Y-82456376D01*
X136062738Y-82514609D01*
X136002280Y-82542219D01*
X135840589Y-82567829D01*
X135668363Y-82623787D01*
X135668360Y-82623788D01*
X135507002Y-82706006D01*
X135360505Y-82812441D01*
X135360500Y-82812445D01*
X135232445Y-82940500D01*
X135232441Y-82940505D01*
X135224818Y-82950998D01*
X135169488Y-82993664D01*
X135099875Y-82999643D01*
X135038080Y-82967037D01*
X135003723Y-82906199D01*
X135000500Y-82878113D01*
X135000500Y-81891861D01*
X135020185Y-81824822D01*
X135072989Y-81779067D01*
X135134229Y-81768243D01*
X135137913Y-81768533D01*
X135627037Y-81279409D01*
X135644075Y-81342993D01*
G37*
%TD.AperFunction*%
%TA.AperFunction,Conductor*%
G36*
X135138525Y-79299668D02*
G01*
X135142147Y-79299148D01*
X135170838Y-79312250D01*
X135200224Y-79323693D01*
X135203679Y-79327248D01*
X135205703Y-79328173D01*
X135224821Y-79349004D01*
X135232446Y-79359500D01*
X135360500Y-79487554D01*
X135360505Y-79487558D01*
X135464716Y-79563271D01*
X135507006Y-79593996D01*
X135612484Y-79647740D01*
X135668360Y-79676211D01*
X135668363Y-79676212D01*
X135754476Y-79704191D01*
X135840591Y-79732171D01*
X135960038Y-79751089D01*
X136002279Y-79757780D01*
X136065414Y-79787709D01*
X136102345Y-79847021D01*
X136101347Y-79916883D01*
X136062737Y-79975116D01*
X136002279Y-80002726D01*
X135840706Y-80028317D01*
X135668555Y-80084251D01*
X135668547Y-80084254D01*
X135507269Y-80166432D01*
X135491466Y-80177912D01*
X135491466Y-80177913D01*
X135980590Y-80667037D01*
X135917007Y-80684075D01*
X135802993Y-80749901D01*
X135709901Y-80842993D01*
X135644075Y-80957007D01*
X135627037Y-81020590D01*
X135137913Y-80531466D01*
X135134229Y-80531756D01*
X135065852Y-80517392D01*
X135016095Y-80468340D01*
X135000500Y-80408138D01*
X135000500Y-79421886D01*
X135009383Y-79391633D01*
X135016529Y-79360908D01*
X135019154Y-79358356D01*
X135020185Y-79354847D01*
X135044010Y-79334202D01*
X135066637Y-79312214D01*
X135070224Y-79311487D01*
X135072989Y-79309092D01*
X135104196Y-79304604D01*
X135135115Y-79298341D01*
X135138525Y-79299668D01*
G37*
%TD.AperFunction*%
%TA.AperFunction,Conductor*%
G36*
X154961917Y-79332959D02*
G01*
X154996277Y-79393796D01*
X154999500Y-79421886D01*
X154999500Y-80408138D01*
X154979815Y-80475177D01*
X154927011Y-80520932D01*
X154865773Y-80531756D01*
X154862086Y-80531465D01*
X154372962Y-81020589D01*
X154355925Y-80957007D01*
X154290099Y-80842993D01*
X154197007Y-80749901D01*
X154082993Y-80684075D01*
X154019408Y-80667037D01*
X154508533Y-80177913D01*
X154492730Y-80166431D01*
X154331447Y-80084252D01*
X154331444Y-80084251D01*
X154159293Y-80028317D01*
X153997720Y-80002726D01*
X153934585Y-79972797D01*
X153897654Y-79913485D01*
X153898652Y-79843623D01*
X153937262Y-79785390D01*
X153997720Y-79757780D01*
X154012270Y-79755475D01*
X154159409Y-79732171D01*
X154331639Y-79676211D01*
X154492994Y-79593996D01*
X154639501Y-79487553D01*
X154767553Y-79359501D01*
X154775180Y-79349003D01*
X154830508Y-79306336D01*
X154900121Y-79300355D01*
X154961917Y-79332959D01*
G37*
%TD.AperFunction*%
%TA.AperFunction,Conductor*%
G36*
X154862084Y-69068532D02*
G01*
X154865772Y-69068242D01*
X154934149Y-69082606D01*
X154983905Y-69131658D01*
X154999500Y-69191860D01*
X154999500Y-70178113D01*
X154979815Y-70245152D01*
X154927011Y-70290907D01*
X154857853Y-70300851D01*
X154794297Y-70271826D01*
X154775182Y-70250998D01*
X154767558Y-70240505D01*
X154767554Y-70240500D01*
X154639499Y-70112445D01*
X154639494Y-70112441D01*
X154492997Y-70006006D01*
X154492996Y-70006005D01*
X154492994Y-70006004D01*
X154441300Y-69979664D01*
X154331639Y-69923788D01*
X154331636Y-69923787D01*
X154159410Y-69867828D01*
X153997720Y-69842219D01*
X153934585Y-69812289D01*
X153897654Y-69752978D01*
X153898652Y-69683115D01*
X153937262Y-69624883D01*
X153997721Y-69597273D01*
X154159292Y-69571683D01*
X154331444Y-69515748D01*
X154331452Y-69515745D01*
X154492730Y-69433568D01*
X154508532Y-69422085D01*
X154508533Y-69422085D01*
X154019410Y-68932962D01*
X154082993Y-68915925D01*
X154197007Y-68850099D01*
X154290099Y-68757007D01*
X154355925Y-68642993D01*
X154372962Y-68579410D01*
X154862084Y-69068532D01*
G37*
%TD.AperFunction*%
%TA.AperFunction,Conductor*%
G36*
X135644075Y-68642993D02*
G01*
X135709901Y-68757007D01*
X135802993Y-68850099D01*
X135917007Y-68915925D01*
X135980590Y-68932962D01*
X135491466Y-69422085D01*
X135491466Y-69422086D01*
X135507267Y-69433566D01*
X135507275Y-69433571D01*
X135668552Y-69515747D01*
X135668555Y-69515748D01*
X135840706Y-69571682D01*
X136002279Y-69597273D01*
X136065413Y-69627202D01*
X136102345Y-69686513D01*
X136101347Y-69756376D01*
X136062738Y-69814609D01*
X136002280Y-69842219D01*
X135840589Y-69867829D01*
X135668363Y-69923787D01*
X135668360Y-69923788D01*
X135507002Y-70006006D01*
X135360505Y-70112441D01*
X135360500Y-70112445D01*
X135232445Y-70240500D01*
X135232441Y-70240505D01*
X135224818Y-70250998D01*
X135169488Y-70293664D01*
X135099875Y-70299643D01*
X135038080Y-70267037D01*
X135003723Y-70206199D01*
X135000500Y-70178113D01*
X135000500Y-69191861D01*
X135020185Y-69124822D01*
X135072989Y-69079067D01*
X135134229Y-69068243D01*
X135137913Y-69068533D01*
X135627037Y-68579409D01*
X135644075Y-68642993D01*
G37*
%TD.AperFunction*%
%TA.AperFunction,Conductor*%
G36*
X135138525Y-66599668D02*
G01*
X135142147Y-66599148D01*
X135170838Y-66612250D01*
X135200224Y-66623693D01*
X135203679Y-66627248D01*
X135205703Y-66628173D01*
X135224821Y-66649004D01*
X135232446Y-66659500D01*
X135360500Y-66787554D01*
X135360505Y-66787558D01*
X135481485Y-66875454D01*
X135507006Y-66893996D01*
X135612484Y-66947740D01*
X135668360Y-66976211D01*
X135668363Y-66976212D01*
X135731316Y-66996666D01*
X135840591Y-67032171D01*
X135960038Y-67051089D01*
X136002279Y-67057780D01*
X136065414Y-67087709D01*
X136102345Y-67147021D01*
X136101347Y-67216883D01*
X136062737Y-67275116D01*
X136002279Y-67302726D01*
X135840706Y-67328317D01*
X135668555Y-67384251D01*
X135668547Y-67384254D01*
X135507269Y-67466432D01*
X135491466Y-67477912D01*
X135491466Y-67477913D01*
X135980591Y-67967037D01*
X135917007Y-67984075D01*
X135802993Y-68049901D01*
X135709901Y-68142993D01*
X135644075Y-68257007D01*
X135627037Y-68320590D01*
X135137913Y-67831466D01*
X135134229Y-67831756D01*
X135065852Y-67817392D01*
X135016095Y-67768340D01*
X135000500Y-67708138D01*
X135000500Y-66721886D01*
X135009383Y-66691633D01*
X135016529Y-66660908D01*
X135019154Y-66658356D01*
X135020185Y-66654847D01*
X135044010Y-66634202D01*
X135066637Y-66612214D01*
X135070224Y-66611487D01*
X135072989Y-66609092D01*
X135104196Y-66604604D01*
X135135115Y-66598341D01*
X135138525Y-66599668D01*
G37*
%TD.AperFunction*%
%TA.AperFunction,Conductor*%
G36*
X153476716Y-66985424D02*
G01*
X153620591Y-67032171D01*
X153740038Y-67051089D01*
X153782279Y-67057780D01*
X153845414Y-67087709D01*
X153882345Y-67147021D01*
X153881347Y-67216883D01*
X153842737Y-67275116D01*
X153782279Y-67302726D01*
X153620706Y-67328317D01*
X153448555Y-67384251D01*
X153448547Y-67384254D01*
X153287269Y-67466432D01*
X153271466Y-67477912D01*
X153271466Y-67477913D01*
X153760591Y-67967037D01*
X153697007Y-67984075D01*
X153582993Y-68049901D01*
X153489901Y-68142993D01*
X153424075Y-68257007D01*
X153407037Y-68320590D01*
X152913067Y-67826620D01*
X152862790Y-67816059D01*
X152813033Y-67767008D01*
X152797694Y-67698842D01*
X152799620Y-67687136D01*
X152799439Y-67687113D01*
X152800500Y-67679055D01*
X152800500Y-67617254D01*
X152820185Y-67550215D01*
X152836815Y-67529577D01*
X153350719Y-67015672D01*
X153412040Y-66982189D01*
X153476716Y-66985424D01*
G37*
%TD.AperFunction*%
%TA.AperFunction,Conductor*%
G36*
X154961917Y-66632959D02*
G01*
X154996277Y-66693796D01*
X154999500Y-66721886D01*
X154999500Y-67708138D01*
X154979815Y-67775177D01*
X154927011Y-67820932D01*
X154865773Y-67831756D01*
X154862086Y-67831465D01*
X154372962Y-68320589D01*
X154355925Y-68257007D01*
X154290099Y-68142993D01*
X154197007Y-68049901D01*
X154082993Y-67984075D01*
X154019409Y-67967037D01*
X154508533Y-67477913D01*
X154492730Y-67466431D01*
X154331447Y-67384252D01*
X154331444Y-67384251D01*
X154159293Y-67328317D01*
X153997720Y-67302726D01*
X153934585Y-67272797D01*
X153897654Y-67213485D01*
X153898652Y-67143623D01*
X153937262Y-67085390D01*
X153997720Y-67057780D01*
X154012270Y-67055475D01*
X154159409Y-67032171D01*
X154331639Y-66976211D01*
X154492994Y-66893996D01*
X154639501Y-66787553D01*
X154767553Y-66659501D01*
X154775180Y-66649003D01*
X154830508Y-66606336D01*
X154900121Y-66600355D01*
X154961917Y-66632959D01*
G37*
%TD.AperFunction*%
%TD*%
M02*
