M48
; DRILL file {KiCad 9.0.6} date 2025-12-31T01:02:33-0600
; FORMAT={-:-/ absolute / metric / decimal}
; #@! TF.CreationDate,2025-12-31T01:02:33-06:00
; #@! TF.GenerationSoftware,Kicad,Pcbnew,9.0.6
; #@! TF.FileFunction,Plated,1,2,PTH
FMAT,2
METRIC
; #@! TA.AperFunction,Plated,PTH,ViaDrill
T1C0.300
; #@! TA.AperFunction,Plated,PTH,ComponentDrill
T2C0.600
; #@! TA.AperFunction,Plated,PTH,ComponentDrill
T3C1.000
%
G90
G05
T1
X137.52Y-69.87
X138.021Y-91.529
X138.05Y-92.401
X138.1Y-108.2
X138.2Y-68.9
X138.28Y-86.5
X138.54Y-63.45
X139.08Y-86.5
X139.706Y-83.914
X139.712Y-81.37
X139.77Y-87.855
X139.85Y-101.0
X139.88Y-86.5
X140.749Y-89.801
X140.96Y-75.53
X141.0Y-105.9
X141.125Y-86.625
X141.7Y-97.671
X141.8Y-102.0
X142.376Y-93.401
X142.385Y-90.213
X142.483Y-92.386
X143.0Y-91.0
X143.11Y-93.77
X143.201Y-94.624
X143.206Y-102.706
X143.5Y-89.75
X143.78Y-81.37
X143.788Y-83.91
X144.38Y-78.16
X144.41Y-71.27
X144.675Y-74.22
X145.0Y-105.85
X145.0Y-108.8
X145.03Y-63.45
X145.384Y-87.766
X145.5Y-90.0
X145.67Y-94.297
X146.41Y-71.27
X146.5Y-99.5
X146.5Y-100.25
X146.71Y-74.65
X146.83Y-94.19
X146.955Y-85.223
X146.96Y-82.22
X147.1Y-90.5
X147.25Y-99.5
X147.3Y-89.52
X147.624Y-91.4
X147.625Y-92.6
X147.786Y-77.466
X148.111Y-99.5
X148.224Y-78.724
X148.47Y-107.61
X148.74Y-101.91
X149.001Y-77.011
X149.09Y-78.8
X149.24Y-84.26
X149.737Y-89.458
X150.326Y-90.0
X150.341Y-77.548
X150.599Y-76.411
X151.22Y-63.45
X151.434Y-94.434
X151.649Y-78.2
X152.0Y-95.0
X152.033Y-83.01
X152.2Y-67.6
X152.566Y-95.566
X152.8Y-74.77
T3
X136.11Y-63.37
X136.11Y-65.91
X136.11Y-68.45
X136.11Y-70.99
X136.11Y-73.53
X136.11Y-76.07
X136.11Y-78.61
X136.11Y-81.15
X136.11Y-83.69
X136.11Y-86.23
X136.11Y-88.77
X136.11Y-91.31
X136.11Y-93.85
X136.11Y-96.39
X136.11Y-98.93
X136.11Y-101.47
X136.11Y-104.01
X136.11Y-106.55
X136.11Y-109.09
X136.11Y-111.63
X142.46Y-111.39
X145.0Y-111.39
X147.54Y-111.39
X153.89Y-63.37
X153.89Y-65.91
X153.89Y-68.45
X153.89Y-70.99
X153.89Y-73.53
X153.89Y-76.07
X153.89Y-78.61
X153.89Y-81.15
X153.89Y-83.69
X153.89Y-86.23
X153.89Y-88.77
X153.89Y-91.31
X153.89Y-93.85
X153.89Y-96.39
X153.89Y-98.93
X153.89Y-101.47
X153.89Y-104.01
X153.89Y-106.55
X153.89Y-109.09
X153.89Y-111.63
T2
G00X140.68Y-63.75
M15
G01X140.68Y-63.15
M16
G05
G00X140.68Y-68.18
M15
G01X140.68Y-67.08
M16
G05
G00X149.32Y-63.75
M15
G01X149.32Y-63.15
M16
G05
G00X149.32Y-68.18
M15
G01X149.32Y-67.08
M16
G05
M30
