%TF.GenerationSoftware,KiCad,Pcbnew,9.0.6*%
%TF.CreationDate,2025-12-31T01:01:46-06:00*%
%TF.ProjectId,fudgeboard,66756467-6562-46f6-9172-642e6b696361,rev?*%
%TF.SameCoordinates,Original*%
%TF.FileFunction,Soldermask,Bot*%
%TF.FilePolarity,Negative*%
%FSLAX46Y46*%
G04 Gerber Fmt 4.6, Leading zero omitted, Abs format (unit mm)*
G04 Created by KiCad (PCBNEW 9.0.6) date 2025-12-31 01:01:46*
%MOMM*%
%LPD*%
G01*
G04 APERTURE LIST*
%ADD10R,1.700000X1.700000*%
%ADD11C,1.700000*%
%ADD12C,0.650000*%
%ADD13O,1.000000X2.100000*%
%ADD14O,1.000000X1.600000*%
%ADD15R,2.500000X2.500000*%
G04 APERTURE END LIST*
D10*
%TO.C,J2*%
X153890000Y-63370000D03*
D11*
X153890000Y-65910000D03*
X153890000Y-68450000D03*
X153890000Y-70990000D03*
X153890000Y-73530000D03*
X153890000Y-76070000D03*
X153890000Y-78610000D03*
X153890000Y-81150000D03*
X153890000Y-83690000D03*
X153890000Y-86230000D03*
X153890000Y-88770000D03*
X153890000Y-91310000D03*
X153890000Y-93850000D03*
X153890000Y-96390000D03*
X153890000Y-98930000D03*
X153890000Y-101470000D03*
X153890000Y-104010000D03*
X153890000Y-106550000D03*
X153890000Y-109090000D03*
X153890000Y-111630000D03*
%TD*%
D12*
%TO.C,J1*%
X147890000Y-67100000D03*
X142110000Y-67100000D03*
D13*
X149320000Y-67630000D03*
D14*
X149320000Y-63450000D03*
D13*
X140680000Y-67630000D03*
D14*
X140680000Y-63450000D03*
%TD*%
D10*
%TO.C,J4*%
X142460000Y-111390000D03*
D11*
X145000000Y-111390000D03*
X147540000Y-111390000D03*
%TD*%
D10*
%TO.C,J3*%
X136110000Y-63370000D03*
D11*
X136110000Y-65910000D03*
X136110000Y-68450000D03*
X136110000Y-70990000D03*
X136110000Y-73530000D03*
X136110000Y-76070000D03*
X136110000Y-78610000D03*
X136110000Y-81150000D03*
X136110000Y-83690000D03*
X136110000Y-86230000D03*
X136110000Y-88770000D03*
X136110000Y-91310000D03*
X136110000Y-93850000D03*
X136110000Y-96390000D03*
X136110000Y-98930000D03*
X136110000Y-101470000D03*
X136110000Y-104010000D03*
X136110000Y-106550000D03*
X136110000Y-109090000D03*
X136110000Y-111630000D03*
%TD*%
D15*
%TO.C,TP2*%
X149150000Y-70737500D03*
%TD*%
%TO.C,TP1*%
X149150000Y-74637500D03*
%TD*%
M02*
